<?xml version="1.0" encoding="UTF-8"?>
<COLLADA xmlns="http://www.collada.org/2005/11/COLLADASchema" version="1.4.1">
<!--
# File generated by ImageToStl.com - Free Image and 3D model conversion tools
-->
  <asset>
    <contributor>
      <author>ImageToStl.com</author>
      <authoring_tool>ImageToStl.com</authoring_tool>
    </contributor>
    <created>2026-03-07T04:19:02</created>
    <modified>2026-03-07T04:19:02</modified>
    <up_axis>Z_UP</up_axis>
  </asset>
  <library_effects>
    <effect id="effect_0">
        <profile_COMMON>
          <technique sid="common">
            <phong>
              <diffuse>
                <color>0.62745 0.62745 0.62745 1</color>
              </diffuse>
            </phong>
          </technique>
        </profile_COMMON>
    </effect>
    <effect id="effect_1">
        <profile_COMMON>
          <technique sid="common">
            <phong>
              <diffuse>
                <color>0.65882 0.65882 0.65882 1</color>
              </diffuse>
            </phong>
          </technique>
        </profile_COMMON>
    </effect>
  </library_effects>
  <library_materials>
    <material id="mat_0">
      <instance_effect url="#effect_0"/>
    </material>
    <material id="mat_1">
      <instance_effect url="#effect_1"/>
    </material>
  </library_materials>
  <library_geometries>
    <geometry id="geometry_20876951_f537_4b0f_a6dc_f0db3859a5a6">
      <mesh>
        <source id="pos_0">
          <float_array id="pos_0-array" count="1353">-45.70193863 0 2.99546337 -50.70173264 5 3.15821767 -45.79999924 0 0 -50.79999924 5 -0 -50.70173264 5 -3.15821767 -50.40731049 5 6.30421686 -45.40817642 0 5.97809982 -49.91786957 5 9.42582607 -44.91996765 0 8.9351368 -49.2353096 5 12.51096821 -44.23940277 0 11.85391235 -48.36226654 5 15.54770851 -43.36940002 0 14.72192764 -47.30212021 5 18.52429771 -42.31368256 0 17.52690125 -46.05896759 5 21.4292202 -41.07677078 0 20.25682259 -44.63762283 5 24.25123596 -39.66396332 0 22.89999962 -43.04358673 5 26.97942924 -38.08130646 0 25.44511604 -41.28302383 5 29.60324478 -36.33558273 0 27.88127327 -39.36273956 5 32.11252975 -34.43426132 0 30.1980381 -37.29017258 5 34.49757767 -32.38549042 0 32.38549042 -35.07333755 5 36.74916458 -30.1980381 0 34.43426132 -32.72080994 5 38.85857391 -27.88127327 0 36.33558273 -30.24168968 5 40.81764603 -25.44511604 0 38.08130646 -27.64557266 5 42.61880112 -22.89999962 0 39.66396332 -24.94249916 5 44.25507736 -20.25682259 0 41.07677078 -22.14292908 5 45.72013474 -17.52690125 0 42.31368256 -19.25769043 5 47.00831223 -14.72192764 0 43.36940002 -16.29794884 5 48.11462021 -13.27515411 5 49.03478622 -11.85391235 0 44.23940277 -10.20099926 5 49.76524353 -8.9351368 0 44.91996765 -7.08737946 5 50.30317307 -5.97809982 0 45.40817642 -3.94633937 5 50.64648438 -2.99546337 0 45.70193863 -0.79003203 5 50.79385757 0 0 45.79999924 2.36933184 5 50.74471664 2.99546337 0 45.70193863 5.51952934 5 50.49925613 5.97809982 0 45.40817642 8.64837265 5 50.05842209 8.9351368 0 44.91996765 11.74375725 5 49.42392349 11.85391235 0 44.23940277 14.79370785 5 48.5982132 14.72192764 0 43.36940002 17.78642273 5 47.5844841 17.52690125 0 42.31368256 20.71032715 5 46.38666153 20.25682259 0 41.07677078 23.55410767 5 45.00937653 22.89999962 0 39.66396332 26.30676079 5 43.45796204 25.44511604 0 38.08130646 28.95763779 5 41.73841476 27.88127327 0 36.33558273 31.49648476 5 39.85738754 30.1980381 0 34.43426132 33.91347885 5 37.82216263 32.38549042 0 32.38549042 36.19926453 5 35.64060974 34.43426132 0 30.1980381 38.34500504 5 33.32117462 36.33558273 0 27.88127327 40.34239578 5 30.87282181 42.18370819 5 28.30502892 38.08130646 0 25.44511604 43.86182404 5 25.62772942 39.66396332 0 22.89999962 45.37024307 5 22.85128212 41.07677078 0 20.25682259 46.70313263 5 19.98642731 42.31368256 0 17.52690125 47.85533905 5 17.04424858 43.36940002 0 14.72192764 48.82240295 5 14.03612804 44.23940277 0 11.85391235 49.60058212 5 10.97370529 44.91996765 0 8.9351368 50.18686676 5 7.86882734 45.40817642 0 5.97809982 50.57898712 5 4.73350668 45.70193863 0 2.99546337 50.77542877 5 1.57987297 45.79999924 0 0 50.77542877 5 -1.57987297 45.70193863 0 -2.99546337 50.57898712 5 -4.73350668 45.40817642 0 -5.97809982 50.18686676 5 -7.86882734 44.91996765 0 -8.9351368 49.60058212 5 -10.97370529 44.23940277 0 -11.85391235 48.82240295 5 -14.03612804 43.36940002 0 -14.72192764 47.85533905 5 -17.04424858 42.31368256 0 -17.52690125 46.70313263 5 -19.98642731 41.07677078 0 -20.25682259 45.37024307 5 -22.85128212 39.66396332 0 -22.89999962 43.86182404 5 -25.62772942 38.08130646 0 -25.44511604 42.18370819 5 -28.30502892 36.33558273 0 -27.88127327 40.34239578 5 -30.87282181 38.34500504 5 -33.32117462 34.43426132 0 -30.1980381 36.19926453 5 -35.64060974 32.38549042 0 -32.38549042 33.91347885 5 -37.82216263 30.1980381 0 -34.43426132 31.49648476 5 -39.85738754 27.88127327 0 -36.33558273 28.95763779 5 -41.73841476 25.44511604 0 -38.08130646 26.30676079 5 -43.45796204 22.89999962 0 -39.66396332 23.55410767 5 -45.00937653 20.25682259 0 -41.07677078 20.71032715 5 -46.38666153 17.52690125 0 -42.31368256 17.78642273 5 -47.5844841 14.72192764 0 -43.36940002 14.79370785 5 -48.5982132 11.85391235 0 -44.23940277 11.74375725 5 -49.42392349 8.9351368 0 -44.91996765 8.64837265 5 -50.05842209 5.97809982 0 -45.40817642 5.51952934 5 -50.49925613 2.99546337 0 -45.70193863 2.36933184 5 -50.74471664 0 0 -45.79999924 -0.79003203 5 -50.79385757 -2.99546337 0 -45.70193863 -3.94633937 5 -50.64648438 -5.97809982 0 -45.40817642 -7.08737946 5 -50.30317307 -8.9351368 0 -44.91996765 -10.20099926 5 -49.76524353 -11.85391235 0 -44.23940277 -13.27515411 5 -49.03478622 -14.72192764 0 -43.36940002 -16.29794884 5 -48.11462021 -19.25769043 5 -47.00831223 -17.52690125 0 -42.31368256 -22.14292908 5 -45.72013474 -20.25682259 0 -41.07677078 -24.94249916 5 -44.25507736 -22.89999962 0 -39.66396332 -27.64557266 5 -42.61880112 -25.44511604 0 -38.08130646 -30.24168968 5 -40.81764603 -27.88127327 0 -36.33558273 -32.72080994 5 -38.85857391 -30.1980381 0 -34.43426132 -35.07333755 5 -36.74916458 -32.38549042 0 -32.38549042 -37.29017258 5 -34.49757767 -34.43426132 0 -30.1980381 -39.36273956 5 -32.11252975 -36.33558273 0 -27.88127327 -41.28302383 5 -29.60324478 -38.08130646 0 -25.44511604 -43.04358673 5 -26.97942924 -39.66396332 0 -22.89999962 -44.63762283 5 -24.25123596 -41.07677078 0 -20.25682259 -46.05896759 5 -21.4292202 -42.31368256 0 -17.52690125 -47.30212021 5 -18.52429771 -43.36940002 0 -14.72192764 -48.36226654 5 -15.54770851 -44.23940277 0 -11.85391235 -49.2353096 5 -12.51096821 -44.91996765 0 -8.9351368 -49.91786957 5 -9.42582607 -45.40817642 0 -5.97809982 -50.40731049 5 -6.30421686 -45.70193863 0 -2.99546337 -50.70173264 62.5 -3.15821767 -50.79999924 62.5 0 -50.70173264 62.5 3.15821767 -50.40731049 62.5 6.30421686 -49.91786957 62.5 9.42582607 -49.2353096 62.5 12.51096821 -48.36226654 62.5 15.54770851 -47.30212021 62.5 18.52429771 -46.05896759 62.5 21.4292202 -44.63762283 62.5 24.25123596 -43.04358673 62.5 26.97942924 -41.28302383 62.5 29.60324478 -39.36273956 62.5 32.11252975 -37.29017258 62.5 34.49757767 -35.07333755 62.5 36.74916458 -32.72080994 62.5 38.85857391 -30.24168968 62.5 40.81764603 -27.64557266 62.5 42.61880112 -24.94249916 62.5 44.25507736 -22.14292908 62.5 45.72013474 -19.25769043 62.5 47.00831223 -16.29794884 62.5 48.11462021 -13.27515411 62.5 49.03478622 -10.20099926 62.5 49.76524353 -7.08737946 62.5 50.30317307 -3.94633937 62.5 50.64648438 -0.79003203 62.5 50.79385757 2.36933184 62.5 50.74471664 5.51952934 62.5 50.49925613 8.64837265 62.5 50.05842209 11.74375725 62.5 49.42392349 14.79370785 62.5 48.5982132 17.78642273 62.5 47.5844841 20.71032715 62.5 46.38666153 23.55410767 62.5 45.00937653 26.30676079 62.5 43.45796204 28.95763779 62.5 41.73841476 31.49648476 62.5 39.85738754 33.91347885 62.5 37.82216263 36.19926453 62.5 35.64060974 38.34500504 62.5 33.32117462 40.34239578 62.5 30.87282181 42.18370819 62.5 28.30502892 43.86182404 62.5 25.62772942 45.37024307 62.5 22.85128212 46.70313263 62.5 19.98642731 47.85533905 62.5 17.04424858 48.82240295 62.5 14.03612804 49.60058212 62.5 10.97370529 50.18686676 62.5 7.86882734 50.57898712 62.5 4.73350668 50.77542877 62.5 1.57987297 50.77542877 62.5 -1.57987297 50.57898712 62.5 -4.73350668 50.18686676 62.5 -7.86882734 49.60058212 62.5 -10.97370529 48.82240295 62.5 -14.03612804 47.85533905 62.5 -17.04424858 46.70313263 62.5 -19.98642731 45.37024307 62.5 -22.85128212 43.86182404 62.5 -25.62772942 42.18370819 62.5 -28.30502892 40.34239578 62.5 -30.87282181 38.34500504 62.5 -33.32117462 36.19926453 62.5 -35.64060974 33.91347885 62.5 -37.82216263 31.49648476 62.5 -39.85738754 28.95763779 62.5 -41.73841476 26.30676079 62.5 -43.45796204 23.55410767 62.5 -45.00937653 20.71032715 62.5 -46.38666153 17.78642273 62.5 -47.5844841 14.79370785 62.5 -48.5982132 11.74375725 62.5 -49.42392349 8.64837265 62.5 -50.05842209 5.51952934 62.5 -50.49925613 2.36933184 62.5 -50.74471664 -0.79003203 62.5 -50.79385757 -3.94633937 62.5 -50.64648438 -7.08737946 62.5 -50.30317307 -10.20099926 62.5 -49.76524353 -13.27515411 62.5 -49.03478622 -16.29794884 62.5 -48.11462021 -19.25769043 62.5 -47.00831223 -22.14292908 62.5 -45.72013474 -24.94249916 62.5 -44.25507736 -27.64557266 62.5 -42.61880112 -30.24168968 62.5 -40.81764603 -32.72080994 62.5 -38.85857391 -35.07333755 62.5 -36.74916458 -37.29017258 62.5 -34.49757767 -39.36273956 62.5 -32.11252975 -41.28302383 62.5 -29.60324478 -43.04358673 62.5 -26.97942924 -44.63762283 62.5 -24.25123596 -46.05896759 62.5 -21.4292202 -47.30212021 62.5 -18.52429771 -48.36226654 62.5 -15.54770851 -49.2353096 62.5 -12.51096821 -49.91786957 62.5 -9.42582607 -50.40731049 62.5 -6.30421686 -12.60374069 0 1.56068134 -12.69999981 0 0 -12.31642151 0 3.09770417 -11.84239769 0 4.58776903 -11.18885517 0 6.00828838 -10.36570072 0 7.33772755 -9.38541317 0 8.55593491 -8.26285267 0 9.64444256 -7.01503515 0 10.58675003 -5.66087723 0 11.36857414 -4.22090578 0 11.97806168 -2.71695018 0 12.40597343 -1.17180812 0 12.64582443 0.39109725 0 12.6939764 1.94807398 0 12.54970169 3.4755199 0 12.21518612 4.95028067 0 11.69550037 6.3499999 0 10.99852276 7.65346003 0 10.13481903 8.84090137 0 9.11748123 9.89432335 0 7.96193218 10.79775715 0 6.6856885 11.53750896 0 5.30809641 12.10236359 0 3.85003901 12.48375797 0 2.33361888 12.6759119 0 0.78182352 12.6759119 0 -0.78182352 12.48375797 0 -2.33361888 12.10236359 0 -3.85003901 11.53750896 0 -5.30809641 10.79775715 0 -6.6856885 9.89432335 0 -7.96193218 8.84090137 0 -9.11748123 7.65346003 0 -10.13481903 6.3499999 0 -10.99852276 4.95028067 0 -11.69550037 3.4755199 0 -12.21518612 1.94807398 0 -12.54970169 0.39109725 0 -12.6939764 -1.17180812 0 -12.64582443 -2.71695018 0 -12.40597343 -4.22090578 0 -11.97806168 -5.66087723 0 -11.36857414 -7.01503515 0 -10.58675003 -8.26285267 0 -9.64444256 -9.38541317 0 -8.55593491 -10.36570072 0 -7.33772755 -11.18885517 0 -6.00828838 -11.84239769 0 -4.58776903 -12.31642151 0 -3.09770417 -12.60374069 0 -1.56068134 -12.60374069 62.5 1.56068134 -12.60374069 31.25 1.56068134 -12.69999981 62.5 0 -12.69999981 31.25 -0 -12.60374069 62.5 -1.56068134 -12.60374069 31.25 -1.56068134 -12.31642151 62.5 -3.09770417 -12.31642151 31.25 -3.09770417 -11.84239769 62.5 -4.58776903 -11.84239769 31.25 -4.58776903 -11.18885517 62.5 -6.00828838 -11.18885517 31.25 -6.00828838 -10.36570072 62.5 -7.33772755 -10.36570072 31.25 -7.33772755 -9.38541317 62.5 -8.55593491 -9.38541317 31.25 -8.55593491 -8.26285267 62.5 -9.64444256 -8.26285267 31.25 -9.64444256 -7.01503515 62.5 -10.58675003 -7.01503515 31.25 -10.58675003 -5.66087723 62.5 -11.36857414 -5.66087723 31.25 -11.36857414 -4.22090578 62.5 -11.97806168 -4.22090578 31.25 -11.97806168 -2.71695018 62.5 -12.40597343 -2.71695018 31.25 -12.40597343 -1.17180812 62.5 -12.64582443 -1.17180812 31.25 -12.64582443 0.39109725 62.5 -12.6939764 0.39109725 31.25 -12.6939764 1.94807398 62.5 -12.54970169 1.94807398 31.25 -12.54970169 3.4755199 62.5 -12.21518612 3.4755199 31.25 -12.21518612 4.95028067 62.5 -11.69550037 4.95028067 31.25 -11.69550037 6.3499999 62.5 -10.99852276 6.3499999 31.25 -10.99852276 7.65346003 62.5 -10.13481903 7.65346003 31.25 -10.13481903 8.84090137 62.5 -9.11748123 8.84090137 31.25 -9.11748123 9.89432335 62.5 -7.96193218 9.89432335 31.25 -7.96193218 10.79775715 62.5 -6.6856885 10.79775715 31.25 -6.6856885 11.53750896 62.5 -5.30809641 11.53750896 31.25 -5.30809641 12.10236359 62.5 -3.85003901 12.10236359 31.25 -3.85003901 12.48375797 62.5 -2.33361888 12.48375797 31.25 -2.33361888 12.6759119 62.5 -0.78182352 12.6759119 31.25 -0.78182352 12.6759119 62.5 0.78182352 12.6759119 31.25 0.78182352 12.48375797 62.5 2.33361888 12.48375797 31.25 2.33361888 12.10236359 62.5 3.85003901 12.10236359 31.25 3.85003901 11.53750896 62.5 5.30809641 11.53750896 31.25 5.30809641 10.79775715 62.5 6.6856885 10.79775715 31.25 6.6856885 9.89432335 62.5 7.96193218 9.89432335 31.25 7.96193218 8.84090137 62.5 9.11748123 8.84090137 31.25 9.11748123 7.65346003 62.5 10.13481903 7.65346003 31.25 10.13481903 6.3499999 62.5 10.99852276 6.3499999 31.25 10.99852276 4.95028067 62.5 11.69550037 4.95028067 31.25 11.69550037 3.4755199 62.5 12.21518612 3.4755199 31.25 12.21518612 1.94807398 62.5 12.54970169 1.94807398 31.25 12.54970169 0.39109725 62.5 12.6939764 0.39109725 31.25 12.6939764 -1.17180812 62.5 12.64582443 -1.17180812 31.25 12.64582443 -2.71695018 62.5 12.40597343 -2.71695018 31.25 12.40597343 -4.22090578 62.5 11.97806168 -4.22090578 31.25 11.97806168 -5.66087723 62.5 11.36857414 -5.66087723 31.25 11.36857414 -7.01503515 62.5 10.58675003 -7.01503515 31.25 10.58675003 -8.26285267 62.5 9.64444256 -8.26285267 31.25 9.64444256 -9.38541317 62.5 8.55593491 -9.38541317 31.25 8.55593491 -10.36570072 62.5 7.33772755 -10.36570072 31.25 7.33772755 -11.18885517 62.5 6.00828838 -11.18885517 31.25 6.00828838 -11.84239769 62.5 4.58776903 -11.84239769 31.25 4.58776903 -12.31642151 62.5 3.09770417 -12.31642151 31.25 3.09770417</float_array>
          <technique_common>
            <accessor source="#pos_0-array" count="1353" stride="3">
              <param name="X" type="float"/>
              <param name="Y" type="float"/>
              <param name="Z" type="float"/>
            </accessor>
          </technique_common>
        </source>
        <source id="norm_0">
          <float_array id="norm_0-array" count="1353">-0.70656 -0.70728 0.02313 -0.70694 -0.70694 0.022 -0.70694 -0.70694 -0.022 -0.70451 -0.70663 0.06593 -0.70321 -0.7076 0.06926 -0.69932 -0.70635 0.10965 -0.69689 -0.70789 0.11506 -0.69139 -0.70611 0.15296 -0.68763 -0.70814 0.16033 -0.68074 -0.7059 0.19571 -0.67547 -0.70835 0.2049 -0.66742 -0.70572 0.23771 -0.66046 -0.70852 0.24858 -0.65148 -0.70558 0.2788 -0.64267 -0.70865 0.29119 -0.63298 -0.70548 0.31881 -0.62216 -0.70875 0.33255 -0.612 -0.70541 0.35758 -0.59903 -0.70881 0.3725 -0.58861 -0.70537 0.39496 -0.57336 -0.70883 0.41087 -0.56292 -0.70537 0.43079 -0.54527 -0.70882 0.44749 -0.53503 -0.7054 0.46493 -0.51488 -0.70877 0.48224 -0.50504 -0.70546 0.49725 -0.4823 -0.70868 0.51494 -0.47309 -0.70556 0.52761 -0.44767 -0.70855 0.54548 -0.43929 -0.70569 0.5559 -0.41113 -0.70838 0.57373 -0.40378 -0.70586 0.582 -0.37283 -0.70818 0.59956 -0.36671 -0.70606 0.6058 -0.33293 -0.70794 0.62288 -0.32823 -0.7063 0.62722 -0.2916 -0.70766 0.64357 -0.2885 -0.70657 0.64617 -0.24899 -0.70735 0.66156 -0.24766 -0.70687 0.66257 -0.20595 -0.707 0.67656 -0.20523 -0.70721 0.67656 -0.16356 -0.70669 0.68836 -0.16047 -0.70754 0.68821 -0.1205 -0.7064 0.69748 -0.11507 -0.70783 0.69694 -0.07693 -0.70615 0.70387 -0.06921 -0.70809 0.70272 -0.03303 -0.70594 0.7075 -0.0231 -0.70831 0.70553 0.01102 -0.70576 0.70837 0.02309 -0.70849 0.70534 0.05505 -0.70561 0.70646 0.06916 -0.70863 0.70218 0.09888 -0.7055 0.70178 0.11492 -0.70874 0.69605 0.14233 -0.70542 0.69435 0.16018 -0.7088 0.68698 0.18523 -0.70537 0.6842 0.20476 -0.70883 0.675 0.22742 -0.70536 0.67137 0.24847 -0.70883 0.66017 0.26871 -0.70539 0.65592 0.29114 -0.70878 0.64255 0.30894 -0.70545 0.63789 0.33258 -0.7087 0.62221 0.34795 -0.70554 0.61737 0.37262 -0.70858 0.59922 0.38559 -0.70566 0.59444 0.41111 -0.70842 0.5737 0.42171 -0.70583 0.56919 0.44787 -0.70823 0.54573 0.45615 -0.70602 0.54172 0.48277 -0.70799 0.51544 0.48879 -0.70625 0.51215 0.51564 -0.70772 0.48295 0.51949 -0.70651 0.48059 0.54636 -0.70741 0.44839 0.54814 -0.70681 0.44718 0.57467 -0.70707 0.41208 0.57474 -0.70714 0.41186 0.59945 -0.70675 0.37573 0.60016 -0.70748 0.3732 0.6219 -0.70646 0.33787 0.62302 -0.70778 0.33301 0.64194 -0.7062 0.29866 0.64322 -0.70804 0.29144 0.65947 -0.70598 0.25826 0.6607 -0.70827 0.24867 0.67443 -0.70579 0.21682 0.67537 -0.70846 0.20487 0.68675 -0.70564 0.17451 0.68717 -0.7086 0.16023 0.69639 -0.70552 0.1315 0.69607 -0.70872 0.11492 0.7033 -0.70543 0.08796 0.70202 -0.70879 0.06914 0.70746 -0.70538 0.04407 0.705 -0.70883 0.02308 0.70885 -0.70536 0 0.705 -0.70883 -0.02308 0.70746 -0.70538 -0.04407 0.70202 -0.70879 -0.06914 0.7033 -0.70543 -0.08796 0.69607 -0.70872 -0.11492 0.69639 -0.70552 -0.1315 0.68717 -0.7086 -0.16023 0.68675 -0.70564 -0.17451 0.67537 -0.70846 -0.20487 0.67443 -0.70579 -0.21682 0.6607 -0.70827 -0.24867 0.65947 -0.70598 -0.25826 0.64322 -0.70804 -0.29144 0.64194 -0.7062 -0.29866 0.62302 -0.70778 -0.33301 0.6219 -0.70646 -0.33787 0.60016 -0.70748 -0.3732 0.59945 -0.70675 -0.37573 0.57474 -0.70714 -0.41186 0.57467 -0.70707 -0.41208 0.54814 -0.70681 -0.44718 0.54636 -0.70741 -0.44839 0.51949 -0.70651 -0.48059 0.51564 -0.70772 -0.48295 0.48879 -0.70625 -0.51215 0.48277 -0.70799 -0.51544 0.45615 -0.70602 -0.54172 0.44787 -0.70823 -0.54573 0.42171 -0.70583 -0.56919 0.41111 -0.70842 -0.5737 0.38559 -0.70566 -0.59444 0.37262 -0.70858 -0.59922 0.34795 -0.70554 -0.61737 0.33258 -0.7087 -0.62221 0.30894 -0.70545 -0.63789 0.29114 -0.70878 -0.64255 0.26871 -0.70539 -0.65592 0.24847 -0.70883 -0.66017 0.22742 -0.70536 -0.67137 0.20476 -0.70883 -0.675 0.18523 -0.70537 -0.6842 0.16018 -0.7088 -0.68698 0.14233 -0.70542 -0.69435 0.11492 -0.70874 -0.69605 0.09888 -0.7055 -0.70178 0.06916 -0.70863 -0.70218 0.05505 -0.70561 -0.70646 0.02309 -0.70849 -0.70534 0.01102 -0.70576 -0.70837 -0.0231 -0.70831 -0.70553 -0.03303 -0.70594 -0.7075 -0.06921 -0.70809 -0.70272 -0.07693 -0.70615 -0.70387 -0.11507 -0.70783 -0.69694 -0.1205 -0.7064 -0.69748 -0.16047 -0.70754 -0.68821 -0.16356 -0.70669 -0.68836 -0.20523 -0.70721 -0.67656 -0.20595 -0.707 -0.67656 -0.24766 -0.70687 -0.66257 -0.24899 -0.70735 -0.66156 -0.2885 -0.70657 -0.64617 -0.2916 -0.70766 -0.64357 -0.32823 -0.7063 -0.62722 -0.33293 -0.70794 -0.62288 -0.36671 -0.70606 -0.6058 -0.37283 -0.70818 -0.59956 -0.40378 -0.70586 -0.582 -0.41113 -0.70838 -0.57373 -0.43929 -0.70569 -0.5559 -0.44767 -0.70855 -0.54548 -0.47309 -0.70556 -0.52761 -0.4823 -0.70868 -0.51494 -0.50504 -0.70546 -0.49725 -0.51488 -0.70877 -0.48224 -0.53503 -0.7054 -0.46493 -0.54527 -0.70882 -0.44749 -0.56292 -0.70537 -0.43079 -0.57336 -0.70883 -0.41087 -0.58861 -0.70537 -0.39496 -0.59903 -0.70881 -0.3725 -0.612 -0.70541 -0.35758 -0.62216 -0.70875 -0.33255 -0.63298 -0.70548 -0.31881 -0.64267 -0.70865 -0.29119 -0.65148 -0.70558 -0.2788 -0.66046 -0.70852 -0.24858 -0.66742 -0.70572 -0.23771 -0.67547 -0.70835 -0.2049 -0.68074 -0.7059 -0.19571 -0.68763 -0.70814 -0.16033 -0.69139 -0.70611 -0.15296 -0.69689 -0.70789 -0.11506 -0.69932 -0.70635 -0.10965 -0.70321 -0.7076 -0.06926 -0.70451 -0.70663 -0.06593 -0.70656 -0.70728 -0.02313 -0.99952 -0 -0.0311 -0.99952 0 -0.0311 -0.99952 -0 0.0311 -0.99952 0 0.0311 -0.99565 0 0.09318 -0.99565 0 0.09318 -0.98793 0 0.1549 -0.98793 0 0.1549 -0.97639 0 0.21602 -0.97639 -0 0.21602 -0.96107 -0 0.2763 -0.96107 0 0.2763 -0.94203 0 0.33552 -0.91935 0 0.39343 -0.91935 0 0.39343 -0.89312 0 0.44983 -0.89312 0 0.44983 -0.86342 0 0.50448 -0.83039 0 0.55719 -0.83039 0 0.55719 -0.79414 0 0.60773 -0.79414 0 0.60773 -0.75482 0 0.65593 -0.71258 0 0.70159 -0.71258 0 0.70159 -0.66759 0 0.74453 -0.66759 0 0.74453 -0.62001 0 0.78459 -0.62001 -0 0.78459 -0.57003 -0 0.82162 -0.57003 0 0.82162 -0.51785 0 0.85547 -0.51785 0 0.85547 -0.46366 0 0.88601 -0.46366 0 0.88601 -0.40768 0 0.91312 -0.40768 0 0.91312 -0.35013 0 0.9367 -0.35013 0 0.9367 -0.29121 0 0.95666 -0.29121 0 0.95666 -0.23118 0 0.97291 -0.23118 0 0.97291 -0.17024 0 0.9854 -0.17024 -0 0.9854 -0.10865 -0 0.99408 -0.10865 -0 0.99408 -0.04664 -0 0.99891 -0.04664 0 0.99891 0.01555 0 0.99988 0.01555 0 0.99988 0.07768 0 0.99698 0.07768 0 0.99698 0.13952 0 0.99022 0.13952 0 0.99022 0.20081 0 0.97963 0.20081 -0 0.97963 0.26132 -0 0.96525 0.26132 -0 0.96525 0.32083 -0 0.94714 0.32083 0 0.94714 0.37909 0 0.92536 0.37909 -0 0.92536 0.43588 -0 0.9 0.43588 0 0.9 0.49099 0 0.87116 0.5442 0 0.83895 0.5442 -0 0.83895 0.59531 -0 0.8035 0.59531 0 0.8035 0.64411 0 0.76493 0.64411 -0 0.76493 0.69042 -0 0.72341 0.69042 0 0.72341 0.73406 0 0.67909 0.73406 0 0.67909 0.77486 0 0.63214 0.77486 0 0.63214 0.81266 0 0.58274 0.81266 0 0.58274 0.84731 0 0.53109 0.87869 0 0.47739 0.87869 0 0.47739 0.90667 0 0.42184 0.90667 -0 0.42184 0.93114 -0 0.36465 0.93114 0 0.36465 0.95201 0 0.30606 0.95201 0 0.30606 0.9692 0 0.24628 0.9692 0 0.24628 0.98264 0 0.18555 0.98264 0 0.18555 0.99227 0 0.1241 0.99807 0 0.06217 0.99807 -0 0.06217 1 0 0 0.99807 0 -0.06217 0.99807 0 -0.06217 0.99227 0 -0.1241 0.98264 0 -0.18555 0.98264 -0 -0.18555 0.9692 -0 -0.24628 0.9692 -0 -0.24628 0.95201 -0 -0.30606 0.95201 0 -0.30606 0.93114 0 -0.36465 0.93114 0 -0.36465 0.90667 0 -0.42184 0.90667 -0 -0.42184 0.87869 -0 -0.47739 0.87869 0 -0.47739 0.84731 0 -0.53109 0.81266 0 -0.58274 0.81266 -0 -0.58274 0.77486 -0 -0.63214 0.77486 -0 -0.63214 0.73406 -0 -0.67909 0.73406 0 -0.67909 0.69042 0 -0.72341 0.69042 0 -0.72341 0.64411 0 -0.76493 0.64411 0 -0.76493 0.59531 0 -0.8035 0.59531 0 -0.8035 0.5442 0 -0.83895 0.5442 0 -0.83895 0.49099 0 -0.87116 0.43588 0 -0.9 0.43588 0 -0.9 0.37909 0 -0.92536 0.37909 -0 -0.92536 0.32083 -0 -0.94714 0.32083 0 -0.94714 0.26132 0 -0.96525 0.26132 0 -0.96525 0.20081 0 -0.97963 0.20081 0 -0.97963 0.13952 0 -0.99022 0.13952 -0 -0.99022 0.07768 -0 -0.99698 0.07768 -0 -0.99698 0.01555 -0 -0.99988 0.01555 0 -0.99988 -0.04664 -0 -0.99891 -0.04664 0 -0.99891 -0.10865 0 -0.99408 -0.10865 0 -0.99408 -0.17024 0 -0.9854 -0.17024 -0 -0.9854 -0.23118 -0 -0.97291 -0.23118 -0 -0.97291 -0.29121 -0 -0.95666 -0.29121 -0 -0.95666 -0.35013 -0 -0.9367 -0.35013 -0 -0.9367 -0.40768 -0 -0.91312 -0.40768 -0 -0.91312 -0.46366 -0 -0.88601 -0.46366 -0 -0.88601 -0.51785 -0 -0.85547 -0.51785 -0 -0.85547 -0.57003 -0 -0.82162 -0.57003 0 -0.82162 -0.62001 0 -0.78459 -0.62001 -0 -0.78459 -0.66759 -0 -0.74453 -0.66759 -0 -0.74453 -0.71258 -0 -0.70159 -0.71258 -0 -0.70159 -0.75482 -0 -0.65593 -0.79414 -0 -0.60773 -0.79414 -0 -0.60773 -0.83039 -0 -0.55719 -0.83039 -0 -0.55719 -0.86342 -0 -0.50448 -0.89312 -0 -0.44983 -0.89312 -0 -0.44983 -0.91935 -0 -0.39343 -0.91935 -0 -0.39343 -0.94203 -0 -0.33552 -0.96107 -0 -0.2763 -0.96107 0 -0.2763 -0.97639 0 -0.21602 -0.97639 -0 -0.21602 -0.98793 -0 -0.1549 -0.98793 -0 -0.1549 -0.99565 -0 -0.09318 -0.99565 -0 -0.09318 -0 -1 0 0.9981 0 -0.06156 0.9981 0 -0.06156 0.9981 -0 0.06156 0.9981 0 0.06156 0.98297 0 0.18375 0.95294 0 0.30315 0.90847 0 0.41796 0.85022 0 0.52643 0.77908 0 0.62692 0.69613 0 0.71791 0.60263 0 0.79802 0.5 0 0.86603 0.38979 0 0.92091 0.27366 0 0.96183 0.15339 0 0.98817 0.0308 0 0.99953 -0.09227 0 0.99573 -0.21393 0 0.97685 -0.33235 0 0.94315 -0.44574 0 0.89516 -0.55236 0 0.8336 -0.55236 -0 0.8336 -0.65062 -0 0.7594 -0.65062 0 0.7594 -0.73901 0 0.6737 -0.8162 0 0.57777 -0.88101 0 0.47309 -0.93247 0 0.36124 -0.9698 0 0.24391 -0.99242 0 0.12289 -1 0 0 -0.99242 -0 -0.12289 -0.9698 -0 -0.24391 -0.93247 -0 -0.36124 -0.88101 -0 -0.47309 -0.8162 -0 -0.57777 -0.73901 -0 -0.6737 -0.65062 -0 -0.7594 -0.65062 -0 -0.7594 -0.55236 -0 -0.8336 -0.55236 -0 -0.8336 -0.44574 -0 -0.89516 -0.33235 -0 -0.94315 -0.21393 -0 -0.97685 -0.09227 -0 -0.99573 0.0308 0 -0.99953 0.15339 0 -0.98817 0.27366 0 -0.96183 0.38979 0 -0.92091 0.5 0 -0.86603 0.60263 0 -0.79802 0.69613 0 -0.71791 0.77908 0 -0.62692 0.85022 0 -0.52643 0.90847 0 -0.41796 0.95294 0 -0.30315 0.98297 0 -0.18375 0.9981 0 0.06156 0.9981 -0 -0.06156 -0.55236 0 -0.8336 -0.65062 0 -0.7594 -0.65062 0 0.7594 -0.55236 0 0.8336 0 1 0</float_array>
          <technique_common>
            <accessor source="#norm_0-array" count="1353" stride="3">
              <param name="X" type="float"/>
              <param name="Y" type="float"/>
              <param name="Z" type="float"/>
            </accessor>
          </technique_common>
        </source>
        <vertices id="vert_0">
          <input semantic="POSITION" source="#pos_0"/>
        </vertices>
        <triangles count="901">
          <input semantic="VERTEX" source="#vert_0" offset="0"/>
          <input semantic="NORMAL" source="#norm_0" offset="1"/>
          <p>2 1 1 1 3 1 2 2 3 2 4 2 1 3 0 3 5 3 5 4 0 4 6 4 5 5 6 5 7 5 7 6 6 6 8 6 7 7 8 7 9 7 9 8 8 8 10 8 9 9 10 9 11 9 11 10 10 10 12 10 11 11 12 11 13 11 13 12 12 12 14 12 13 13 14 13 15 13 15 14 14 14 16 14 15 15 16 15 17 15 17 16 16 16 18 16 17 17 18 17 19 17 19 18 18 18 20 18 19 19 20 19 21 19 21 20 20 20 22 20 21 21 22 21 23 21 23 22 22 22 24 22 23 23 24 23 25 23 25 24 24 24 26 24 25 25 26 25 27 25 27 26 26 26 28 26 27 27 28 27 29 27 29 28 28 28 30 28 29 29 30 29 31 29 31 30 30 30 32 30 31 31 32 31 33 31 33 32 32 32 34 32 33 33 34 33 35 33 35 34 34 34 36 34 35 35 36 35 37 35 37 36 36 36 38 36 37 37 38 37 39 37 39 38 38 38 40 38 39 39 40 39 41 39 41 40 40 40 42 40 42 41 40 41 43 41 42 42 43 42 44 42 44 43 43 43 45 43 44 44 45 44 46 44 46 45 45 45 47 45 46 46 47 46 48 46 48 47 47 47 49 47 48 48 49 48 50 48 50 49 49 49 51 49 50 50 51 50 52 50 52 51 51 51 53 51 52 52 53 52 54 52 54 53 53 53 55 53 54 54 55 54 56 54 56 55 55 55 57 55 56 56 57 56 58 56 58 57 57 57 59 57 58 58 59 58 60 58 60 59 59 59 61 59 60 60 61 60 62 60 62 61 61 61 63 61 62 62 63 62 64 62 64 63 63 63 65 63 64 64 65 64 66 64 66 65 65 65 67 65 66 66 67 66 68 66 68 67 67 67 69 67 68 68 69 68 70 68 70 69 69 69 71 69 70 70 71 70 72 70 72 71 71 71 73 71 72 72 73 72 74 72 74 73 73 73 75 73 74 74 75 74 76 74 76 75 75 75 77 75 76 76 77 76 78 76 78 77 77 77 79 77 78 78 79 78 80 78 80 79 79 79 81 79 81 80 79 80 82 80 81 81 82 81 83 81 83 82 82 82 84 82 83 83 84 83 85 83 85 84 84 84 86 84 85 85 86 85 87 85 87 86 86 86 88 86 87 87 88 87 89 87 89 88 88 88 90 88 89 89 90 89 91 89 91 90 90 90 92 90 91 91 92 91 93 91 93 92 92 92 94 92 93 93 94 93 95 93 95 94 94 94 96 94 95 95 96 95 97 95 97 96 96 96 98 96 97 97 98 97 99 97 99 98 98 98 100 98 99 99 100 99 101 99 101 100 100 100 102 100 101 101 102 101 103 101 103 102 102 102 104 102 103 103 104 103 105 103 105 104 104 104 106 104 105 105 106 105 107 105 107 106 106 106 108 106 107 107 108 107 109 107 109 108 108 108 110 108 109 109 110 109 111 109 111 110 110 110 112 110 111 111 112 111 113 111 113 112 112 112 114 112 113 113 114 113 115 113 115 114 114 114 116 114 115 115 116 115 117 115 117 116 116 116 118 116 117 117 118 117 119 117 119 118 118 118 120 118 119 119 120 119 121 119 121 120 120 120 122 120 122 121 120 121 123 121 122 122 123 122 124 122 124 123 123 123 125 123 124 124 125 124 126 124 126 125 125 125 127 125 126 126 127 126 128 126 128 127 127 127 129 127 128 128 129 128 130 128 130 129 129 129 131 129 130 130 131 130 132 130 132 131 131 131 133 131 132 132 133 132 134 132 134 133 133 133 135 133 134 134 135 134 136 134 136 135 135 135 137 135 136 136 137 136 138 136 138 137 137 137 139 137 138 138 139 138 140 138 140 139 139 139 141 139 140 140 141 140 142 140 142 141 141 141 143 141 142 142 143 142 144 142 144 143 143 143 145 143 144 144 145 144 146 144 146 145 145 145 147 145 146 146 147 146 148 146 148 147 147 147 149 147 148 148 149 148 150 148 150 149 149 149 151 149 150 150 151 150 152 150 152 151 151 151 153 151 152 152 153 152 154 152 154 153 153 153 155 153 154 154 155 154 156 154 156 155 155 155 157 155 156 156 157 156 158 156 158 157 157 157 159 157 158 158 159 158 160 158 160 159 159 159 161 159 161 160 159 160 162 160 161 161 162 161 163 161 163 162 162 162 164 162 163 163 164 163 165 163 165 164 164 164 166 164 165 165 166 165 167 165 167 166 166 166 168 166 167 167 168 167 169 167 169 168 168 168 170 168 169 169 170 169 171 169 171 170 170 170 172 170 171 171 172 171 173 171 173 172 172 172 174 172 173 173 174 173 175 173 175 174 174 174 176 174 175 175 176 175 177 175 177 176 176 176 178 176 177 177 178 177 179 177 179 178 178 178 180 178 179 179 180 179 181 179 181 180 180 180 182 180 181 181 182 181 183 181 183 182 182 182 184 182 183 183 184 183 185 183 185 184 184 184 186 184 185 185 186 185 187 185 187 186 186 186 188 186 187 187 188 187 189 187 189 188 188 188 190 188 189 189 190 189 191 189 191 190 190 190 192 190 191 191 192 191 193 191 193 192 192 192 194 192 193 193 194 193 195 193 195 194 194 194 196 194 195 195 196 195 4 195 4 196 196 196 2 196 197 197 4 197 198 197 198 198 4 198 3 198 198 199 3 199 199 199 199 200 3 200 1 200 199 201 1 201 200 201 200 202 1 202 5 202 200 203 5 203 201 203 201 204 5 204 7 204 201 205 7 205 202 205 202 206 7 206 9 206 202 207 9 207 203 207 203 208 9 208 11 208 203 209 11 209 204 209 204 209 11 209 13 209 204 210 13 210 205 210 205 211 13 211 15 211 205 212 15 212 206 212 206 213 15 213 17 213 206 214 17 214 207 214 207 214 17 214 19 214 207 215 19 215 208 215 208 216 19 216 21 216 208 217 21 217 209 217 209 218 21 218 23 218 209 219 23 219 210 219 210 219 23 219 25 219 210 220 25 220 211 220 211 221 25 221 27 221 211 222 27 222 212 222 212 223 27 223 29 223 212 224 29 224 213 224 213 225 29 225 31 225 213 226 31 226 214 226 214 227 31 227 33 227 214 228 33 228 215 228 215 229 33 229 35 229 215 230 35 230 216 230 216 231 35 231 37 231 216 232 37 232 217 232 217 233 37 233 39 233 217 234 39 234 218 234 218 235 39 235 41 235 218 236 41 236 219 236 219 237 41 237 42 237 219 238 42 238 220 238 220 239 42 239 44 239 220 240 44 240 221 240 221 241 44 241 46 241 221 242 46 242 222 242 222 243 46 243 48 243 222 244 48 244 223 244 223 245 48 245 50 245 223 246 50 246 224 246 224 247 50 247 52 247 224 248 52 248 225 248 225 249 52 249 54 249 225 250 54 250 226 250 226 251 54 251 56 251 226 252 56 252 227 252 227 253 56 253 58 253 227 254 58 254 228 254 228 255 58 255 60 255 228 256 60 256 229 256 229 257 60 257 62 257 229 258 62 258 230 258 230 259 62 259 64 259 230 260 64 260 231 260 231 261 64 261 66 261 231 262 66 262 232 262 232 262 66 262 68 262 232 263 68 263 233 263 233 264 68 264 70 264 233 265 70 265 234 265 234 266 70 266 72 266 234 267 72 267 235 267 235 268 72 268 74 268 235 269 74 269 236 269 236 270 74 270 76 270 236 271 76 271 237 271 237 272 76 272 78 272 237 273 78 273 238 273 238 274 78 274 80 274 238 275 80 275 239 275 239 276 80 276 81 276 239 277 81 277 240 277 240 277 81 277 83 277 240 278 83 278 241 278 241 279 83 279 85 279 241 280 85 280 242 280 242 281 85 281 87 281 242 282 87 282 243 282 243 283 87 283 89 283 243 284 89 284 244 284 244 285 89 285 91 285 244 286 91 286 245 286 245 287 91 287 93 287 245 288 93 288 246 288 246 289 93 289 95 289 246 290 95 290 247 290 247 290 95 290 97 290 247 291 97 291 248 291 248 292 97 292 99 292 248 293 99 293 249 293 249 293 99 293 101 293 249 294 101 294 250 294 250 295 101 295 103 295 250 296 103 296 251 296 251 296 103 296 105 296 251 297 105 297 252 297 252 298 105 298 107 298 252 299 107 299 253 299 253 300 107 300 109 300 253 301 109 301 254 301 254 302 109 302 111 302 254 303 111 303 255 303 255 304 111 304 113 304 255 305 113 305 256 305 256 306 113 306 115 306 256 307 115 307 257 307 257 308 115 308 117 308 257 309 117 309 258 309 258 309 117 309 119 309 258 310 119 310 259 310 259 311 119 311 121 311 259 312 121 312 260 312 260 313 121 313 122 313 260 314 122 314 261 314 261 315 122 315 124 315 261 316 124 316 262 316 262 317 124 317 126 317 262 318 126 318 263 318 263 319 126 319 128 319 263 320 128 320 264 320 264 321 128 321 130 321 264 322 130 322 265 322 265 323 130 323 132 323 265 324 132 324 266 324 266 324 132 324 134 324 266 325 134 325 267 325 267 326 134 326 136 326 267 327 136 327 268 327 268 328 136 328 138 328 268 329 138 329 269 329 269 330 138 330 140 330 269 331 140 331 270 331 270 332 140 332 142 332 270 333 142 333 271 333 271 334 142 334 144 334 271 335 144 335 272 335 272 336 144 336 146 336 272 337 146 337 273 337 273 338 146 338 148 338 273 339 148 339 274 339 274 340 148 340 150 340 274 341 150 341 275 341 275 342 150 342 152 342 275 343 152 343 276 343 276 344 152 344 154 344 276 345 154 345 277 345 277 346 154 346 156 346 277 347 156 347 278 347 278 348 156 348 158 348 278 349 158 349 279 349 279 350 158 350 160 350 279 351 160 351 280 351 280 352 160 352 161 352 280 353 161 353 281 353 281 354 161 354 163 354 281 355 163 355 282 355 282 356 163 356 165 356 282 357 165 357 283 357 283 358 165 358 167 358 283 359 167 359 284 359 284 360 167 360 169 360 284 361 169 361 285 361 285 362 169 362 171 362 285 363 171 363 286 363 286 364 171 364 173 364 286 365 173 365 287 365 287 366 173 366 175 366 287 367 175 367 288 367 288 367 175 367 177 367 288 368 177 368 289 368 289 369 177 369 179 369 289 370 179 370 290 370 290 371 179 371 181 371 290 372 181 372 291 372 291 372 181 372 183 372 291 373 183 373 292 373 292 374 183 374 185 374 292 375 185 375 293 375 293 376 185 376 187 376 293 377 187 377 294 377 294 377 187 377 189 377 294 378 189 378 295 378 295 379 189 379 191 379 295 380 191 380 296 380 296 381 191 381 193 381 296 382 193 382 297 382 297 383 193 383 195 383 297 384 195 384 197 384 197 385 195 385 4 385 298 386 0 386 299 386 299 386 0 386 2 386 299 386 2 386 196 386 300 386 8 386 298 386 298 386 8 386 6 386 298 386 6 386 0 386 301 386 12 386 300 386 300 386 12 386 10 386 300 386 10 386 8 386 302 386 16 386 301 386 301 386 16 386 14 386 301 386 14 386 12 386 16 386 302 386 18 386 18 386 302 386 303 386 18 386 303 386 20 386 20 386 303 386 22 386 22 386 303 386 304 386 22 386 304 386 24 386 24 386 304 386 26 386 26 386 304 386 305 386 26 386 305 386 28 386 28 386 305 386 30 386 30 386 305 386 306 386 30 386 306 386 32 386 32 386 306 386 34 386 34 386 306 386 307 386 34 386 307 386 36 386 36 386 307 386 38 386 38 386 307 386 308 386 38 386 308 386 40 386 40 386 308 386 43 386 43 386 308 386 309 386 43 386 309 386 45 386 45 386 309 386 47 386 47 386 309 386 310 386 47 386 310 386 49 386 49 386 310 386 51 386 51 386 310 386 311 386 51 386 311 386 53 386 53 386 311 386 55 386 55 386 311 386 57 386 57 386 311 386 59 386 59 386 311 386 61 386 61 386 311 386 63 386 63 386 311 386 65 386 65 386 311 386 67 386 67 386 311 386 69 386 69 386 311 386 71 386 71 386 311 386 312 386 71 386 312 386 73 386 73 386 312 386 75 386 75 386 312 386 77 386 77 386 312 386 79 386 79 386 312 386 82 386 82 386 312 386 84 386 84 386 312 386 86 386 86 386 312 386 88 386 88 386 312 386 313 386 88 386 313 386 314 386 314 386 315 386 88 386 88 386 315 386 316 386 88 386 316 386 317 386 317 386 318 386 88 386 88 386 318 386 319 386 88 386 319 386 320 386 320 386 321 386 88 386 88 386 321 386 90 386 90 386 321 386 92 386 92 386 321 386 322 386 92 386 322 386 94 386 94 386 322 386 96 386 96 386 322 386 323 386 96 386 323 386 98 386 98 386 323 386 100 386 100 386 323 386 324 386 100 386 324 386 102 386 102 386 324 386 104 386 104 386 324 386 325 386 104 386 325 386 106 386 106 386 325 386 108 386 108 386 325 386 326 386 108 386 326 386 110 386 110 386 326 386 112 386 112 386 326 386 327 386 112 386 327 386 114 386 114 386 327 386 116 386 116 386 327 386 328 386 116 386 328 386 118 386 118 386 328 386 329 386 118 386 329 386 120 386 120 386 329 386 123 386 123 386 329 386 330 386 123 386 330 386 125 386 125 386 330 386 127 386 127 386 330 386 331 386 127 386 331 386 129 386 129 386 331 386 131 386 131 386 331 386 332 386 131 386 332 386 133 386 133 386 332 386 135 386 135 386 332 386 333 386 135 386 333 386 137 386 137 386 333 386 139 386 139 386 333 386 334 386 139 386 334 386 141 386 141 386 334 386 143 386 143 386 334 386 335 386 143 386 335 386 145 386 145 386 335 386 147 386 147 386 335 386 336 386 147 386 336 386 149 386 149 386 336 386 337 386 149 386 337 386 151 386 151 386 337 386 153 386 153 386 337 386 338 386 153 386 338 386 155 386 155 386 338 386 157 386 157 386 338 386 339 386 157 386 339 386 159 386 159 386 339 386 162 386 162 386 339 386 340 386 162 386 340 386 164 386 164 386 340 386 166 386 166 386 340 386 341 386 166 386 341 386 168 386 168 386 341 386 170 386 170 386 341 386 342 386 170 386 342 386 172 386 172 386 342 386 174 386 174 386 342 386 343 386 174 386 343 386 176 386 176 386 343 386 178 386 178 386 343 386 344 386 178 386 344 386 180 386 180 386 344 386 182 386 182 386 344 386 345 386 182 386 345 386 184 386 184 386 345 386 346 386 184 386 346 386 186 386 186 386 346 386 188 386 188 386 346 386 347 386 188 386 347 386 190 386 190 386 347 386 192 386 192 386 347 386 348 386 192 386 348 386 194 386 194 386 348 386 196 386 196 386 348 386 299 386 349 387 350 387 351 387 351 388 350 388 352 388 351 389 352 389 353 389 353 390 352 390 354 390 353 391 354 391 355 391 355 391 354 391 356 391 355 392 356 392 357 392 357 392 356 392 358 392 357 393 358 393 359 393 359 393 358 393 360 393 359 394 360 394 361 394 361 394 360 394 362 394 361 395 362 395 363 395 363 395 362 395 364 395 363 396 364 396 365 396 365 396 364 396 366 396 365 397 366 397 367 397 367 397 366 397 368 397 367 398 368 398 369 398 369 398 368 398 370 398 369 399 370 399 371 399 371 399 370 399 372 399 371 400 372 400 373 400 373 400 372 400 374 400 373 401 374 401 375 401 375 401 374 401 376 401 375 402 376 402 377 402 377 402 376 402 378 402 377 403 378 403 379 403 379 403 378 403 380 403 379 404 380 404 381 404 381 404 380 404 382 404 381 405 382 405 383 405 383 405 382 405 384 405 383 406 384 406 385 406 385 406 384 406 386 406 385 407 386 407 387 407 387 408 386 408 388 408 387 409 388 409 389 409 389 410 388 410 390 410 389 411 390 411 391 411 391 411 390 411 392 411 391 412 392 412 393 412 393 412 392 412 394 412 393 413 394 413 395 413 395 413 394 413 396 413 395 414 396 414 397 414 397 414 396 414 398 414 397 415 398 415 399 415 399 415 398 415 400 415 399 416 400 416 401 416 401 416 400 416 402 416 401 417 402 417 403 417 403 417 402 417 404 417 403 418 404 418 405 418 405 418 404 418 406 418 405 419 406 419 407 419 407 419 406 419 408 419 407 420 408 420 409 420 409 420 408 420 410 420 409 421 410 421 411 421 411 421 410 421 412 421 411 422 412 422 413 422 413 422 412 422 414 422 413 423 414 423 415 423 415 423 414 423 416 423 415 424 416 424 417 424 417 425 416 425 418 425 417 426 418 426 419 426 419 427 418 427 420 427 419 428 420 428 421 428 421 428 420 428 422 428 421 429 422 429 423 429 423 429 422 429 424 429 423 430 424 430 425 430 425 430 424 430 426 430 425 431 426 431 427 431 427 431 426 431 428 431 427 432 428 432 429 432 429 432 428 432 430 432 429 433 430 433 431 433 431 433 430 433 432 433 431 434 432 434 433 434 433 434 432 434 434 434 433 435 434 435 435 435 435 435 434 435 436 435 435 436 436 436 437 436 437 436 436 436 438 436 437 437 438 437 439 437 439 437 438 437 440 437 439 438 440 438 441 438 441 438 440 438 442 438 441 439 442 439 443 439 443 439 442 439 444 439 443 440 444 440 445 440 445 440 444 440 446 440 445 441 446 441 447 441 447 441 446 441 448 441 447 442 448 442 449 442 449 442 448 442 450 442 449 443 450 443 349 443 349 443 450 443 350 443 348 390 354 390 299 390 299 444 354 444 352 444 299 445 352 445 298 445 298 387 352 387 350 387 298 443 350 443 300 443 300 443 350 443 450 443 300 442 450 442 301 442 301 442 450 442 448 442 301 441 448 441 302 441 302 441 448 441 446 441 302 440 446 440 303 440 303 440 446 440 444 440 303 439 444 439 304 439 304 439 444 439 442 439 304 438 442 438 305 438 305 438 442 438 440 438 305 437 440 437 306 437 306 437 440 437 438 437 306 436 438 436 307 436 307 436 438 436 436 436 307 435 436 435 308 435 308 435 436 435 434 435 308 434 434 434 309 434 309 434 434 434 432 434 309 433 432 433 310 433 310 433 432 433 430 433 310 432 430 432 311 432 311 432 430 432 428 432 311 431 428 431 312 431 312 431 428 431 426 431 312 430 426 430 313 430 313 430 426 430 424 430 313 429 424 429 314 429 314 429 424 429 422 429 314 428 422 428 315 428 315 428 422 428 420 428 315 427 420 427 316 427 316 446 420 446 418 446 316 447 418 447 317 447 317 424 418 424 416 424 317 423 416 423 318 423 318 423 416 423 414 423 318 422 414 422 319 422 319 422 414 422 412 422 319 421 412 421 320 421 320 421 412 421 410 421 320 420 410 420 321 420 321 420 410 420 408 420 321 419 408 419 322 419 322 419 408 419 406 419 322 418 406 418 323 418 323 418 406 418 404 418 323 417 404 417 324 417 324 417 404 417 402 417 324 416 402 416 325 416 325 416 402 416 400 416 325 415 400 415 326 415 326 415 400 415 398 415 326 414 398 414 327 414 327 414 398 414 396 414 327 413 396 413 328 413 328 413 396 413 394 413 328 412 394 412 329 412 329 412 394 412 392 412 329 411 392 411 330 411 330 411 392 411 390 411 330 410 390 410 331 410 331 448 390 448 388 448 331 449 388 449 332 449 332 407 388 407 386 407 332 406 386 406 333 406 333 406 386 406 384 406 333 405 384 405 334 405 334 405 384 405 382 405 334 404 382 404 335 404 335 404 382 404 380 404 335 403 380 403 336 403 336 403 380 403 378 403 336 402 378 402 337 402 337 402 378 402 376 402 337 401 376 401 338 401 338 401 376 401 374 401 338 400 374 400 339 400 339 400 374 400 372 400 339 399 372 399 340 399 340 399 372 399 370 399 340 398 370 398 341 398 341 398 370 398 368 398 341 397 368 397 342 397 342 397 368 397 366 397 342 396 366 396 343 396 343 396 366 396 364 396 343 395 364 395 344 395 344 395 364 395 362 395 344 394 362 394 345 394 345 394 362 394 360 394 345 393 360 393 346 393 346 393 360 393 358 393 346 392 358 392 347 392 347 392 358 392 356 392 347 391 356 391 348 391 348 391 356 391 354 391 349 450 351 450 198 450 198 450 351 450 353 450 198 450 353 450 355 450 198 450 355 450 197 450 197 450 355 450 357 450 197 450 357 450 359 450 197 450 359 450 297 450 297 450 359 450 361 450 297 450 361 450 363 450 297 450 363 450 296 450 296 450 363 450 365 450 296 450 365 450 295 450 295 450 365 450 294 450 294 450 365 450 293 450 293 450 365 450 292 450 292 450 365 450 291 450 291 450 365 450 290 450 290 450 365 450 289 450 289 450 365 450 288 450 288 450 365 450 287 450 287 450 365 450 286 450 286 450 365 450 285 450 285 450 365 450 284 450 284 450 365 450 367 450 284 450 367 450 283 450 283 450 367 450 282 450 282 450 367 450 369 450 282 450 369 450 281 450 281 450 369 450 280 450 280 450 369 450 371 450 280 450 371 450 279 450 279 450 371 450 278 450 278 450 371 450 373 450 278 450 373 450 277 450 277 450 373 450 276 450 276 450 373 450 375 450 276 450 375 450 275 450 275 450 375 450 274 450 274 450 375 450 377 450 274 450 377 450 273 450 273 450 377 450 272 450 272 450 377 450 271 450 271 450 377 450 270 450 270 450 377 450 269 450 269 450 377 450 268 450 268 450 377 450 267 450 267 450 377 450 266 450 266 450 377 450 265 450 265 450 377 450 264 450 264 450 377 450 263 450 263 450 377 450 262 450 262 450 377 450 261 450 261 450 377 450 260 450 260 450 377 450 259 450 259 450 377 450 258 450 258 450 377 450 257 450 257 450 377 450 256 450 256 450 377 450 255 450 255 450 377 450 254 450 254 450 377 450 253 450 253 450 377 450 379 450 253 450 379 450 381 450 381 450 383 450 253 450 253 450 383 450 385 450 253 450 385 450 387 450 387 450 389 450 253 450 253 450 389 450 391 450 253 450 391 450 393 450 393 450 395 450 253 450 253 450 395 450 397 450 253 450 397 450 252 450 252 450 397 450 399 450 252 450 399 450 251 450 251 450 399 450 250 450 250 450 399 450 401 450 250 450 401 450 249 450 249 450 401 450 248 450 248 450 401 450 403 450 248 450 403 450 247 450 247 450 403 450 405 450 247 450 405 450 246 450 246 450 405 450 245 450 245 450 405 450 407 450 245 450 407 450 244 450 244 450 407 450 409 450 244 450 409 450 411 450 411 450 413 450 244 450 244 450 413 450 415 450 244 450 415 450 417 450 417 450 419 450 244 450 244 450 419 450 421 450 244 450 421 450 423 450 423 450 425 450 244 450 244 450 425 450 427 450 244 450 427 450 203 450 203 450 427 450 429 450 203 450 429 450 202 450 202 450 429 450 431 450 202 450 431 450 433 450 433 450 435 450 202 450 202 450 435 450 437 450 202 450 437 450 439 450 202 450 439 450 201 450 201 450 439 450 441 450 201 450 441 450 443 450 201 450 443 450 200 450 200 450 443 450 445 450 200 450 445 450 447 450 200 450 447 450 199 450 199 450 447 450 449 450 199 450 449 450 349 450 199 450 349 450 198 450 244 450 203 450 243 450 243 450 203 450 204 450 243 450 204 450 242 450 242 450 204 450 205 450 242 450 205 450 241 450 241 450 205 450 206 450 241 450 206 450 240 450 240 450 206 450 207 450 240 450 207 450 239 450 239 450 207 450 208 450 239 450 208 450 238 450 238 450 208 450 209 450 238 450 209 450 237 450 237 450 209 450 210 450 237 450 210 450 236 450 236 450 210 450 211 450 236 450 211 450 235 450 235 450 211 450 212 450 235 450 212 450 234 450 234 450 212 450 213 450 234 450 213 450 233 450 233 450 213 450 214 450 233 450 214 450 232 450 232 450 214 450 215 450 232 450 215 450 231 450 231 450 215 450 216 450 231 450 216 450 230 450 230 450 216 450 217 450 230 450 217 450 229 450 229 450 217 450 218 450 229 450 218 450 228 450 228 450 218 450 219 450 228 450 219 450 227 450 227 450 219 450 220 450 227 450 220 450 226 450 226 450 220 450 221 450 226 450 221 450 225 450 225 450 221 450 222 450 225 450 222 450 224 450 224 450 222 450 223 450</p>
        </triangles>
        <triangles count="1" material="mat_1">
          <input semantic="VERTEX" source="#vert_0" offset="0"/>
          <input semantic="NORMAL" source="#norm_0" offset="1"/>
          <p>0 0 1 0 2 0</p>
        </triangles>
      </mesh>
    </geometry>
  </library_geometries>
  <library_visual_scenes>
    <visual_scene id="DefaultScene">
      <node id="node_9dbd28dd_add7_4394_beb3_97b6879cb247" type="NODE">
        <matrix>1 0 0 0 0 1 0 0 0 0 1 0 0 0 0 1</matrix>
        <node id="node_5f6d643f_62aa_41ec_a035_321adbe9e59d" type="NODE">
          <matrix>1 0 0 0 0 1 0 0 0 0 1 0 0 0 0 1</matrix>
          <node id="node_5f6d643f_62aa_41ec_a035_321adbe9e59d_mesh0" type="NODE">
            <matrix>1 0 0 0 0 1 0 0 0 0 1 0 0 0 0 1</matrix>
            <instance_geometry url="#geometry_20876951_f537_4b0f_a6dc_f0db3859a5a6">
              <bind_material>
                <technique_common>
                  <instance_material symbol="mat_1" target="#mat_1"/>
                </technique_common>
              </bind_material>
            </instance_geometry>
          </node>
        </node>
      </node>
    </visual_scene>
  </library_visual_scenes>
  <scene>
    <instance_visual_scene url="#DefaultScene"/>
  </scene>
</COLLADA>
