<?xml version="1.0" encoding="UTF-8"?>
<COLLADA xmlns="http://www.collada.org/2005/11/COLLADASchema" version="1.4.1">
<!--
# File generated by ImageToStl.com - Free Image and 3D model conversion tools
-->
  <asset>
    <contributor>
      <author>ImageToStl.com</author>
      <authoring_tool>ImageToStl.com</authoring_tool>
    </contributor>
    <created>2026-03-07T04:19:03</created>
    <modified>2026-03-07T04:19:03</modified>
    <up_axis>Z_UP</up_axis>
  </asset>
  <library_effects>
    <effect id="effect_0">
        <profile_COMMON>
          <technique sid="common">
            <phong>
              <diffuse>
                <color>0.62745 0.62745 0.62745 1</color>
              </diffuse>
            </phong>
          </technique>
        </profile_COMMON>
    </effect>
    <effect id="effect_1">
        <profile_COMMON>
          <technique sid="common">
            <phong>
              <diffuse>
                <color>0.15686 0.21961 0.56471 1</color>
              </diffuse>
            </phong>
          </technique>
        </profile_COMMON>
    </effect>
  </library_effects>
  <library_materials>
    <material id="mat_0">
      <instance_effect url="#effect_0"/>
    </material>
    <material id="mat_1">
      <instance_effect url="#effect_1"/>
    </material>
  </library_materials>
  <library_geometries>
    <geometry id="geometry_d7f352c3_93fa_41e2_a315_62e99ac03ae7">
      <mesh>
        <source id="pos_0">
          <float_array id="pos_0-array" count="2460">-30 -44.89545441 1.62178528 -30 -44.98338699 -0 0 -44.98338699 0 -30 -44.89545441 -1.62178528 0 -44.89234543 -1.65012336 -30 -44.63269424 -3.22455668 0 -44.62033081 -3.28021646 -30 -44.19818497 -4.78952312 0 -44.17064285 -4.87049198 -30 -43.59701538 -6.29833651 0 -43.5487442 -6.40164661 -30 -42.83624268 -7.73330784 0 -42.76217651 -7.85509396 -30 -41.9247818 -9.07761383 0 -41.82049179 -9.21319103 -30 -40.87331772 -10.31549168 0 -40.73512268 -10.45945263 -30 -39.69417953 -11.43243122 0 -39.51924133 -11.57874966 -30 -38.40119171 -12.4153347 0 -38.18760681 -12.55749702 -30 -37.00951385 -13.25268078 0 -36.7563858 -13.38381386 -30 -35.53545761 -13.93465137 0 -35.24295044 -14.04766846 -30 -33.99631119 -14.45324993 0 -33.66566849 -14.54100418 -30 -32.41011429 -14.80239773 0 -32.04368973 -14.85783195 -30 -30.79546928 -14.97800159 0 -30.39669991 -14.99430466 -30 -29.17130089 -14.97800159 0 -28.74469566 -14.94876766 -30 -27.55665588 -14.80239773 0 -27.10772514 -14.72177219 -30 -25.97046089 -14.45324993 0 -25.50566292 -14.31607533 -30 -24.43131256 -13.93465137 0 -23.95795441 -13.73659992 -30 -22.95725822 -13.25268078 0 -22.48338509 -12.99038124 -30 -21.56557846 -12.4153347 -0 -21.69182205 -12.5 -0.63421005 -21.66725922 -12.48390102 -1.26094604 -21.59589577 -12.43623543 -1.87907076 -21.48122597 -12.35795403 -2.48744678 -21.32674217 -12.25000477 -3.67129207 -20.91547203 -11.94871616 -30 -20.27259064 -11.43243122 -4.80603123 -20.39965439 -11.53915405 -5.8852458 -19.81697464 -11.0269289 -30 -19.09345245 -10.31549168 -6.9009285 -19.19875526 -10.42036057 -7.84380484 -18.57152748 -9.73114777 -30 -18.04198837 -9.07761383 -8.70459557 -17.96180725 -8.97100449 -9.4926548 -17.37942123 -8.13061428 -30 -17.1305275 -7.73330784 -10.22653008 -16.81793022 -7.18309879 -30 -16.36975479 -6.29833651 -10.88637829 -16.29906464 -6.13935423 -11.45156479 -15.84519958 -5.01110744 -30 -15.76858807 -4.78952312 -11.90444279 -15.47598934 -3.81167483 -30 -15.33407688 -3.22455668 -12.23479271 -15.20366383 -2.56121063 -30 -15.07131577 -1.62178528 -12.43381405 -15.03853893 -1.28222406 -30 -14.98338509 0 -12.5 -14.98338509 0 -12.43381405 -15.03853893 1.28222406 -30 -15.07131577 1.62178528 -12.23479271 -15.20366383 2.56121063 -30 -15.33407688 3.22455668 -11.90444279 -15.47598934 3.81167483 -30 -15.76858807 4.78952312 -11.45156479 -15.84519958 5.01110744 -30 -16.36975479 6.29833651 -10.88637829 -16.29906464 6.13935423 -10.22653008 -16.81793022 7.18309879 -30 -17.1305275 7.73330784 -9.4926548 -17.37942123 8.13061428 -30 -18.04198837 9.07761383 -8.70459557 -17.96180725 8.97100449 -7.84380484 -18.57152748 9.73114777 -30 -19.09345245 10.31549168 -6.9009285 -19.19875526 10.42036057 -5.8852458 -19.81697464 11.0269289 -30 -20.27259064 11.43243122 -4.80603123 -20.39965439 11.53915405 -3.67129207 -20.91547203 11.94871616 -30 -21.56557846 12.4153347 -2.48744678 -21.32674217 12.25000477 -1.87907076 -21.48122597 12.35795403 -1.26094604 -21.59589577 12.43623543 -0.63421005 -21.66725922 12.48390102 0 -21.69182205 12.5 0 -22.48338509 12.99038124 30 -21.56557846 12.4153347 30 -22.95725822 13.25268078 0 -23.95795441 13.73659992 30 -24.43131256 13.93465137 0 -25.50566292 14.31607533 30 -25.97046089 14.45324993 0 -27.10772514 14.72177219 30 -27.55665588 14.80239773 0 -28.74469566 14.94876766 30 -29.17130089 14.97800159 0 -30.39669991 14.99430466 30 -30.79546928 14.97800159 0 -32.04368973 14.85783195 30 -32.41011429 14.80239773 0 -33.66566849 14.54100418 30 -33.99631119 14.45324993 0 -35.24295044 14.04766846 30 -35.53545761 13.93465137 0 -36.7563858 13.38381386 30 -37.00951385 13.25268078 0 -38.18760681 12.55749702 30 -38.40119171 12.4153347 0 -39.51924133 11.57874966 30 -39.69417953 11.43243122 0 -40.73512268 10.45945263 30 -40.87331772 10.31549168 0 -41.82049179 9.21319103 30 -41.9247818 9.07761383 0 -42.76217651 7.85509396 30 -42.83624268 7.73330784 0 -43.5487442 6.40164661 30 -43.59701538 6.29833651 0 -44.17064285 4.87049198 30 -44.19818497 4.78952312 0 -44.62033081 3.28021646 30 -44.63269424 3.22455668 0 -44.89234543 1.65012336 30 -44.89545441 1.62178528 30 -44.98338699 -0 30 -44.89545441 -1.62178528 30 -44.63269424 -3.22455668 30 -44.19818497 -4.78952312 30 -43.59701538 -6.29833651 30 -42.83624268 -7.73330784 30 -41.9247818 -9.07761383 30 -40.87331772 -10.31549168 30 -39.69417953 -11.43243122 30 -38.40119171 -12.4153347 30 -37.00951385 -13.25268078 30 -35.53545761 -13.93465137 30 -33.99631119 -14.45324993 30 -32.41011429 -14.80239773 30 -30.79546928 -14.97800159 30 -29.17130089 -14.97800159 30 -27.55665588 -14.80239773 30 -25.97046089 -14.45324993 30 -24.43131256 -13.93465137 30 -22.95725822 -13.25268078 30 -21.56557846 -12.4153347 0.63421005 -21.66725922 -12.48390102 1.26094604 -21.59589577 -12.43623543 -30 -22.95725822 13.25268078 -30 -24.43131256 13.93465137 -30 -25.97046089 14.45324993 -30 -27.55665588 14.80239773 -30 -29.17130089 14.97800159 -30 -30.79546928 14.97800159 -30 -32.41011429 14.80239773 -30 -33.99631119 14.45324993 -30 -35.53545761 13.93465137 -30 -37.00951385 13.25268078 -30 -38.40119171 12.4153347 -30 -39.69417953 11.43243122 -30 -40.87331772 10.31549168 -30 -41.9247818 9.07761383 -30 -42.83624268 7.73330784 -30 -43.59701538 6.29833651 -30 -44.19818497 4.78952312 -30 -44.63269424 3.22455668 30 -20.27259064 11.43243122 3.67129207 -20.91547203 11.94871616 2.48744678 -21.32674217 12.25000477 1.87907076 -21.48122597 12.35795403 30 -19.09345245 10.31549168 5.8852458 -19.81697464 11.0269289 4.80603123 -20.39965439 11.53915405 30 -18.04198837 9.07761383 7.84380484 -18.57152748 9.73114777 6.9009285 -19.19875526 10.42036057 30 -17.1305275 7.73330784 9.4926548 -17.37942123 8.13061428 8.70459557 -17.96180725 8.97100449 10.22653008 -16.81793022 7.18309879 30 -16.36975479 6.29833651 10.88637829 -16.29906464 6.13935423 11.45156479 -15.84519958 5.01110744 30 -15.76858807 4.78952312 11.90444279 -15.47598934 3.81167483 30 -15.33407688 3.22455668 12.23479271 -15.20366383 2.56121063 30 -15.07131577 1.62178528 12.43381405 -15.03853893 1.28222406 30 -14.98338509 0 12.5 -14.98338509 -0 12.43381405 -15.03853893 -1.28222406 30 -15.07131577 -1.62178528 12.23479271 -15.20366383 -2.56121063 30 -15.33407688 -3.22455668 11.90444279 -15.47598934 -3.81167483 30 -15.76858807 -4.78952312 11.45156479 -15.84519958 -5.01110744 30 -16.36975479 -6.29833651 10.88637829 -16.29906464 -6.13935423 10.22653008 -16.81793022 -7.18309879 30 -17.1305275 -7.73330784 9.4926548 -17.37942123 -8.13061428 30 -18.04198837 -9.07761383 8.70459557 -17.96180725 -8.97100449 7.84380484 -18.57152748 -9.73114777 30 -19.09345245 -10.31549168 6.9009285 -19.19875526 -10.42036057 5.8852458 -19.81697464 -11.0269289 30 -20.27259064 -11.43243122 4.80603123 -20.39965439 -11.53915405 3.67129207 -20.91547203 -11.94871616 2.48744678 -21.32674217 -12.25000477 1.87907076 -21.48122597 -12.35795403 1.26094604 -21.59589577 12.43623543 0.63421005 -21.66725922 12.48390102 0 -18.80304527 10 0.98563093 -18.75934982 9.95114231 -0.98563093 -18.75934982 9.95114231 -1.96926606 -18.63093948 9.80418205 1.96926606 -18.63093948 9.80418205 -2.93434072 -18.42421722 9.55965805 2.93434072 -18.42421722 9.55965805 -3.86648393 -18.15335083 9.22227192 3.86648393 -18.15335083 9.22227192 -4.75281286 -17.83492088 8.7971344 4.75281286 -17.83492088 8.7971344 5.58365345 -17.48668861 8.2935524 6.34985781 -17.12594795 7.72369671 -6.34985781 -17.12594795 7.72369671 -5.58365345 -17.48668861 8.2935524 7.04227781 -16.76999664 7.09973574 -7.04227781 -16.76999664 7.09973574 -7.67248487 -16.42354393 6.41151476 7.67248487 -16.42354393 6.41151476 8.25257683 -16.08706284 5.64337826 8.76818848 -15.77487183 4.80538511 -8.76818848 -15.77487183 4.80538511 -8.25257683 -16.08706284 5.64337826 9.20490742 -15.50131702 3.90764236 -9.20490742 -15.50131702 3.90764236 9.54991531 -15.2800436 2.96111202 -9.54991531 -15.2800436 2.96111202 -9.79869747 -15.11759853 1.98215342 9.79869747 -15.11759853 1.98215342 9.94935799 -15.01752949 0.98902857 10 -14.98338509 -0 -10 -14.98338509 -0 -9.94935799 -15.01752949 0.98902857 -9.94935799 -15.01752949 -0.98902857 9.94935799 -15.01752949 -0.98902857 9.79869747 -15.11759853 -1.98215342 9.54991531 -15.2800436 -2.96111202 -9.54991531 -15.2800436 -2.96111202 -9.79869747 -15.11759853 -1.98215342 9.20490742 -15.50131702 -3.90764236 -9.20490742 -15.50131702 -3.90764236 8.76818848 -15.77487183 -4.80538511 -8.76818848 -15.77487183 -4.80538511 -8.25257683 -16.08706284 -5.64337826 8.25257683 -16.08706284 -5.64337826 7.67248487 -16.42354393 -6.41151476 7.04227781 -16.76999664 -7.09973574 -7.04227781 -16.76999664 -7.09973574 -7.67248487 -16.42354393 -6.41151476 6.34985781 -17.12594795 -7.72369671 -6.34985781 -17.12594795 -7.72369671 -5.58365345 -17.48668861 -8.2935524 5.58365345 -17.48668861 -8.2935524 4.75281286 -17.83492088 -8.7971344 3.86648393 -18.15335083 -9.22227192 -3.86648393 -18.15335083 -9.22227192 -4.75281286 -17.83492088 -8.7971344 -2.93434072 -18.42421722 -9.55965805 2.93434072 -18.42421722 -9.55965805 -1.96926606 -18.63093948 -9.80418205 1.96926606 -18.63093948 -9.80418205 -0.98563093 -18.75934982 -9.95114231 0.98563093 -18.75934982 -9.95114231 -0 -18.80304527 -10 30 -34.89302826 -0.94625622 10 -34.89302826 -0.94625622 30 -34.98338699 -0 10 -34.98338699 0 30 -34.89302826 0.94625622 10 -34.89302826 0.94625622 30 -34.62522507 1.85831225 10 -34.62522507 1.85831225 30 -34.18965149 2.70320415 10 -34.18965149 2.70320415 30 -33.6020546 3.45039511 10 -33.6020546 3.45039511 30 -32.88367081 4.07287979 10 -32.88367081 4.07287979 30 -32.06045914 4.54816008 10 -32.06045914 4.54816008 30 -31.16217995 4.8590579 10 -31.16217995 4.8590579 30 -30.2212944 4.99433661 10 -30.2212944 4.99433661 30 -29.27181053 4.94910717 10 -29.27181053 4.94910717 30 -28.34804535 4.7250042 10 -28.34804535 4.7250042 30 -27.48338509 4.33012724 10 -27.48338509 4.33012724 30 -26.70908165 3.77874804 10 -26.70908165 3.77874804 30 -26.05311966 3.09079504 10 -26.05311966 3.09079504 30 -25.53920746 2.29113269 10 -25.53920746 2.29113269 30 -25.18592072 1.4086628 10 -25.18592072 1.4086628 30 -25.00602531 0.47528023 10 -25.00602531 0.47528023 30 -25.00602531 -0.47528023 10 -25.00602531 -0.47528023 30 -25.18592072 -1.4086628 10 -25.18592072 -1.4086628 30 -25.53920746 -2.29113269 10 -25.53920746 -2.29113269 30 -26.05311966 -3.09079504 10 -26.05311966 -3.09079504 30 -26.70908165 -3.77874804 10 -26.70908165 -3.77874804 30 -27.48338509 -4.33012724 10 -27.48338509 -4.33012724 30 -28.34804535 -4.7250042 10 -28.34804535 -4.7250042 30 -29.27181053 -4.94910717 10 -29.27181053 -4.94910717 30 -30.2212944 -4.99433661 10 -30.2212944 -4.99433661 30 -31.16217995 -4.8590579 10 -31.16217995 -4.8590579 30 -32.06045914 -4.54816008 10 -32.06045914 -4.54816008 30 -32.88367081 -4.07287979 10 -32.88367081 -4.07287979 30 -33.6020546 -3.45039511 10 -33.6020546 -3.45039511 30 -34.18965149 -2.70320415 10 -34.18965149 -2.70320415 30 -34.62522507 -1.85831225 10 -34.62522507 -1.85831225 -30 -34.89302826 0.94625622 -10 -34.89302826 0.94625622 -30 -34.98338699 -0 -10 -34.98338699 0 -30 -34.89302826 -0.94625622 -10 -34.89302826 -0.94625622 -30 -34.62522507 -1.85831225 -10 -34.62522507 -1.85831225 -30 -34.18965149 -2.70320415 -10 -34.18965149 -2.70320415 -30 -33.6020546 -3.45039511 -10 -33.6020546 -3.45039511 -30 -32.88367081 -4.07287979 -10 -32.88367081 -4.07287979 -30 -32.06045914 -4.54816008 -10 -32.06045914 -4.54816008 -30 -31.16217995 -4.8590579 -10 -31.16217995 -4.8590579 -30 -30.2212944 -4.99433661 -10 -30.2212944 -4.99433661 -30 -29.27181053 -4.94910717 -10 -29.27181053 -4.94910717 -30 -28.34804535 -4.7250042 -10 -28.34804535 -4.7250042 -30 -27.48338509 -4.33012724 -10 -27.48338509 -4.33012724 -30 -26.70908165 -3.77874804 -10 -26.70908165 -3.77874804 -30 -26.05311966 -3.09079504 -10 -26.05311966 -3.09079504 -30 -25.53920746 -2.29113269 -10 -25.53920746 -2.29113269 -30 -25.18592072 -1.4086628 -10 -25.18592072 -1.4086628 -30 -25.00602531 -0.47528023 -10 -25.00602531 -0.47528023 -30 -25.00602531 0.47528023 -10 -25.00602531 0.47528023 -30 -25.18592072 1.4086628 -10 -25.18592072 1.4086628 -30 -25.53920746 2.29113269 -10 -25.53920746 2.29113269 -30 -26.05311966 3.09079504 -10 -26.05311966 3.09079504 -30 -26.70908165 3.77874804 -10 -26.70908165 3.77874804 -30 -27.48338509 4.33012724 -10 -27.48338509 4.33012724 -30 -28.34804535 4.7250042 -10 -28.34804535 4.7250042 -30 -29.27181053 4.94910717 -10 -29.27181053 4.94910717 -30 -30.2212944 4.99433661 -10 -30.2212944 4.99433661 -30 -31.16217995 4.8590579 -10 -31.16217995 4.8590579 -30 -32.06045914 4.54816008 -10 -32.06045914 4.54816008 -30 -32.88367081 4.07287979 -10 -32.88367081 4.07287979 -30 -33.6020546 3.45039511 -10 -33.6020546 3.45039511 -30 -34.18965149 2.70320415 -10 -34.18965149 2.70320415 -30 -34.62522507 1.85831225 -10 -34.62522507 1.85831225 -1.00095689 6.32186985 9.94977856 0.33414978 6.32186985 9.99441624 1.6632936 6.32186985 9.86070251 2.96275592 6.32186985 9.55102539 4.20934772 6.32186985 9.0709095 5.38082361 6.32186985 8.42892265 6.4562788 6.32186985 7.63652229 7.41652107 6.32186985 6.7078476 8.24441528 6.32186985 5.65947104 8.92518806 6.32186985 4.51010132 9.44669151 6.32186985 3.28024864 9.80106163 6.32186985 1.98474002 9.97766876 6.32186985 0.66792637 9.97766876 6.32186985 -0.66792637 9.80106163 6.32186985 -1.98474002 9.44669151 6.32186985 -3.28024864 8.92518806 6.32186985 -4.51010132 8.24441528 6.32186985 -5.65947104 7.41652107 6.32186985 -6.7078476 6.4562788 6.32186985 -7.63652229 5.38082361 6.32186985 -8.42892265 4.20934772 6.32186985 -9.0709095 2.96275592 6.32186985 -9.55102539 1.6632936 6.32186985 -9.86070251 0.33414978 6.32186985 -9.99441624 -1.00095689 6.32186985 -9.94977856 -2.31820154 6.32186985 -9.72758675 -3.59407783 6.32186985 -9.33180618 -4.8058176 6.32186985 -8.76949978 -5.9317975 6.32186985 -8.05070019 -6.95192432 6.32186985 -7.18823671 -7.84799385 6.32186985 -6.1974988 -8.6040163 6.32186985 -5.09616661 -9.20526505 6.32186985 -3.90680075 -9.64469147 6.32186985 -2.64195395 -9.91077518 6.32186985 -1.33286953 -10 6.32186985 -0 -9.91077518 6.32186985 1.33286953 -9.64469147 6.32186985 2.64195395 -9.20526505 6.32186985 3.90680075 -8.6040163 6.32186985 5.09616661 -7.84799385 6.32186985 6.1974988 -6.95192432 6.32186985 7.18823671 -5.9317975 6.32186985 8.05070019 -4.8058176 6.32186985 8.76949978 -3.59407783 6.32186985 9.33180618 -2.31820154 6.32186985 9.72758675 -9.91077518 81.69661713 1.33286953 -9.91077518 56.57170105 1.33286953 -10 81.69661713 0 -10 56.57170105 -0 -9.91077518 81.69661713 -1.33286953 -9.91077518 56.57170105 -1.33286953 -9.64469147 81.69661713 -2.64195395 -9.64469147 56.57170105 -2.64195395 -9.2064991 81.69661713 -3.90389276 -9.20608807 56.57170105 -3.90486217 -8.6040163 81.69661713 -5.09616661 -8.6040163 56.57170105 -5.09616661 -7.84799385 81.69661713 -6.1974988 -7.84799385 56.57170105 -6.1974988 -6.95192432 81.69661713 -7.18823671 -6.95192432 56.57170105 -7.18823671 -5.9317975 81.69661713 -8.05070019 -5.9317975 56.57170105 -8.05070019 -4.8058176 81.69661713 -8.76949978 -4.8058176 56.57170105 -8.76949978 -3.59407783 81.69661713 -9.33180618 -3.59407783 56.57170105 -9.33180618 -2.31820154 81.69661713 -9.72758675 -2.31820154 56.57170105 -9.72758675 -1.00095689 81.69661713 -9.94977856 -1.00095689 56.57170105 -9.94977856 0.33414978 81.69661713 -9.99441624 0.33414978 56.57170105 -9.99441624 1.6632936 81.69661713 -9.86070251 1.6632936 56.57170105 -9.86070251 2.96275592 81.69661713 -9.55102539 2.96275592 56.57170105 -9.55102539 4.20934772 81.69661713 -9.0709095 4.20934772 56.57170105 -9.0709095 5.38082361 81.69661713 -8.42892265 5.38082361 56.57170105 -8.42892265 6.4562788 81.69661713 -7.63652229 6.4562788 56.57170105 -7.63652229 7.41652107 81.69661713 -6.7078476 7.41652107 56.57170105 -6.7078476 8.24441528 81.69661713 -5.65947104 8.24441528 56.57170105 -5.65947104 8.92518806 81.69661713 -4.51010132 8.92518806 56.57170105 -4.51010132 9.44669151 81.69661713 -3.28024864 9.44669151 56.57170105 -3.28024864 9.79961681 81.69661713 -1.99185991 9.80009937 56.57170105 -1.98948669 9.97766876 81.69661713 -0.66792637 9.97766876 56.57170105 -0.66792637 9.97766876 81.69661713 0.66792637 9.97766876 56.57170105 0.66792637 9.80009937 56.57170105 1.98948669 9.80058098 31.44678497 1.98711336 9.44669151 31.44678497 3.28024864 8.92518806 31.44678497 4.51010132 8.24441528 31.44678497 5.65947104 7.41652107 31.44678497 6.7078476 6.4562788 31.44678497 7.63652229 5.38082361 31.44678497 8.42892265 4.20934772 31.44678497 9.0709095 2.96275592 31.44678497 9.55102539 1.6632936 31.44678497 9.86070251 0.33414978 31.44678497 9.99441624 -1.00095689 31.44678497 9.94977856 -2.31820154 31.44678497 9.72758675 -3.59407783 31.44678497 9.33180618 -4.8058176 31.44678497 8.76949978 -5.9317975 31.44678497 8.05070019 -6.95192432 31.44678497 7.18823671 -7.84799385 31.44678497 6.1974988 -8.6040163 31.44678497 5.09616661 -9.64469147 56.57170105 2.64195395 -9.64469147 81.69661713 2.64195395 -9.2064991 81.69661713 3.90389276 -9.20608807 56.57170105 3.90486217 -8.6040163 81.69661713 5.09616661 -8.6040163 56.57170105 5.09616661 -7.84799385 56.57170105 6.1974988 -7.84799385 81.69661713 6.1974988 -6.95192432 56.57170105 7.18823671 -6.95192432 81.69661713 7.18823671 -5.9317975 56.57170105 8.05070019 -5.9317975 81.69661713 8.05070019 -4.8058176 56.57170105 8.76949978 -4.8058176 81.69661713 8.76949978 -3.59407783 56.57170105 9.33180618 -3.59407783 81.69661713 9.33180618 -2.31820154 56.57170105 9.72758675 -2.31820154 81.69661713 9.72758675 -1.00095689 56.57170105 9.94977856 -1.00095689 81.69661713 9.94977856 0.33414978 56.57170105 9.99441624 0.33414978 81.69661713 9.99441624 1.6632936 56.57170105 9.86070251 1.6632936 81.69661713 9.86070251 2.96275592 56.57170105 9.55102539 2.96275592 81.69661713 9.55102539 4.20934772 56.57170105 9.0709095 4.20934772 81.69661713 9.0709095 5.38082361 56.57170105 8.42892265 5.38082361 81.69661713 8.42892265 6.4562788 56.57170105 7.63652229 6.4562788 81.69661713 7.63652229 7.41652107 56.57170105 6.7078476 7.41652107 81.69661713 6.7078476 8.24441528 56.57170105 5.65947104 8.24441528 81.69661713 5.65947104 8.92518806 56.57170105 4.51010132 8.92518806 81.69661713 4.51010132 9.44669151 56.57170105 3.28024864 9.44669151 81.69661713 3.28024864 9.79961681 81.69661713 1.99185991 -10 31.44678497 -0 -9.91077518 31.44678497 -1.33286953 -9.64469147 31.44678497 -2.64195395 -9.20567703 31.44678497 -3.90583158 -8.6040163 31.44678497 -5.09616661 -7.84799385 31.44678497 -6.1974988 -6.95192432 31.44678497 -7.18823671 -5.9317975 31.44678497 -8.05070019 -4.8058176 31.44678497 -8.76949978 -3.59407783 31.44678497 -9.33180618 -2.31820154 31.44678497 -9.72758675 -1.00095689 31.44678497 -9.94977856 0.33414978 31.44678497 -9.99441624 1.6632936 31.44678497 -9.86070251 2.96275592 31.44678497 -9.55102539 4.20934772 31.44678497 -9.0709095 5.38082361 31.44678497 -8.42892265 6.4562788 31.44678497 -7.63652229 7.41652107 31.44678497 -6.7078476 8.24441528 31.44678497 -5.65947104 8.92518806 31.44678497 -4.51010132 9.44669151 31.44678497 -3.28024864 9.80058098 31.44678497 -1.98711336 9.97766876 31.44678497 -0.66792637 9.97766876 31.44678497 0.66792637 -9.91077518 31.44678497 1.33286953 -9.64469147 31.44678497 2.64195395 -9.20567703 31.44678497 3.90583158 0 4.15528631 12.5 1.5067085 4.15528631 12.40886116 2.99144578 4.15528631 12.13677311 2.99144578 30.00239563 12.13677311 4.43256092 30.00239563 11.68770313 4.43256092 55.84950638 11.68770313 5.80903959 55.84950638 11.06820011 5.37581491 81.69661713 11.28497314 6.67279243 81.69661713 10.5699501 7.1008091 55.84950638 10.2872982 7.87609816 81.69661713 9.70654869 8.28903294 55.84950638 9.35638428 8.9688406 81.69661713 8.7068882 9.35638428 55.84950638 8.28903294 9.93568039 81.69661713 7.58500195 10.2872982 55.84950638 7.1008091 10.76304531 81.69661713 6.35663891 11.06820011 55.84950638 5.80903959 11.43932056 81.69661713 5.03904295 11.68770313 55.84950638 4.43256092 11.95501232 81.69661713 3.65070963 12.13677311 55.84950638 2.99144578 12.30288219 81.69661713 2.21112847 12.40886116 55.84950638 1.5067085 12.47804642 81.69661713 0.74050784 12.5 55.84950638 -0 12.47804642 81.69661713 -0.74050784 12.40886116 55.84950638 -1.5067085 12.30288219 81.69661713 -2.21112847 12.13677311 55.84950638 -2.99144578 11.95501232 81.69661713 -3.65070963 11.68770313 55.84950638 -4.43256092 11.43932056 81.69661713 -5.03904295 11.06820011 55.84950638 -5.80903959 10.76304531 81.69661713 -6.35663891 10.2872982 55.84950638 -7.1008091 9.93568039 81.69661713 -7.58500195 9.35638428 55.84950638 -8.28903294 8.9688406 81.69661713 -8.7068882 8.28903294 55.84950638 -9.35638428 7.87609816 81.69661713 -9.70654869 7.1008091 55.84950638 -10.2872982 6.67279243 81.69661713 -10.5699501 5.80903959 55.84950638 -11.06820011 5.37581491 81.69661713 -11.28497314 4.43256092 55.84950638 -11.68770313 4.00337315 81.69661713 -11.84157944 2.99144578 55.84950638 -12.13677311 2.57473278 81.69661713 -12.23195648 1.5067085 55.84950638 -12.40886116 1.10994864 81.69661713 -12.45062256 -0 55.84950638 -12.5 -0.37041661 81.69661713 -12.49451065 -1.5067085 55.84950638 -12.40886116 -1.84558201 81.69661713 -12.36300278 -2.99144578 55.84950638 -12.13677311 -3.29483962 81.69661713 -12.0579443 -4.43256092 55.84950638 -11.68770313 -4.69784498 81.69661713 -11.58362007 -5.80903959 55.84950638 -11.06820011 -6.03490257 81.69661713 -10.94668674 -7.1008091 55.84950638 -10.2872982 -7.28724337 81.69661713 -10.15608597 -8.28903294 55.84950638 -9.35638428 -8.43728733 81.69661713 -9.22291565 -9.35638428 55.84950638 -8.28903294 -9.46889019 81.69661713 -8.16027641 -10.2872982 55.84950638 -7.1008091 -10.36757088 81.69661713 -6.98308468 -11.06820011 55.84950638 -5.80903959 -11.12071323 81.69661713 -5.70786524 -11.68770313 55.84950638 -4.43256092 -11.71774578 81.69661713 -4.35252047 -12.13677311 55.84950638 -2.99144578 -12.15028667 81.69661713 -2.93607569 -12.40886116 55.84950638 -1.5067085 -12.41226387 81.69661713 -1.47841465 -12.5 55.84950638 -0 -12.5 81.69661713 0 -12.41226387 81.69661713 1.47841465 -12.40886116 55.84950638 1.5067085 -12.15028667 81.69661713 2.93607569 -12.13677311 55.84950638 2.99144578 -11.71774578 81.69661713 4.35252047 -11.68770313 55.84950638 4.43256092 -11.12071323 81.69661713 5.70786524 -11.06820011 55.84950638 5.80903959 -10.36757088 81.69661713 6.98308468 -10.2872982 55.84950638 7.1008091 -9.46889019 81.69661713 8.16027641 -9.35638428 55.84950638 8.28903294 -8.43728733 81.69661713 9.22291565 -8.28903294 55.84950638 9.35638428 -7.28724337 81.69661713 10.15608597 -7.1008091 55.84950638 10.2872982 -6.03490257 81.69661713 10.94668674 -5.80903959 55.84950638 11.06820011 -4.69784498 81.69661713 11.58362007 -4.43256092 55.84950638 11.68770313 -3.29483962 81.69661713 12.0579443 -2.99144578 55.84950638 12.13677311 -1.84558201 81.69661713 12.36300278 -1.5067085 55.84950638 12.40886116 -0.37041661 81.69661713 12.49451065 0 55.84950638 12.5 1.10994864 81.69661713 12.45062256 1.5067085 55.84950638 12.40886116 2.57473278 81.69661713 12.23195648 2.99144578 55.84950638 12.13677311 4.00337315 81.69661713 11.84157944 4.43256092 4.15528631 11.68770313 5.80903959 30.00239563 11.06820011 5.80903959 4.15528631 11.06820011 7.1008091 30.00239563 10.2872982 7.1008091 4.15528631 10.2872982 8.28903294 4.15528631 9.35638428 9.35638428 4.15528631 8.28903294 10.2872982 4.15528631 7.1008091 11.06820011 4.15528631 5.80903959 11.68770313 4.15528631 4.43256092 12.13677311 4.15528631 2.99144578 12.40886116 4.15528631 1.5067085 12.5 4.15528631 -0 12.40886116 4.15528631 -1.5067085 12.13677311 4.15528631 -2.99144578 11.68770313 4.15528631 -4.43256092 11.06820011 4.15528631 -5.80903959 10.2872982 4.15528631 -7.1008091 9.35638428 4.15528631 -8.28903294 8.28903294 4.15528631 -9.35638428 7.1008091 4.15528631 -10.2872982 5.80903959 4.15528631 -11.06820011 4.43256092 4.15528631 -11.68770313 2.99144578 4.15528631 -12.13677311 1.5067085 4.15528631 -12.40886116 -0 4.15528631 -12.5 -0 30.00239563 -12.5 -1.5067085 30.00239563 -12.40886116 -1.5067085 4.15528631 -12.40886116 -2.99144578 4.15528631 -12.13677311 -2.99144578 30.00239563 -12.13677311 -4.43256092 30.00239563 -11.68770313 -4.43256092 4.15528631 -11.68770313 -5.80903959 30.00239563 -11.06820011 -5.80903959 4.15528631 -11.06820011 -7.1008091 30.00239563 -10.2872982 -7.1008091 4.15528631 -10.2872982 -8.28903294 4.15528631 -9.35638428 -9.35638428 4.15528631 -8.28903294 -10.2872982 4.15528631 -7.1008091 -11.06820011 4.15528631 -5.80903959 -11.68770313 4.15528631 -4.43256092 -12.13677311 4.15528631 -2.99144578 -12.40886116 4.15528631 -1.5067085 -12.5 4.15528631 -0 -12.40886116 4.15528631 1.5067085 -12.13677311 4.15528631 2.99144578 -11.68770313 4.15528631 4.43256092 -11.06820011 4.15528631 5.80903959 -10.2872982 4.15528631 7.1008091 -9.35638428 4.15528631 8.28903294 -8.28903294 4.15528631 9.35638428 -7.1008091 4.15528631 10.2872982 -5.80903959 4.15528631 11.06820011 -4.43256092 4.15528631 11.68770313 -2.99144578 4.15528631 12.13677311 -1.5067085 4.15528631 12.40886116 0 30.00239563 12.5 1.5067085 30.00239563 12.40886116 -12.5 30.00239563 -0 -12.40886116 30.00239563 -1.5067085 -12.13677311 30.00239563 -2.99144578 -11.68770313 30.00239563 -4.43256092 -11.06820011 30.00239563 -5.80903959 -10.2872982 30.00239563 -7.1008091 -9.35638428 30.00239563 -8.28903294 -8.28903294 30.00239563 -9.35638428 -12.40886116 30.00239563 1.5067085 -12.13677311 30.00239563 2.99144578 -11.68770313 30.00239563 4.43256092 -11.06820011 30.00239563 5.80903959 -10.2872982 30.00239563 7.1008091 -9.35638428 30.00239563 8.28903294 -8.28903294 30.00239563 9.35638428 -7.1008091 30.00239563 10.2872982 -5.80903959 30.00239563 11.06820011 -4.43256092 30.00239563 11.68770313 -2.99144578 30.00239563 12.13677311 -1.5067085 30.00239563 12.40886116 8.28903294 30.00239563 9.35638428 9.35638428 30.00239563 8.28903294 10.2872982 30.00239563 7.1008091 11.06820011 30.00239563 5.80903959 11.68770313 30.00239563 4.43256092 12.13677311 30.00239563 2.99144578 12.40886116 30.00239563 1.5067085 12.5 30.00239563 -0 12.40886116 30.00239563 -1.5067085 12.13677311 30.00239563 -2.99144578 11.68770313 30.00239563 -4.43256092 11.06820011 30.00239563 -5.80903959 10.2872982 30.00239563 -7.1008091 9.35638428 30.00239563 -8.28903294 8.28903294 30.00239563 -9.35638428 7.1008091 30.00239563 -10.2872982 5.80903959 30.00239563 -11.06820011 4.43256092 30.00239563 -11.68770313 2.99144578 30.00239563 -12.13677311 1.5067085 30.00239563 -12.40886116</float_array>
          <technique_common>
            <accessor source="#pos_0-array" count="2460" stride="3">
              <param name="X" type="float"/>
              <param name="Y" type="float"/>
              <param name="Z" type="float"/>
            </accessor>
          </technique_common>
        </source>
        <source id="norm_0">
          <float_array id="norm_0-array" count="2838">-0 -0.99853 0.05414 0 -0.99853 -0.05414 5E-05 -0.99848 -0.05509 -5E-05 -0.98683 -0.16178 0.0001 -0.98636 -0.16459 -0.0001 -0.96355 -0.26753 0.00015 -0.96227 -0.2721 -0.00015 -0.92898 -0.37014 0.00019 -0.92649 -0.37631 -0.00019 -0.88351 -0.46841 0.00024 -0.87947 -0.47595 -0.00023 -0.82769 -0.56119 0.00028 -0.82178 -0.56981 -0.00028 -0.76216 -0.64739 0.00032 -0.75411 -0.65675 -0.00032 -0.6877 -0.726 0.00036 -0.67728 -0.73572 -0.00035 -0.60517 -0.79609 0.0004 -0.59224 -0.80577 -0.00039 -0.51555 -0.85686 0.00043 -0.5 -0.86603 -0.00042 -0.41989 -0.90758 0.00047 -0.4017 -0.91577 -0.00046 -0.3193 -0.94765 0.0005 -0.29851 -0.9544 -0.00049 -0.21497 -0.97662 0.00053 -0.19171 -0.98145 -0.00052 -0.10812 -0.99414 0.00056 -0.08258 -0.99658 -0.00054 0 -1 0.00058 0.02755 -0.99962 -0.00057 0.10812 -0.99414 0.00061 0.13735 -0.99052 -0.00059 0.21497 -0.97662 0.00063 0.24549 -0.9694 -0.00061 0.3193 -0.94765 0.00065 0.35064 -0.93651 -0.00063 0.41989 -0.90758 0.00067 0.45153 -0.89225 -0.00065 0.51555 -0.85686 -0.00018 0.52664 -0.85009 -6E-05 0.54707 -0.83709 -2E-05 0.55531 -0.83165 -1E-05 0.5638 -0.82591 -5E-05 0.57267 -0.81979 -0.00028 0.59045 -0.80707 -0.00083 0.60517 -0.79609 -0.00018 0.62158 -0.78335 0.00015 0.6604 -0.75092 -0.00079 0.6877 -0.726 -5E-05 0.70031 -0.71384 0.00032 0.7398 -0.67283 -0.00088 0.76216 -0.64739 0.00019 0.78017 -0.62556 -0.00024 0.82182 -0.56975 -0.00083 0.82769 -0.56119 0.00057 0.86049 -0.50947 -0.00093 0.88351 -0.46841 0.00039 0.89555 -0.44495 -0.00033 0.92769 -0.37335 -0.00058 0.92898 -0.37014 0.00043 0.95579 -0.29405 -0.00112 0.96355 -0.26753 0.00077 0.97714 -0.2126 -0.0012 0.98683 -0.16178 0.00062 0.99178 -0.12795 -0.00082 0.99853 -0.05414 0 0.99908 -0.04297 -0 0.99908 0.04297 -0.00082 0.99853 0.05414 0.00062 0.99178 0.12795 -0.0012 0.98683 0.16178 0.00077 0.97714 0.2126 -0.00112 0.96355 0.26753 0.00043 0.95579 0.29405 -0.00058 0.92898 0.37014 -0.00033 0.92769 0.37335 0.00039 0.89555 0.44495 -0.00093 0.88351 0.46841 0.00057 0.86049 0.50947 -0.00083 0.82769 0.56119 -0.00024 0.82182 0.56975 0.00019 0.78017 0.62556 -0.00088 0.76216 0.64739 0.00032 0.7398 0.67283 -5E-05 0.70031 0.71384 -0.00079 0.6877 0.726 0.00015 0.6604 0.75092 -0.00018 0.62158 0.78335 -0.00083 0.60517 0.79609 -0.00028 0.59045 0.80707 -5E-05 0.57267 0.81979 -1E-05 0.5638 0.82591 -2E-05 0.55531 0.83165 -6E-05 0.54707 0.83709 -0.00018 0.52664 0.85009 0.00018 0.52664 0.85009 0.00065 0.51555 0.85686 -0.00067 0.45153 0.89225 0.00063 0.41989 0.90758 -0.00065 0.35064 0.93651 0.00061 0.3193 0.94765 -0.00063 0.24549 0.9694 0.00059 0.21497 0.97662 -0.00061 0.13735 0.99052 0.00057 0.10812 0.99414 -0.00058 0.02755 0.99962 0.00054 0 1 -0.00056 -0.08258 0.99658 0.00052 -0.10812 0.99414 -0.00053 -0.19171 0.98145 0.00049 -0.21497 0.97662 -0.0005 -0.29851 0.9544 0.00046 -0.3193 0.94765 -0.00047 -0.4017 0.91577 0.00042 -0.41989 0.90758 -0.00043 -0.5 0.86603 0.00039 -0.51555 0.85686 -0.0004 -0.59224 0.80577 0.00035 -0.60517 0.79609 -0.00036 -0.67728 0.73572 0.00032 -0.6877 0.726 -0.00032 -0.75411 0.65675 0.00028 -0.76216 0.64739 -0.00028 -0.82178 0.56981 0.00023 -0.82769 0.56119 -0.00024 -0.87947 0.47595 0.00019 -0.88351 0.46841 -0.00019 -0.92649 0.37631 0.00015 -0.92898 0.37014 -0.00015 -0.96227 0.2721 0.0001 -0.96355 0.26753 -0.0001 -0.98636 0.16459 5E-05 -0.98683 0.16178 -5E-05 -0.99848 0.05509 0 -0.99853 0.05414 -0 -0.99853 -0.05414 -5E-05 -0.99848 -0.05509 5E-05 -0.98683 -0.16178 -0.0001 -0.98636 -0.16459 0.0001 -0.96355 -0.26753 -0.00015 -0.96227 -0.2721 0.00015 -0.92898 -0.37014 -0.00019 -0.92649 -0.37631 0.00019 -0.88351 -0.46841 -0.00024 -0.87947 -0.47595 0.00023 -0.82769 -0.56119 -0.00028 -0.82178 -0.56981 0.00028 -0.76216 -0.64739 -0.00032 -0.75411 -0.65675 0.00032 -0.6877 -0.726 -0.00036 -0.67728 -0.73572 0.00035 -0.60517 -0.79609 -0.0004 -0.59224 -0.80577 0.00039 -0.51555 -0.85686 -0.00043 -0.5 -0.86603 0.00042 -0.41989 -0.90758 -0.00047 -0.4017 -0.91577 0.00046 -0.3193 -0.94765 -0.0005 -0.29851 -0.9544 0.00049 -0.21497 -0.97662 -0.00053 -0.19171 -0.98145 0.00052 -0.10812 -0.99414 -0.00056 -0.08258 -0.99658 0.00054 0 -1 -0.00058 0.02755 -0.99962 0.00057 0.10812 -0.99414 -0.00061 0.13735 -0.99052 0.00059 0.21497 -0.97662 -0.00063 0.24549 -0.9694 0.00061 0.3193 -0.94765 -0.00065 0.35064 -0.93651 0.00063 0.41989 -0.90758 -0.00067 0.45153 -0.89225 0.00065 0.51555 -0.85686 0.00016 0.52721 -0.84973 2E-05 0.55531 -0.83165 -0.00065 0.51555 0.85686 0.00067 0.45153 0.89225 -0.00063 0.41989 0.90758 0.00065 0.35064 0.93651 -0.00061 0.3193 0.94765 0.00063 0.24549 0.9694 -0.00059 0.21497 0.97662 0.00061 0.13735 0.99052 -0.00057 0.10812 0.99414 0.00058 0.02755 0.99962 -0.00054 0 1 0.00056 -0.08258 0.99658 -0.00052 -0.10812 0.99414 0.00053 -0.19171 0.98145 -0.00049 -0.21497 0.97662 0.0005 -0.29851 0.9544 -0.00046 -0.3193 0.94765 0.00047 -0.4017 0.91577 -0.00042 -0.41989 0.90758 0.00043 -0.5 0.86603 -0.00039 -0.51555 0.85686 0.0004 -0.59224 0.80577 -0.00035 -0.60517 0.79609 0.00036 -0.67728 0.73572 -0.00032 -0.6877 0.726 0.00032 -0.75411 0.65675 -0.00028 -0.76216 0.64739 0.00028 -0.82178 0.56981 -0.00023 -0.82769 0.56119 0.00024 -0.87947 0.47595 -0.00019 -0.88351 0.46841 0.00019 -0.92649 0.37631 -0.00015 -0.92898 0.37014 0.00015 -0.96227 0.2721 -0.0001 -0.96355 0.26753 0.0001 -0.98636 0.16459 -5E-05 -0.98683 0.16178 5E-05 -0.99848 0.05509 0.00083 0.60517 0.79609 0.00028 0.59045 0.80707 5E-05 0.57267 0.81979 0.00079 0.6877 0.726 -0.00015 0.6604 0.75092 0.00018 0.62158 0.78335 0.00088 0.76216 0.64739 -0.00032 0.7398 0.67283 5E-05 0.70031 0.71384 0.00083 0.82769 0.56119 0.00024 0.82182 0.56975 -0.00019 0.78017 0.62556 -0.00057 0.86049 0.50947 0.00093 0.88351 0.46841 -0.00039 0.89555 0.44495 0.00033 0.92769 0.37335 0.00058 0.92898 0.37014 -0.00043 0.95579 0.29405 0.00112 0.96355 0.26753 -0.00077 0.97714 0.2126 0.0012 0.98683 0.16178 -0.00062 0.99178 0.12795 0.00082 0.99853 0.05414 -0 0.99908 0.04297 0 0.99908 -0.04297 0.00082 0.99853 -0.05414 -0.00062 0.99178 -0.12795 0.0012 0.98683 -0.16178 -0.00077 0.97714 -0.2126 0.00112 0.96355 -0.26753 -0.00043 0.95579 -0.29405 0.00058 0.92898 -0.37014 0.00033 0.92769 -0.37335 -0.00039 0.89555 -0.44495 0.00093 0.88351 -0.46841 -0.00057 0.86049 -0.50947 0.00083 0.82769 -0.56119 0.00024 0.82182 -0.56975 -0.00019 0.78017 -0.62556 0.00088 0.76216 -0.64739 -0.00032 0.7398 -0.67283 5E-05 0.70031 -0.71384 0.00079 0.6877 -0.726 -0.00015 0.6604 -0.75092 0.00018 0.62158 -0.78335 0.00083 0.60517 -0.79609 0.00028 0.59045 -0.80707 5E-05 0.57267 -0.81979 1E-05 0.5638 -0.82591 0.00118 0.52664 -0.85009 1E-05 0.5638 0.82591 2E-05 0.55531 0.83165 6E-05 0.54707 0.83709 0 0.74539 0.66663 -0 0.75303 0.65798 -0 0.75303 0.65798 -0 0.76367 0.64561 -0 0.76367 0.64561 -0 0.77979 0.62604 0 0.77979 0.62604 0 0.80038 0.59949 -0 0.80038 0.59949 -0 0.8225 0.56877 0 0.84493 0.53487 0 0.84493 0.53487 0 0.8225 0.56877 0 0.8686 0.49551 0 0.8686 0.49551 0 0.89321 0.44964 -0 0.89321 0.44964 -0 0.91597 0.40124 -0 0.93708 0.34911 -0 0.93708 0.34911 -0 0.91597 0.40124 -0 0.95658 0.29148 0 0.95658 0.29148 0 0.97375 0.22764 0 0.97375 0.22764 0 0.98651 0.1637 0 0.98651 0.1637 0 0.99496 0.10025 0 0.9994 0.0345 -0 0.9994 0.0345 -0 0.99496 0.10025 -0 0.9994 -0.0345 -0 0.9994 -0.0345 -0 0.99496 -0.10025 -0 0.98651 -0.1637 -0 0.98651 -0.1637 -0 0.99496 -0.10025 -0 0.97375 -0.22764 0 0.97375 -0.22764 0 0.95658 -0.29148 -0 0.95658 -0.29148 -0 0.93708 -0.34911 -0 0.93708 -0.34911 -0 0.91597 -0.40124 -0 0.89321 -0.44964 -0 0.89321 -0.44964 -0 0.91597 -0.40124 -0 0.8686 -0.49551 0 0.8686 -0.49551 0 0.84493 -0.53487 0 0.84493 -0.53487 -0 0.8225 -0.56877 0 0.80038 -0.59949 0 0.80038 -0.59949 0 0.8225 -0.56877 0 0.77979 -0.62604 0 0.77979 -0.62604 0 0.76367 -0.64561 0 0.76367 -0.64561 0 0.75303 -0.65798 -0 0.75303 -0.65798 -0 0.74539 -0.66663 0 0.99547 0.09506 0 0.99547 0.09506 -0 0.99547 -0.09506 0 0.99547 -0.09506 0 0.95949 -0.28173 0 0.88884 -0.45823 0 0.78605 -0.61816 0 0.65486 -0.75575 -0 0.65486 -0.75575 -0 0.5 -0.86603 0 0.5 -0.86603 0 0.32707 -0.945 0 0.32707 -0.945 0 0.14231 -0.98982 -0 -0.04758 -0.99887 -0 -0.23576 -0.97181 0 -0.23576 -0.97181 0 -0.41542 -0.90963 -0 -0.41542 -0.90963 -0 -0.58006 -0.81458 -0 -0.72373 -0.69008 -0 -0.84125 -0.54064 -0 -0.84125 -0.54064 -0 -0.92837 -0.37166 0 -0.92837 -0.37166 0 -0.98193 -0.18925 -0 -0.98193 -0.18925 -0 -1 -0 -0 -0.98193 0.18925 0 -0.98193 0.18925 0 -0.92837 0.37166 -0 -0.92837 0.37166 -0 -0.84125 0.54064 -0 -0.72373 0.69008 0 -0.72373 0.69008 0 -0.58006 0.81458 0 -0.41542 0.90963 0 -0.41542 0.90963 0 -0.23576 0.97181 0 -0.23576 0.97181 0 -0.04758 0.99887 0 0.14231 0.98982 -0 0.14231 0.98982 -0 0.32707 0.945 0 0.32707 0.945 0 0.5 0.86603 -0 0.5 0.86603 -0 0.65486 0.75575 0 0.65486 0.75575 0 0.78605 0.61816 0 0.88884 0.45823 0 0.95949 0.28173 0 0.99547 -0.09506 -0 0.99547 0.09506 0 0.65486 0.75575 0 0.5 0.86603 0 0.32707 0.945 0 0.14231 0.98982 -0 -0.23576 0.97181 -0 -0.41542 0.90963 0 -0.72373 0.69008 0 -0.84125 0.54064 0 -0.92837 0.37166 -0 -0.92837 0.37166 -0 -0.98193 0.18925 0 -0.98193 0.18925 0 -0.98193 -0.18925 -0 -0.98193 -0.18925 -0 -0.92837 -0.37166 0 -0.92837 -0.37166 0 -0.84125 -0.54064 -0 -0.41542 -0.90963 -0 -0.23576 -0.97181 -0 0.32707 -0.945 0 0.65486 -0.75575 0 0.5 -0.86603 -0 -0.92837 -0.37166 -0 -0.98193 -0.18925 0 -0.98193 0.18925 0 -0.92837 0.37166 0 -0.84125 0.54064 1 0 0 -1 -0 0 0.04951 -2E-05 -0.99877 0.03341 -0.00067 -0.99944 -0.04953 0.00044 -0.99877 -0.1001 -0.00088 -0.99498 -0.14782 0.00043 -0.98901 -0.23182 -0.00064 -0.97276 -0.2456 -6E-05 -0.96937 -0.34036 6E-05 -0.9403 -0.35941 -0.00074 -0.93318 -0.43262 0.00048 -0.90157 -0.48058 -0.00087 -0.87695 -0.51847 0.00044 -0.8551 -0.59318 -0.00048 -0.80507 -0.5967 -0.00028 -0.80247 -0.66951 0.00028 -0.74281 -0.69519 -0.00093 -0.71882 -0.73763 0.0005 -0.6752 -0.7848 -0.00076 -0.61975 -0.79804 0.00014 -0.60261 -0.8517 7E-05 -0.52402 -0.8604 -0.0007 -0.50962 -0.89931 0.00055 -0.43731 -0.92065 -0.00102 -0.39039 -0.93958 0.00057 -0.34234 -0.96456 -0.00071 -0.26384 -0.9692 0.00014 -0.24628 -0.98869 0.00013 -0.14998 -0.99113 -0.00069 -0.13293 -0.99869 0.00056 -0.05112 -1 -0.00105 0 -0.99869 0.00056 0.05112 -0.99113 -0.00069 0.13293 -0.98869 0.00013 0.14998 -0.9692 0.00014 0.24628 -0.96456 -0.00071 0.26384 -0.93958 0.00057 0.34234 -0.92065 -0.00102 0.39039 -0.89931 0.00055 0.43731 -0.8604 -0.0007 0.50962 -0.8517 7E-05 0.52402 -0.79804 0.00014 0.60261 -0.7848 -0.00076 0.61975 -0.73763 0.0005 0.6752 -0.69519 -0.00093 0.71882 -0.66951 0.00028 0.74281 -0.5967 -0.00028 0.80247 -0.59318 -0.00048 0.80507 -0.51847 0.00044 0.8551 -0.48058 -0.00087 0.87695 -0.43262 0.00048 0.90157 -0.35941 -0.00074 0.93318 -0.34036 6E-05 0.9403 -0.2456 -6E-05 0.96937 -0.23182 -0.00064 0.97276 -0.14782 0.00043 0.98901 -0.1001 -0.00088 0.99498 -0.04953 0.00044 0.99877 0.03341 -0.00067 0.99944 0.04951 -2E-05 0.99877 0.14777 4E-05 0.98902 0.16633 -0.0007 0.98607 0.2457 0.00046 0.96934 0.29628 -0.0009 0.9551 0.34045 0.00042 0.94026 0.42093 -0.00063 0.90709 0.43246 -8E-05 0.90165 0.51838 0.00016 0.85515 0.53808 -0.00073 0.84289 0.59695 0.00055 0.80228 0.64563 -0.00086 0.76365 0.66949 0.00023 0.74282 0.73743 -0.0003 0.67542 0.74165 -0.00059 0.67078 0.79811 0.00049 0.60251 0.82444 -0.00089 0.56595 0.85179 0.00057 0.52389 0.89245 -0.00069 0.45115 0.89924 -0 0.43745 0.93953 0 0.34246 0.94462 -0.0007 0.32817 0.96922 0.00061 0.24621 0.97996 -0.00091 0.19919 0.9887 0.00063 0.14993 0.99777 -0.00073 0.06679 0.99869 0 0.05114 0.99869 -0 -0.05114 0.99777 -0.00073 -0.06679 0.9887 0.00063 -0.14993 0.97996 -0.00091 -0.19919 0.96922 0.00061 -0.24621 0.94462 -0.0007 -0.32817 0.93953 0 -0.34246 0.89924 -0 -0.43745 0.89245 -0.00069 -0.45115 0.85179 0.00057 -0.52389 0.82444 -0.00089 -0.56595 0.79811 0.00049 -0.60251 0.74165 -0.00059 -0.67078 0.73743 -0.0003 -0.67542 0.66949 0.00023 -0.74282 0.64563 -0.00086 -0.76365 0.59695 0.00055 -0.80228 0.53808 -0.00073 -0.84289 0.51838 0.00016 -0.85515 0.43246 -8E-05 -0.90165 0.42093 -0.00063 -0.90709 0.34045 0.00042 -0.94026 0.29628 -0.0009 -0.9551 0.2457 0.00046 -0.96934 0.16633 -0.0007 -0.98607 0.14777 4E-05 -0.98902 0.99777 0 -0.06679 0.99777 0 -0.06679 0.99777 -0 0.06679 0.99777 0 0.06679 0.97996 0 0.19919 0.94467 0 0.32802 0.94465 0 0.32807 0.89252 -0 0.45101 0.8925 0 0.45106 0.82444 0 0.56595 0.74165 0 0.67078 0.74165 0 0.67078 0.64563 0 0.76365 0.64563 0 0.76365 0.53808 0 0.84289 0.53808 0 0.84289 0.42093 0 0.90709 0.42093 0 0.90709 0.29628 0 0.9551 0.16633 0 0.98607 0.16633 -0 0.98607 0.03341 -0 0.99944 0.03341 -0 0.99944 -0.1001 0 0.99498 -0.23182 0 0.97276 -0.23182 0 0.97276 -0.35941 0 0.93318 -0.48058 0 0.87695 -0.59318 0 0.80507 -0.69519 0 0.71882 -0.7848 0 0.61975 -0.8604 0 0.50962 -0.92065 0 0.39039 -0.96447 0 0.2642 -0.9645 1E-05 0.26408 -0.99108 -1E-05 0.13329 -0.99109 0 0.13317 -0.99109 -0 -0.13317 -0.99109 -1E-05 -0.13317 -0.96453 1E-05 -0.26396 -0.96453 -0 -0.26396 -0.92065 -0 -0.39039 -0.92065 -0 -0.39039 -0.8604 -0 -0.50962 -0.8604 -0 -0.50962 -0.7848 -0 -0.61975 -0.69519 -0 -0.71882 -0.59318 -0 -0.80507 -0.48058 -0 -0.87695 -0.35941 -0 -0.93318 -0.23182 -0 -0.97276 -0.1001 -0 -0.99498 -0.1001 -0 -0.99498 0.03341 0 -0.99944 0.03341 0 -0.99944 0.16633 0 -0.98607 0.16633 0 -0.98607 0.29628 0 -0.9551 0.29628 0 -0.9551 0.42093 0 -0.90709 0.42093 0 -0.90709 0.53808 0 -0.84289 0.64563 0 -0.76365 0.74165 0 -0.67078 0.82444 0 -0.56595 0.89245 0 -0.45115 0.97996 0 -0.19919 0.94467 0 -0.32802 0.94465 0 -0.32807 0.89252 -0 -0.45101 0.8925 0 -0.45106 0.74165 -0 -0.67078 0.64563 -0 -0.76365 0.64563 -0 -0.76365 0.53808 -0 -0.84289 0.53808 -0 -0.84289 0.42093 -0 -0.90709 0.42093 -0 -0.90709 0.29628 -0 -0.9551 0.29628 0 -0.9551 0.29628 0 -0.9551 0.16633 0 -0.98607 0.16633 0 -0.98607 0.03341 0 -0.99944 -0.1001 -0 -0.99498 -0.23182 -0 -0.97276 -0.8604 0 -0.50962 -0.92065 0 -0.39039 -0.8604 0 -0.50962 -0.9645 0 -0.26408 -0.96447 0 -0.2642 -0.9645 1E-05 -0.26408 -0.99108 -1E-05 -0.13329 0.94465 0 0.32807 0.94463 0 0.32812 0.8925 -0 0.45106 0.89247 0 0.4511 0.64563 0 0.76365 0.53808 0 0.84289 0.42093 -0 0.90709 0.29628 -0 0.9551 0.29628 -0 0.9551 0.16633 -0 0.98607 0.03341 0 0.99944 -0.1001 0 0.99498 -0.8604 0 0.50962 -0.92065 0 0.39039 -0.9645 0 0.26408 -0.96453 1E-05 0.26396 -0.99109 -1E-05 0.13317 -0.99111 0 0.13305 -0.99111 -0 -0.13305 -0.99111 -1E-05 -0.13305 -0.96457 1E-05 -0.26385 0.94463 0 0.32812 0.94462 0 0.32817 0.89247 -0 0.4511 0.89245 0 0.45115 0.42093 0 0.90709 0.29628 0 0.9551 0.16633 -0 0.98607 -0.8604 -0 0.50962 -0.92065 -0 0.39039 -0.96453 0 0.26396 -0.96457 1E-05 0.26385 -0.99111 -1E-05 0.13305 -0.99113 0 0.13293 -0.99113 -0 -0.13293 0.94465 0 -0.32807 0.94463 0 -0.32812 0.94463 0 -0.32812 0.8925 -0 -0.45106 0.89247 0 -0.4511 0.89247 -0 -0.4511 0.94462 0 -0.32817 -0.02538 -0 0.99968 0.02538 -0 0.99968 0.06038 0.00086 0.99818 0.0758 0.00034 0.99712 0.12567 -0.00014 0.99207 0.17457 0.00058 0.98465 0.18025 0.00081 0.98362 0.18026 0 0.98362 0.2975 0 0.95472 0.41041 0 0.9119 0.41041 -0.00077 0.9119 0.48279 0.00075 0.87573 0.51734 -0.00079 0.85578 0.58298 0.00077 0.81249 0.61672 -0.00081 0.78718 0.67498 0.00079 0.73783 0.70711 -0.00083 0.70711 0.75751 0.0008 0.65282 0.78718 -0.00084 0.61672 0.82941 0.00082 0.55865 0.85578 -0.00086 0.51734 0.88966 0.00083 0.45663 0.9119 -0.00087 0.41041 0.93742 0.00084 0.3482 0.95472 -0.00087 0.2975 0.97202 0.00084 0.23489 0.98362 -0.00088 0.18025 0.99298 0.00085 0.11827 0.99818 -0.00088 0.06038 1 0.00085 0 0.99818 -0.00088 -0.06038 0.99298 0.00085 -0.11827 0.98362 -0.00088 -0.18025 0.97202 0.00084 -0.23489 0.95472 -0.00087 -0.2975 0.93742 0.00084 -0.3482 0.9119 -0.00087 -0.41041 0.88966 0.00083 -0.45663 0.85578 -0.00086 -0.51734 0.82941 0.00082 -0.55865 0.78718 -0.00084 -0.61672 0.75751 0.0008 -0.65282 0.70711 -0.00083 -0.70711 0.67498 0.00079 -0.73783 0.61672 -0.00081 -0.78718 0.58298 0.00077 -0.81249 0.51734 -0.00079 -0.85578 0.48279 0.00075 -0.87573 0.41041 -0.00077 -0.9119 0.37583 0.00072 -0.92669 0.2975 -0.00074 -0.95472 0.26359 0.0007 -0.96464 0.18025 -0.00072 -0.98362 0.14765 0.00067 -0.98904 0.06038 -0.00069 -0.99818 0.02963 0.00064 -0.99956 -0.06038 -0.00065 -0.99818 -0.0888 0.0006 -0.99605 -0.18026 -0.00062 -0.98362 -0.20598 0.00057 -0.97856 -0.2975 -0.00058 -0.95472 -0.32027 0.00053 -0.94733 -0.41041 -0.00054 -0.9119 -0.43007 0.00049 -0.9028 -0.51734 -0.0005 -0.85578 -0.53382 0.00044 -0.8456 -0.61672 -0.00045 -0.78718 -0.63009 0.0004 -0.77652 -0.70711 -0.0004 -0.70711 -0.71751 0.00035 -0.69655 -0.78718 -0.00035 -0.61672 -0.79485 0.0003 -0.6068 -0.85578 -0.0003 -0.51734 -0.86104 0.00024 -0.50853 -0.9119 -0.00025 -0.41041 -0.91515 0.00018 -0.40312 -0.95472 -0.00019 -0.2975 -0.9564 0.00013 -0.29206 -0.98362 -0.00013 -0.18026 -0.98423 6E-05 -0.17689 -0.99818 -7E-05 -0.06038 -0.99824 0 -0.05924 -0.99824 -0 0.05924 -0.99818 -7E-05 0.06038 -0.98423 6E-05 0.17689 -0.98362 -0.00013 0.18026 -0.9564 0.00013 0.29206 -0.95472 -0.00019 0.2975 -0.91515 0.00018 0.40312 -0.9119 -0.00025 0.41041 -0.86104 0.00024 0.50853 -0.85578 -0.0003 0.51734 -0.79485 0.0003 0.6068 -0.78718 -0.00035 0.61672 -0.71751 0.00035 0.69655 -0.70711 -0.0004 0.70711 -0.63009 0.0004 0.77652 -0.61672 -0.00045 0.78718 -0.53382 0.00044 0.8456 -0.51734 -0.0005 0.85578 -0.43007 0.00049 0.9028 -0.41041 -0.00054 0.9119 -0.32027 0.00053 0.94733 -0.2975 -0.00058 0.95472 -0.20598 0.00057 0.97856 -0.18026 -0.00062 0.98362 -0.0888 0.0006 0.99605 -0.06038 -0.00065 0.99818 0.02963 0.00064 0.99956 0.06038 -0.00069 0.99818 0.14765 0.00067 0.98904 0.18025 -0.00072 0.98362 0.26359 0.0007 0.96464 0.2975 -0.00074 0.95472 0.37583 0.00072 0.92669 0.24683 -0.00058 0.96906 0.2975 0.00091 0.95472 0.51734 0 0.85578 0.3397 -0.00052 0.94053 0.41041 0.00073 0.9119 0.61672 0 0.78718 0.42887 -0.00019 0.90337 0.51266 0.00015 0.85859 0.51734 0.00045 0.85578 0.59032 -0.00045 0.80717 0.61672 0.0009 0.78718 0.66217 -0.00062 0.74935 0.70711 0.00096 0.70711 0.7296 -0.00041 0.68388 0.78718 0.00044 0.61672 0.79056 0.00011 0.61238 0.84533 -0.00035 0.53424 0.85578 0.00075 0.51734 0.89421 -0.00072 0.44766 0.9119 0.00111 0.41041 0.93562 -0.00084 0.35301 0.95472 0.00113 0.2975 0.96687 -0.00078 0.25526 0.98362 0.00097 0.18025 0.98812 -0.00051 0.15369 0.99818 0.00059 0.06038 0.99867 -0 0.05155 0.99867 0 -0.05155 0.99818 0.00059 -0.06038 0.98812 -0.00051 -0.15369 0.98362 0.00097 -0.18025 0.96687 -0.00078 -0.25526 0.95472 0.00113 -0.2975 0.93562 -0.00084 -0.35301 0.9119 0.00111 -0.41041 0.89421 -0.00072 -0.44766 0.85578 0.00075 -0.51734 0.84533 -0.00035 -0.53424 0.79056 0.00011 -0.61238 0.78718 0.00044 -0.61672 0.7296 -0.00041 -0.68388 0.70711 0.00096 -0.70711 0.66217 -0.00062 -0.74935 0.61672 0.0009 -0.78718 0.59032 -0.00045 -0.80717 0.51734 0.00045 -0.85578 0.51266 0.00015 -0.85859 0.42887 -0.00019 -0.90337 0.41041 0.00073 -0.9119 0.3397 -0.00052 -0.94053 0.2975 0.00091 -0.95472 0.24683 -0.00058 -0.96906 0.18025 0.00081 -0.98362 0.17457 0.00058 -0.98465 0.12567 -0.00014 -0.99207 0.0758 0.00034 -0.99712 0.06038 0.00086 -0.99818 0.06038 -0 -0.99818 -0.06038 0 -0.99818 -0.06038 0 -0.99818 -0.18026 -0 -0.98362 0.02538 -0 -0.99968 -0.02538 0 -0.99968 -0.06038 0.00086 -0.99818 -0.0758 0.00034 -0.99712 -0.12567 -0.00014 -0.99207 -0.17457 0.00058 -0.98465 -0.18025 0.00081 -0.98362 -0.2975 -0 -0.95472 -0.41041 -0 -0.9119 -0.24683 -0.00058 -0.96906 -0.2975 0.00091 -0.95472 -0.51734 -0 -0.85578 -0.3397 -0.00052 -0.94053 -0.41041 0.00073 -0.9119 -0.61672 -0 -0.78718 -0.42887 -0.00019 -0.90337 -0.51266 0.00015 -0.85859 -0.51734 0.00045 -0.85578 -0.59032 -0.00045 -0.80717 -0.61672 0.0009 -0.78718 -0.66217 -0.00062 -0.74935 -0.70711 0.00096 -0.70711 -0.7296 -0.00041 -0.68388 -0.78718 0.00044 -0.61672 -0.79056 0.00011 -0.61238 -0.84533 -0.00035 -0.53424 -0.85578 0.00075 -0.51734 -0.89421 -0.00072 -0.44766 -0.9119 0.00111 -0.41041 -0.93562 -0.00084 -0.35301 -0.95472 0.00113 -0.2975 -0.96687 -0.00078 -0.25526 -0.98362 0.00097 -0.18025 -0.98812 -0.00051 -0.15369 -0.99818 0.00059 -0.06038 -0.99867 -0 -0.05155 -0.99867 0 0.05155 -0.99818 0.00059 0.06038 -0.98812 -0.00051 0.15369 -0.98362 0.00097 0.18025 -0.96687 -0.00078 0.25526 -0.95472 0.00113 0.2975 -0.93562 -0.00084 0.35301 -0.9119 0.00111 0.41041 -0.89421 -0.00072 0.44766 -0.85578 0.00075 0.51734 -0.84533 -0.00035 0.53424 -0.79056 0.00011 0.61238 -0.78718 0.00044 0.61672 -0.7296 -0.00041 0.68388 -0.70711 0.00096 0.70711 -0.66217 -0.00062 0.74935 -0.61672 0.0009 0.78718 -0.59032 -0.00045 0.80717 -0.51734 0.00045 0.85578 -0.51266 0.00015 0.85859 -0.42887 -0.00019 0.90337 -0.41041 0.00073 0.9119 -0.3397 -0.00052 0.94053 -0.2975 0.00091 0.95472 -0.24683 -0.00058 0.96906 -0.18025 0.00081 0.98362 -0.17457 0.00058 0.98465 -0.12567 -0.00014 0.99207 -0.0758 0.00034 0.99712 -0.06038 0.00086 0.99818 -0.06038 0 0.99818 0.06038 0 0.99818 -0.99818 0 -0.06038 -0.98362 0 -0.18026 -0.95472 0 -0.2975 -0.9119 0 -0.41041 -0.85578 0 -0.51734 -0.78718 0 -0.61672 -0.70711 0 -0.70711 -0.99818 0 0.06038 -0.98362 0 0.18026 -0.95472 0 0.2975 -0.9119 0 0.41041 -0.85578 0 0.51734 -0.78718 0 0.61672 -0.70711 0 0.70711 -0.61672 0 0.78718 -0.51734 0 0.85578 -0.41041 0 0.9119 -0.2975 0 0.95472 -0.18026 0 0.98362 0.70711 0 0.70711 0.78718 0 0.61672 0.85578 0 0.51734 0.9119 0 0.41041 0.95472 0 0.2975 0.98362 0 0.18026 0.99818 0 0.06038 0.99818 -0 0.06038 0.99818 0 -0.06038 0.99818 0 -0.06038 0.98362 0 -0.18026 0.95472 0 -0.2975 0.9119 0 -0.41041 0.85578 0 -0.51734 0.78718 0 -0.61672 0.70711 0 -0.70711 0.61672 0 -0.78718 0.51734 0 -0.85578 0.41041 0 -0.9119 0.2975 0 -0.95472 0.18026 0 -0.98362 0.06038 0 -0.99818 0.06038 -0 -0.99818 0 1 0</float_array>
          <technique_common>
            <accessor source="#norm_0-array" count="2838" stride="3">
              <param name="X" type="float"/>
              <param name="Y" type="float"/>
              <param name="Z" type="float"/>
            </accessor>
          </technique_common>
        </source>
        <vertices id="vert_0">
          <input semantic="POSITION" source="#pos_0"/>
        </vertices>
        <triangles count="1639">
          <input semantic="VERTEX" source="#vert_0" offset="0"/>
          <input semantic="NORMAL" source="#norm_0" offset="1"/>
          <p>2 1 1 1 3 1 2 2 3 2 4 2 4 3 3 3 5 3 4 4 5 4 6 4 6 5 5 5 7 5 6 6 7 6 8 6 8 7 7 7 9 7 8 8 9 8 10 8 10 9 9 9 11 9 10 10 11 10 12 10 12 11 11 11 13 11 12 12 13 12 14 12 14 13 13 13 15 13 14 14 15 14 16 14 16 15 15 15 17 15 16 16 17 16 18 16 18 17 17 17 19 17 18 18 19 18 20 18 20 19 19 19 21 19 20 20 21 20 22 20 22 21 21 21 23 21 22 22 23 22 24 22 24 23 23 23 25 23 24 24 25 24 26 24 26 25 25 25 27 25 26 26 27 26 28 26 28 27 27 27 29 27 28 28 29 28 30 28 30 29 29 29 31 29 30 30 31 30 32 30 32 31 31 31 33 31 32 32 33 32 34 32 34 33 33 33 35 33 34 34 35 34 36 34 36 35 35 35 37 35 36 36 37 36 38 36 38 37 37 37 39 37 38 38 39 38 40 38 40 39 39 39 41 39 40 40 41 40 42 40 42 41 41 41 43 41 43 42 41 42 44 42 44 43 41 43 45 43 45 44 41 44 46 44 46 45 41 45 47 45 47 46 41 46 48 46 47 47 48 47 49 47 49 48 48 48 50 48 50 49 48 49 51 49 50 50 51 50 52 50 52 51 51 51 53 51 53 52 51 52 54 52 53 53 54 53 55 53 55 54 54 54 56 54 56 55 54 55 57 55 56 56 57 56 58 56 58 57 57 57 59 57 58 58 59 58 60 58 60 59 59 59 61 59 61 60 59 60 62 60 61 61 62 61 63 61 63 62 62 62 64 62 63 63 64 63 65 63 65 64 64 64 66 64 65 65 66 65 67 65 67 66 66 66 68 66 67 67 68 67 69 67 69 68 68 68 70 68 70 69 68 69 71 69 70 70 71 70 72 70 72 71 71 71 73 71 72 72 73 72 74 72 74 73 73 73 75 73 74 74 75 74 76 74 76 75 75 75 77 75 76 76 77 76 78 76 78 77 77 77 79 77 79 78 77 78 80 78 79 79 80 79 81 79 81 80 80 80 82 80 81 81 82 81 83 81 83 82 82 82 84 82 84 83 82 83 85 83 84 84 85 84 86 84 86 85 85 85 87 85 87 86 85 86 88 86 87 87 88 87 89 87 89 88 88 88 90 88 90 89 88 89 91 89 90 90 91 90 92 90 92 91 91 91 93 91 93 92 91 92 94 92 94 93 91 93 95 93 95 94 91 94 96 94 96 95 91 95 97 95 96 96 97 96 98 96 98 97 97 97 99 97 99 98 97 98 100 98 99 99 100 99 101 99 101 100 100 100 102 100 101 101 102 101 103 101 103 102 102 102 104 102 103 103 104 103 105 103 105 104 104 104 106 104 105 105 106 105 107 105 107 106 106 106 108 106 107 107 108 107 109 107 109 108 108 108 110 108 109 109 110 109 111 109 111 110 110 110 112 110 111 111 112 111 113 111 113 112 112 112 114 112 113 113 114 113 115 113 115 114 114 114 116 114 115 115 116 115 117 115 117 116 116 116 118 116 117 117 118 117 119 117 119 118 118 118 120 118 119 119 120 119 121 119 121 120 120 120 122 120 121 121 122 121 123 121 123 122 122 122 124 122 123 123 124 123 125 123 125 124 124 124 126 124 125 125 126 125 127 125 127 126 126 126 128 126 127 127 128 127 129 127 129 128 128 128 130 128 129 129 130 129 131 129 131 130 130 130 132 130 131 131 132 131 133 131 133 132 132 132 134 132 133 133 134 133 135 133 135 134 134 134 2 134 135 135 2 135 136 135 136 136 2 136 137 136 137 137 2 137 4 137 137 138 4 138 138 138 138 139 4 139 6 139 138 140 6 140 139 140 139 141 6 141 8 141 139 142 8 142 140 142 140 143 8 143 10 143 140 144 10 144 141 144 141 145 10 145 12 145 141 146 12 146 142 146 142 147 12 147 14 147 142 148 14 148 143 148 143 149 14 149 16 149 143 150 16 150 144 150 144 151 16 151 18 151 144 152 18 152 145 152 145 153 18 153 20 153 145 154 20 154 146 154 146 155 20 155 22 155 146 156 22 156 147 156 147 157 22 157 24 157 147 158 24 158 148 158 148 159 24 159 26 159 148 160 26 160 149 160 149 161 26 161 28 161 149 162 28 162 150 162 150 163 28 163 30 163 150 164 30 164 151 164 151 165 30 165 32 165 151 166 32 166 152 166 152 167 32 167 34 167 152 168 34 168 153 168 153 169 34 169 36 169 153 170 36 170 154 170 154 171 36 171 38 171 154 172 38 172 155 172 155 173 38 173 40 173 155 174 40 174 156 174 156 175 40 175 157 175 156 176 157 176 158 176 91 177 159 177 97 177 97 178 159 178 100 178 159 179 160 179 100 179 100 180 160 180 102 180 160 181 161 181 102 181 102 182 161 182 104 182 161 183 162 183 104 183 104 184 162 184 106 184 162 185 163 185 106 185 106 186 163 186 108 186 163 187 164 187 108 187 108 188 164 188 110 188 164 189 165 189 110 189 110 190 165 190 112 190 165 191 166 191 112 191 112 192 166 192 114 192 166 193 167 193 114 193 114 194 167 194 116 194 167 195 168 195 116 195 116 196 168 196 118 196 168 197 169 197 118 197 118 198 169 198 120 198 169 199 170 199 120 199 120 200 170 200 122 200 170 201 171 201 122 201 122 202 171 202 124 202 171 203 172 203 124 203 124 204 172 204 126 204 172 205 173 205 126 205 126 206 173 206 128 206 173 207 174 207 128 207 128 208 174 208 130 208 174 209 175 209 130 209 130 210 175 210 132 210 175 211 176 211 132 211 132 212 176 212 134 212 176 213 0 213 134 213 134 214 0 214 2 214 177 215 178 215 98 215 98 216 178 216 179 216 98 217 179 217 180 217 181 218 182 218 177 218 177 219 182 219 183 219 177 220 183 220 178 220 184 221 185 221 181 221 181 222 185 222 186 222 181 223 186 223 182 223 187 224 188 224 184 224 184 225 188 225 189 225 184 226 189 226 185 226 188 227 187 227 190 227 190 228 187 228 191 228 190 229 191 229 192 229 192 230 191 230 193 230 193 231 191 231 194 231 193 232 194 232 195 232 195 233 194 233 196 233 195 234 196 234 197 234 197 235 196 235 198 235 197 236 198 236 199 236 199 237 198 237 200 237 199 238 200 238 201 238 201 239 200 239 202 239 202 240 200 240 203 240 202 241 203 241 204 241 204 242 203 242 205 242 204 243 205 243 206 243 206 244 205 244 207 244 206 245 207 245 208 245 208 246 207 246 209 246 208 247 209 247 210 247 210 248 209 248 211 248 211 249 209 249 212 249 211 250 212 250 213 250 213 251 212 251 214 251 213 252 214 252 215 252 215 253 214 253 216 253 216 254 214 254 217 254 216 255 217 255 218 255 218 256 217 256 219 256 219 257 217 257 220 257 219 258 220 258 221 258 221 259 220 259 222 259 222 260 220 260 156 260 222 261 156 261 223 261 223 262 156 262 224 262 224 263 156 263 158 263 42 264 157 264 40 264 180 265 225 265 98 265 98 266 225 266 226 266 98 267 226 267 96 267 227 268 228 268 229 268 229 269 228 269 230 269 230 270 228 270 231 270 230 271 231 271 232 271 232 272 231 272 233 272 232 273 233 273 234 273 234 274 233 274 235 274 234 275 235 275 236 275 236 276 235 276 237 276 236 277 237 277 238 277 239 278 240 278 238 278 238 279 240 279 241 279 238 280 241 280 236 280 239 281 242 281 240 281 240 282 242 282 243 282 243 283 242 283 244 283 244 284 242 284 245 284 244 285 245 285 246 285 247 286 248 286 246 286 246 287 248 287 249 287 246 288 249 288 244 288 247 289 250 289 248 289 248 290 250 290 251 290 251 291 250 291 252 291 251 292 252 292 253 292 253 293 252 293 254 293 254 294 252 294 255 294 254 295 255 295 256 295 257 296 258 296 256 296 256 297 258 297 259 297 256 298 259 298 254 298 258 299 257 299 260 299 260 300 257 300 261 300 260 301 261 301 262 301 263 302 264 302 262 302 262 303 264 303 265 303 262 304 265 304 260 304 263 305 266 305 264 305 264 306 266 306 267 306 267 307 266 307 268 307 267 308 268 308 269 308 269 309 268 309 270 309 270 310 268 310 271 310 270 311 271 311 272 311 273 312 274 312 272 312 272 313 274 313 275 313 272 314 275 314 270 314 273 315 276 315 274 315 274 316 276 316 277 316 277 317 276 317 278 317 278 318 276 318 279 318 278 319 279 319 280 319 281 320 282 320 280 320 280 321 282 321 283 321 280 322 283 322 278 322 282 323 281 323 284 323 284 324 281 324 285 324 284 325 285 325 286 325 286 326 285 326 287 326 286 327 287 327 288 327 288 328 287 328 289 328 288 329 289 329 290 329 291 330 292 330 293 330 293 331 292 331 294 331 293 332 294 332 295 332 295 333 294 333 296 333 295 334 296 334 297 334 297 334 296 334 298 334 297 335 298 335 299 335 299 335 298 335 300 335 299 336 300 336 301 336 301 336 300 336 302 336 301 337 302 337 303 337 303 338 302 338 304 338 303 339 304 339 305 339 305 340 304 340 306 340 305 341 306 341 307 341 307 342 306 342 308 342 307 343 308 343 309 343 309 343 308 343 310 343 309 344 310 344 311 344 311 344 310 344 312 344 311 345 312 345 313 345 313 346 312 346 314 346 313 347 314 347 315 347 315 348 314 348 316 348 315 349 316 349 317 349 317 349 316 349 318 349 317 350 318 350 319 350 319 350 318 350 320 350 319 351 320 351 321 351 321 352 320 352 322 352 321 353 322 353 323 353 323 354 322 354 324 354 323 355 324 355 325 355 325 356 324 356 326 356 325 357 326 357 327 357 327 357 326 357 328 357 327 358 328 358 329 358 329 359 328 359 330 359 329 360 330 360 331 360 331 361 330 361 332 361 331 362 332 362 333 362 333 362 332 362 334 362 333 363 334 363 335 363 335 364 334 364 336 364 335 365 336 365 337 365 337 365 336 365 338 365 337 366 338 366 339 366 339 367 338 367 340 367 339 368 340 368 341 368 341 369 340 369 342 369 341 370 342 370 343 370 343 370 342 370 344 370 343 371 344 371 345 371 345 372 344 372 346 372 345 373 346 373 347 373 347 374 346 374 348 374 347 375 348 375 349 375 349 376 348 376 350 376 349 377 350 377 351 377 351 378 350 378 352 378 351 379 352 379 353 379 353 379 352 379 354 379 353 380 354 380 355 380 355 380 354 380 356 380 355 381 356 381 291 381 291 381 356 381 292 381 357 333 358 333 359 333 359 382 358 382 360 382 359 383 360 383 361 383 361 330 360 330 362 330 361 381 362 381 363 381 363 381 362 381 364 381 363 380 364 380 365 380 365 380 364 380 366 380 365 379 366 379 367 379 367 379 366 379 368 379 367 378 368 378 369 378 369 384 368 384 370 384 369 385 370 385 371 385 371 375 370 375 372 375 371 374 372 374 373 374 373 386 372 386 374 386 373 387 374 387 375 387 375 371 374 371 376 371 375 370 376 370 377 370 377 370 376 370 378 370 377 369 378 369 379 369 379 388 378 388 380 388 379 389 380 389 381 389 381 366 380 366 382 366 381 365 382 365 383 365 383 365 382 365 384 365 383 364 384 364 385 364 385 390 384 390 386 390 385 391 386 391 387 391 387 391 386 391 388 391 387 392 388 392 389 392 389 393 388 393 390 393 389 394 390 394 391 394 391 395 390 395 392 395 391 357 392 357 393 357 393 357 392 357 394 357 393 396 394 396 395 396 395 397 394 397 396 397 395 398 396 398 397 398 397 399 396 399 398 399 397 400 398 400 399 400 399 351 398 351 400 351 399 350 400 350 401 350 401 350 400 350 402 350 401 349 402 349 403 349 403 349 402 349 404 349 403 348 404 348 405 348 405 401 404 401 406 401 405 402 406 402 407 402 407 345 406 345 408 345 407 344 408 344 409 344 409 344 408 344 410 344 409 343 410 343 411 343 411 343 410 343 412 343 411 342 412 342 413 342 413 403 412 403 414 403 413 339 414 339 415 339 415 340 414 340 416 340 415 404 416 404 417 404 417 337 416 337 418 337 417 336 418 336 419 336 419 336 418 336 420 336 419 335 420 335 421 335 421 335 420 335 422 335 421 334 422 334 357 334 357 334 422 334 358 334 294 333 360 333 296 333 296 333 360 333 358 333 296 334 358 334 298 334 298 334 358 334 422 334 298 335 422 335 300 335 300 335 422 335 420 335 300 336 420 336 302 336 302 336 420 336 418 336 302 337 418 337 304 337 304 337 418 337 416 337 304 405 416 405 306 405 306 405 416 405 414 405 306 342 414 342 308 342 308 342 414 342 412 342 308 343 412 343 310 343 310 343 412 343 410 343 310 344 410 344 312 344 312 344 410 344 408 344 312 345 408 345 314 345 314 345 408 345 406 345 314 348 406 348 316 348 316 348 406 348 404 348 316 349 404 349 318 349 318 349 404 349 402 349 318 350 402 350 320 350 320 350 402 350 400 350 320 351 400 351 322 351 322 351 400 351 398 351 322 406 398 406 324 406 324 406 398 406 396 406 324 407 396 407 326 407 326 407 396 407 394 407 326 357 394 357 328 357 328 357 394 357 392 357 328 408 392 408 330 408 330 408 392 408 390 408 330 409 390 409 332 409 332 409 390 409 388 409 332 410 388 410 334 410 334 410 388 410 386 410 334 364 386 364 336 364 336 364 386 364 384 364 336 365 384 365 338 365 338 365 384 365 382 365 338 366 382 366 340 366 340 366 382 366 380 366 340 369 380 369 342 369 342 369 380 369 378 369 342 370 378 370 344 370 344 370 378 370 376 370 344 371 376 371 346 371 346 371 376 371 374 371 346 374 374 374 348 374 348 374 374 374 372 374 348 375 372 375 350 375 350 375 372 375 370 375 350 378 370 378 352 378 352 378 370 378 368 378 352 379 368 379 354 379 354 379 368 379 366 379 354 380 366 380 356 380 356 380 366 380 364 380 356 381 364 381 292 381 292 381 364 381 362 381 292 330 362 330 294 330 294 330 362 330 360 330 295 411 135 411 293 411 293 411 135 411 136 411 293 411 136 411 137 411 297 411 131 411 295 411 295 411 131 411 133 411 295 411 133 411 135 411 131 411 297 411 129 411 129 411 297 411 299 411 129 411 299 411 127 411 127 411 299 411 125 411 125 411 299 411 301 411 125 411 301 411 123 411 123 411 301 411 121 411 121 411 301 411 303 411 121 411 303 411 119 411 119 411 303 411 117 411 117 411 303 411 305 411 117 411 305 411 115 411 115 411 305 411 307 411 115 411 307 411 113 411 113 411 307 411 111 411 111 411 307 411 309 411 111 411 309 411 109 411 109 411 309 411 107 411 107 411 309 411 311 411 107 411 311 411 105 411 105 411 311 411 103 411 103 411 311 411 313 411 103 411 313 411 101 411 101 411 313 411 315 411 101 411 315 411 99 411 99 411 315 411 98 411 98 411 315 411 317 411 98 411 317 411 177 411 177 411 317 411 181 411 181 411 317 411 319 411 181 411 319 411 184 411 184 411 319 411 187 411 187 411 319 411 321 411 187 411 321 411 191 411 191 411 321 411 323 411 191 411 323 411 194 411 194 411 323 411 196 411 196 411 323 411 325 411 196 411 325 411 198 411 198 411 325 411 200 411 200 411 325 411 327 411 200 411 327 411 203 411 203 411 327 411 205 411 205 411 327 411 329 411 205 411 329 411 207 411 207 411 329 411 209 411 209 411 329 411 331 411 209 411 331 411 212 411 212 411 331 411 333 411 212 411 333 411 214 411 214 411 333 411 217 411 217 411 333 411 335 411 217 411 335 411 220 411 220 411 335 411 156 411 156 411 335 411 337 411 156 411 337 411 155 411 155 411 337 411 154 411 154 411 337 411 339 411 154 411 339 411 153 411 153 411 339 411 341 411 153 411 341 411 152 411 152 411 341 411 151 411 151 411 341 411 343 411 151 411 343 411 150 411 150 411 343 411 149 411 149 411 343 411 345 411 149 411 345 411 148 411 148 411 345 411 147 411 147 411 345 411 347 411 147 411 347 411 146 411 146 411 347 411 349 411 146 411 349 411 145 411 145 411 349 411 144 411 144 411 349 411 351 411 144 411 351 411 143 411 143 411 351 411 142 411 142 411 351 411 353 411 142 411 353 411 141 411 141 411 353 411 140 411 140 411 353 411 355 411 140 411 355 411 139 411 139 411 355 411 291 411 139 411 291 411 138 411 138 411 291 411 137 411 137 411 291 411 293 411 361 412 3 412 359 412 359 412 3 412 1 412 359 412 1 412 0 412 363 412 7 412 361 412 361 412 7 412 5 412 361 412 5 412 3 412 7 412 363 412 9 412 9 412 363 412 365 412 9 412 365 412 11 412 11 412 365 412 13 412 13 412 365 412 367 412 13 412 367 412 15 412 15 412 367 412 17 412 17 412 367 412 369 412 17 412 369 412 19 412 19 412 369 412 21 412 21 412 369 412 371 412 21 412 371 412 23 412 23 412 371 412 373 412 23 412 373 412 25 412 25 412 373 412 27 412 27 412 373 412 375 412 27 412 375 412 29 412 29 412 375 412 31 412 31 412 375 412 377 412 31 412 377 412 33 412 33 412 377 412 35 412 35 412 377 412 379 412 35 412 379 412 37 412 37 412 379 412 381 412 37 412 381 412 39 412 39 412 381 412 41 412 41 412 381 412 383 412 41 412 383 412 48 412 48 412 383 412 51 412 51 412 383 412 385 412 51 412 385 412 54 412 54 412 385 412 57 412 57 412 385 412 387 412 57 412 387 412 59 412 59 412 387 412 389 412 59 412 389 412 62 412 62 412 389 412 64 412 64 412 389 412 391 412 64 412 391 412 66 412 66 412 391 412 68 412 68 412 391 412 393 412 68 412 393 412 71 412 71 412 393 412 73 412 73 412 393 412 395 412 73 412 395 412 75 412 75 412 395 412 77 412 77 412 395 412 397 412 77 412 397 412 80 412 80 412 397 412 399 412 80 412 399 412 82 412 82 412 399 412 85 412 85 412 399 412 401 412 85 412 401 412 88 412 88 412 401 412 91 412 91 412 401 412 403 412 91 412 403 412 159 412 159 412 403 412 160 412 160 412 403 412 405 412 160 412 405 412 161 412 161 412 405 412 407 412 161 412 407 412 162 412 162 412 407 412 163 412 163 412 407 412 409 412 163 412 409 412 164 412 164 412 409 412 165 412 165 412 409 412 411 412 165 412 411 412 166 412 166 412 411 412 167 412 167 412 411 412 413 412 167 412 413 412 168 412 168 412 413 412 415 412 168 412 415 412 169 412 169 412 415 412 170 412 170 412 415 412 417 412 170 412 417 412 171 412 171 412 417 412 172 412 172 412 417 412 419 412 172 412 419 412 173 412 173 412 419 412 174 412 174 412 419 412 421 412 174 412 421 412 175 412 175 412 421 412 357 412 175 412 357 412 176 412 176 412 357 412 0 412 0 412 357 412 359 412 229 413 423 413 227 413 227 414 423 414 424 414 227 415 424 415 228 415 228 416 424 416 425 416 228 417 425 417 231 417 231 418 425 418 426 418 231 419 426 419 233 419 233 420 426 420 235 420 235 421 426 421 427 421 235 422 427 422 237 422 237 423 427 423 428 423 237 424 428 424 238 424 238 425 428 425 429 425 238 426 429 426 239 426 239 427 429 427 242 427 242 428 429 428 430 428 242 429 430 429 245 429 245 430 430 430 431 430 245 431 431 431 246 431 246 432 431 432 247 432 247 433 431 433 432 433 247 434 432 434 250 434 250 435 432 435 433 435 250 436 433 436 252 436 252 437 433 437 434 437 252 438 434 438 255 438 255 439 434 439 256 439 256 440 434 440 435 440 256 441 435 441 257 441 257 442 435 442 436 442 257 443 436 443 261 443 261 444 436 444 437 444 261 445 437 445 262 445 262 446 437 446 263 446 263 447 437 447 438 447 263 448 438 448 266 448 266 449 438 449 439 449 266 450 439 450 268 450 268 451 439 451 440 451 268 452 440 452 271 452 271 453 440 453 272 453 272 454 440 454 441 454 272 455 441 455 273 455 273 456 441 456 442 456 273 457 442 457 276 457 276 458 442 458 279 458 279 459 442 459 443 459 279 460 443 460 280 460 280 461 443 461 444 461 280 462 444 462 281 462 281 463 444 463 445 463 281 464 445 464 285 464 285 465 445 465 287 465 287 466 445 466 446 466 287 467 446 467 289 467 289 468 446 468 447 468 289 469 447 469 290 469 290 470 447 470 448 470 290 471 448 471 288 471 288 472 448 472 286 472 286 473 448 473 449 473 286 474 449 474 284 474 284 475 449 475 450 475 284 476 450 476 282 476 282 477 450 477 451 477 282 478 451 478 283 478 283 479 451 479 278 479 278 480 451 480 452 480 278 481 452 481 277 481 277 482 452 482 453 482 277 483 453 483 274 483 274 484 453 484 275 484 275 485 453 485 454 485 275 486 454 486 270 486 270 487 454 487 455 487 270 488 455 488 269 488 269 489 455 489 456 489 269 490 456 490 267 490 267 491 456 491 264 491 264 492 456 492 457 492 264 493 457 493 265 493 265 494 457 494 458 494 265 495 458 495 260 495 260 496 458 496 459 496 260 497 459 497 258 497 258 498 459 498 259 498 259 499 459 499 460 499 259 500 460 500 254 500 254 501 460 501 461 501 254 502 461 502 253 502 253 503 461 503 462 503 253 504 462 504 251 504 251 505 462 505 248 505 248 506 462 506 463 506 248 507 463 507 249 507 249 508 463 508 464 508 249 509 464 509 244 509 244 510 464 510 465 510 244 511 465 511 243 511 243 512 465 512 240 512 240 513 465 513 466 513 240 514 466 514 241 514 241 515 466 515 467 515 241 516 467 516 236 516 236 517 467 517 234 517 234 518 467 518 468 518 234 519 468 519 232 519 232 520 468 520 469 520 232 521 469 521 230 521 230 522 469 522 423 522 230 523 423 523 229 523 470 524 471 524 472 524 472 525 471 525 473 525 472 526 473 526 474 526 474 527 473 527 475 527 474 528 475 528 476 528 476 528 475 528 477 528 476 529 477 529 478 529 478 530 477 530 479 530 478 531 479 531 480 531 480 532 479 532 481 532 480 533 481 533 482 533 482 533 481 533 483 533 482 534 483 534 484 534 484 535 483 535 485 535 484 536 485 536 486 536 486 537 485 537 487 537 486 538 487 538 488 538 488 539 487 539 489 539 488 540 489 540 490 540 490 541 489 541 491 541 490 542 491 542 492 542 492 542 491 542 493 542 492 543 493 543 494 543 494 544 493 544 495 544 494 545 495 545 496 545 496 546 495 546 497 546 496 547 497 547 498 547 498 547 497 547 499 547 498 548 499 548 500 548 500 549 499 549 501 549 500 550 501 550 502 550 502 550 501 550 503 550 502 551 503 551 504 551 504 551 503 551 505 551 504 552 505 552 506 552 506 552 505 552 507 552 506 553 507 553 508 553 508 553 507 553 509 553 508 554 509 554 510 554 510 554 509 554 511 554 510 555 511 555 512 555 512 555 511 555 513 555 512 556 513 556 514 556 514 556 513 556 515 556 514 557 515 557 516 557 516 558 515 558 517 558 516 559 517 559 518 559 518 560 517 560 519 560 518 412 519 412 520 412 520 412 519 412 521 412 520 561 521 561 522 561 522 562 521 562 523 562 522 563 523 563 524 563 524 564 523 564 433 564 524 565 433 565 525 565 525 566 433 566 432 566 525 567 432 567 526 567 526 568 432 568 431 568 526 569 431 569 527 569 527 569 431 569 430 569 527 570 430 570 528 570 528 570 430 570 429 570 528 571 429 571 529 571 529 571 429 571 428 571 529 572 428 572 530 572 530 572 428 572 427 572 530 573 427 573 531 573 531 573 427 573 426 573 531 574 426 574 532 574 532 574 426 574 425 574 532 575 425 575 533 575 533 576 425 576 424 576 533 577 424 577 534 577 534 578 424 578 423 578 534 579 423 579 535 579 535 580 423 580 469 580 535 581 469 581 536 581 536 582 469 582 468 582 536 583 468 583 537 583 537 584 468 584 467 584 537 585 467 585 538 585 538 585 467 585 466 585 538 586 466 586 539 586 539 586 466 586 465 586 539 587 465 587 540 587 540 587 465 587 464 587 540 588 464 588 541 588 541 588 464 588 463 588 541 589 463 589 462 589 471 590 470 590 542 590 542 590 470 590 543 590 542 591 543 591 544 591 542 592 544 592 545 592 545 593 544 593 546 593 545 594 546 594 547 594 547 588 546 588 548 588 547 588 548 588 540 588 540 587 548 587 539 587 546 588 549 588 548 588 548 587 549 587 550 587 548 595 550 595 539 595 539 596 550 596 538 596 549 587 551 587 550 587 550 586 551 586 552 586 550 597 552 597 538 597 538 598 552 598 537 598 551 586 553 586 552 586 552 585 553 585 554 585 552 599 554 599 537 599 537 600 554 600 536 600 553 585 555 585 554 585 554 584 555 584 556 584 554 601 556 601 536 601 536 602 556 602 535 602 555 584 557 584 556 584 556 603 557 603 558 603 556 604 558 604 535 604 535 605 558 605 534 605 557 603 559 603 558 603 558 579 559 579 560 579 558 606 560 606 534 606 534 607 560 607 533 607 559 579 561 579 560 579 560 578 561 578 562 578 560 578 562 578 533 578 533 575 562 575 532 575 561 578 563 578 562 578 562 575 563 575 564 575 562 608 564 608 532 608 532 609 564 609 531 609 563 575 565 575 564 575 564 574 565 574 566 574 564 574 566 574 531 574 531 573 566 573 530 573 565 574 567 574 566 574 566 573 567 573 568 573 566 573 568 573 530 573 530 572 568 572 529 572 567 573 569 573 568 573 568 572 569 572 570 572 568 572 570 572 529 572 529 571 570 571 528 571 569 572 571 572 570 572 570 571 571 571 572 571 570 571 572 571 528 571 528 570 572 570 527 570 571 571 573 571 572 571 572 570 573 570 574 570 572 570 574 570 527 570 527 569 574 569 526 569 573 570 575 570 574 570 574 569 575 569 576 569 574 569 576 569 526 569 526 568 576 568 525 568 575 569 577 569 576 569 576 568 577 568 578 568 576 610 578 610 525 610 525 611 578 611 524 611 577 612 579 612 578 612 578 611 579 611 580 611 578 565 580 565 524 565 524 613 580 613 522 613 579 565 581 565 580 565 580 614 581 614 582 614 580 615 582 615 522 615 522 616 582 616 520 616 473 527 583 527 475 527 475 527 583 527 584 527 475 528 584 528 477 528 477 528 584 528 585 528 477 617 585 617 479 617 479 618 585 618 586 618 479 619 586 619 481 619 481 620 586 620 587 620 481 533 587 533 483 533 483 533 587 533 588 533 483 534 588 534 485 534 485 534 588 534 589 534 485 621 589 621 487 621 487 621 589 621 590 621 487 622 590 622 489 622 489 622 590 622 591 622 489 541 591 541 491 541 491 623 591 623 592 623 491 624 592 624 493 624 493 625 592 625 593 625 493 626 593 626 495 626 495 543 593 543 594 543 495 627 594 627 497 627 497 627 594 627 595 627 497 628 595 628 499 628 499 628 595 628 596 628 499 549 596 549 501 549 501 549 596 549 597 549 501 550 597 550 503 550 503 550 597 550 598 550 503 551 598 551 505 551 505 551 598 551 599 551 505 552 599 552 507 552 507 552 599 552 600 552 507 553 600 553 509 553 509 553 600 553 601 553 509 554 601 554 511 554 511 554 601 554 602 554 511 555 602 555 513 555 513 629 602 629 603 629 513 630 603 630 515 630 515 556 603 556 604 556 515 631 604 631 517 631 517 632 604 632 605 632 517 633 605 633 519 633 519 634 605 634 606 634 519 412 606 412 521 412 521 412 606 412 607 412 521 635 607 635 523 635 523 636 607 636 434 636 523 637 434 637 433 637 583 527 459 527 584 527 584 527 459 527 458 527 584 528 458 528 585 528 585 528 458 528 457 528 585 638 457 638 586 638 586 639 457 639 456 639 586 640 456 640 587 640 587 641 456 641 455 641 587 533 455 533 588 533 588 533 455 533 454 533 588 534 454 534 589 534 589 534 454 534 453 534 589 621 453 621 590 621 590 621 453 621 452 621 590 622 452 622 591 622 591 622 452 622 451 622 591 541 451 541 592 541 592 642 451 642 450 642 592 643 450 643 593 643 593 624 450 624 449 624 593 644 449 644 594 644 594 543 449 543 448 543 594 627 448 627 595 627 595 627 448 627 447 627 595 628 447 628 596 628 596 628 447 628 446 628 596 549 446 549 597 549 597 549 446 549 445 549 597 550 445 550 598 550 598 550 445 550 444 550 598 551 444 551 599 551 599 551 444 551 443 551 599 552 443 552 600 552 600 552 443 552 442 552 600 553 442 553 601 553 601 553 442 553 441 553 601 554 441 554 602 554 602 554 441 554 440 554 602 555 440 555 603 555 603 645 440 645 439 645 603 646 439 646 604 646 604 556 439 556 438 556 604 647 438 647 605 647 605 648 438 648 437 648 605 649 437 649 606 649 606 650 437 650 436 650 606 412 436 412 607 412 607 412 436 412 435 412 607 651 435 651 434 651 583 524 473 524 608 524 608 524 473 524 471 524 608 590 471 590 609 590 609 590 471 590 542 590 609 652 542 652 545 652 459 524 583 524 460 524 460 524 583 524 608 524 460 590 608 590 461 590 461 590 608 590 609 590 461 653 609 653 610 653 610 654 609 654 545 654 610 655 545 655 547 655 547 588 540 588 541 588 610 656 547 656 541 656 610 657 541 657 462 657 461 658 610 658 462 658 95 659 96 659 611 659 611 660 96 660 226 660 611 661 226 661 612 661 612 662 226 662 225 662 612 663 225 663 180 663 180 664 179 664 612 664 612 665 179 665 613 665 612 666 613 666 614 666 614 667 613 667 615 667 614 667 615 667 616 667 616 668 615 668 617 668 616 669 617 669 618 669 618 670 617 670 619 670 619 671 617 671 620 671 619 672 620 672 621 672 621 673 620 673 622 673 621 674 622 674 623 674 623 675 622 675 624 675 623 676 624 676 625 676 625 677 624 677 626 677 625 678 626 678 627 678 627 679 626 679 628 679 627 680 628 680 629 680 629 681 628 681 630 681 629 682 630 682 631 682 631 683 630 683 632 683 631 684 632 684 633 684 633 685 632 685 634 685 633 686 634 686 635 686 635 687 634 687 636 687 635 688 636 688 637 688 637 689 636 689 638 689 637 690 638 690 639 690 639 691 638 691 640 691 639 692 640 692 641 692 641 693 640 693 642 693 641 694 642 694 643 694 643 695 642 695 644 695 643 696 644 696 645 696 645 697 644 697 646 697 645 698 646 698 647 698 647 699 646 699 648 699 647 700 648 700 649 700 649 701 648 701 650 701 649 702 650 702 651 702 651 703 650 703 652 703 651 704 652 704 653 704 653 705 652 705 654 705 653 706 654 706 655 706 655 707 654 707 656 707 655 708 656 708 657 708 657 709 656 709 658 709 657 710 658 710 659 710 659 711 658 711 660 711 659 712 660 712 661 712 661 713 660 713 662 713 661 714 662 714 663 714 663 715 662 715 664 715 663 716 664 716 665 716 665 717 664 717 666 717 665 718 666 718 667 718 667 719 666 719 668 719 667 720 668 720 669 720 669 721 668 721 670 721 669 722 670 722 671 722 671 723 670 723 672 723 671 724 672 724 673 724 673 725 672 725 674 725 673 726 674 726 675 726 675 727 674 727 676 727 675 728 676 728 677 728 677 729 676 729 678 729 677 730 678 730 679 730 679 731 678 731 680 731 679 732 680 732 681 732 681 733 680 733 682 733 681 734 682 734 683 734 683 735 682 735 684 735 683 736 684 736 685 736 685 737 684 737 686 737 685 738 686 738 687 738 687 739 686 739 688 739 687 740 688 740 689 740 689 741 688 741 690 741 690 742 688 742 691 742 690 743 691 743 692 743 692 744 691 744 693 744 692 745 693 745 694 745 694 746 693 746 695 746 694 747 695 747 696 747 696 748 695 748 697 748 696 749 697 749 698 749 698 750 697 750 699 750 698 751 699 751 700 751 700 752 699 752 701 752 700 753 701 753 702 753 702 754 701 754 703 754 702 755 703 755 704 755 704 756 703 756 705 756 704 757 705 757 706 757 706 758 705 758 707 758 706 759 707 759 708 759 708 760 707 760 709 760 708 761 709 761 710 761 710 762 709 762 711 762 710 763 711 763 712 763 712 764 711 764 713 764 712 765 713 765 714 765 714 766 713 766 715 766 714 767 715 767 716 767 716 768 715 768 717 768 716 769 717 769 718 769 718 770 717 770 719 770 718 771 719 771 720 771 720 772 719 772 616 772 720 773 616 773 618 773 179 774 178 774 613 774 613 775 178 775 721 775 613 667 721 667 615 667 615 668 721 668 722 668 615 668 722 668 617 668 617 776 722 776 620 776 178 777 183 777 721 777 721 778 183 778 723 778 721 668 723 668 722 668 722 776 723 776 724 776 722 776 724 776 620 776 620 779 724 779 622 779 183 780 182 780 723 780 723 781 182 781 186 781 723 782 186 782 725 782 725 783 186 783 185 783 725 784 185 784 726 784 726 785 185 785 189 785 726 786 189 786 727 786 727 787 189 787 188 787 727 788 188 788 728 788 728 789 188 789 190 789 728 790 190 790 192 790 728 791 192 791 729 791 729 792 192 792 193 792 729 793 193 793 730 793 730 794 193 794 195 794 730 795 195 795 731 795 731 796 195 796 197 796 731 797 197 797 732 797 732 798 197 798 199 798 732 799 199 799 733 799 733 800 199 800 201 800 733 801 201 801 202 801 733 802 202 802 734 802 734 803 202 803 204 803 734 804 204 804 735 804 735 805 204 805 206 805 735 806 206 806 736 806 736 807 206 807 208 807 736 808 208 808 737 808 737 809 208 809 210 809 737 810 210 810 738 810 738 811 210 811 211 811 738 812 211 812 213 812 738 813 213 813 739 813 739 814 213 814 215 814 739 815 215 815 740 815 740 816 215 816 216 816 740 817 216 817 741 817 741 818 216 818 218 818 741 819 218 819 742 819 742 820 218 820 219 820 742 821 219 821 221 821 742 822 221 822 743 822 743 823 221 823 222 823 743 824 222 824 744 824 744 825 222 825 223 825 744 826 223 826 745 826 745 827 223 827 224 827 745 828 224 828 158 828 158 829 157 829 745 829 745 830 157 830 746 830 745 831 746 831 747 831 747 832 746 832 748 832 747 833 748 833 664 833 664 834 748 834 666 834 157 835 42 835 746 835 746 836 42 836 43 836 746 837 43 837 749 837 749 838 43 838 44 838 749 839 44 839 45 839 45 840 46 840 749 840 749 841 46 841 750 841 749 834 750 834 751 834 751 842 750 842 752 842 751 842 752 842 668 842 668 843 752 843 670 843 46 844 47 844 750 844 750 845 47 845 753 845 750 842 753 842 752 842 752 843 753 843 754 843 752 843 754 843 670 843 670 846 754 846 672 846 47 847 49 847 753 847 753 848 49 848 755 848 753 843 755 843 754 843 754 846 755 846 756 846 754 846 756 846 672 846 672 849 756 849 674 849 49 850 50 850 755 850 755 851 50 851 52 851 755 852 52 852 757 852 757 853 52 853 53 853 757 854 53 854 758 854 758 855 53 855 55 855 758 856 55 856 759 856 759 857 55 857 56 857 759 858 56 858 760 858 760 859 56 859 58 859 760 860 58 860 60 860 760 861 60 861 761 861 761 862 60 862 61 862 761 863 61 863 762 863 762 864 61 864 63 864 762 865 63 865 763 865 763 866 63 866 65 866 763 867 65 867 764 867 764 868 65 868 67 868 764 869 67 869 765 869 765 870 67 870 69 870 765 871 69 871 70 871 765 872 70 872 766 872 766 873 70 873 72 873 766 874 72 874 767 874 767 875 72 875 74 875 767 876 74 876 768 876 768 877 74 877 76 877 768 878 76 878 769 878 769 879 76 879 78 879 769 880 78 880 770 880 770 881 78 881 79 881 770 882 79 882 81 882 770 883 81 883 771 883 771 884 81 884 83 884 771 885 83 885 772 885 772 886 83 886 84 886 772 887 84 887 773 887 773 888 84 888 86 888 773 889 86 889 774 889 774 890 86 890 87 890 774 891 87 891 89 891 774 892 89 892 775 892 775 893 89 893 90 893 775 894 90 894 776 894 776 895 90 895 92 895 776 896 92 896 777 896 777 897 92 897 93 897 777 898 93 898 94 898 94 899 95 899 777 899 777 900 95 900 611 900 777 901 611 901 778 901 778 902 611 902 779 902 778 902 779 902 717 902 717 666 779 666 719 666 765 903 780 903 764 903 764 903 780 903 781 903 764 904 781 904 763 904 763 904 781 904 782 904 763 905 782 905 762 905 762 905 782 905 783 905 762 906 783 906 761 906 761 906 783 906 784 906 761 907 784 907 760 907 760 907 784 907 785 907 760 908 785 908 759 908 759 908 785 908 786 908 759 909 786 909 758 909 758 909 786 909 787 909 758 849 787 849 757 849 757 849 787 849 756 849 757 846 756 846 755 846 780 903 688 903 781 903 781 903 688 903 686 903 781 904 686 904 782 904 782 904 686 904 684 904 782 905 684 905 783 905 783 905 684 905 682 905 783 906 682 906 784 906 784 906 682 906 680 906 784 907 680 907 785 907 785 907 680 907 678 907 785 908 678 908 786 908 786 908 678 908 676 908 786 909 676 909 787 909 787 909 676 909 674 909 787 849 674 849 756 849 780 910 765 910 788 910 788 910 765 910 766 910 788 911 766 911 789 911 789 911 766 911 767 911 789 912 767 912 790 912 790 912 767 912 768 912 790 913 768 913 791 913 791 913 768 913 769 913 791 914 769 914 792 914 792 914 769 914 770 914 792 915 770 915 793 915 793 915 770 915 771 915 793 916 771 916 794 916 794 916 771 916 772 916 794 917 772 917 795 917 795 917 772 917 773 917 795 918 773 918 796 918 796 918 773 918 774 918 796 919 774 919 797 919 797 919 774 919 775 919 797 920 775 920 798 920 798 920 775 920 776 920 798 921 776 921 799 921 799 921 776 921 777 921 799 901 777 901 778 901 688 910 780 910 691 910 691 910 780 910 788 910 691 911 788 911 693 911 693 911 788 911 789 911 693 912 789 912 695 912 695 912 789 912 790 912 695 913 790 913 697 913 697 913 790 913 791 913 697 914 791 914 699 914 699 914 791 914 792 914 699 915 792 915 701 915 701 915 792 915 793 915 701 916 793 916 703 916 703 916 793 916 794 916 703 917 794 917 705 917 705 917 794 917 795 917 705 918 795 918 707 918 707 918 795 918 796 918 707 919 796 919 709 919 709 919 796 919 797 919 709 920 797 920 711 920 711 920 797 920 798 920 711 921 798 921 713 921 713 921 798 921 799 921 713 901 799 901 715 901 715 901 799 901 778 901 715 902 778 902 717 902 611 902 612 902 779 902 779 666 612 666 614 666 779 666 614 666 719 666 719 667 614 667 616 667 723 776 725 776 724 776 724 779 725 779 800 779 724 779 800 779 622 779 622 922 800 922 624 922 725 779 726 779 800 779 800 922 726 922 801 922 800 922 801 922 624 922 624 923 801 923 626 923 726 922 727 922 801 922 801 923 727 923 802 923 801 923 802 923 626 923 626 924 802 924 628 924 727 923 728 923 802 923 802 924 728 924 803 924 802 924 803 924 628 924 628 925 803 925 630 925 728 924 729 924 803 924 803 925 729 925 804 925 803 925 804 925 630 925 630 926 804 926 632 926 729 925 730 925 804 925 804 926 730 926 805 926 804 926 805 926 632 926 632 927 805 927 634 927 730 926 731 926 805 926 805 927 731 927 806 927 805 927 806 927 634 927 634 928 806 928 636 928 731 927 732 927 806 927 806 928 732 928 807 928 806 929 807 929 636 929 636 930 807 930 638 930 732 929 733 929 807 929 807 930 733 930 808 930 807 931 808 931 638 931 638 932 808 932 640 932 733 931 734 931 808 931 808 932 734 932 809 932 808 932 809 932 640 932 640 933 809 933 642 933 734 932 735 932 809 932 809 933 735 933 810 933 809 933 810 933 642 933 642 934 810 934 644 934 735 933 736 933 810 933 810 934 736 934 811 934 810 934 811 934 644 934 644 935 811 935 646 935 736 934 737 934 811 934 811 935 737 935 812 935 811 935 812 935 646 935 646 936 812 936 648 936 737 935 738 935 812 935 812 936 738 936 813 936 812 936 813 936 648 936 648 937 813 937 650 937 738 936 739 936 813 936 813 937 739 937 814 937 813 937 814 937 650 937 650 938 814 938 652 938 739 937 740 937 814 937 814 938 740 938 815 938 814 938 815 938 652 938 652 939 815 939 654 939 740 938 741 938 815 938 815 939 741 939 816 939 815 939 816 939 654 939 654 940 816 940 656 940 741 939 742 939 816 939 816 940 742 940 817 940 816 940 817 940 656 940 656 941 817 941 658 941 742 940 743 940 817 940 817 941 743 941 818 941 817 941 818 941 658 941 658 942 818 942 660 942 743 941 744 941 818 941 818 942 744 942 819 942 818 942 819 942 660 942 660 943 819 943 662 943 744 942 745 942 819 942 819 943 745 943 747 943 819 944 747 944 662 944 662 832 747 832 664 832 746 833 749 833 748 833 748 834 749 834 751 834 748 834 751 834 666 834 666 842 751 842 668 842 474 945 687 945 472 945 472 945 687 945 689 945 472 945 689 945 690 945 687 945 474 945 685 945 685 945 474 945 476 945 685 945 476 945 683 945 683 945 476 945 478 945 683 945 478 945 681 945 681 945 478 945 480 945 681 945 480 945 679 945 679 945 480 945 482 945 679 945 482 945 677 945 677 945 482 945 484 945 677 945 484 945 675 945 675 945 484 945 486 945 675 945 486 945 673 945 673 945 486 945 488 945 673 945 488 945 671 945 671 945 488 945 669 945 669 945 488 945 490 945 669 945 490 945 667 945 667 945 490 945 492 945 667 945 492 945 665 945 665 945 492 945 494 945 665 945 494 945 663 945 663 945 494 945 496 945 663 945 496 945 661 945 661 945 496 945 498 945 661 945 498 945 659 945 659 945 498 945 500 945 659 945 500 945 657 945 657 945 500 945 502 945 657 945 502 945 655 945 655 945 502 945 504 945 655 945 504 945 653 945 653 945 504 945 651 945 651 945 504 945 506 945 651 945 506 945 649 945 649 945 506 945 508 945 649 945 508 945 647 945 647 945 508 945 510 945 647 945 510 945 645 945 645 945 510 945 512 945 645 945 512 945 643 945 643 945 512 945 514 945 643 945 514 945 641 945 641 945 514 945 516 945 641 945 516 945 639 945 639 945 516 945 518 945 639 945 518 945 637 945 637 945 518 945 635 945 635 945 518 945 520 945 635 945 520 945 633 945 633 945 520 945 582 945 633 945 582 945 631 945 631 945 582 945 581 945 631 945 581 945 629 945 629 945 581 945 579 945 629 945 579 945 627 945 627 945 579 945 577 945 627 945 577 945 625 945 625 945 577 945 575 945 625 945 575 945 623 945 623 945 575 945 573 945 623 945 573 945 621 945 621 945 573 945 571 945 621 945 571 945 619 945 619 945 571 945 618 945 618 945 571 945 569 945 618 945 569 945 720 945 720 945 569 945 567 945 720 945 567 945 718 945 718 945 567 945 565 945 718 945 565 945 716 945 716 945 565 945 563 945 716 945 563 945 714 945 714 945 563 945 561 945 714 945 561 945 712 945 712 945 561 945 559 945 712 945 559 945 710 945 710 945 559 945 557 945 710 945 557 945 708 945 708 945 557 945 555 945 708 945 555 945 706 945 706 945 555 945 704 945 704 945 555 945 553 945 704 945 553 945 702 945 702 945 553 945 551 945 702 945 551 945 700 945 700 945 551 945 549 945 700 945 549 945 698 945 698 945 549 945 546 945 698 945 546 945 696 945 696 945 546 945 544 945 696 945 544 945 694 945 694 945 544 945 543 945 694 945 543 945 692 945 692 945 543 945 470 945 692 945 470 945 690 945 690 945 470 945 472 945</p>
        </triangles>
        <triangles count="1" material="mat_1">
          <input semantic="VERTEX" source="#vert_0" offset="0"/>
          <input semantic="NORMAL" source="#norm_0" offset="1"/>
          <p>0 0 1 0 2 0</p>
        </triangles>
      </mesh>
    </geometry>
  </library_geometries>
  <library_visual_scenes>
    <visual_scene id="DefaultScene">
      <node id="node_28c82318_ff01_41e6_94bb_8a6db9d403f4" type="NODE">
        <matrix>1 0 0 0 0 1 0 0 0 0 1 0 0 0 0 1</matrix>
        <node id="node_b55babde_fa27_4604_bb79_ab4b82a6c4ad" type="NODE">
          <matrix>1 0 0 0 0 1 0 0 0 0 1 0 0 0 0 1</matrix>
          <node id="node_b55babde_fa27_4604_bb79_ab4b82a6c4ad_mesh0" type="NODE">
            <matrix>1 0 0 0 0 1 0 0 0 0 1 0 0 0 0 1</matrix>
            <instance_geometry url="#geometry_d7f352c3_93fa_41e2_a315_62e99ac03ae7">
              <bind_material>
                <technique_common>
                  <instance_material symbol="mat_1" target="#mat_1"/>
                </technique_common>
              </bind_material>
            </instance_geometry>
          </node>
        </node>
      </node>
    </visual_scene>
  </library_visual_scenes>
  <scene>
    <instance_visual_scene url="#DefaultScene"/>
  </scene>
</COLLADA>
