<?xml version="1.0" encoding="UTF-8"?>
<COLLADA xmlns="http://www.collada.org/2005/11/COLLADASchema" version="1.4.1">
<!--
# File generated by ImageToStl.com - Free Image and 3D model conversion tools
-->
  <asset>
    <contributor>
      <author>ImageToStl.com</author>
      <authoring_tool>ImageToStl.com</authoring_tool>
    </contributor>
    <created>2026-03-07T04:19:03</created>
    <modified>2026-03-07T04:19:03</modified>
    <up_axis>Z_UP</up_axis>
  </asset>
  <library_effects>
    <effect id="effect_0">
        <profile_COMMON>
          <technique sid="common">
            <phong>
              <diffuse>
                <color>0.62745 0.62745 0.62745 1</color>
              </diffuse>
            </phong>
          </technique>
        </profile_COMMON>
    </effect>
    <effect id="effect_1">
        <profile_COMMON>
          <technique sid="common">
            <phong>
              <diffuse>
                <color>0.15686 0.21961 0.56471 1</color>
              </diffuse>
            </phong>
          </technique>
        </profile_COMMON>
    </effect>
  </library_effects>
  <library_materials>
    <material id="mat_0">
      <instance_effect url="#effect_0"/>
    </material>
    <material id="mat_1">
      <instance_effect url="#effect_1"/>
    </material>
  </library_materials>
  <library_geometries>
    <geometry id="geometry_9a8cd6a8_c9f2_4768_b42f_809522f271d4">
      <mesh>
        <source id="pos_0">
          <float_array id="pos_0-array" count="2460">-29.49999809 -269.87884521 11.62178516 -29.49999809 -269.96676636 10 0.50000262 -269.96676636 10 -29.49999809 -269.87884521 8.37821484 0.50000262 -269.87573242 8.3498764 -29.49999809 -269.61608887 6.77544355 0.50000262 -269.60372925 6.71978378 -29.49999809 -269.18157959 5.21047735 0.50000262 -269.15402222 5.12950802 -29.49999809 -268.58041382 3.70166349 0.50000262 -268.53213501 3.59835362 -29.49999809 -267.81964111 2.26669216 0.50000262 -267.74557495 2.14490628 -29.49999809 -266.90817261 0.92238677 0.50000262 -266.80389404 0.78680933 -29.49999809 -265.85671997 -0.31549188 0.50000262 -265.71850586 -0.45945203 -29.49999809 -264.67758179 -1.43243086 0.50000262 -264.50262451 -1.57874978 -29.49999809 -263.38458252 -2.41533494 0.50000262 -263.17098999 -2.55749726 -29.49999809 -261.9928894 -3.25268078 0.50000262 -261.73977661 -3.38381362 -29.49999809 -260.51885986 -3.9346509 0.50000262 -260.22634888 -4.04766846 -29.49999809 -258.97970581 -4.45324993 0.50000262 -258.64904785 -4.54100418 -29.49999809 -257.39349365 -4.80239773 0.50000262 -257.02706909 -4.85783148 -29.49999809 -255.77885437 -4.97800112 0.50000262 -255.38008118 -4.99430466 -29.49999809 -254.1546936 -4.97800112 0.50000262 -253.72808838 -4.94876766 -29.49999809 -252.54003906 -4.80239773 0.50000262 -252.09111023 -4.72177267 -29.49999809 -250.95384216 -4.45324993 0.50000262 -250.48904419 -4.31607533 -29.49999809 -249.41470337 -3.9346509 0.50000262 -248.94134521 -3.73659992 -29.49999809 -247.94064331 -3.25268078 0.50000262 -247.46676636 -2.990381 -29.49999809 -246.54896545 -2.41533494 0.50000262 -246.67521667 -2.49999976 -0.13420743 -246.65065002 -2.48390055 -0.76094341 -246.57928467 -2.43623567 -1.37906814 -246.46461487 -2.35795379 -1.98744428 -246.31013489 -2.25000429 -3.17128944 -245.89886475 -1.94871581 -29.49999809 -245.25598145 -1.43243086 -4.30602884 -245.38304138 -1.53915346 -5.38524294 -244.80036926 -1.02692878 -29.49999809 -244.07684326 -0.31549188 -6.40092564 -244.18214417 -0.42036033 -7.34380245 -243.55491638 0.26885247 -29.49999809 -243.02537537 0.92238677 -8.20459366 -242.94519043 1.02899563 -8.99265194 -242.36280823 1.86938632 -29.49999809 -242.11392212 2.26669216 -9.72652817 -241.80131531 2.81690145 -29.49999809 -241.35314941 3.70166349 -10.38637638 -241.28245544 3.86064601 -10.95156193 -240.82858276 4.98889256 -29.49999809 -240.75196838 5.21047735 -11.40443993 -240.4593811 6.18832541 -29.49999809 -240.31745911 6.77544355 -11.7347908 -240.1870575 7.43878937 -29.49999809 -240.05470276 8.37821484 -11.93381214 -240.02192688 8.7177763 -29.49999809 -239.96676636 10 -11.99999714 -239.96676636 10 -11.93381214 -240.02192688 11.2822237 -29.49999809 -240.05470276 11.62178516 -11.7347908 -240.1870575 12.56121063 -29.49999809 -240.31745911 13.22455692 -11.40443993 -240.4593811 13.81167507 -29.49999809 -240.75196838 14.78952312 -10.95156193 -240.82858276 15.01110744 -29.49999809 -241.35314941 16.29833603 -10.38637638 -241.28245544 16.13935471 -9.72652817 -241.80131531 17.18309975 -29.49999809 -242.11392212 17.73330879 -8.99265194 -242.36280823 18.13061333 -29.49999809 -243.02537537 19.07761383 -8.20459366 -242.94519043 18.97100449 -7.34380245 -243.55491638 19.73114777 -29.49999809 -244.07684326 20.31549263 -6.40092564 -244.18214417 20.42036057 -5.38524294 -244.80036926 21.02692986 -29.49999809 -245.25598145 21.43243027 -4.30602884 -245.38304138 21.53915405 -3.17128944 -245.89886475 21.94871521 -29.49999809 -246.54896545 22.4153347 -1.98744428 -246.31013489 22.25000381 -1.37906814 -246.46461487 22.35795403 -0.76094341 -246.57928467 22.43623543 -0.13420743 -246.65065002 22.48390007 0.50000262 -246.67521667 22.5 0.50000262 -247.46676636 22.99038124 30.50000191 -246.54896545 22.4153347 30.50000191 -247.94064331 23.25268173 0.50000262 -248.94134521 23.73660088 30.50000191 -249.41470337 23.93465042 0.50000262 -250.48904419 24.31607628 30.50000191 -250.95384216 24.45325089 0.50000262 -252.09111023 24.72177315 30.50000191 -252.54003906 24.80239868 0.50000262 -253.72808838 24.94876862 30.50000191 -254.1546936 24.97800064 0.50000262 -255.38008118 24.99430466 30.50000191 -255.77885437 24.97800064 0.50000262 -257.02706909 24.85783195 30.50000191 -257.39349365 24.80239868 0.50000262 -258.64904785 24.54100418 30.50000191 -258.97970581 24.45325089 0.50000262 -260.22634888 24.04766846 30.50000191 -260.51885986 23.93465042 0.50000262 -261.73977661 23.38381386 30.50000191 -261.9928894 23.25268173 0.50000262 -263.17098999 22.55749702 30.50000191 -263.38458252 22.4153347 0.50000262 -264.50262451 21.57875061 30.50000191 -264.67758179 21.43243027 0.50000262 -265.71850586 20.45945168 30.50000191 -265.85671997 20.31549263 0.50000262 -266.80389404 19.21319008 30.50000191 -266.90817261 19.07761383 0.50000262 -267.74557495 17.85509491 30.50000191 -267.81964111 17.73330879 0.50000262 -268.53213501 16.40164757 30.50000191 -268.58041382 16.29833603 0.50000262 -269.15402222 14.87049198 30.50000191 -269.18157959 14.78952312 0.50000262 -269.60372925 13.28021622 30.50000191 -269.61608887 13.22455692 0.50000262 -269.87573242 11.6501236 30.50000191 -269.87884521 11.62178516 30.50000191 -269.96676636 10 30.50000191 -269.87884521 8.37821484 30.50000191 -269.61608887 6.77544355 30.50000191 -269.18157959 5.21047735 30.50000191 -268.58041382 3.70166349 30.50000191 -267.81964111 2.26669216 30.50000191 -266.90817261 0.92238677 30.50000191 -265.85671997 -0.31549188 30.50000191 -264.67758179 -1.43243086 30.50000191 -263.38458252 -2.41533494 30.50000191 -261.9928894 -3.25268078 30.50000191 -260.51885986 -3.9346509 30.50000191 -258.97970581 -4.45324993 30.50000191 -257.39349365 -4.80239773 30.50000191 -255.77885437 -4.97800112 30.50000191 -254.1546936 -4.97800112 30.50000191 -252.54003906 -4.80239773 30.50000191 -250.95384216 -4.45324993 30.50000191 -249.41470337 -3.9346509 30.50000191 -247.94064331 -3.25268078 30.50000191 -246.54896545 -2.41533494 1.13421261 -246.65065002 -2.48390055 1.76094866 -246.57928467 -2.43623567 -29.49999809 -247.94064331 23.25268173 -29.49999809 -249.41470337 23.93465042 -29.49999809 -250.95384216 24.45325089 -29.49999809 -252.54003906 24.80239868 -29.49999809 -254.1546936 24.97800064 -29.49999809 -255.77885437 24.97800064 -29.49999809 -257.39349365 24.80239868 -29.49999809 -258.97970581 24.45325089 -29.49999809 -260.51885986 23.93465042 -29.49999809 -261.9928894 23.25268173 -29.49999809 -263.38458252 22.4153347 -29.49999809 -264.67758179 21.43243027 -29.49999809 -265.85671997 20.31549263 -29.49999809 -266.90817261 19.07761383 -29.49999809 -267.81964111 17.73330879 -29.49999809 -268.58041382 16.29833603 -29.49999809 -269.18157959 14.78952312 -29.49999809 -269.61608887 13.22455692 30.50000191 -245.25598145 21.43243027 4.17129469 -245.89886475 21.94871521 2.98744941 -246.31013489 22.25000381 2.37907338 -246.46461487 22.35795403 30.50000191 -244.07684326 20.31549263 6.38524818 -244.80036926 21.02692986 5.30603409 -245.38304138 21.53915405 30.50000191 -243.02537537 19.07761383 8.34380722 -243.55491638 19.73114777 7.40093088 -244.18214417 20.42036057 30.50000191 -242.11392212 17.73330879 9.99265671 -242.36280823 18.13061333 9.20459843 -242.94519043 18.97100449 10.72653294 -241.80131531 17.18309975 30.50000191 -241.35314941 16.29833603 11.38638115 -241.28245544 16.13935471 11.9515667 -240.82858276 15.01110744 30.50000191 -240.75196838 14.78952312 12.40444565 -240.4593811 13.81167507 30.50000191 -240.31745911 13.22455692 12.73479557 -240.1870575 12.56121063 30.50000191 -240.05470276 11.62178516 12.93381691 -240.02192688 11.2822237 30.50000191 -239.96676636 10 13.00000286 -239.96676636 10 12.93381691 -240.02192688 8.7177763 30.50000191 -240.05470276 8.37821484 12.73479557 -240.1870575 7.43878937 30.50000191 -240.31745911 6.77544355 12.40444565 -240.4593811 6.18832541 30.50000191 -240.75196838 5.21047735 11.9515667 -240.82858276 4.98889256 30.50000191 -241.35314941 3.70166349 11.38638115 -241.28245544 3.86064601 10.72653294 -241.80131531 2.81690145 30.50000191 -242.11392212 2.26669216 9.99265671 -242.36280823 1.86938632 30.50000191 -243.02537537 0.92238677 9.20459843 -242.94519043 1.02899563 8.34380722 -243.55491638 0.26885247 30.50000191 -244.07684326 -0.31549188 7.40093088 -244.18214417 -0.42036033 6.38524818 -244.80036926 -1.02692878 30.50000191 -245.25598145 -1.43243086 5.30603409 -245.38304138 -1.53915346 4.17129469 -245.89886475 -1.94871581 2.98744941 -246.31013489 -2.25000429 2.37907338 -246.46461487 -2.35795379 1.76094866 -246.57928467 22.43623543 1.13421261 -246.65065002 22.48390007 0.50000262 -243.78643799 20 1.48563361 -243.74273682 19.95114326 -0.48562834 -243.74273682 19.95114326 -1.46926343 -243.61433411 19.80418205 2.46926856 -243.61433411 19.80418205 -2.43433809 -243.40760803 19.55965805 3.43434334 -243.40760803 19.55965805 -3.36648154 -243.13673401 19.22227287 4.36648655 -243.13673401 19.22227287 -4.25281048 -242.8183136 18.7971344 5.25281525 -242.8183136 18.7971344 6.08365631 -242.47007751 18.2935524 6.84986067 -242.10932922 17.72369576 -5.84985542 -242.10932922 17.72369576 -5.08365107 -242.47007751 18.2935524 7.5422802 -241.75338745 17.09973526 -6.54227495 -241.75338745 17.09973526 -7.17248249 -241.40693665 16.41151428 8.17248726 -241.40693665 16.41151428 8.75257969 -241.07044983 15.64337826 9.26819038 -240.758255 14.80538559 -8.26818562 -240.758255 14.80538559 -7.75257444 -241.07044983 15.64337826 9.70490932 -240.48471069 13.90764236 -8.70490456 -240.48471069 13.90764236 10.04991722 -240.26342773 12.96111202 -9.04991245 -240.26342773 12.96111202 -9.29869461 -240.10098267 11.98215389 10.29870033 -240.10098267 11.98215389 10.44936085 -240.00091553 10.98902893 10.50000286 -239.96676636 10 -9.49999714 -239.96676636 10 -9.44935608 -240.00091553 10.98902893 -9.44935608 -240.00091553 9.01097202 10.44936085 -240.00091553 9.01097202 10.29870033 -240.10098267 8.01784706 10.04991722 -240.26342773 7.03888798 -9.04991245 -240.26342773 7.03888798 -9.29869461 -240.10098267 8.01784706 9.70490932 -240.48471069 6.09235811 -8.70490456 -240.48471069 6.09235811 9.26819038 -240.758255 5.19461489 -8.26818562 -240.758255 5.19461489 -7.75257444 -241.07044983 4.35662222 8.75257969 -241.07044983 4.35662222 8.17248726 -241.40693665 3.58848548 7.5422802 -241.75338745 2.90026426 -6.54227495 -241.75338745 2.90026426 -7.17248249 -241.40693665 3.58848548 6.84986067 -242.10932922 2.27630353 -5.84985542 -242.10932922 2.27630353 -5.08365107 -242.47007751 1.70644748 6.08365631 -242.47007751 1.70644748 5.25281525 -242.8183136 1.20286584 4.36648655 -243.13673401 0.77772826 -3.36648154 -243.13673401 0.77772826 -4.25281048 -242.8183136 1.20286584 -2.43433809 -243.40760803 0.44034213 3.43434334 -243.40760803 0.44034213 -1.46926343 -243.61433411 0.19581774 2.46926856 -243.61433411 0.19581774 -0.48562834 -243.74273682 0.04885742 1.48563361 -243.74273682 0.04885742 0.50000262 -243.78643799 -0 30.50000191 -259.87640381 9.05374432 10.50000286 -259.87640381 9.05374432 30.50000191 -259.96676636 10 10.50000286 -259.96676636 10 30.50000191 -259.87640381 10.94625664 10.50000286 -259.87640381 10.94625664 30.50000191 -259.60861206 11.85831261 10.50000286 -259.60861206 11.85831261 30.50000191 -259.17303467 12.70320415 10.50000286 -259.17303467 12.70320415 30.50000191 -258.58544922 13.45039558 10.50000286 -258.58544922 13.45039558 30.50000191 -257.86706543 14.07287979 10.50000286 -257.86706543 14.07287979 30.50000191 -257.04385376 14.54816055 10.50000286 -257.04385376 14.54816055 30.50000191 -256.14556885 14.85905838 10.50000286 -256.14556885 14.85905838 30.50000191 -255.2046814 14.99433708 10.50000286 -255.2046814 14.99433708 30.50000191 -254.25520325 14.94910717 10.50000286 -254.25520325 14.94910717 30.50000191 -253.33143616 14.7250042 10.50000286 -253.33143616 14.7250042 30.50000191 -252.46676636 14.33012676 10.50000286 -252.46676636 14.33012676 30.50000191 -251.69247437 13.77874851 10.50000286 -251.69247437 13.77874851 30.50000191 -251.03651428 13.09079552 10.50000286 -251.03651428 13.09079552 30.50000191 -250.52259827 12.29113293 10.50000286 -250.52259827 12.29113293 30.50000191 -250.16931152 11.4086628 10.50000286 -250.16931152 11.4086628 30.50000191 -249.9894104 10.47528076 10.50000286 -249.9894104 10.47528076 30.50000191 -249.9894104 9.52472019 10.50000286 -249.9894104 9.52472019 30.50000191 -250.16931152 8.5913372 10.50000286 -250.16931152 8.5913372 30.50000191 -250.52259827 7.70886755 10.50000286 -250.52259827 7.70886755 30.50000191 -251.03651428 6.90920496 10.50000286 -251.03651428 6.90920496 30.50000191 -251.69247437 6.22125244 10.50000286 -251.69247437 6.22125244 30.50000191 -252.46676636 5.66987324 10.50000286 -252.46676636 5.66987324 30.50000191 -253.33143616 5.2749958 10.50000286 -253.33143616 5.2749958 30.50000191 -254.25520325 5.05089283 10.50000286 -254.25520325 5.05089283 30.50000191 -255.2046814 5.00566339 10.50000286 -255.2046814 5.00566339 30.50000191 -256.14556885 5.1409421 10.50000286 -256.14556885 5.1409421 30.50000191 -257.04385376 5.45183992 10.50000286 -257.04385376 5.45183992 30.50000191 -257.86706543 5.92712021 10.50000286 -257.86706543 5.92712021 30.50000191 -258.58544922 6.54960489 10.50000286 -258.58544922 6.54960489 30.50000191 -259.17303467 7.29679585 10.50000286 -259.17303467 7.29679585 30.50000191 -259.60861206 8.14168739 10.50000286 -259.60861206 8.14168739 -29.49999809 -259.87640381 10.94625664 -9.49999714 -259.87640381 10.94625664 -29.49999809 -259.96676636 10 -9.49999714 -259.96676636 10 -29.49999809 -259.87640381 9.05374432 -9.49999714 -259.87640381 9.05374432 -29.49999809 -259.60861206 8.14168739 -9.49999714 -259.60861206 8.14168739 -29.49999809 -259.17303467 7.29679585 -9.49999714 -259.17303467 7.29679585 -29.49999809 -258.58544922 6.54960489 -9.49999714 -258.58544922 6.54960489 -29.49999809 -257.86706543 5.92712021 -9.49999714 -257.86706543 5.92712021 -29.49999809 -257.04385376 5.45183992 -9.49999714 -257.04385376 5.45183992 -29.49999809 -256.14556885 5.1409421 -9.49999714 -256.14556885 5.1409421 -29.49999809 -255.2046814 5.00566339 -9.49999714 -255.2046814 5.00566339 -29.49999809 -254.25520325 5.05089283 -9.49999714 -254.25520325 5.05089283 -29.49999809 -253.33143616 5.2749958 -9.49999714 -253.33143616 5.2749958 -29.49999809 -252.46676636 5.66987324 -9.49999714 -252.46676636 5.66987324 -29.49999809 -251.69247437 6.22125244 -9.49999714 -251.69247437 6.22125244 -29.49999809 -251.03651428 6.90920496 -9.49999714 -251.03651428 6.90920496 -29.49999809 -250.52259827 7.70886755 -9.49999714 -250.52259827 7.70886755 -29.49999809 -250.16931152 8.5913372 -9.49999714 -250.16931152 8.5913372 -29.49999809 -249.9894104 9.52472019 -9.49999714 -249.9894104 9.52472019 -29.49999809 -249.9894104 10.47528076 -9.49999714 -249.9894104 10.47528076 -29.49999809 -250.16931152 11.4086628 -9.49999714 -250.16931152 11.4086628 -29.49999809 -250.52259827 12.29113293 -9.49999714 -250.52259827 12.29113293 -29.49999809 -251.03651428 13.09079552 -9.49999714 -251.03651428 13.09079552 -29.49999809 -251.69247437 13.77874851 -9.49999714 -251.69247437 13.77874851 -29.49999809 -252.46676636 14.33012676 -9.49999714 -252.46676636 14.33012676 -29.49999809 -253.33143616 14.7250042 -9.49999714 -253.33143616 14.7250042 -29.49999809 -254.25520325 14.94910717 -9.49999714 -254.25520325 14.94910717 -29.49999809 -255.2046814 14.99433708 -9.49999714 -255.2046814 14.99433708 -29.49999809 -256.14556885 14.85905838 -9.49999714 -256.14556885 14.85905838 -29.49999809 -257.04385376 14.54816055 -9.49999714 -257.04385376 14.54816055 -29.49999809 -257.86706543 14.07287979 -9.49999714 -257.86706543 14.07287979 -29.49999809 -258.58544922 13.45039558 -9.49999714 -258.58544922 13.45039558 -29.49999809 -259.17303467 12.70320415 -9.49999714 -259.17303467 12.70320415 -29.49999809 -259.60861206 11.85831261 -9.49999714 -259.60861206 11.85831261 -0.50095433 -218.66151428 19.9497776 0.8341524 -218.66151428 19.99441528 2.16329622 -218.66151428 19.86070251 3.46275854 -218.66151428 19.55102539 4.70935011 -218.66151428 19.0709095 5.880826 -218.66151428 18.42892265 6.95628119 -218.66151428 17.63652229 7.91652393 -218.66151428 16.7078476 8.74441814 -218.66151428 15.65947151 9.42519093 -218.66151428 14.51010132 9.94669342 -218.66151428 13.28024864 10.30106449 -218.66151428 11.98474026 10.47767162 -218.66151428 10.66792679 10.47767162 -218.66151428 9.33207417 10.30106449 -218.66151428 8.01525974 9.94669342 -218.66151428 6.71975136 9.42519093 -218.66151428 5.48989868 8.74441814 -218.66151428 4.34052896 7.91652393 -218.66151428 3.29215264 6.95628119 -218.66151428 2.36347818 5.880826 -218.66151428 1.57107735 4.70935011 -218.66151428 0.92909086 3.46275854 -218.66151428 0.44897503 2.16329622 -218.66151428 0.13929746 0.8341524 -218.66151428 0.00558436 -0.50095433 -218.66151428 0.05022185 -1.81819892 -218.66151428 0.27241337 -3.0940752 -218.66151428 0.66819388 -4.30581522 -218.66151428 1.2305007 -5.43179512 -218.66151428 1.94929945 -6.45192194 -218.66151428 2.81176329 -7.34799147 -218.66151428 3.8025012 -8.10401344 -218.66151428 4.90383387 -8.70526314 -218.66151428 6.09319925 -9.14468956 -218.66151428 7.35804605 -9.41077232 -218.66151428 8.66713047 -9.49999714 -218.66151428 10 -9.41077232 -218.66151428 11.33286953 -9.14468956 -218.66151428 12.64195442 -8.70526314 -218.66151428 13.90680122 -8.10401344 -218.66151428 15.09616661 -7.34799147 -218.66151428 16.19749832 -6.45192194 -218.66151428 17.18823624 -5.43179512 -218.66151428 18.05070114 -4.30581522 -218.66151428 18.76949883 -3.0940752 -218.66151428 19.33180618 -1.81819892 -218.66151428 19.72758675 -9.41077232 -143.28677368 11.33286953 -9.41077232 -168.41168213 11.33286953 -9.49999714 -143.28677368 10 -9.49999714 -168.41168213 10 -9.41077232 -143.28677368 8.66713047 -9.41077232 -168.41168213 8.66713047 -9.14468956 -143.28677368 7.35804605 -9.14468956 -168.41168213 7.35804605 -8.70649624 -143.28677368 6.09610748 -8.70608521 -168.41168213 6.09513807 -8.10401344 -143.28677368 4.90383387 -8.10401344 -168.41168213 4.90383387 -7.34799147 -143.28677368 3.8025012 -7.34799147 -168.41168213 3.8025012 -6.45192194 -143.28677368 2.81176329 -6.45192194 -168.41168213 2.81176329 -5.43179512 -143.28677368 1.94929945 -5.43179512 -168.41168213 1.94929945 -4.30581522 -143.28677368 1.2305007 -4.30581522 -168.41168213 1.2305007 -3.0940752 -143.28677368 0.66819388 -3.0940752 -168.41168213 0.66819388 -1.81819892 -143.28677368 0.27241337 -1.81819892 -168.41168213 0.27241337 -0.50095433 -143.28677368 0.05022185 -0.50095433 -168.41168213 0.05022185 0.8341524 -143.28677368 0.00558436 0.8341524 -168.41168213 0.00558436 2.16329622 -143.28677368 0.13929746 2.16329622 -168.41168213 0.13929746 3.46275854 -143.28677368 0.44897503 3.46275854 -168.41168213 0.44897503 4.70935011 -143.28677368 0.92909086 4.70935011 -168.41168213 0.92909086 5.880826 -143.28677368 1.57107735 5.880826 -168.41168213 1.57107735 6.95628119 -143.28677368 2.36347818 6.95628119 -168.41168213 2.36347818 7.91652393 -143.28677368 3.29215264 7.91652393 -168.41168213 3.29215264 8.74441814 -143.28677368 4.34052896 8.74441814 -168.41168213 4.34052896 9.42519093 -143.28677368 5.48989868 9.42519093 -168.41168213 5.48989868 9.94669342 -143.28677368 6.71975136 9.94669342 -168.41168213 6.71975136 10.29961967 -143.28677368 8.00814056 10.30010223 -168.41168213 8.01051331 10.47767162 -143.28677368 9.33207417 10.47767162 -168.41168213 9.33207417 10.47767162 -143.28677368 10.66792679 10.47767162 -168.41168213 10.66792679 10.30010223 -168.41168213 11.98948669 10.30058384 -193.53660583 11.98711395 9.94669342 -193.53660583 13.28024864 9.42519093 -193.53660583 14.51010132 8.74441814 -193.53660583 15.65947151 7.91652393 -193.53660583 16.7078476 6.95628119 -193.53660583 17.63652229 5.880826 -193.53660583 18.42892265 4.70935011 -193.53660583 19.0709095 3.46275854 -193.53660583 19.55102539 2.16329622 -193.53660583 19.86070251 0.8341524 -193.53660583 19.99441528 -0.50095433 -193.53660583 19.9497776 -1.81819892 -193.53660583 19.72758675 -3.0940752 -193.53660583 19.33180618 -4.30581522 -193.53660583 18.76949883 -5.43179512 -193.53660583 18.05070114 -6.45192194 -193.53660583 17.18823624 -7.34799147 -193.53660583 16.19749832 -8.10401344 -193.53660583 15.09616661 -9.14468956 -168.41168213 12.64195442 -9.14468956 -143.28677368 12.64195442 -8.70649624 -143.28677368 13.90389252 -8.70608521 -168.41168213 13.9048624 -8.10401344 -143.28677368 15.09616661 -8.10401344 -168.41168213 15.09616661 -7.34799147 -168.41168213 16.19749832 -7.34799147 -143.28677368 16.19749832 -6.45192194 -168.41168213 17.18823624 -6.45192194 -143.28677368 17.18823624 -5.43179512 -168.41168213 18.05070114 -5.43179512 -143.28677368 18.05070114 -4.30581522 -168.41168213 18.76949883 -4.30581522 -143.28677368 18.76949883 -3.0940752 -168.41168213 19.33180618 -3.0940752 -143.28677368 19.33180618 -1.81819892 -168.41168213 19.72758675 -1.81819892 -143.28677368 19.72758675 -0.50095433 -168.41168213 19.9497776 -0.50095433 -143.28677368 19.9497776 0.8341524 -168.41168213 19.99441528 0.8341524 -143.28677368 19.99441528 2.16329622 -168.41168213 19.86070251 2.16329622 -143.28677368 19.86070251 3.46275854 -168.41168213 19.55102539 3.46275854 -143.28677368 19.55102539 4.70935011 -168.41168213 19.0709095 4.70935011 -143.28677368 19.0709095 5.880826 -168.41168213 18.42892265 5.880826 -143.28677368 18.42892265 6.95628119 -168.41168213 17.63652229 6.95628119 -143.28677368 17.63652229 7.91652393 -168.41168213 16.7078476 7.91652393 -143.28677368 16.7078476 8.74441814 -168.41168213 15.65947151 8.74441814 -143.28677368 15.65947151 9.42519093 -168.41168213 14.51010132 9.42519093 -143.28677368 14.51010132 9.94669342 -168.41168213 13.28024864 9.94669342 -143.28677368 13.28024864 10.29961967 -143.28677368 11.99186039 -9.49999714 -193.53660583 10 -9.41077232 -193.53660583 8.66713047 -9.14468956 -193.53660583 7.35804605 -8.70567417 -193.53660583 6.09416866 -8.10401344 -193.53660583 4.90383387 -7.34799147 -193.53660583 3.8025012 -6.45192194 -193.53660583 2.81176329 -5.43179512 -193.53660583 1.94929945 -4.30581522 -193.53660583 1.2305007 -3.0940752 -193.53660583 0.66819388 -1.81819892 -193.53660583 0.27241337 -0.50095433 -193.53660583 0.05022185 0.8341524 -193.53660583 0.00558436 2.16329622 -193.53660583 0.13929746 3.46275854 -193.53660583 0.44897503 4.70935011 -193.53660583 0.92909086 5.880826 -193.53660583 1.57107735 6.95628119 -193.53660583 2.36347818 7.91652393 -193.53660583 3.29215264 8.74441814 -193.53660583 4.34052896 9.42519093 -193.53660583 5.48989868 9.94669342 -193.53660583 6.71975136 10.30058384 -193.53660583 8.012887 10.47767162 -193.53660583 9.33207417 10.47767162 -193.53660583 10.66792679 -9.41077232 -193.53660583 11.33286953 -9.14468956 -193.53660583 12.64195442 -8.70567417 -193.53660583 13.90583134 0.50000262 -220.82809448 22.5 2.00671101 -220.82809448 22.40886116 3.4914484 -220.82809448 22.13677216 3.4914484 -194.98098755 22.13677216 4.93256378 -194.98098755 21.68770409 4.93256378 -169.13388062 21.68770409 6.30904245 -169.13388062 21.06820107 5.87581778 -143.28677368 21.28497314 7.17279482 -143.28677368 20.5699501 7.60081196 -169.13388062 20.2872982 8.37610054 -143.28677368 19.70654869 8.7890358 -169.13388062 19.35638428 9.46884346 -143.28677368 18.7068882 9.85638714 -169.13388062 18.28903389 10.43568325 -143.28677368 17.5850029 10.78730106 -169.13388062 17.1008091 11.26304817 -143.28677368 16.35663986 11.56820297 -169.13388062 15.80904007 11.93932247 -143.28677368 15.03904343 12.18770599 -169.13388062 14.43256092 12.45501518 -143.28677368 13.65071011 12.63677502 -169.13388062 12.99144554 12.80288506 -143.28677368 12.21112823 12.90886307 -169.13388062 11.5067091 12.97804928 -143.28677368 10.74050808 13.00000286 -169.13388062 10 12.97804928 -143.28677368 9.25949192 12.90886307 -169.13388062 8.49329185 12.80288506 -143.28677368 7.78887177 12.63677502 -169.13388062 7.00855446 12.45501518 -143.28677368 6.34929037 12.18770599 -169.13388062 5.56743908 11.93932247 -143.28677368 4.96095705 11.56820297 -169.13388062 4.19096041 11.26304817 -143.28677368 3.64336109 10.78730106 -169.13388062 2.8991909 10.43568325 -143.28677368 2.41499829 9.85638714 -169.13388062 1.71096694 9.46884346 -143.28677368 1.29311228 8.7890358 -169.13388062 0.64361578 8.37610054 -143.28677368 0.29345188 7.60081196 -169.13388062 -0.28729817 7.17279482 -143.28677368 -0.56994987 6.30904245 -169.13388062 -1.06820023 5.87581778 -143.28677368 -1.28497267 4.93256378 -169.13388062 -1.68770289 4.50337601 -143.28677368 -1.84157932 3.4914484 -169.13388062 -2.13677263 3.0747354 -143.28677368 -2.23195601 2.00671101 -169.13388062 -2.40886068 1.60995126 -143.28677368 -2.4506228 0.50000262 -169.13388062 -2.49999976 0.12958601 -143.28677368 -2.49451041 -1.00670588 -169.13388062 -2.40886068 -1.3455795 -143.28677368 -2.3630023 -2.49144316 -169.13388062 -2.13677263 -2.794837 -143.28677368 -2.05794454 -3.93255854 -169.13388062 -1.68770289 -4.19784212 -143.28677368 -1.58361995 -5.30903721 -169.13388062 -1.06820023 -5.53489971 -143.28677368 -0.94668663 -6.60080671 -169.13388062 -0.28729817 -6.78724098 -143.28677368 -0.15608582 -7.78903055 -169.13388062 0.64361578 -7.93728495 -143.28677368 0.77708417 -8.85638142 -169.13388062 1.71096694 -8.96888828 -143.28677368 1.83972371 -9.78729534 -169.13388062 2.8991909 -9.86756802 -143.28677368 3.01691556 -10.56819725 -169.13388062 4.19096041 -10.62071133 -143.28677368 4.29213476 -11.18770027 -169.13388062 5.56743908 -11.21774292 -143.28677368 5.64747953 -11.63677025 -169.13388062 7.00855446 -11.65028381 -143.28677368 7.06392479 -11.9088583 -169.13388062 8.49329185 -11.91226101 -143.28677368 8.52158546 -11.99999714 -169.13388062 10 -11.99999714 -143.28677368 10 -11.91226101 -143.28677368 11.47841454 -11.9088583 -169.13388062 11.5067091 -11.65028381 -143.28677368 12.93607616 -11.63677025 -169.13388062 12.99144554 -11.21774292 -143.28677368 14.35252094 -11.18770027 -169.13388062 14.43256092 -10.62071133 -143.28677368 15.70786572 -10.56819725 -169.13388062 15.80904007 -9.86756802 -143.28677368 16.98308563 -9.78729534 -169.13388062 17.1008091 -8.96888828 -143.28677368 18.16027641 -8.85638142 -169.13388062 18.28903389 -7.93728495 -143.28677368 19.22291565 -7.78903055 -169.13388062 19.35638428 -6.78724098 -143.28677368 20.15608597 -6.60080671 -169.13388062 20.2872982 -5.53489971 -143.28677368 20.9466877 -5.30903721 -169.13388062 21.06820107 -4.19784212 -143.28677368 21.58362007 -3.93255854 -169.13388062 21.68770409 -2.794837 -143.28677368 22.05794525 -2.49144316 -169.13388062 22.13677216 -1.3455795 -143.28677368 22.36300278 -1.00670588 -169.13388062 22.40886116 0.12958601 -143.28677368 22.49451065 0.50000262 -169.13388062 22.5 1.60995126 -143.28677368 22.45062256 2.00671101 -169.13388062 22.40886116 3.0747354 -143.28677368 22.23195648 3.4914484 -169.13388062 22.13677216 4.50337601 -143.28677368 21.84157944 4.93256378 -220.82809448 21.68770409 6.30904245 -194.98098755 21.06820107 6.30904245 -220.82809448 21.06820107 7.60081196 -194.98098755 20.2872982 7.60081196 -220.82809448 20.2872982 8.7890358 -220.82809448 19.35638428 9.85638714 -220.82809448 18.28903389 10.78730106 -220.82809448 17.1008091 11.56820297 -220.82809448 15.80904007 12.18770599 -220.82809448 14.43256092 12.63677502 -220.82809448 12.99144554 12.90886307 -220.82809448 11.5067091 13.00000286 -220.82809448 10 12.90886307 -220.82809448 8.49329185 12.63677502 -220.82809448 7.00855446 12.18770599 -220.82809448 5.56743908 11.56820297 -220.82809448 4.19096041 10.78730106 -220.82809448 2.8991909 9.85638714 -220.82809448 1.71096694 8.7890358 -220.82809448 0.64361578 7.60081196 -220.82809448 -0.28729817 6.30904245 -220.82809448 -1.06820023 4.93256378 -220.82809448 -1.68770289 3.4914484 -220.82809448 -2.13677263 2.00671101 -220.82809448 -2.40886068 0.50000262 -220.82809448 -2.49999976 0.50000262 -194.98098755 -2.49999976 -1.00670588 -194.98098755 -2.40886068 -1.00670588 -220.82809448 -2.40886068 -2.49144316 -220.82809448 -2.13677263 -2.49144316 -194.98098755 -2.13677263 -3.93255854 -194.98098755 -1.68770289 -3.93255854 -220.82809448 -1.68770289 -5.30903721 -194.98098755 -1.06820023 -5.30903721 -220.82809448 -1.06820023 -6.60080671 -194.98098755 -0.28729817 -6.60080671 -220.82809448 -0.28729817 -7.78903055 -220.82809448 0.64361578 -8.85638142 -220.82809448 1.71096694 -9.78729534 -220.82809448 2.8991909 -10.56819725 -220.82809448 4.19096041 -11.18770027 -220.82809448 5.56743908 -11.63677025 -220.82809448 7.00855446 -11.9088583 -220.82809448 8.49329185 -11.99999714 -220.82809448 10 -11.9088583 -220.82809448 11.5067091 -11.63677025 -220.82809448 12.99144554 -11.18770027 -220.82809448 14.43256092 -10.56819725 -220.82809448 15.80904007 -9.78729534 -220.82809448 17.1008091 -8.85638142 -220.82809448 18.28903389 -7.78903055 -220.82809448 19.35638428 -6.60080671 -220.82809448 20.2872982 -5.30903721 -220.82809448 21.06820107 -3.93255854 -220.82809448 21.68770409 -2.49144316 -220.82809448 22.13677216 -1.00670588 -220.82809448 22.40886116 0.50000262 -194.98098755 22.5 2.00671101 -194.98098755 22.40886116 -11.99999714 -194.98098755 10 -11.9088583 -194.98098755 8.49329185 -11.63677025 -194.98098755 7.00855446 -11.18770027 -194.98098755 5.56743908 -10.56819725 -194.98098755 4.19096041 -9.78729534 -194.98098755 2.8991909 -8.85638142 -194.98098755 1.71096694 -7.78903055 -194.98098755 0.64361578 -11.9088583 -194.98098755 11.5067091 -11.63677025 -194.98098755 12.99144554 -11.18770027 -194.98098755 14.43256092 -10.56819725 -194.98098755 15.80904007 -9.78729534 -194.98098755 17.1008091 -8.85638142 -194.98098755 18.28903389 -7.78903055 -194.98098755 19.35638428 -6.60080671 -194.98098755 20.2872982 -5.30903721 -194.98098755 21.06820107 -3.93255854 -194.98098755 21.68770409 -2.49144316 -194.98098755 22.13677216 -1.00670588 -194.98098755 22.40886116 8.7890358 -194.98098755 19.35638428 9.85638714 -194.98098755 18.28903389 10.78730106 -194.98098755 17.1008091 11.56820297 -194.98098755 15.80904007 12.18770599 -194.98098755 14.43256092 12.63677502 -194.98098755 12.99144554 12.90886307 -194.98098755 11.5067091 13.00000286 -194.98098755 10 12.90886307 -194.98098755 8.49329185 12.63677502 -194.98098755 7.00855446 12.18770599 -194.98098755 5.56743908 11.56820297 -194.98098755 4.19096041 10.78730106 -194.98098755 2.8991909 9.85638714 -194.98098755 1.71096694 8.7890358 -194.98098755 0.64361578 7.60081196 -194.98098755 -0.28729817 6.30904245 -194.98098755 -1.06820023 4.93256378 -194.98098755 -1.68770289 3.4914484 -194.98098755 -2.13677263 2.00671101 -194.98098755 -2.40886068</float_array>
          <technique_common>
            <accessor source="#pos_0-array" count="2460" stride="3">
              <param name="X" type="float"/>
              <param name="Y" type="float"/>
              <param name="Z" type="float"/>
            </accessor>
          </technique_common>
        </source>
        <source id="norm_0">
          <float_array id="norm_0-array" count="2958">-0 -0.99853 0.05414 0 -0.99853 -0.05414 5E-05 -0.99848 -0.05509 -5E-05 -0.98683 -0.16178 0.0001 -0.98636 -0.16459 -0.0001 -0.96355 -0.26753 0.00015 -0.96227 -0.2721 -0.00015 -0.92898 -0.37014 0.00019 -0.92649 -0.37631 -0.00019 -0.88351 -0.46841 0.00024 -0.87947 -0.47595 -0.00023 -0.82769 -0.56119 0.00028 -0.82178 -0.56981 -0.00028 -0.76216 -0.64739 0.00032 -0.75411 -0.65675 -0.00032 -0.6877 -0.726 0.00036 -0.67728 -0.73572 -0.00035 -0.60517 -0.79609 0.0004 -0.59224 -0.80577 -0.00039 -0.51555 -0.85686 0.00043 -0.5 -0.86603 -0.00042 -0.41989 -0.90758 0.00047 -0.4017 -0.91577 -0.00046 -0.3193 -0.94765 0.0005 -0.29851 -0.9544 -0.00049 -0.21497 -0.97662 0.00053 -0.19171 -0.98145 -0.00052 -0.10812 -0.99414 0.00056 -0.08258 -0.99658 -0.00054 0 -1 0.00058 0.02755 -0.99962 -0.00057 0.10812 -0.99414 0.00061 0.13735 -0.99052 -0.00059 0.21497 -0.97662 0.00063 0.24549 -0.9694 -0.00061 0.3193 -0.94765 0.00065 0.35064 -0.93651 -0.00063 0.41989 -0.90758 0.00067 0.45153 -0.89225 -0.00065 0.51555 -0.85686 -0.00018 0.52664 -0.85009 -6E-05 0.54707 -0.83709 -2E-05 0.55531 -0.83165 -1E-05 0.5638 -0.82591 -5E-05 0.57267 -0.81979 -0.00028 0.59045 -0.80707 -0.00083 0.60517 -0.79609 -0.00018 0.62158 -0.78335 0.00015 0.6604 -0.75092 -0.00079 0.6877 -0.726 -5E-05 0.70031 -0.71384 0.00032 0.7398 -0.67283 -0.00088 0.76216 -0.64739 0.00019 0.78017 -0.62556 -0.00024 0.82182 -0.56975 -0.00083 0.82769 -0.56119 0.00057 0.86049 -0.50947 -0.00093 0.88351 -0.46841 0.00039 0.89555 -0.44495 -0.00033 0.92769 -0.37335 -0.00058 0.92898 -0.37014 0.00043 0.95579 -0.29405 -0.00112 0.96355 -0.26753 0.00077 0.97714 -0.2126 -0.0012 0.98683 -0.16178 0.00062 0.99178 -0.12795 -0.00082 0.99853 -0.05414 0 0.99908 -0.04297 -0 0.99908 0.04297 -0.00082 0.99853 0.05414 0.00062 0.99178 0.12795 -0.0012 0.98683 0.16178 0.00077 0.97714 0.2126 -0.00112 0.96355 0.26753 0.00043 0.95579 0.29405 -0.00058 0.92898 0.37014 -0.00033 0.92769 0.37335 0.00039 0.89555 0.44495 -0.00093 0.88351 0.46841 0.00057 0.86049 0.50947 -0.00083 0.82769 0.56119 -0.00024 0.82182 0.56975 0.00019 0.78017 0.62556 -0.00088 0.76216 0.64739 0.00032 0.7398 0.67283 -5E-05 0.70031 0.71384 -0.00079 0.6877 0.726 0.00015 0.6604 0.75092 -0.00018 0.62158 0.78335 -0.00083 0.60517 0.79609 -0.00028 0.59045 0.80707 -5E-05 0.57267 0.81979 -1E-05 0.5638 0.82591 -2E-05 0.55531 0.83165 -6E-05 0.54707 0.83709 -0.00018 0.52664 0.85009 0.00018 0.52664 0.85009 0.00065 0.51555 0.85686 -0.00067 0.45153 0.89225 0.00063 0.41989 0.90758 -0.00065 0.35064 0.93651 0.00061 0.3193 0.94765 -0.00063 0.24549 0.9694 0.00059 0.21497 0.97662 -0.00061 0.13735 0.99052 0.00057 0.10812 0.99414 -0.00058 0.02755 0.99962 0.00054 0 1 -0.00056 -0.08258 0.99658 0.00052 -0.10812 0.99414 -0.00053 -0.19171 0.98145 0.00049 -0.21497 0.97662 -0.0005 -0.29851 0.9544 0.00046 -0.3193 0.94765 -0.00047 -0.4017 0.91577 0.00042 -0.41989 0.90758 -0.00043 -0.5 0.86603 0.00039 -0.51555 0.85686 -0.0004 -0.59224 0.80577 0.00035 -0.60517 0.79609 -0.00036 -0.67728 0.73572 0.00032 -0.6877 0.726 -0.00032 -0.75411 0.65675 0.00028 -0.76216 0.64739 -0.00028 -0.82178 0.56981 0.00023 -0.82769 0.56119 -0.00024 -0.87947 0.47595 0.00019 -0.88351 0.46841 -0.00019 -0.92649 0.37631 0.00015 -0.92898 0.37014 -0.00015 -0.96227 0.2721 0.0001 -0.96355 0.26753 -0.0001 -0.98636 0.16459 5E-05 -0.98683 0.16178 -5E-05 -0.99848 0.05509 0 -0.99853 0.05414 -0 -0.99853 -0.05414 -5E-05 -0.99848 -0.05509 5E-05 -0.98683 -0.16178 -0.0001 -0.98636 -0.16459 0.0001 -0.96355 -0.26753 -0.00015 -0.96227 -0.2721 0.00015 -0.92898 -0.37014 -0.00019 -0.92649 -0.37631 0.00019 -0.88351 -0.46841 -0.00024 -0.87947 -0.47595 0.00023 -0.82769 -0.56119 -0.00028 -0.82178 -0.56981 0.00028 -0.76216 -0.64739 -0.00032 -0.75411 -0.65675 0.00032 -0.6877 -0.726 -0.00036 -0.67728 -0.73572 0.00035 -0.60517 -0.79609 -0.0004 -0.59224 -0.80577 0.00039 -0.51555 -0.85686 -0.00043 -0.5 -0.86603 0.00042 -0.41989 -0.90758 -0.00047 -0.4017 -0.91577 0.00046 -0.3193 -0.94765 -0.0005 -0.29851 -0.9544 0.00049 -0.21497 -0.97662 -0.00053 -0.19171 -0.98145 0.00052 -0.10812 -0.99414 -0.00056 -0.08258 -0.99658 0.00054 0 -1 -0.00058 0.02755 -0.99962 0.00057 0.10812 -0.99414 -0.00061 0.13735 -0.99052 0.00059 0.21497 -0.97662 -0.00063 0.24549 -0.9694 0.00061 0.3193 -0.94765 -0.00065 0.35064 -0.93651 0.00063 0.41989 -0.90758 -0.00067 0.45153 -0.89225 0.00065 0.51555 -0.85686 0.00016 0.52721 -0.84973 2E-05 0.55531 -0.83165 -0.00065 0.51555 0.85686 0.00067 0.45153 0.89225 -0.00063 0.41989 0.90758 0.00065 0.35064 0.93651 -0.00061 0.3193 0.94765 0.00063 0.24549 0.9694 -0.00059 0.21497 0.97662 0.00061 0.13735 0.99052 -0.00057 0.10812 0.99414 0.00058 0.02755 0.99962 -0.00054 0 1 0.00056 -0.08258 0.99658 -0.00052 -0.10812 0.99414 0.00053 -0.19171 0.98145 -0.00049 -0.21497 0.97662 0.0005 -0.29851 0.9544 -0.00046 -0.3193 0.94765 0.00047 -0.4017 0.91577 -0.00042 -0.41989 0.90758 0.00043 -0.5 0.86603 -0.00039 -0.51555 0.85686 0.0004 -0.59224 0.80577 -0.00035 -0.60517 0.79609 0.00036 -0.67728 0.73572 -0.00032 -0.6877 0.726 0.00032 -0.75411 0.65675 -0.00028 -0.76216 0.64739 0.00028 -0.82178 0.56981 -0.00023 -0.82769 0.56119 0.00024 -0.87947 0.47595 -0.00019 -0.88351 0.46841 0.00019 -0.92649 0.37631 -0.00015 -0.92898 0.37014 0.00015 -0.96227 0.2721 -0.0001 -0.96355 0.26753 0.0001 -0.98636 0.16459 -5E-05 -0.98683 0.16178 5E-05 -0.99848 0.05509 0.00083 0.60517 0.79609 0.00028 0.59045 0.80707 5E-05 0.57267 0.81979 0.00079 0.6877 0.726 -0.00015 0.6604 0.75092 0.00018 0.62158 0.78335 0.00088 0.76216 0.64739 -0.00032 0.7398 0.67283 5E-05 0.70031 0.71384 0.00083 0.82769 0.56119 0.00024 0.82182 0.56975 -0.00019 0.78017 0.62556 -0.00057 0.86049 0.50947 0.00093 0.88351 0.46841 -0.00039 0.89555 0.44495 0.00033 0.92769 0.37335 0.00058 0.92898 0.37014 -0.00043 0.95579 0.29405 0.00112 0.96355 0.26753 -0.00077 0.97714 0.2126 0.0012 0.98683 0.16178 -0.00062 0.99178 0.12795 0.00082 0.99853 0.05414 -0 0.99908 0.04297 0 0.99908 -0.04297 0.00082 0.99853 -0.05414 -0.00062 0.99178 -0.12795 0.0012 0.98683 -0.16178 -0.00077 0.97714 -0.2126 0.00112 0.96355 -0.26753 -0.00043 0.95579 -0.29405 0.00058 0.92898 -0.37014 0.00033 0.92769 -0.37335 -0.00039 0.89555 -0.44495 0.00093 0.88351 -0.46841 -0.00057 0.86049 -0.50947 0.00083 0.82769 -0.56119 0.00024 0.82182 -0.56975 -0.00019 0.78017 -0.62556 0.00088 0.76216 -0.64739 -0.00032 0.7398 -0.67283 5E-05 0.70031 -0.71384 0.00079 0.6877 -0.726 -0.00015 0.6604 -0.75092 0.00018 0.62158 -0.78335 0.00083 0.60517 -0.79609 0.00028 0.59045 -0.80707 5E-05 0.57267 -0.81979 1E-05 0.5638 -0.82591 0.00118 0.52664 -0.85009 1E-05 0.5638 0.82591 2E-05 0.55531 0.83165 6E-05 0.54707 0.83709 -0 0.74539 0.66663 -0 0.75303 0.65798 -0 0.75303 0.65798 -0 0.76367 0.64561 -0 0.76367 0.64561 -0 0.77979 0.62604 -0 0.77979 0.62604 -0 0.80038 0.59949 -0 0.80038 0.59949 -0 0.8225 0.56877 0 0.84493 0.53487 0 0.8686 0.49551 -0 0.8686 0.49551 -0 0.89321 0.44964 -0 0.89321 0.44964 -0 0.91597 0.40124 -0 0.93708 0.34911 -0 0.93708 0.34911 -0 0.91597 0.40124 -0 0.95658 0.29148 0 0.95658 0.29148 0 0.97375 0.22764 -0 0.97375 0.22764 -0 0.98651 0.1637 -0 0.98651 0.1637 -0 0.99496 0.10025 -0 0.9994 0.0345 -0 0.9994 0.0345 -0 0.99496 0.10025 0 0.9994 -0.0345 -0 0.9994 -0.0345 -0 0.99496 -0.10025 -0 0.98651 -0.1637 -0 0.98651 -0.1637 -0 0.99496 -0.10025 -0 0.97375 -0.22764 -0 0.97375 -0.22764 -0 0.95658 -0.29148 0 0.95658 -0.29148 0 0.93708 -0.34911 -0 0.93708 -0.34911 -0 0.91597 -0.40124 -0 0.89321 -0.44964 -0 0.89321 -0.44964 -0 0.91597 -0.40124 -0 0.8686 -0.49551 0 0.8686 -0.49551 0 0.84493 -0.53487 -0 0.84493 -0.53487 -0 0.8225 -0.56877 -0 0.80038 -0.59949 0 0.80038 -0.59949 0 0.8225 -0.56877 -0 0.77979 -0.62604 -0 0.77979 -0.62604 -0 0.76367 -0.64561 -0 0.76367 -0.64561 -0 0.75303 -0.65798 -0 0.75303 -0.65798 -0 0.74539 -0.66663 -0 0.99547 0.09506 0 0.99547 0.09506 0 0.99547 -0.09506 -0 0.99547 -0.09506 -0 0.95949 -0.28173 -0 0.95949 -0.28173 -0 0.88884 -0.45823 -0 0.88884 -0.45823 -0 0.78605 -0.61816 -0 0.78605 -0.61816 -0 0.65486 -0.75575 0 0.65486 -0.75575 0 0.5 -0.86603 0 0.5 -0.86603 0 0.32707 -0.945 0 0.32707 -0.945 0 0.14231 -0.98982 0 0.14231 -0.98982 -0 -0.04758 -0.99887 -0 -0.23576 -0.97181 0 -0.23576 -0.97181 0 -0.41542 -0.90963 -0 -0.41542 -0.90963 -0 -0.58006 -0.81458 0 -0.58006 -0.81458 0 -0.72373 -0.69008 -0 -0.72373 -0.69008 -0 -0.84125 -0.54064 -0 -0.84125 -0.54064 -0 -0.92837 -0.37166 -0 -0.98193 -0.18925 -0 -0.98193 -0.18925 -0 -1 -0 0 -0.98193 0.18925 0 -0.92837 0.37166 -0 -0.92837 0.37166 -0 -0.84125 0.54064 -0 -0.84125 0.54064 -0 -0.72373 0.69008 0 -0.72373 0.69008 0 -0.58006 0.81458 0 -0.58006 0.81458 0 -0.41542 0.90963 0 -0.41542 0.90963 0 -0.23576 0.97181 0 -0.23576 0.97181 0 -0.04758 0.99887 0 -0.04758 0.99887 0 0.14231 0.98982 0 0.14231 0.98982 0 0.32707 0.945 0 0.32707 0.945 0 0.5 0.86603 0 0.5 0.86603 0 0.65486 0.75575 -0 0.65486 0.75575 -0 0.78605 0.61816 -0 0.78605 0.61816 -0 0.88884 0.45823 -0 0.88884 0.45823 -0 0.95949 0.28173 -0 0.95949 0.28173 0 0.99547 -0.09506 0 0.99547 0.09506 0 0.95949 0.28173 0 0.95949 0.28173 0 0.88884 0.45823 0 0.88884 0.45823 0 0.78605 0.61816 0 0.78605 0.61816 0 0.65486 0.75575 -0 0.65486 0.75575 -0 0.5 0.86603 -0 0.5 0.86603 -0 0.32707 0.945 -0 0.32707 0.945 -0 0.14231 0.98982 -0 -0.04758 0.99887 -0 -0.23576 0.97181 -0 -0.23576 0.97181 -0 -0.41542 0.90963 -0 -0.58006 0.81458 -0 -0.72373 0.69008 0 -0.72373 0.69008 0 -0.84125 0.54064 0 -0.84125 0.54064 0 -0.92837 0.37166 0 -0.98193 -0.18925 0 -0.84125 -0.54064 -0 -0.58006 -0.81458 -0 -0.41542 -0.90963 -0 -0.23576 -0.97181 -0 0.14231 -0.98982 -0 0.32707 -0.945 -0 0.32707 -0.945 -0 0.5 -0.86603 -0 0.5 -0.86603 -0 0.65486 -0.75575 0 0.65486 -0.75575 0 0.78605 -0.61816 0 0.78605 -0.61816 0 0.88884 -0.45823 0 0.88884 -0.45823 0 0.95949 -0.28173 0 0.95949 -0.28173 0 0.95949 -0.28173 0 0.88884 -0.45823 0 0.78605 -0.61816 0 0.65486 -0.75575 0 0.5 -0.86603 0 0.32707 -0.945 -0 -0.72373 -0.69008 0 -0.84125 0.54064 0 -0.72373 0.69008 0 -0.23576 0.97181 0 0.32707 0.945 0 0.5 0.86603 0 0.65486 0.75575 0 0.78605 0.61816 0 0.88884 0.45823 0 0.95949 0.28173 1 0 0 -1 -0 0 0.04951 -2E-05 -0.99877 0.03341 -0.00067 -0.99944 -0.04953 0.00044 -0.99877 -0.1001 -0.00088 -0.99498 -0.14782 0.00043 -0.98901 -0.23182 -0.00064 -0.97276 -0.2456 -6E-05 -0.96937 -0.34036 6E-05 -0.9403 -0.35941 -0.00074 -0.93318 -0.43262 0.00048 -0.90157 -0.48058 -0.00087 -0.87695 -0.51847 0.00044 -0.8551 -0.59318 -0.00048 -0.80507 -0.5967 -0.00028 -0.80247 -0.66951 0.00028 -0.74281 -0.69519 -0.00093 -0.71882 -0.73763 0.0005 -0.6752 -0.7848 -0.00076 -0.61975 -0.79804 0.00014 -0.60261 -0.8517 7E-05 -0.52402 -0.8604 -0.0007 -0.50962 -0.89931 0.00055 -0.43731 -0.92065 -0.00102 -0.39039 -0.93958 0.00057 -0.34234 -0.96456 -0.00071 -0.26384 -0.9692 0.00014 -0.24628 -0.98869 0.00013 -0.14998 -0.99113 -0.00069 -0.13293 -0.99869 0.00056 -0.05112 -1 -0.00105 0 -0.99869 0.00056 0.05112 -0.99113 -0.00069 0.13293 -0.98869 0.00013 0.14998 -0.9692 0.00014 0.24628 -0.96456 -0.00071 0.26384 -0.93958 0.00057 0.34234 -0.92065 -0.00102 0.39039 -0.89931 0.00055 0.43731 -0.8604 -0.0007 0.50962 -0.8517 7E-05 0.52402 -0.79804 0.00014 0.60261 -0.7848 -0.00076 0.61975 -0.73763 0.0005 0.6752 -0.69519 -0.00093 0.71882 -0.66951 0.00028 0.74281 -0.5967 -0.00028 0.80247 -0.59318 -0.00048 0.80507 -0.51847 0.00044 0.8551 -0.48058 -0.00087 0.87695 -0.43262 0.00048 0.90157 -0.35941 -0.00074 0.93318 -0.34036 6E-05 0.9403 -0.2456 -6E-05 0.96937 -0.23182 -0.00064 0.97276 -0.14782 0.00043 0.98901 -0.1001 -0.00088 0.99498 -0.04953 0.00044 0.99877 0.03341 -0.00067 0.99944 0.04951 -2E-05 0.99877 0.14777 4E-05 0.98902 0.16633 -0.0007 0.98607 0.2457 0.00046 0.96934 0.29628 -0.0009 0.9551 0.34045 0.00042 0.94026 0.42093 -0.00063 0.90709 0.43246 -8E-05 0.90165 0.51838 0.00016 0.85515 0.53808 -0.00073 0.84289 0.59695 0.00055 0.80228 0.64563 -0.00086 0.76365 0.66949 0.00023 0.74282 0.73743 -0.0003 0.67542 0.74165 -0.00059 0.67078 0.79811 0.00049 0.60251 0.82444 -0.00089 0.56595 0.85179 0.00057 0.52389 0.89245 -0.00069 0.45115 0.89924 -0 0.43745 0.93953 0 0.34246 0.94462 -0.0007 0.32817 0.96922 0.00061 0.24621 0.97996 -0.00091 0.19919 0.9887 0.00063 0.14993 0.99777 -0.00073 0.06679 0.99869 -0 0.05114 0.99869 0 -0.05114 0.99777 -0.00073 -0.06679 0.9887 0.00063 -0.14993 0.97996 -0.00091 -0.19919 0.96922 0.00061 -0.24621 0.94462 -0.0007 -0.32817 0.93953 0 -0.34246 0.89924 -0 -0.43745 0.89245 -0.00069 -0.45115 0.85179 0.00057 -0.52389 0.82444 -0.00089 -0.56595 0.79811 0.00049 -0.60251 0.74165 -0.00059 -0.67078 0.73743 -0.0003 -0.67542 0.66949 0.00023 -0.74282 0.64563 -0.00086 -0.76365 0.59695 0.00055 -0.80228 0.53808 -0.00073 -0.84289 0.51838 0.00016 -0.85515 0.43246 -8E-05 -0.90165 0.42093 -0.00063 -0.90709 0.34045 0.00042 -0.94026 0.29628 -0.0009 -0.9551 0.2457 0.00046 -0.96934 0.16633 -0.0007 -0.98607 0.14777 4E-05 -0.98902 0.99777 0 -0.06679 0.99777 0 -0.06679 0.99777 -0 0.06679 0.99777 0 0.06679 0.97996 0 0.19919 0.94467 0 0.32802 0.94465 0 0.32807 0.89252 -0 0.45101 0.8925 0 0.45106 0.82444 0 0.56595 0.74165 0 0.67078 0.64563 0 0.76365 0.53808 0 0.84289 0.42093 0 0.90709 0.29628 0 0.9551 0.16633 0 0.98607 0.03341 0 0.99944 -0.1001 0 0.99498 -0.23182 0 0.97276 -0.35941 0 0.93318 -0.48058 0 0.87695 -0.59318 0 0.80507 -0.69519 0 0.71882 -0.7848 0 0.61975 -0.8604 0 0.50962 -0.8604 -0 0.50962 -0.92065 -0 0.39039 -0.92065 0 0.39039 -0.96447 0 0.2642 -0.9645 1E-05 0.26408 -0.99108 -1E-05 0.13329 -0.99109 0 0.13317 -0.99109 -0 -0.13317 -0.99109 -1E-05 -0.13317 -0.96453 1E-05 -0.26396 -0.96453 -0 -0.26396 -0.92065 -0 -0.39039 -0.92065 -0 -0.39039 -0.8604 -0 -0.50962 -0.8604 -0 -0.50962 -0.7848 -0 -0.61975 -0.69519 -0 -0.71882 -0.59318 -0 -0.80507 -0.48058 -0 -0.87695 -0.35941 -0 -0.93318 -0.23182 -0 -0.97276 -0.1001 -0 -0.99498 -0.1001 -0 -0.99498 0.03341 0 -0.99944 0.03341 0 -0.99944 0.16633 0 -0.98607 0.16633 0 -0.98607 0.29628 0 -0.9551 0.42093 0 -0.90709 0.42093 0 -0.90709 0.53808 0 -0.84289 0.64563 0 -0.76365 0.74165 0 -0.67078 0.82444 0 -0.56595 0.89245 0 -0.45115 0.97996 0 -0.19919 0.94467 0 -0.32802 0.94465 0 -0.32807 0.89252 -0 -0.45101 0.8925 0 -0.45106 0.74165 -0 -0.67078 0.64563 0 -0.76365 0.64563 -0 -0.76365 0.53808 -0 -0.84289 0.53808 -0 -0.84289 0.42093 -0 -0.90709 0.42093 -0 -0.90709 0.29628 -0 -0.9551 0.29628 0 -0.9551 0.29628 0 -0.9551 0.16633 0 -0.98607 0.16633 0 -0.98607 0.03341 0 -0.99944 -0.1001 -0 -0.99498 -0.23182 -0 -0.97276 -0.59318 -0 -0.80507 -0.69519 -0 -0.71882 -0.59318 0 -0.80507 -0.69519 0 -0.71882 -0.8604 0 -0.50962 -0.92065 0 -0.39039 -0.9645 0 -0.26408 -0.96447 0 -0.2642 -0.9645 1E-05 -0.26408 -0.99108 -1E-05 -0.13329 0.94465 0 0.32807 0.94463 0 0.32812 0.8925 -0 0.45106 0.89247 0 0.4511 0.74165 0 0.67078 0.64563 0 0.76365 0.64563 0 0.76365 0.53808 0 0.84289 0.53808 -0 0.84289 0.42093 0 0.90709 0.42093 0 0.90709 0.29628 0 0.9551 0.29628 -0 0.9551 0.16633 -0 0.98607 0.16633 -0 0.98607 0.03341 -0 0.99944 0.03341 -0 0.99944 -0.1001 0 0.99498 -0.23182 0 0.97276 -0.8604 0 0.50962 -0.92065 0 0.39039 -0.9645 0 0.26408 -0.96453 1E-05 0.26396 -0.99109 -1E-05 0.13317 -0.99111 0 0.13305 -0.99111 -0 -0.13305 -0.99111 -1E-05 -0.13305 -0.96457 1E-05 -0.26385 0.94463 0 0.32812 0.94462 0 0.32817 0.89247 -0 0.4511 0.89245 0 0.45115 0.29628 0 0.9551 0.16633 0 0.98607 -0.8604 -0 0.50962 -0.92065 -0 0.39039 -0.96453 0 0.26396 -0.96457 1E-05 0.26385 -0.99111 -1E-05 0.13305 -0.99113 0 0.13293 -0.99113 -0 -0.13293 0.94465 0 -0.32807 0.94463 0 -0.32812 0.94463 0 -0.32812 0.8925 -0 -0.45106 0.89247 0 -0.4511 0.89247 -0 -0.4511 0.94462 0 -0.32817 -0.02538 0 0.99968 0.02538 -0 0.99968 0.06038 0.00086 0.99818 0.0758 0.00034 0.99712 0.12567 -0.00014 0.99207 0.17457 0.00058 0.98465 0.18025 0.00081 0.98362 0.18026 0 0.98362 0.2975 0 0.95472 0.41041 0 0.9119 0.41041 -0.00077 0.9119 0.48279 0.00075 0.87573 0.51734 -0.00079 0.85578 0.58298 0.00077 0.81249 0.61672 -0.00081 0.78718 0.67498 0.00079 0.73783 0.70711 -0.00083 0.70711 0.75751 0.0008 0.65282 0.78718 -0.00084 0.61672 0.82941 0.00082 0.55865 0.85578 -0.00086 0.51734 0.88966 0.00083 0.45663 0.9119 -0.00087 0.41041 0.93742 0.00084 0.3482 0.95472 -0.00087 0.2975 0.97202 0.00084 0.23489 0.98362 -0.00088 0.18025 0.99298 0.00085 0.11827 0.99818 -0.00088 0.06038 1 0.00085 0 0.99818 -0.00088 -0.06038 0.99298 0.00085 -0.11827 0.98362 -0.00088 -0.18025 0.97202 0.00084 -0.23489 0.95472 -0.00087 -0.2975 0.93742 0.00084 -0.3482 0.9119 -0.00087 -0.41041 0.88966 0.00083 -0.45663 0.85578 -0.00086 -0.51734 0.82941 0.00082 -0.55865 0.78718 -0.00084 -0.61672 0.75751 0.0008 -0.65282 0.70711 -0.00083 -0.70711 0.67498 0.00079 -0.73783 0.61672 -0.00081 -0.78718 0.58298 0.00077 -0.81249 0.51734 -0.00079 -0.85578 0.48279 0.00075 -0.87573 0.41041 -0.00077 -0.9119 0.37583 0.00072 -0.92669 0.2975 -0.00074 -0.95472 0.26359 0.0007 -0.96464 0.18025 -0.00072 -0.98362 0.14765 0.00067 -0.98904 0.06038 -0.00069 -0.99818 0.02963 0.00064 -0.99956 -0.06038 -0.00065 -0.99818 -0.0888 0.0006 -0.99605 -0.18026 -0.00062 -0.98362 -0.20598 0.00057 -0.97856 -0.2975 -0.00058 -0.95472 -0.32027 0.00053 -0.94733 -0.41041 -0.00054 -0.9119 -0.43007 0.00049 -0.9028 -0.51734 -0.0005 -0.85578 -0.53382 0.00044 -0.8456 -0.61672 -0.00045 -0.78718 -0.63009 0.0004 -0.77652 -0.70711 -0.0004 -0.70711 -0.71751 0.00035 -0.69655 -0.78718 -0.00035 -0.61672 -0.79485 0.0003 -0.6068 -0.85578 -0.0003 -0.51734 -0.86104 0.00024 -0.50853 -0.9119 -0.00025 -0.41041 -0.91515 0.00018 -0.40312 -0.95472 -0.00019 -0.2975 -0.9564 0.00013 -0.29206 -0.98362 -0.00013 -0.18026 -0.98423 6E-05 -0.17689 -0.99818 -7E-05 -0.06038 -0.99824 0 -0.05924 -0.99824 -0 0.05924 -0.99818 -7E-05 0.06038 -0.98423 6E-05 0.17689 -0.98362 -0.00013 0.18026 -0.9564 0.00013 0.29206 -0.95472 -0.00019 0.2975 -0.91515 0.00018 0.40312 -0.9119 -0.00025 0.41041 -0.86104 0.00024 0.50853 -0.85578 -0.0003 0.51734 -0.79485 0.0003 0.6068 -0.78718 -0.00035 0.61672 -0.71751 0.00035 0.69655 -0.70711 -0.0004 0.70711 -0.63009 0.0004 0.77652 -0.61672 -0.00045 0.78718 -0.53382 0.00044 0.8456 -0.51734 -0.0005 0.85578 -0.43007 0.00049 0.9028 -0.41041 -0.00054 0.9119 -0.32027 0.00053 0.94733 -0.2975 -0.00058 0.95472 -0.20598 0.00057 0.97856 -0.18026 -0.00062 0.98362 -0.0888 0.0006 0.99605 -0.06038 -0.00065 0.99818 0.02963 0.00064 0.99956 0.06038 -0.00069 0.99818 0.14765 0.00067 0.98904 0.18025 -0.00072 0.98362 0.26359 0.0007 0.96464 0.2975 -0.00074 0.95472 0.37583 0.00072 0.92669 0.24683 -0.00058 0.96906 0.2975 0.00091 0.95472 0.51734 0 0.85578 0.3397 -0.00052 0.94053 0.41041 0.00073 0.9119 0.61672 0 0.78718 0.42887 -0.00019 0.90337 0.51266 0.00015 0.85859 0.51734 0.00045 0.85578 0.59032 -0.00045 0.80717 0.61672 0.0009 0.78718 0.66217 -0.00062 0.74935 0.70711 0.00096 0.70711 0.7296 -0.00041 0.68388 0.78718 0.00044 0.61672 0.79056 0.00011 0.61238 0.84533 -0.00035 0.53424 0.85578 0.00075 0.51734 0.89421 -0.00072 0.44766 0.9119 0.00111 0.41041 0.93562 -0.00084 0.35301 0.95472 0.00113 0.2975 0.96687 -0.00078 0.25526 0.98362 0.00097 0.18025 0.98812 -0.00051 0.15369 0.99818 0.00059 0.06038 0.99867 -0 0.05155 0.99867 0 -0.05155 0.99818 0.00059 -0.06038 0.98812 -0.00051 -0.15369 0.98362 0.00097 -0.18025 0.96687 -0.00078 -0.25526 0.95472 0.00113 -0.2975 0.93562 -0.00084 -0.35301 0.9119 0.00111 -0.41041 0.89421 -0.00072 -0.44766 0.85578 0.00075 -0.51734 0.84533 -0.00035 -0.53424 0.79056 0.00011 -0.61238 0.78718 0.00044 -0.61672 0.7296 -0.00041 -0.68388 0.70711 0.00096 -0.70711 0.66217 -0.00062 -0.74935 0.61672 0.0009 -0.78718 0.59032 -0.00045 -0.80717 0.51734 0.00045 -0.85578 0.51266 0.00015 -0.85859 0.42887 -0.00019 -0.90337 0.41041 0.00073 -0.9119 0.3397 -0.00052 -0.94053 0.2975 0.00091 -0.95472 0.24683 -0.00058 -0.96906 0.18025 0.00081 -0.98362 0.17457 0.00058 -0.98465 0.12567 -0.00014 -0.99207 0.0758 0.00034 -0.99712 0.06038 0.00086 -0.99818 0.06038 -0 -0.99818 -0.06038 0 -0.99818 -0.06038 0 -0.99818 -0.18026 -0 -0.98362 0.02538 -0 -0.99968 -0.02538 -0 -0.99968 -0.06038 0.00086 -0.99818 -0.0758 0.00034 -0.99712 -0.12567 -0.00014 -0.99207 -0.17457 0.00058 -0.98465 -0.18025 0.00081 -0.98362 -0.2975 -0 -0.95472 -0.41041 -0 -0.9119 -0.24683 -0.00058 -0.96906 -0.2975 0.00091 -0.95472 -0.51734 -0 -0.85578 -0.3397 -0.00052 -0.94053 -0.41041 0.00073 -0.9119 -0.61672 -0 -0.78718 -0.42887 -0.00019 -0.90337 -0.51266 0.00015 -0.85859 -0.51734 0.00045 -0.85578 -0.59032 -0.00045 -0.80717 -0.61672 0.0009 -0.78718 -0.66217 -0.00062 -0.74935 -0.70711 0.00096 -0.70711 -0.7296 -0.00041 -0.68388 -0.78718 0.00044 -0.61672 -0.79056 0.00011 -0.61238 -0.84533 -0.00035 -0.53424 -0.85578 0.00075 -0.51734 -0.89421 -0.00072 -0.44766 -0.9119 0.00111 -0.41041 -0.93562 -0.00084 -0.35301 -0.95472 0.00113 -0.2975 -0.96687 -0.00078 -0.25526 -0.98362 0.00097 -0.18025 -0.98812 -0.00051 -0.15369 -0.99818 0.00059 -0.06038 -0.99867 -0 -0.05155 -0.99867 0 0.05155 -0.99818 0.00059 0.06038 -0.98812 -0.00051 0.15369 -0.98362 0.00097 0.18025 -0.96687 -0.00078 0.25526 -0.95472 0.00113 0.2975 -0.93562 -0.00084 0.35301 -0.9119 0.00111 0.41041 -0.89421 -0.00072 0.44766 -0.85578 0.00075 0.51734 -0.84533 -0.00035 0.53424 -0.79056 0.00011 0.61238 -0.78718 0.00044 0.61672 -0.7296 -0.00041 0.68388 -0.70711 0.00096 0.70711 -0.66217 -0.00062 0.74935 -0.61672 0.0009 0.78718 -0.59032 -0.00045 0.80717 -0.51734 0.00045 0.85578 -0.51266 0.00015 0.85859 -0.42887 -0.00019 0.90337 -0.41041 0.00073 0.9119 -0.3397 -0.00052 0.94053 -0.2975 0.00091 0.95472 -0.24683 -0.00058 0.96906 -0.18025 0.00081 0.98362 -0.17457 0.00058 0.98465 -0.12567 -0.00014 0.99207 -0.0758 0.00034 0.99712 -0.06038 0.00086 0.99818 -0.06038 0 0.99818 0.06038 0 0.99818 -0.99818 0 -0.06038 -0.98362 0 -0.18026 -0.95472 0 -0.2975 -0.9119 0 -0.41041 -0.85578 0 -0.51734 -0.78718 0 -0.61672 -0.70711 0 -0.70711 -0.99818 0 0.06038 -0.98362 0 0.18026 -0.95472 0 0.2975 -0.9119 0 0.41041 -0.85578 0 0.51734 -0.78718 0 0.61672 -0.70711 0 0.70711 -0.61672 0 0.78718 -0.51734 0 0.85578 -0.41041 0 0.9119 -0.2975 0 0.95472 -0.18026 0 0.98362 0.70711 0 0.70711 0.78718 0 0.61672 0.85578 0 0.51734 0.9119 0 0.41041 0.95472 0 0.2975 0.98362 0 0.18026 0.99818 0 0.06038 0.99818 -0 0.06038 0.99818 0 -0.06038 0.99818 0 -0.06038 0.98362 0 -0.18026 0.95472 0 -0.2975 0.9119 0 -0.41041 0.85578 0 -0.51734 0.78718 0 -0.61672 0.70711 0 -0.70711 0.61672 0 -0.78718 0.51734 0 -0.85578 0.41041 0 -0.9119 0.2975 0 -0.95472 0.18026 0 -0.98362 0.06038 0 -0.99818 0 1 0</float_array>
          <technique_common>
            <accessor source="#norm_0-array" count="2958" stride="3">
              <param name="X" type="float"/>
              <param name="Y" type="float"/>
              <param name="Z" type="float"/>
            </accessor>
          </technique_common>
        </source>
        <vertices id="vert_0">
          <input semantic="POSITION" source="#pos_0"/>
        </vertices>
        <triangles count="1639">
          <input semantic="VERTEX" source="#vert_0" offset="0"/>
          <input semantic="NORMAL" source="#norm_0" offset="1"/>
          <p>2 1 1 1 3 1 2 2 3 2 4 2 4 3 3 3 5 3 4 4 5 4 6 4 6 5 5 5 7 5 6 6 7 6 8 6 8 7 7 7 9 7 8 8 9 8 10 8 10 9 9 9 11 9 10 10 11 10 12 10 12 11 11 11 13 11 12 12 13 12 14 12 14 13 13 13 15 13 14 14 15 14 16 14 16 15 15 15 17 15 16 16 17 16 18 16 18 17 17 17 19 17 18 18 19 18 20 18 20 19 19 19 21 19 20 20 21 20 22 20 22 21 21 21 23 21 22 22 23 22 24 22 24 23 23 23 25 23 24 24 25 24 26 24 26 25 25 25 27 25 26 26 27 26 28 26 28 27 27 27 29 27 28 28 29 28 30 28 30 29 29 29 31 29 30 30 31 30 32 30 32 31 31 31 33 31 32 32 33 32 34 32 34 33 33 33 35 33 34 34 35 34 36 34 36 35 35 35 37 35 36 36 37 36 38 36 38 37 37 37 39 37 38 38 39 38 40 38 40 39 39 39 41 39 40 40 41 40 42 40 42 41 41 41 43 41 43 42 41 42 44 42 44 43 41 43 45 43 45 44 41 44 46 44 46 45 41 45 47 45 47 46 41 46 48 46 47 47 48 47 49 47 49 48 48 48 50 48 50 49 48 49 51 49 50 50 51 50 52 50 52 51 51 51 53 51 53 52 51 52 54 52 53 53 54 53 55 53 55 54 54 54 56 54 56 55 54 55 57 55 56 56 57 56 58 56 58 57 57 57 59 57 58 58 59 58 60 58 60 59 59 59 61 59 61 60 59 60 62 60 61 61 62 61 63 61 63 62 62 62 64 62 63 63 64 63 65 63 65 64 64 64 66 64 65 65 66 65 67 65 67 66 66 66 68 66 67 67 68 67 69 67 69 68 68 68 70 68 70 69 68 69 71 69 70 70 71 70 72 70 72 71 71 71 73 71 72 72 73 72 74 72 74 73 73 73 75 73 74 74 75 74 76 74 76 75 75 75 77 75 76 76 77 76 78 76 78 77 77 77 79 77 79 78 77 78 80 78 79 79 80 79 81 79 81 80 80 80 82 80 81 81 82 81 83 81 83 82 82 82 84 82 84 83 82 83 85 83 84 84 85 84 86 84 86 85 85 85 87 85 87 86 85 86 88 86 87 87 88 87 89 87 89 88 88 88 90 88 90 89 88 89 91 89 90 90 91 90 92 90 92 91 91 91 93 91 93 92 91 92 94 92 94 93 91 93 95 93 95 94 91 94 96 94 96 95 91 95 97 95 96 96 97 96 98 96 98 97 97 97 99 97 99 98 97 98 100 98 99 99 100 99 101 99 101 100 100 100 102 100 101 101 102 101 103 101 103 102 102 102 104 102 103 103 104 103 105 103 105 104 104 104 106 104 105 105 106 105 107 105 107 106 106 106 108 106 107 107 108 107 109 107 109 108 108 108 110 108 109 109 110 109 111 109 111 110 110 110 112 110 111 111 112 111 113 111 113 112 112 112 114 112 113 113 114 113 115 113 115 114 114 114 116 114 115 115 116 115 117 115 117 116 116 116 118 116 117 117 118 117 119 117 119 118 118 118 120 118 119 119 120 119 121 119 121 120 120 120 122 120 121 121 122 121 123 121 123 122 122 122 124 122 123 123 124 123 125 123 125 124 124 124 126 124 125 125 126 125 127 125 127 126 126 126 128 126 127 127 128 127 129 127 129 128 128 128 130 128 129 129 130 129 131 129 131 130 130 130 132 130 131 131 132 131 133 131 133 132 132 132 134 132 133 133 134 133 135 133 135 134 134 134 2 134 135 135 2 135 136 135 136 136 2 136 137 136 137 137 2 137 4 137 137 138 4 138 138 138 138 139 4 139 6 139 138 140 6 140 139 140 139 141 6 141 8 141 139 142 8 142 140 142 140 143 8 143 10 143 140 144 10 144 141 144 141 145 10 145 12 145 141 146 12 146 142 146 142 147 12 147 14 147 142 148 14 148 143 148 143 149 14 149 16 149 143 150 16 150 144 150 144 151 16 151 18 151 144 152 18 152 145 152 145 153 18 153 20 153 145 154 20 154 146 154 146 155 20 155 22 155 146 156 22 156 147 156 147 157 22 157 24 157 147 158 24 158 148 158 148 159 24 159 26 159 148 160 26 160 149 160 149 161 26 161 28 161 149 162 28 162 150 162 150 163 28 163 30 163 150 164 30 164 151 164 151 165 30 165 32 165 151 166 32 166 152 166 152 167 32 167 34 167 152 168 34 168 153 168 153 169 34 169 36 169 153 170 36 170 154 170 154 171 36 171 38 171 154 172 38 172 155 172 155 173 38 173 40 173 155 174 40 174 156 174 156 175 40 175 157 175 156 176 157 176 158 176 91 177 159 177 97 177 97 178 159 178 100 178 159 179 160 179 100 179 100 180 160 180 102 180 160 181 161 181 102 181 102 182 161 182 104 182 161 183 162 183 104 183 104 184 162 184 106 184 162 185 163 185 106 185 106 186 163 186 108 186 163 187 164 187 108 187 108 188 164 188 110 188 164 189 165 189 110 189 110 190 165 190 112 190 165 191 166 191 112 191 112 192 166 192 114 192 166 193 167 193 114 193 114 194 167 194 116 194 167 195 168 195 116 195 116 196 168 196 118 196 168 197 169 197 118 197 118 198 169 198 120 198 169 199 170 199 120 199 120 200 170 200 122 200 170 201 171 201 122 201 122 202 171 202 124 202 171 203 172 203 124 203 124 204 172 204 126 204 172 205 173 205 126 205 126 206 173 206 128 206 173 207 174 207 128 207 128 208 174 208 130 208 174 209 175 209 130 209 130 210 175 210 132 210 175 211 176 211 132 211 132 212 176 212 134 212 176 213 0 213 134 213 134 214 0 214 2 214 177 215 178 215 98 215 98 216 178 216 179 216 98 217 179 217 180 217 181 218 182 218 177 218 177 219 182 219 183 219 177 220 183 220 178 220 184 221 185 221 181 221 181 222 185 222 186 222 181 223 186 223 182 223 187 224 188 224 184 224 184 225 188 225 189 225 184 226 189 226 185 226 188 227 187 227 190 227 190 228 187 228 191 228 190 229 191 229 192 229 192 230 191 230 193 230 193 231 191 231 194 231 193 232 194 232 195 232 195 233 194 233 196 233 195 234 196 234 197 234 197 235 196 235 198 235 197 236 198 236 199 236 199 237 198 237 200 237 199 238 200 238 201 238 201 239 200 239 202 239 202 240 200 240 203 240 202 241 203 241 204 241 204 242 203 242 205 242 204 243 205 243 206 243 206 244 205 244 207 244 206 245 207 245 208 245 208 246 207 246 209 246 208 247 209 247 210 247 210 248 209 248 211 248 211 249 209 249 212 249 211 250 212 250 213 250 213 251 212 251 214 251 213 252 214 252 215 252 215 253 214 253 216 253 216 254 214 254 217 254 216 255 217 255 218 255 218 256 217 256 219 256 219 257 217 257 220 257 219 258 220 258 221 258 221 259 220 259 222 259 222 260 220 260 156 260 222 261 156 261 223 261 223 262 156 262 224 262 224 263 156 263 158 263 42 264 157 264 40 264 180 265 225 265 98 265 98 266 225 266 226 266 98 267 226 267 96 267 227 268 228 268 229 268 229 269 228 269 230 269 230 270 228 270 231 270 230 271 231 271 232 271 232 272 231 272 233 272 232 273 233 273 234 273 234 274 233 274 235 274 234 275 235 275 236 275 236 276 235 276 237 276 236 277 237 277 238 277 239 278 240 278 238 278 238 278 240 278 241 278 238 277 241 277 236 277 239 279 242 279 240 279 240 280 242 280 243 280 243 281 242 281 244 281 244 282 242 282 245 282 244 283 245 283 246 283 247 284 248 284 246 284 246 285 248 285 249 285 246 286 249 286 244 286 247 287 250 287 248 287 248 288 250 288 251 288 251 289 250 289 252 289 251 290 252 290 253 290 253 291 252 291 254 291 254 292 252 292 255 292 254 293 255 293 256 293 257 294 258 294 256 294 256 295 258 295 259 295 256 296 259 296 254 296 258 297 257 297 260 297 260 298 257 298 261 298 260 299 261 299 262 299 263 300 264 300 262 300 262 301 264 301 265 301 262 302 265 302 260 302 263 303 266 303 264 303 264 304 266 304 267 304 267 305 266 305 268 305 267 306 268 306 269 306 269 307 268 307 270 307 270 308 268 308 271 308 270 309 271 309 272 309 273 310 274 310 272 310 272 311 274 311 275 311 272 312 275 312 270 312 273 313 276 313 274 313 274 314 276 314 277 314 277 315 276 315 278 315 278 316 276 316 279 316 278 317 279 317 280 317 281 318 282 318 280 318 280 319 282 319 283 319 280 320 283 320 278 320 282 321 281 321 284 321 284 322 281 322 285 322 284 323 285 323 286 323 286 324 285 324 287 324 286 325 287 325 288 325 288 326 287 326 289 326 288 327 289 327 290 327 291 328 292 328 293 328 293 329 292 329 294 329 293 330 294 330 295 330 295 331 294 331 296 331 295 332 296 332 297 332 297 333 296 333 298 333 297 334 298 334 299 334 299 335 298 335 300 335 299 336 300 336 301 336 301 337 300 337 302 337 301 338 302 338 303 338 303 339 302 339 304 339 303 340 304 340 305 340 305 341 304 341 306 341 305 342 306 342 307 342 307 343 306 343 308 343 307 344 308 344 309 344 309 345 308 345 310 345 309 346 310 346 311 346 311 346 310 346 312 346 311 347 312 347 313 347 313 348 312 348 314 348 313 349 314 349 315 349 315 350 314 350 316 350 315 351 316 351 317 351 317 352 316 352 318 352 317 353 318 353 319 353 319 354 318 354 320 354 319 355 320 355 321 355 321 356 320 356 322 356 321 357 322 357 323 357 323 357 322 357 324 357 323 358 324 358 325 358 325 359 324 359 326 359 325 360 326 360 327 360 327 360 326 360 328 360 327 361 328 361 329 361 329 361 328 361 330 361 329 362 330 362 331 362 331 363 330 363 332 363 331 364 332 364 333 364 333 365 332 365 334 365 333 366 334 366 335 366 335 367 334 367 336 367 335 368 336 368 337 368 337 369 336 369 338 369 337 370 338 370 339 370 339 371 338 371 340 371 339 372 340 372 341 372 341 373 340 373 342 373 341 374 342 374 343 374 343 375 342 375 344 375 343 376 344 376 345 376 345 377 344 377 346 377 345 378 346 378 347 378 347 379 346 379 348 379 347 380 348 380 349 380 349 381 348 381 350 381 349 382 350 382 351 382 351 383 350 383 352 383 351 384 352 384 353 384 353 385 352 385 354 385 353 386 354 386 355 386 355 387 354 387 356 387 355 388 356 388 291 388 291 389 356 389 292 389 357 390 358 390 359 390 359 330 358 330 360 330 359 329 360 329 361 329 361 391 360 391 362 391 361 392 362 392 363 392 363 393 362 393 364 393 363 394 364 394 365 394 365 395 364 395 366 395 365 396 366 396 367 396 367 397 366 397 368 397 367 398 368 398 369 398 369 399 368 399 370 399 369 400 370 400 371 400 371 401 370 401 372 401 371 402 372 402 373 402 373 403 372 403 374 403 373 404 374 404 375 404 375 376 374 376 376 376 375 375 376 375 377 375 377 405 376 405 378 405 377 406 378 406 379 406 379 407 378 407 380 407 379 408 380 408 381 408 381 370 380 370 382 370 381 369 382 369 383 369 383 409 382 409 384 409 383 410 384 410 385 410 385 411 384 411 386 411 385 412 386 412 387 412 387 413 386 413 388 413 387 414 388 414 389 414 389 362 388 362 390 362 389 361 390 361 391 361 391 361 390 361 392 361 391 360 392 360 393 360 393 360 392 360 394 360 393 415 394 415 395 415 395 358 394 358 396 358 395 357 396 357 397 357 397 357 396 357 398 357 397 356 398 356 399 356 399 416 398 416 400 416 399 353 400 353 401 353 401 354 400 354 402 354 401 417 402 417 403 417 403 351 402 351 404 351 403 350 404 350 405 350 405 418 404 418 406 418 405 419 406 419 407 419 407 347 406 347 408 347 407 346 408 346 409 346 409 346 408 346 410 346 409 345 410 345 411 345 411 420 410 420 412 420 411 421 412 421 413 421 413 422 412 422 414 422 413 423 414 423 415 423 415 424 414 424 416 424 415 425 416 425 417 425 417 426 416 426 418 426 417 427 418 427 419 427 419 428 418 428 420 428 419 429 420 429 421 429 421 430 420 430 422 430 421 431 422 431 357 431 357 432 422 432 358 432 294 330 360 330 296 330 296 330 360 330 358 330 296 433 358 433 298 433 298 433 358 433 422 433 298 434 422 434 300 434 300 434 422 434 420 434 300 435 420 435 302 435 302 435 420 435 418 435 302 436 418 436 304 436 304 436 418 436 416 436 304 437 416 437 306 437 306 437 416 437 414 437 306 438 414 438 308 438 308 438 414 438 412 438 308 345 412 345 310 345 310 345 412 345 410 345 310 346 410 346 312 346 312 346 410 346 408 346 312 347 408 347 314 347 314 347 408 347 406 347 314 350 406 350 316 350 316 350 406 350 404 350 316 351 404 351 318 351 318 351 404 351 402 351 318 439 402 439 320 439 320 439 402 439 400 439 320 356 400 356 322 356 322 356 400 356 398 356 322 357 398 357 324 357 324 357 398 357 396 357 324 358 396 358 326 358 326 358 396 358 394 358 326 360 394 360 328 360 328 360 394 360 392 360 328 361 392 361 330 361 330 361 392 361 390 361 330 362 390 362 332 362 332 362 390 362 388 362 332 440 388 440 334 440 334 440 388 440 386 440 334 441 386 441 336 441 336 441 386 441 384 441 336 369 384 369 338 369 338 369 384 369 382 369 338 370 382 370 340 370 340 370 382 370 380 370 340 442 380 442 342 442 342 442 380 442 378 442 342 375 378 375 344 375 344 375 378 375 376 375 344 376 376 376 346 376 346 376 376 376 374 376 346 443 374 443 348 443 348 443 374 443 372 443 348 444 372 444 350 444 350 444 372 444 370 444 350 445 370 445 352 445 352 445 370 445 368 445 352 446 368 446 354 446 354 446 368 446 366 446 354 447 366 447 356 447 356 447 366 447 364 447 356 448 364 448 292 448 292 448 364 448 362 448 292 329 362 329 294 329 294 329 362 329 360 329 295 449 135 449 293 449 293 449 135 449 136 449 293 449 136 449 137 449 297 449 131 449 295 449 295 449 131 449 133 449 295 449 133 449 135 449 131 449 297 449 129 449 129 449 297 449 299 449 129 449 299 449 127 449 127 449 299 449 125 449 125 449 299 449 301 449 125 449 301 449 123 449 123 449 301 449 121 449 121 449 301 449 303 449 121 449 303 449 119 449 119 449 303 449 117 449 117 449 303 449 305 449 117 449 305 449 115 449 115 449 305 449 307 449 115 449 307 449 113 449 113 449 307 449 111 449 111 449 307 449 309 449 111 449 309 449 109 449 109 449 309 449 107 449 107 449 309 449 311 449 107 449 311 449 105 449 105 449 311 449 103 449 103 449 311 449 313 449 103 449 313 449 101 449 101 449 313 449 315 449 101 449 315 449 99 449 99 449 315 449 98 449 98 449 315 449 317 449 98 449 317 449 177 449 177 449 317 449 181 449 181 449 317 449 319 449 181 449 319 449 184 449 184 449 319 449 187 449 187 449 319 449 321 449 187 449 321 449 191 449 191 449 321 449 323 449 191 449 323 449 194 449 194 449 323 449 196 449 196 449 323 449 325 449 196 449 325 449 198 449 198 449 325 449 200 449 200 449 325 449 327 449 200 449 327 449 203 449 203 449 327 449 205 449 205 449 327 449 329 449 205 449 329 449 207 449 207 449 329 449 209 449 209 449 329 449 331 449 209 449 331 449 212 449 212 449 331 449 333 449 212 449 333 449 214 449 214 449 333 449 217 449 217 449 333 449 335 449 217 449 335 449 220 449 220 449 335 449 156 449 156 449 335 449 337 449 156 449 337 449 155 449 155 449 337 449 154 449 154 449 337 449 339 449 154 449 339 449 153 449 153 449 339 449 341 449 153 449 341 449 152 449 152 449 341 449 151 449 151 449 341 449 343 449 151 449 343 449 150 449 150 449 343 449 149 449 149 449 343 449 345 449 149 449 345 449 148 449 148 449 345 449 147 449 147 449 345 449 347 449 147 449 347 449 146 449 146 449 347 449 349 449 146 449 349 449 145 449 145 449 349 449 144 449 144 449 349 449 351 449 144 449 351 449 143 449 143 449 351 449 142 449 142 449 351 449 353 449 142 449 353 449 141 449 141 449 353 449 140 449 140 449 353 449 355 449 140 449 355 449 139 449 139 449 355 449 291 449 139 449 291 449 138 449 138 449 291 449 137 449 137 449 291 449 293 449 361 450 3 450 359 450 359 450 3 450 1 450 359 450 1 450 0 450 363 450 7 450 361 450 361 450 7 450 5 450 361 450 5 450 3 450 7 450 363 450 9 450 9 450 363 450 365 450 9 450 365 450 11 450 11 450 365 450 13 450 13 450 365 450 367 450 13 450 367 450 15 450 15 450 367 450 17 450 17 450 367 450 369 450 17 450 369 450 19 450 19 450 369 450 21 450 21 450 369 450 371 450 21 450 371 450 23 450 23 450 371 450 373 450 23 450 373 450 25 450 25 450 373 450 27 450 27 450 373 450 375 450 27 450 375 450 29 450 29 450 375 450 31 450 31 450 375 450 377 450 31 450 377 450 33 450 33 450 377 450 35 450 35 450 377 450 379 450 35 450 379 450 37 450 37 450 379 450 381 450 37 450 381 450 39 450 39 450 381 450 41 450 41 450 381 450 383 450 41 450 383 450 48 450 48 450 383 450 51 450 51 450 383 450 385 450 51 450 385 450 54 450 54 450 385 450 57 450 57 450 385 450 387 450 57 450 387 450 59 450 59 450 387 450 389 450 59 450 389 450 62 450 62 450 389 450 64 450 64 450 389 450 391 450 64 450 391 450 66 450 66 450 391 450 68 450 68 450 391 450 393 450 68 450 393 450 71 450 71 450 393 450 73 450 73 450 393 450 395 450 73 450 395 450 75 450 75 450 395 450 77 450 77 450 395 450 397 450 77 450 397 450 80 450 80 450 397 450 399 450 80 450 399 450 82 450 82 450 399 450 85 450 85 450 399 450 401 450 85 450 401 450 88 450 88 450 401 450 91 450 91 450 401 450 403 450 91 450 403 450 159 450 159 450 403 450 160 450 160 450 403 450 405 450 160 450 405 450 161 450 161 450 405 450 407 450 161 450 407 450 162 450 162 450 407 450 163 450 163 450 407 450 409 450 163 450 409 450 164 450 164 450 409 450 165 450 165 450 409 450 411 450 165 450 411 450 166 450 166 450 411 450 167 450 167 450 411 450 413 450 167 450 413 450 168 450 168 450 413 450 415 450 168 450 415 450 169 450 169 450 415 450 170 450 170 450 415 450 417 450 170 450 417 450 171 450 171 450 417 450 172 450 172 450 417 450 419 450 172 450 419 450 173 450 173 450 419 450 174 450 174 450 419 450 421 450 174 450 421 450 175 450 175 450 421 450 357 450 175 450 357 450 176 450 176 450 357 450 0 450 0 450 357 450 359 450 229 451 423 451 227 451 227 452 423 452 424 452 227 453 424 453 228 453 228 454 424 454 425 454 228 455 425 455 231 455 231 456 425 456 426 456 231 457 426 457 233 457 233 458 426 458 235 458 235 459 426 459 427 459 235 460 427 460 237 460 237 461 427 461 428 461 237 462 428 462 238 462 238 463 428 463 429 463 238 464 429 464 239 464 239 465 429 465 242 465 242 466 429 466 430 466 242 467 430 467 245 467 245 468 430 468 431 468 245 469 431 469 246 469 246 470 431 470 247 470 247 471 431 471 432 471 247 472 432 472 250 472 250 473 432 473 433 473 250 474 433 474 252 474 252 475 433 475 434 475 252 476 434 476 255 476 255 477 434 477 256 477 256 478 434 478 435 478 256 479 435 479 257 479 257 480 435 480 436 480 257 481 436 481 261 481 261 482 436 482 437 482 261 483 437 483 262 483 262 484 437 484 263 484 263 485 437 485 438 485 263 486 438 486 266 486 266 487 438 487 439 487 266 488 439 488 268 488 268 489 439 489 440 489 268 490 440 490 271 490 271 491 440 491 272 491 272 492 440 492 441 492 272 493 441 493 273 493 273 494 441 494 442 494 273 495 442 495 276 495 276 496 442 496 279 496 279 497 442 497 443 497 279 498 443 498 280 498 280 499 443 499 444 499 280 500 444 500 281 500 281 501 444 501 445 501 281 502 445 502 285 502 285 503 445 503 287 503 287 504 445 504 446 504 287 505 446 505 289 505 289 506 446 506 447 506 289 507 447 507 290 507 290 508 447 508 448 508 290 509 448 509 288 509 288 510 448 510 286 510 286 511 448 511 449 511 286 512 449 512 284 512 284 513 449 513 450 513 284 514 450 514 282 514 282 515 450 515 451 515 282 516 451 516 283 516 283 517 451 517 278 517 278 518 451 518 452 518 278 519 452 519 277 519 277 520 452 520 453 520 277 521 453 521 274 521 274 522 453 522 275 522 275 523 453 523 454 523 275 524 454 524 270 524 270 525 454 525 455 525 270 526 455 526 269 526 269 527 455 527 456 527 269 528 456 528 267 528 267 529 456 529 264 529 264 530 456 530 457 530 264 531 457 531 265 531 265 532 457 532 458 532 265 533 458 533 260 533 260 534 458 534 459 534 260 535 459 535 258 535 258 536 459 536 259 536 259 537 459 537 460 537 259 538 460 538 254 538 254 539 460 539 461 539 254 540 461 540 253 540 253 541 461 541 462 541 253 542 462 542 251 542 251 543 462 543 248 543 248 544 462 544 463 544 248 545 463 545 249 545 249 546 463 546 464 546 249 547 464 547 244 547 244 548 464 548 465 548 244 549 465 549 243 549 243 550 465 550 240 550 240 551 465 551 466 551 240 552 466 552 241 552 241 553 466 553 467 553 241 554 467 554 236 554 236 555 467 555 234 555 234 556 467 556 468 556 234 557 468 557 232 557 232 558 468 558 469 558 232 559 469 559 230 559 230 560 469 560 423 560 230 561 423 561 229 561 470 562 471 562 472 562 472 563 471 563 473 563 472 564 473 564 474 564 474 565 473 565 475 565 474 566 475 566 476 566 476 566 475 566 477 566 476 567 477 567 478 567 478 568 477 568 479 568 478 569 479 569 480 569 480 570 479 570 481 570 480 571 481 571 482 571 482 571 481 571 483 571 482 572 483 572 484 572 484 572 483 572 485 572 484 573 485 573 486 573 486 573 485 573 487 573 486 574 487 574 488 574 488 574 487 574 489 574 488 575 489 575 490 575 490 575 489 575 491 575 490 576 491 576 492 576 492 576 491 576 493 576 492 577 493 577 494 577 494 577 493 577 495 577 494 578 495 578 496 578 496 578 495 578 497 578 496 579 497 579 498 579 498 579 497 579 499 579 498 580 499 580 500 580 500 580 499 580 501 580 500 581 501 581 502 581 502 581 501 581 503 581 502 582 503 582 504 582 504 582 503 582 505 582 504 583 505 583 506 583 506 583 505 583 507 583 506 584 507 584 508 584 508 584 507 584 509 584 508 585 509 585 510 585 510 585 509 585 511 585 510 586 511 586 512 586 512 587 511 587 513 587 512 588 513 588 514 588 514 589 513 589 515 589 514 590 515 590 516 590 516 591 515 591 517 591 516 592 517 592 518 592 518 593 517 593 519 593 518 450 519 450 520 450 520 450 519 450 521 450 520 594 521 594 522 594 522 595 521 595 523 595 522 596 523 596 524 596 524 597 523 597 433 597 524 598 433 598 525 598 525 599 433 599 432 599 525 600 432 600 526 600 526 601 432 601 431 601 526 602 431 602 527 602 527 602 431 602 430 602 527 603 430 603 528 603 528 603 430 603 429 603 528 604 429 604 529 604 529 604 429 604 428 604 529 605 428 605 530 605 530 605 428 605 427 605 530 606 427 606 531 606 531 606 427 606 426 606 531 607 426 607 532 607 532 607 426 607 425 607 532 608 425 608 533 608 533 609 425 609 424 609 533 610 424 610 534 610 534 611 424 611 423 611 534 612 423 612 535 612 535 613 423 613 469 613 535 614 469 614 536 614 536 614 469 614 468 614 536 615 468 615 537 615 537 616 468 616 467 616 537 617 467 617 538 617 538 617 467 617 466 617 538 618 466 618 539 618 539 618 466 618 465 618 539 619 465 619 540 619 540 619 465 619 464 619 540 620 464 620 541 620 541 620 464 620 463 620 541 621 463 621 462 621 471 622 470 622 542 622 542 622 470 622 543 622 542 623 543 623 544 623 542 624 544 624 545 624 545 625 544 625 546 625 545 626 546 626 547 626 547 620 546 620 548 620 547 620 548 620 540 620 540 619 548 619 539 619 546 620 549 620 548 620 548 619 549 619 550 619 548 627 550 627 539 627 539 628 550 628 538 628 549 619 551 619 550 619 550 618 551 618 552 618 550 629 552 629 538 629 538 630 552 630 537 630 551 618 553 618 552 618 552 617 553 617 554 617 552 631 554 631 537 631 537 632 554 632 536 632 553 617 555 617 554 617 554 616 555 616 556 616 554 633 556 633 536 633 536 634 556 634 535 634 555 616 557 616 556 616 556 635 557 635 558 635 556 636 558 636 535 636 535 637 558 637 534 637 557 635 559 635 558 635 558 612 559 612 560 612 558 638 560 638 534 638 534 639 560 639 533 639 559 612 561 612 560 612 560 611 561 611 562 611 560 611 562 611 533 611 533 608 562 608 532 608 561 611 563 611 562 611 562 608 563 608 564 608 562 640 564 640 532 640 532 641 564 641 531 641 563 608 565 608 564 608 564 607 565 607 566 607 564 607 566 607 531 607 531 606 566 606 530 606 565 607 567 607 566 607 566 606 567 606 568 606 566 606 568 606 530 606 530 605 568 605 529 605 567 606 569 606 568 606 568 605 569 605 570 605 568 605 570 605 529 605 529 604 570 604 528 604 569 605 571 605 570 605 570 604 571 604 572 604 570 642 572 642 528 642 528 643 572 643 527 643 571 644 573 644 572 644 572 645 573 645 574 645 572 603 574 603 527 603 527 602 574 602 526 602 573 603 575 603 574 603 574 602 575 602 576 602 574 602 576 602 526 602 526 601 576 601 525 601 575 602 577 602 576 602 576 601 577 601 578 601 576 646 578 646 525 646 525 647 578 647 524 647 577 601 579 601 578 601 578 598 579 598 580 598 578 598 580 598 524 598 524 648 580 648 522 648 579 598 581 598 580 598 580 649 581 649 582 649 580 650 582 650 522 650 522 651 582 651 520 651 473 565 583 565 475 565 475 565 583 565 584 565 475 566 584 566 477 566 477 566 584 566 585 566 477 652 585 652 479 652 479 653 585 653 586 653 479 654 586 654 481 654 481 655 586 655 587 655 481 571 587 571 483 571 483 571 587 571 588 571 483 572 588 572 485 572 485 656 588 656 589 656 485 657 589 657 487 657 487 658 589 658 590 658 487 659 590 659 489 659 489 660 590 660 591 660 489 661 591 661 491 661 491 662 591 662 592 662 491 663 592 663 493 663 493 664 592 664 593 664 493 665 593 665 495 665 495 666 593 666 594 666 495 667 594 667 497 667 497 668 594 668 595 668 497 669 595 669 499 669 499 669 595 669 596 669 499 670 596 670 501 670 501 580 596 580 597 580 501 581 597 581 503 581 503 581 597 581 598 581 503 582 598 582 505 582 505 582 598 582 599 582 505 583 599 583 507 583 507 583 599 583 600 583 507 584 600 584 509 584 509 584 600 584 601 584 509 585 601 585 511 585 511 585 601 585 602 585 511 586 602 586 513 586 513 671 602 671 603 671 513 672 603 672 515 672 515 589 603 589 604 589 515 673 604 673 517 673 517 674 604 674 605 674 517 675 605 675 519 675 519 676 605 676 606 676 519 450 606 450 521 450 521 450 606 450 607 450 521 677 607 677 523 677 523 678 607 678 434 678 523 679 434 679 433 679 583 565 459 565 584 565 584 565 459 565 458 565 584 566 458 566 585 566 585 566 458 566 457 566 585 680 457 680 586 680 586 681 457 681 456 681 586 682 456 682 587 682 587 683 456 683 455 683 587 571 455 571 588 571 588 571 455 571 454 571 588 572 454 572 589 572 589 572 454 572 453 572 589 573 453 573 590 573 590 573 453 573 452 573 590 574 452 574 591 574 591 574 452 574 451 574 591 575 451 575 592 575 592 662 451 662 450 662 592 663 450 663 593 663 593 684 450 684 449 684 593 685 449 685 594 685 594 577 449 577 448 577 594 578 448 578 595 578 595 578 448 578 447 578 595 579 447 579 596 579 596 579 447 579 446 579 596 580 446 580 597 580 597 580 446 580 445 580 597 581 445 581 598 581 598 581 445 581 444 581 598 582 444 582 599 582 599 582 444 582 443 582 599 583 443 583 600 583 600 583 443 583 442 583 600 584 442 584 601 584 601 584 442 584 441 584 601 585 441 585 602 585 602 585 441 585 440 585 602 586 440 586 603 586 603 686 440 686 439 686 603 687 439 687 604 687 604 589 439 589 438 589 604 688 438 688 605 688 605 689 438 689 437 689 605 690 437 690 606 690 606 691 437 691 436 691 606 450 436 450 607 450 607 450 436 450 435 450 607 692 435 692 434 692 583 562 473 562 608 562 608 562 473 562 471 562 608 622 471 622 609 622 609 622 471 622 542 622 609 693 542 693 545 693 459 562 583 562 460 562 460 562 583 562 608 562 460 622 608 622 461 622 461 622 608 622 609 622 461 694 609 694 610 694 610 695 609 695 545 695 610 696 545 696 547 696 547 620 540 620 541 620 610 697 547 697 541 697 610 698 541 698 462 698 461 699 610 699 462 699 95 700 96 700 611 700 611 701 96 701 226 701 611 702 226 702 612 702 612 703 226 703 225 703 612 704 225 704 180 704 180 705 179 705 612 705 612 706 179 706 613 706 612 707 613 707 614 707 614 708 613 708 615 708 614 708 615 708 616 708 616 709 615 709 617 709 616 710 617 710 618 710 618 711 617 711 619 711 619 712 617 712 620 712 619 713 620 713 621 713 621 714 620 714 622 714 621 715 622 715 623 715 623 716 622 716 624 716 623 717 624 717 625 717 625 718 624 718 626 718 625 719 626 719 627 719 627 720 626 720 628 720 627 721 628 721 629 721 629 722 628 722 630 722 629 723 630 723 631 723 631 724 630 724 632 724 631 725 632 725 633 725 633 726 632 726 634 726 633 727 634 727 635 727 635 728 634 728 636 728 635 729 636 729 637 729 637 730 636 730 638 730 637 731 638 731 639 731 639 732 638 732 640 732 639 733 640 733 641 733 641 734 640 734 642 734 641 735 642 735 643 735 643 736 642 736 644 736 643 737 644 737 645 737 645 738 644 738 646 738 645 739 646 739 647 739 647 740 646 740 648 740 647 741 648 741 649 741 649 742 648 742 650 742 649 743 650 743 651 743 651 744 650 744 652 744 651 745 652 745 653 745 653 746 652 746 654 746 653 747 654 747 655 747 655 748 654 748 656 748 655 749 656 749 657 749 657 750 656 750 658 750 657 751 658 751 659 751 659 752 658 752 660 752 659 753 660 753 661 753 661 754 660 754 662 754 661 755 662 755 663 755 663 756 662 756 664 756 663 757 664 757 665 757 665 758 664 758 666 758 665 759 666 759 667 759 667 760 666 760 668 760 667 761 668 761 669 761 669 762 668 762 670 762 669 763 670 763 671 763 671 764 670 764 672 764 671 765 672 765 673 765 673 766 672 766 674 766 673 767 674 767 675 767 675 768 674 768 676 768 675 769 676 769 677 769 677 770 676 770 678 770 677 771 678 771 679 771 679 772 678 772 680 772 679 773 680 773 681 773 681 774 680 774 682 774 681 775 682 775 683 775 683 776 682 776 684 776 683 777 684 777 685 777 685 778 684 778 686 778 685 779 686 779 687 779 687 780 686 780 688 780 687 781 688 781 689 781 689 782 688 782 690 782 690 783 688 783 691 783 690 784 691 784 692 784 692 785 691 785 693 785 692 786 693 786 694 786 694 787 693 787 695 787 694 788 695 788 696 788 696 789 695 789 697 789 696 790 697 790 698 790 698 791 697 791 699 791 698 792 699 792 700 792 700 793 699 793 701 793 700 794 701 794 702 794 702 795 701 795 703 795 702 796 703 796 704 796 704 797 703 797 705 797 704 798 705 798 706 798 706 799 705 799 707 799 706 800 707 800 708 800 708 801 707 801 709 801 708 802 709 802 710 802 710 803 709 803 711 803 710 804 711 804 712 804 712 805 711 805 713 805 712 806 713 806 714 806 714 807 713 807 715 807 714 808 715 808 716 808 716 809 715 809 717 809 716 810 717 810 718 810 718 811 717 811 719 811 718 812 719 812 720 812 720 813 719 813 616 813 720 814 616 814 618 814 179 815 178 815 613 815 613 816 178 816 721 816 613 708 721 708 615 708 615 709 721 709 722 709 615 709 722 709 617 709 617 817 722 817 620 817 178 818 183 818 721 818 721 819 183 819 723 819 721 709 723 709 722 709 722 817 723 817 724 817 722 817 724 817 620 817 620 820 724 820 622 820 183 821 182 821 723 821 723 822 182 822 186 822 723 823 186 823 725 823 725 824 186 824 185 824 725 825 185 825 726 825 726 826 185 826 189 826 726 827 189 827 727 827 727 828 189 828 188 828 727 829 188 829 728 829 728 830 188 830 190 830 728 831 190 831 192 831 728 832 192 832 729 832 729 833 192 833 193 833 729 834 193 834 730 834 730 835 193 835 195 835 730 836 195 836 731 836 731 837 195 837 197 837 731 838 197 838 732 838 732 839 197 839 199 839 732 840 199 840 733 840 733 841 199 841 201 841 733 842 201 842 202 842 733 843 202 843 734 843 734 844 202 844 204 844 734 845 204 845 735 845 735 846 204 846 206 846 735 847 206 847 736 847 736 848 206 848 208 848 736 849 208 849 737 849 737 850 208 850 210 850 737 851 210 851 738 851 738 852 210 852 211 852 738 853 211 853 213 853 738 854 213 854 739 854 739 855 213 855 215 855 739 856 215 856 740 856 740 857 215 857 216 857 740 858 216 858 741 858 741 859 216 859 218 859 741 860 218 860 742 860 742 861 218 861 219 861 742 862 219 862 221 862 742 863 221 863 743 863 743 864 221 864 222 864 743 865 222 865 744 865 744 866 222 866 223 866 744 867 223 867 745 867 745 868 223 868 224 868 745 869 224 869 158 869 158 870 157 870 745 870 745 871 157 871 746 871 745 872 746 872 747 872 747 873 746 873 748 873 747 874 748 874 664 874 664 875 748 875 666 875 157 876 42 876 746 876 746 877 42 877 43 877 746 878 43 878 749 878 749 879 43 879 44 879 749 880 44 880 45 880 45 881 46 881 749 881 749 882 46 882 750 882 749 875 750 875 751 875 751 883 750 883 752 883 751 883 752 883 668 883 668 884 752 884 670 884 46 885 47 885 750 885 750 886 47 886 753 886 750 883 753 883 752 883 752 884 753 884 754 884 752 884 754 884 670 884 670 887 754 887 672 887 47 888 49 888 753 888 753 889 49 889 755 889 753 884 755 884 754 884 754 887 755 887 756 887 754 887 756 887 672 887 672 890 756 890 674 890 49 891 50 891 755 891 755 892 50 892 52 892 755 893 52 893 757 893 757 894 52 894 53 894 757 895 53 895 758 895 758 896 53 896 55 896 758 897 55 897 759 897 759 898 55 898 56 898 759 899 56 899 760 899 760 900 56 900 58 900 760 901 58 901 60 901 760 902 60 902 761 902 761 903 60 903 61 903 761 904 61 904 762 904 762 905 61 905 63 905 762 906 63 906 763 906 763 907 63 907 65 907 763 908 65 908 764 908 764 909 65 909 67 909 764 910 67 910 765 910 765 911 67 911 69 911 765 912 69 912 70 912 765 913 70 913 766 913 766 914 70 914 72 914 766 915 72 915 767 915 767 916 72 916 74 916 767 917 74 917 768 917 768 918 74 918 76 918 768 919 76 919 769 919 769 920 76 920 78 920 769 921 78 921 770 921 770 922 78 922 79 922 770 923 79 923 81 923 770 924 81 924 771 924 771 925 81 925 83 925 771 926 83 926 772 926 772 927 83 927 84 927 772 928 84 928 773 928 773 929 84 929 86 929 773 930 86 930 774 930 774 931 86 931 87 931 774 932 87 932 89 932 774 933 89 933 775 933 775 934 89 934 90 934 775 935 90 935 776 935 776 936 90 936 92 936 776 937 92 937 777 937 777 938 92 938 93 938 777 939 93 939 94 939 94 940 95 940 777 940 777 941 95 941 611 941 777 942 611 942 778 942 778 943 611 943 779 943 778 943 779 943 717 943 717 707 779 707 719 707 765 944 780 944 764 944 764 944 780 944 781 944 764 945 781 945 763 945 763 945 781 945 782 945 763 946 782 946 762 946 762 946 782 946 783 946 762 947 783 947 761 947 761 947 783 947 784 947 761 948 784 948 760 948 760 948 784 948 785 948 760 949 785 949 759 949 759 949 785 949 786 949 759 950 786 950 758 950 758 950 786 950 787 950 758 890 787 890 757 890 757 890 787 890 756 890 757 887 756 887 755 887 780 944 688 944 781 944 781 944 688 944 686 944 781 945 686 945 782 945 782 945 686 945 684 945 782 946 684 946 783 946 783 946 684 946 682 946 783 947 682 947 784 947 784 947 682 947 680 947 784 948 680 948 785 948 785 948 680 948 678 948 785 949 678 949 786 949 786 949 678 949 676 949 786 950 676 950 787 950 787 950 676 950 674 950 787 890 674 890 756 890 780 951 765 951 788 951 788 951 765 951 766 951 788 952 766 952 789 952 789 952 766 952 767 952 789 953 767 953 790 953 790 953 767 953 768 953 790 954 768 954 791 954 791 954 768 954 769 954 791 955 769 955 792 955 792 955 769 955 770 955 792 956 770 956 793 956 793 956 770 956 771 956 793 957 771 957 794 957 794 957 771 957 772 957 794 958 772 958 795 958 795 958 772 958 773 958 795 959 773 959 796 959 796 959 773 959 774 959 796 960 774 960 797 960 797 960 774 960 775 960 797 961 775 961 798 961 798 961 775 961 776 961 798 962 776 962 799 962 799 962 776 962 777 962 799 942 777 942 778 942 688 951 780 951 691 951 691 951 780 951 788 951 691 952 788 952 693 952 693 952 788 952 789 952 693 953 789 953 695 953 695 953 789 953 790 953 695 954 790 954 697 954 697 954 790 954 791 954 697 955 791 955 699 955 699 955 791 955 792 955 699 956 792 956 701 956 701 956 792 956 793 956 701 957 793 957 703 957 703 957 793 957 794 957 703 958 794 958 705 958 705 958 794 958 795 958 705 959 795 959 707 959 707 959 795 959 796 959 707 960 796 960 709 960 709 960 796 960 797 960 709 961 797 961 711 961 711 961 797 961 798 961 711 962 798 962 713 962 713 962 798 962 799 962 713 942 799 942 715 942 715 942 799 942 778 942 715 943 778 943 717 943 611 943 612 943 779 943 779 707 612 707 614 707 779 707 614 707 719 707 719 708 614 708 616 708 723 817 725 817 724 817 724 820 725 820 800 820 724 820 800 820 622 820 622 963 800 963 624 963 725 820 726 820 800 820 800 963 726 963 801 963 800 963 801 963 624 963 624 964 801 964 626 964 726 963 727 963 801 963 801 964 727 964 802 964 801 964 802 964 626 964 626 965 802 965 628 965 727 964 728 964 802 964 802 965 728 965 803 965 802 965 803 965 628 965 628 966 803 966 630 966 728 965 729 965 803 965 803 966 729 966 804 966 803 966 804 966 630 966 630 967 804 967 632 967 729 966 730 966 804 966 804 967 730 967 805 967 804 967 805 967 632 967 632 968 805 968 634 968 730 967 731 967 805 967 805 968 731 968 806 968 805 968 806 968 634 968 634 969 806 969 636 969 731 968 732 968 806 968 806 969 732 969 807 969 806 970 807 970 636 970 636 971 807 971 638 971 732 969 733 969 807 969 807 972 733 972 808 972 807 972 808 972 638 972 638 973 808 973 640 973 733 972 734 972 808 972 808 973 734 973 809 973 808 973 809 973 640 973 640 974 809 974 642 974 734 973 735 973 809 973 809 974 735 974 810 974 809 974 810 974 642 974 642 975 810 975 644 975 735 974 736 974 810 974 810 975 736 975 811 975 810 975 811 975 644 975 644 976 811 976 646 976 736 975 737 975 811 975 811 976 737 976 812 976 811 976 812 976 646 976 646 977 812 977 648 977 737 976 738 976 812 976 812 977 738 977 813 977 812 977 813 977 648 977 648 978 813 978 650 978 738 977 739 977 813 977 813 978 739 978 814 978 813 978 814 978 650 978 650 979 814 979 652 979 739 978 740 978 814 978 814 979 740 979 815 979 814 979 815 979 652 979 652 980 815 980 654 980 740 979 741 979 815 979 815 980 741 980 816 980 815 980 816 980 654 980 654 981 816 981 656 981 741 980 742 980 816 980 816 981 742 981 817 981 816 981 817 981 656 981 656 982 817 982 658 982 742 981 743 981 817 981 817 982 743 982 818 982 817 982 818 982 658 982 658 983 818 983 660 983 743 982 744 982 818 982 818 983 744 983 819 983 818 983 819 983 660 983 660 984 819 984 662 984 744 983 745 983 819 983 819 984 745 984 747 984 819 872 747 872 662 872 662 873 747 873 664 873 746 874 749 874 748 874 748 875 749 875 751 875 748 875 751 875 666 875 666 883 751 883 668 883 474 985 687 985 472 985 472 985 687 985 689 985 472 985 689 985 690 985 687 985 474 985 685 985 685 985 474 985 476 985 685 985 476 985 683 985 683 985 476 985 478 985 683 985 478 985 681 985 681 985 478 985 480 985 681 985 480 985 679 985 679 985 480 985 482 985 679 985 482 985 677 985 677 985 482 985 484 985 677 985 484 985 675 985 675 985 484 985 486 985 675 985 486 985 673 985 673 985 486 985 488 985 673 985 488 985 671 985 671 985 488 985 669 985 669 985 488 985 490 985 669 985 490 985 667 985 667 985 490 985 492 985 667 985 492 985 665 985 665 985 492 985 494 985 665 985 494 985 663 985 663 985 494 985 496 985 663 985 496 985 661 985 661 985 496 985 498 985 661 985 498 985 659 985 659 985 498 985 500 985 659 985 500 985 657 985 657 985 500 985 502 985 657 985 502 985 655 985 655 985 502 985 504 985 655 985 504 985 653 985 653 985 504 985 651 985 651 985 504 985 506 985 651 985 506 985 649 985 649 985 506 985 508 985 649 985 508 985 647 985 647 985 508 985 510 985 647 985 510 985 645 985 645 985 510 985 512 985 645 985 512 985 643 985 643 985 512 985 514 985 643 985 514 985 641 985 641 985 514 985 516 985 641 985 516 985 639 985 639 985 516 985 518 985 639 985 518 985 637 985 637 985 518 985 635 985 635 985 518 985 520 985 635 985 520 985 633 985 633 985 520 985 582 985 633 985 582 985 631 985 631 985 582 985 581 985 631 985 581 985 629 985 629 985 581 985 579 985 629 985 579 985 627 985 627 985 579 985 577 985 627 985 577 985 625 985 625 985 577 985 575 985 625 985 575 985 623 985 623 985 575 985 573 985 623 985 573 985 621 985 621 985 573 985 571 985 621 985 571 985 619 985 619 985 571 985 618 985 618 985 571 985 569 985 618 985 569 985 720 985 720 985 569 985 567 985 720 985 567 985 718 985 718 985 567 985 565 985 718 985 565 985 716 985 716 985 565 985 563 985 716 985 563 985 714 985 714 985 563 985 561 985 714 985 561 985 712 985 712 985 561 985 559 985 712 985 559 985 710 985 710 985 559 985 557 985 710 985 557 985 708 985 708 985 557 985 555 985 708 985 555 985 706 985 706 985 555 985 704 985 704 985 555 985 553 985 704 985 553 985 702 985 702 985 553 985 551 985 702 985 551 985 700 985 700 985 551 985 549 985 700 985 549 985 698 985 698 985 549 985 546 985 698 985 546 985 696 985 696 985 546 985 544 985 696 985 544 985 694 985 694 985 544 985 543 985 694 985 543 985 692 985 692 985 543 985 470 985 692 985 470 985 690 985 690 985 470 985 472 985</p>
        </triangles>
        <triangles count="1" material="mat_1">
          <input semantic="VERTEX" source="#vert_0" offset="0"/>
          <input semantic="NORMAL" source="#norm_0" offset="1"/>
          <p>0 0 1 0 2 0</p>
        </triangles>
      </mesh>
    </geometry>
  </library_geometries>
  <library_visual_scenes>
    <visual_scene id="DefaultScene">
      <node id="node_c29ad12a_a711_4a2c_8923_247e3a1125fb" type="NODE">
        <matrix>1 0 0 0 0 1 0 0 0 0 1 0 0 0 0 1</matrix>
        <node id="node_a19f2f50_65c7_45c8_91d8_1c39de86b683" type="NODE">
          <matrix>1 0 0 0 0 1 0 0 0 0 1 0 0 0 0 1</matrix>
          <node id="node_a19f2f50_65c7_45c8_91d8_1c39de86b683_mesh0" type="NODE">
            <matrix>1 0 0 0 0 1 0 0 0 0 1 0 0 0 0 1</matrix>
            <instance_geometry url="#geometry_9a8cd6a8_c9f2_4768_b42f_809522f271d4">
              <bind_material>
                <technique_common>
                  <instance_material symbol="mat_1" target="#mat_1"/>
                </technique_common>
              </bind_material>
            </instance_geometry>
          </node>
        </node>
      </node>
    </visual_scene>
  </library_visual_scenes>
  <scene>
    <instance_visual_scene url="#DefaultScene"/>
  </scene>
</COLLADA>
