<?xml version="1.0" encoding="UTF-8"?>
<COLLADA xmlns="http://www.collada.org/2005/11/COLLADASchema" version="1.4.1">
<!--
# File generated by ImageToStl.com - Free Image and 3D model conversion tools
-->
  <asset>
    <contributor>
      <author>ImageToStl.com</author>
      <authoring_tool>ImageToStl.com</authoring_tool>
    </contributor>
    <created>2026-03-07T04:19:03</created>
    <modified>2026-03-07T04:19:03</modified>
    <up_axis>Z_UP</up_axis>
  </asset>
  <library_effects>
    <effect id="effect_0">
        <profile_COMMON>
          <technique sid="common">
            <phong>
              <diffuse>
                <color>0.62745 0.62745 0.62745 1</color>
              </diffuse>
            </phong>
          </technique>
        </profile_COMMON>
    </effect>
    <effect id="effect_1">
        <profile_COMMON>
          <technique sid="common">
            <phong>
              <diffuse>
                <color>0.65882 0.65882 0.65882 1</color>
              </diffuse>
            </phong>
          </technique>
        </profile_COMMON>
    </effect>
  </library_effects>
  <library_materials>
    <material id="mat_0">
      <instance_effect url="#effect_0"/>
    </material>
    <material id="mat_1">
      <instance_effect url="#effect_1"/>
    </material>
  </library_materials>
  <library_geometries>
    <geometry id="geometry_76f14b61_1de2_4848_b1e4_ae60b45edb75">
      <mesh>
        <source id="pos_0">
          <float_array id="pos_0-array" count="1800">-11.85350227 -214.98338318 11.90811634 -11.85350227 -224.98338318 11.90811634 -11.99999714 -214.98338318 10 -11.99999714 -224.98338318 10 -11.85350227 -214.98338318 8.09188366 -11.85350227 -224.98338318 8.09188366 -11.41745186 -214.98338318 6.22849274 -11.41745186 -224.98338318 6.22849274 -10.70206642 -214.98338318 4.45350218 -10.70206642 -224.98338318 4.45350218 -9.72411442 -214.98338318 2.80851698 -9.72411442 -224.98338318 2.80851698 -8.50651741 -214.98338318 1.33209383 -8.50651741 -224.98338318 1.33209383 -7.07781506 -214.98338318 0.05883926 -7.07781506 -224.98338318 0.05883926 -5.47149515 -214.98338318 -0.98140299 -5.47149515 -224.98338318 -0.98140299 -3.72520828 -214.98338318 -1.7642504 -3.72520828 -224.98338318 -1.7642504 -1.87988627 -214.98338318 -2.27135396 -1.87988627 -224.98338318 -2.27135396 0.02121843 -214.98338318 -2.49082708 0.02121843 -224.98338318 -2.49082708 1.93354547 -214.98338318 -2.41752601 1.93354547 -224.98338318 -2.41752601 3.81227136 -214.98338318 -2.05316854 3.81227136 -224.98338318 -2.05316854 5.6133604 -214.98338318 -1.40629506 5.6133604 -224.98338318 -1.40629506 7.29459715 -214.98338318 -0.49206766 7.29459715 -224.98338318 -0.49206766 8.8165741 -214.98338318 0.66808486 8.8165741 -224.98338318 0.66808486 10.14361763 -214.98338318 2.04696965 10.14361763 -224.98338318 2.04696965 11.24462223 -214.98338318 3.61226654 11.24462223 -224.98338318 3.61226654 12.09378338 -214.98338318 5.32728672 12.09378338 -224.98338318 5.32728672 12.67119503 -214.98338318 7.15183115 12.67119503 -224.98338318 7.15183115 12.9633255 -214.98338318 9.04313469 12.9633255 -224.98338318 9.04313469 12.9633255 -214.98338318 10.95686626 12.9633255 -224.98338318 10.95686626 12.67119503 -214.98338318 12.84816933 12.67119503 -224.98338318 12.84816933 12.09378338 -214.98338318 14.67271328 12.09378338 -224.98338318 14.67271328 11.24462223 -214.98338318 16.38773346 11.24462223 -224.98338318 16.38773346 10.14361763 -214.98338318 17.95303154 10.14361763 -224.98338318 17.95303154 8.8165741 -214.98338318 19.3319149 8.8165741 -224.98338318 19.3319149 7.29459715 -214.98338318 20.49206734 7.29459715 -224.98338318 20.49206734 5.6133604 -214.98338318 21.40629578 5.6133604 -224.98338318 21.40629578 3.81227136 -214.98338318 22.05316925 3.81227136 -224.98338318 22.05316925 1.93354547 -214.98338318 22.41752625 1.93354547 -224.98338318 22.41752625 0.02121843 -214.98338318 22.49082756 0.02121843 -224.98338318 22.49082756 -1.87988627 -214.98338318 22.27135468 -1.87988627 -224.98338318 22.27135468 -3.72520828 -214.98338318 21.7642498 -3.72520828 -224.98338318 21.7642498 -5.47149515 -214.98338318 20.98140335 -5.47149515 -224.98338318 20.98140335 -7.07781506 -214.98338318 19.9411602 -7.07781506 -224.98338318 19.9411602 -8.50651741 -214.98338318 18.66790581 -8.50651741 -224.98338318 18.66790581 -9.72411442 -214.98338318 17.19148254 -9.72411442 -224.98338318 17.19148254 -10.70206642 -214.98338318 15.5464983 -10.70206642 -224.98338318 15.5464983 -11.41745186 -214.98338318 13.77150726 -11.41745186 -224.98338318 13.77150726 34.00000381 -224.98338318 10 34.00000381 -214.98338318 10 33.85709763 -224.98338318 13.09099007 33.85709763 -214.98338318 13.09099007 33.42959976 -224.98338318 16.15560913 33.42959976 -214.98338318 16.15560913 32.72116089 -224.98338318 19.16771126 32.72116089 -214.98338318 19.16771126 31.73782158 -224.98338318 22.10159683 31.73782158 -214.98338318 22.10159683 30.48797226 -224.98338318 24.93223572 30.48797226 -214.98338318 24.93223572 28.98227692 -224.98338318 27.63547707 28.98227692 -214.98338318 27.63547707 27.23357964 -224.98338318 30.18826103 27.23357964 -214.98338318 30.18826103 25.25680161 -224.98338318 32.56880569 25.25680161 -214.98338318 32.56880569 23.0688076 -224.98338318 34.75679779 23.0688076 -214.98338318 34.75679779 20.68826294 -224.98338318 36.73357773 20.68826294 -214.98338318 36.73357773 18.13548088 -224.98338318 38.4822731 18.13548088 -214.98338318 38.4822731 15.43223763 -224.98338318 39.98797226 15.43223763 -214.98338318 39.98797226 12.60159874 -224.98338318 41.23781967 12.60159874 -214.98338318 41.23781967 9.66771317 -224.98338318 42.22116089 9.66771317 -214.98338318 42.22116089 6.65561152 -224.98338318 42.92959976 6.65561152 -214.98338318 42.92959976 3.59099269 -224.98338318 43.35709381 3.59099269 -214.98338318 43.35709381 0.50000262 -224.98338318 43.5 0.50000262 -214.98338318 43.5 -2.59098744 -224.98338318 43.35709381 -2.59098744 -214.98338318 43.35709381 -5.65560627 -224.98338318 42.92959976 -5.65560627 -214.98338318 42.92959976 -8.66770744 -224.98338318 42.22116089 -8.66770744 -214.98338318 42.22116089 -11.60159302 -224.98338318 41.23781967 -11.60159302 -214.98338318 41.23781967 -14.4322319 -224.98338318 39.98797226 -14.4322319 -214.98338318 39.98797226 -17.13547516 -224.98338318 38.4822731 -17.13547516 -214.98338318 38.4822731 -19.68825722 -224.98338318 36.73357773 -19.68825722 -214.98338318 36.73357773 -22.06880188 -224.98338318 34.75679779 -22.06880188 -214.98338318 34.75679779 -24.25679588 -224.98338318 32.56880569 -24.25679588 -214.98338318 32.56880569 -26.23357391 -224.98338318 30.18826103 -26.23357391 -214.98338318 30.18826103 -27.98227119 -224.98338318 27.63547707 -27.98227119 -214.98338318 27.63547707 -29.48796844 -224.98338318 24.93223572 -29.48796844 -214.98338318 24.93223572 -30.73781776 -224.98338318 22.10159683 -30.73781776 -214.98338318 22.10159683 -31.72115707 -224.98338318 19.16771126 -31.72115707 -214.98338318 19.16771126 -32.42959595 -224.98338318 16.15560913 -32.42959595 -214.98338318 16.15560913 -32.85709381 -224.98338318 13.09099007 -32.85709381 -214.98338318 13.09099007 -32.99999619 -224.98338318 10 -32.99999619 -214.98338318 10 -32.85709381 -214.98338318 6.90900993 -32.42959595 -214.98338318 3.84439135 -31.72115707 -214.98338318 0.83228999 -30.73781776 -214.98338318 -2.10159564 -29.48796844 -214.98338318 -4.93223476 -27.98227119 -214.98338318 -7.63547754 -26.23357391 -214.98338318 -10.18826008 -24.25679588 -214.98338318 -12.56880379 -22.06880188 -214.98338318 -14.75679874 -19.68825722 -214.98338318 -16.73357773 -17.13547516 -214.98338318 -18.4822731 -14.4322319 -214.98338318 -19.98797035 -11.60159302 -214.98338318 -21.23781967 -8.66770744 -214.98338318 -22.22115898 -5.65560627 -214.98338318 -22.92959785 -2.59098744 -214.98338318 -23.35709381 0.50000262 -214.98338318 -23.5 3.59099269 -214.98338318 -23.35709381 6.65561152 -214.98338318 -22.92959785 9.66771317 -214.98338318 -22.22115898 12.60159874 -214.98338318 -21.23781967 15.43223763 -214.98338318 -19.98797035 18.13548088 -214.98338318 -18.4822731 20.68826294 -214.98338318 -16.73357773 23.0688076 -214.98338318 -14.75679874 25.25680161 -214.98338318 -12.56880379 27.23357964 -214.98338318 -10.18826008 28.98227692 -214.98338318 -7.63547754 30.48797226 -214.98338318 -4.93223476 31.73782158 -214.98338318 -2.10159564 32.72116089 -214.98338318 0.83228999 33.42959976 -214.98338318 3.84439135 33.85709763 -214.98338318 6.90900993 -39.17391205 -29.00502777 4.90196371 -33 -29.38070107 4.96354437 -39.18626785 -29.98338509 5 -33 -30.58606911 4.96354437 -39.17391205 -30.9617424 4.90196371 -33 -31.7564106 4.67508125 -39.13463974 -31.92876625 4.60601902 -33 -32.82370758 4.11491919 -39.06549072 -32.81303406 4.12062788 -38.9673233 -33.56007767 3.49384689 -33 -33.7259407 3.31561327 -38.83382797 -34.17007828 2.73088098 -33 -34.41066742 2.32361579 -38.66004181 -34.63017654 1.8458333 -33 -34.8380928 1.19657838 -38.44944763 -34.90142059 0.8941552 -33 -34.98338699 0 -38.2155304 -34.98306274 -0.0552033 -37.95716476 -34.88083649 -1.00098956 -33 -34.8380928 -1.19657838 -37.67861938 -34.59468842 -1.93284249 -33 -34.41066742 -2.32361579 -37.3998642 -34.1309433 -2.79020119 -33 -33.7259407 -3.31561327 -37.14344406 -33.52773666 -3.52666712 -33 -32.82370758 -4.11491919 -36.91902924 -32.79150009 -4.13538933 -36.73618698 -31.91818047 -4.61047888 -33 -31.7564106 -4.67508125 -36.62041473 -30.95891762 -4.9025054 -33 -30.58606911 -4.96354437 -36.58098984 -29.98338509 -5 -33 -29.38070107 -4.96354437 -36.62041473 -29.00785255 -4.9025054 -33 -28.21036148 -4.67508125 -36.73618698 -28.04858971 -4.61047888 -33 -27.14306068 -4.11491919 -36.91902924 -27.17527008 -4.13538933 -37.14344406 -26.43903351 -3.52666712 -33 -26.24083138 -3.31561327 -37.3998642 -25.83582878 -2.79020119 -33 -25.55610466 -2.32361579 -37.67861938 -25.37208176 -1.93284249 -33 -25.12867546 -1.19657838 -37.95716476 -25.08593369 -1.00098956 -33 -24.98338509 0 -38.2155304 -24.98370552 -0.0552033 -38.44944763 -25.06535149 0.8941552 -33 -25.12867546 1.19657838 -38.66004181 -25.33659363 1.8458333 -33 -25.55610466 2.32361579 -38.83382797 -25.7966938 2.73088098 -33 -26.24083138 3.31561327 -38.9673233 -26.40669441 3.49384689 -33 -27.14306068 4.11491919 -39.06549072 -27.15373611 4.12062788 -39.13463974 -28.03800392 4.60601902 -33 -28.21036148 4.67508125 34 -34.8380928 1.19657838 39.44945145 -34.90142059 0.8941552 34 -34.98338699 0 39.21553802 -34.98306274 -0.0552033 38.95717239 -34.88083649 -1.00098956 39.66004944 -34.63017654 1.8458333 34 -34.41066742 2.32361579 39.83383179 -34.17007828 2.73088098 34 -33.7259407 3.31561327 39.96732712 -33.56007767 3.49384689 34 -32.82370758 4.11491919 40.06549454 -32.81303406 4.12062788 40.13464737 -31.92876625 4.60601902 34 -31.7564106 4.67508125 40.17391586 -30.9617424 4.90196371 34 -30.58606911 4.96354437 40.18627167 -29.98338509 5 34 -29.38070107 4.96354437 40.17391586 -29.00502777 4.90196371 34 -28.21036148 4.67508125 40.13464737 -28.03800392 4.60601902 34 -27.14306068 4.11491919 40.06549454 -27.15373611 4.12062788 39.96732712 -26.40669441 3.49384689 34 -26.24083138 3.31561327 39.83383179 -25.7966938 2.73088098 34 -25.55610466 2.32361579 39.66004944 -25.33659363 1.8458333 34 -25.12867546 1.19657838 39.44945145 -25.06535149 0.8941552 34 -24.98338509 0 39.21553802 -24.98370552 -0.0552033 38.95717239 -25.08593369 -1.00098956 34 -25.12867546 -1.19657838 38.67862701 -25.37208176 -1.93284249 34 -25.55610466 -2.32361579 38.39987183 -25.83582878 -2.79020119 34 -26.24083138 -3.31561327 38.14345169 -26.43903351 -3.52666712 34 -27.14306068 -4.11491919 37.91903687 -27.17527008 -4.13538933 37.73619461 -28.04858971 -4.61047888 34 -28.21036148 -4.67508125 37.62041855 -29.00785255 -4.9025054 34 -29.38070107 -4.96354437 37.58099365 -29.98338509 -5 34 -30.58606911 -4.96354437 37.62041855 -30.95891762 -4.9025054 34 -31.7564106 -4.67508125 37.73619461 -31.91818047 -4.61047888 34 -32.82370758 -4.11491919 37.91903687 -32.79150009 -4.13538933 38.14345169 -33.52773666 -3.52666712 34 -33.7259407 -3.31561327 38.39987183 -34.1309433 -2.79020119 34 -34.41066742 -2.32361579 38.67862701 -34.59468842 -1.93284249 34 -34.8380928 -1.19657838 40.50000381 -24.9833889 10 40.50023651 -24.02226639 9.95215607 34.00000381 -24.9833889 10 34 -23.41904449 9.87688351 40.50001144 -23.04767418 9.80810547 34 -21.89321899 9.51056576 40.49791718 -22.07791138 9.56707287 40.49255753 -21.13127899 9.22828388 34 -20.44348335 8.91006565 40.48169327 -20.22501564 8.79354191 40.46253204 -19.37240219 8.27421474 34 -19.10553551 8.09016991 40.43275833 -18.58579826 7.68388414 34 -17.91232109 7.07106781 40.39003754 -17.87750626 7.03607035 40.33010864 -17.23607826 6.32015848 34 -16.89321899 5.87785244 40.24892044 -16.65473366 5.52950335 34 -16.0733223 4.53990507 40.14397812 -16.14630127 4.67705917 40.01277161 -15.72361183 3.77577949 34 -15.47282314 3.09017015 39.85321426 -15.39670372 2.8397007 39.66724014 -15.1657238 1.88629138 34 -15.10650444 1.56434476 39.45829773 -15.02863216 0.93368131 34 -14.98338795 1.5E-07 39.22983551 -14.98338795 1.5E-07 34 -44.98339462 10 40.50000381 -224.98338318 10 34 -44.98339462 -11.85749722 34 -14.98339272 -11.85749722 -39.49999619 -24.9833889 10 -32.99999619 -24.9833889 10 -39.5002327 -24.02226639 9.95215607 -33 -23.41904449 9.87688351 -39.50000381 -23.04767418 9.80810547 -33 -21.89321899 9.51056576 -39.49791336 -22.07791138 9.56707287 -39.49255371 -21.13127899 9.22828388 -33 -20.44348335 8.91006565 -39.48168564 -20.22501564 8.79354191 -39.46252823 -19.37240219 8.27421474 -33 -19.10553551 8.09016991 -39.4327507 -18.58579826 7.68388414 -33 -17.91232109 7.07106781 -39.39003372 -17.87750626 7.03607035 -39.33010101 -17.23607826 6.32015848 -33 -16.89321899 5.87785244 -39.24891663 -16.65473366 5.52950335 -33 -16.0733223 4.53990507 -39.14397049 -16.14630127 4.67705917 -39.01276779 -15.72361183 3.77577949 -33 -15.47282314 3.09017015 -38.85321045 -15.39670372 2.8397007 -38.66723633 -15.1657238 1.88629138 -33 -15.10650444 1.56434476 -38.45829391 -15.02863216 0.93368131 -33 -14.98338795 1.5E-07 -38.2298317 -14.98338795 1.5E-07 -37.28906631 -14.98338795 -3.11435366 -36.09832001 -14.98338795 -6.14195395 -34.66547394 -14.98338795 -9.06277275 -33 -14.98339272 -11.85748863 -33 -44.98339462 10 -33 -44.98339462 -11.85748863 -32.85709381 -44.98339462 6.90900993 -32.42959595 -44.98339462 3.84439135 -31.72115707 -44.98339462 0.83228999 -30.73781776 -44.98339462 -2.10159564 -29.48796844 -44.98339462 -4.93223476 -27.98227119 -44.98339462 -7.63547754 -26.23357391 -44.98339462 -10.18826008 -30.99084854 -44.98339462 -14.66427135 -24.25679588 -44.98339462 -12.56880379 -22.06880188 -44.98339462 -14.75679874 -28.74719429 -44.98339462 -17.28738594 -19.68825722 -44.98339462 -16.73357773 -26.28574562 -44.98339462 -19.70730019 -17.13547516 -44.98339462 -18.4822731 -23.62483215 -44.98339462 -21.90599251 -20.78426743 -44.98339462 -23.86709023 -14.4322319 -44.98339462 -19.98797035 -17.78520584 -44.98339462 -25.57599068 -11.60159302 -44.98339462 -21.23781967 -14.64997864 -44.98339462 -27.01996803 -8.66770744 -44.98339462 -22.22115898 -11.40193558 -44.98339462 -28.18826866 -5.65560627 -44.98339462 -22.92959785 -8.06526089 -44.98339462 -29.07219315 -2.59098744 -44.98339462 -23.35709381 -4.66480446 -44.98339462 -29.66515732 -1.22588706 -44.98339462 -29.96274948 0.50000262 -44.98339462 -23.5 2.22588277 -44.98339462 -29.96274948 3.59099269 -44.98339462 -23.35709381 5.66480017 -44.98339462 -29.66515923 9.06525707 -44.98339462 -29.07219505 6.65561152 -44.98339462 -22.92959785 12.40193081 -44.98339462 -28.18827248 9.66771317 -44.98339462 -22.22115898 15.64997482 -44.98339462 -27.01997185 12.60159874 -44.98339462 -21.23781967 18.78520203 -44.98339462 -25.5759964 15.43223763 -44.98339462 -19.98797035 21.78426361 -44.98339462 -23.86709595 18.13548088 -44.98339462 -18.4822731 24.62483025 -44.98339462 -21.90599823 27.28574371 -44.98339462 -19.70730591 20.68826294 -44.98339462 -16.73357773 29.74719429 -44.98339462 -17.28739357 23.0688076 -44.98339462 -14.75679874 31.99084854 -44.98339462 -14.66427803 25.25680161 -44.98339462 -12.56880379 27.23357964 -44.98339462 -10.18826008 28.98227692 -44.98339462 -7.63547754 30.48797226 -44.98339462 -4.93223476 31.73782158 -44.98339462 -2.10159564 32.72116089 -44.98339462 0.83228999 33.42959976 -44.98339462 3.84439135 33.85709763 -44.98339462 6.90900993 38.28907013 -14.98338795 -3.1143558 37.09832382 -14.98338795 -6.14195824 35.66547394 -14.98338795 -9.06277943 -39.355896 -84.98339081 6.60776329 -38.92463303 -84.98339081 3.23996735 -38.21390152 -84.98339081 -0.06149888 -37.21509552 -84.98339081 -3.32559156 -35.94913864 -84.98339081 -6.4760499 40.35590363 -84.98339081 6.60776329 39.92464066 -84.98339081 3.23996735 39.21390533 -84.98339081 -0.06149888 38.21509933 -84.98339081 -3.32559156 36.94914246 -84.98339081 -6.4760499 40.35590363 -154.98338318 6.60776329 40.35590363 -224.98338318 6.60776329 39.92464066 -154.98338318 3.23996735 39.92464066 -224.98338318 3.23996735 39.2116127 -154.98338318 -0.07031085 39.20932007 -224.98338318 -0.0791223 38.21509933 -154.98338318 -3.32559156 38.21509933 -224.98338318 -3.32559156 36.94914246 -154.98338318 -6.4760499 36.94914246 -224.98338318 -6.4760499 35.42056656 -154.98338318 -9.50779724 35.42056656 -224.98338318 -9.50779724 33.64038849 -154.98338318 -12.39899158 33.64038849 -224.98338318 -12.39899158 31.62143326 -154.98338318 -15.12879944 31.62143326 -224.98338318 -15.12879944 29.37824631 -154.98338318 -17.67755508 29.37824631 -224.98338318 -17.67755508 26.92699242 -154.98338318 -20.02689171 26.92699242 -224.98338318 -20.02689171 24.28532982 -154.98338318 -22.15988541 24.28532982 -224.98338318 -22.15988541 21.47229385 -154.98338318 -24.06116486 21.47229385 -224.98338318 -24.06116486 18.50815201 -154.98338318 -25.71703339 18.50815201 -224.98338318 -25.71703339 15.41426182 -154.98338318 -27.11556053 15.41426182 -224.98338318 -27.11556053 12.21291351 -154.98338318 -28.24666977 12.21291351 -224.98338318 -28.24666977 8.92717361 -154.98338318 -29.10220909 8.92717361 -224.98338318 -29.10220909 5.58071518 -154.98338318 -29.67601776 5.58071518 -224.98338318 -29.67601776 2.20862985 -154.98338318 -29.96349144 2.19765067 -224.98338318 -29.96395874 -1.19764555 -224.98338318 -29.96395874 -1.20862842 -154.98338318 -29.96348953 -4.58071041 -224.98338318 -29.67601776 -4.58071041 -154.98338318 -29.67601776 -7.92716837 -154.98338318 -29.10220909 -7.92716837 -84.98339081 -29.10220909 -11.21290779 -84.98339081 -28.24666977 -14.4142561 -84.98339081 -27.11556053 -17.50814629 -84.98339081 -25.71703339 -20.47228813 -84.98339081 -24.06116486 -23.2853241 -84.98339081 -22.15988541 -25.92698669 -84.98339081 -20.02689171 -28.37824059 -84.98339081 -17.67755508 -30.62142754 -84.98339081 -15.12879944 -32.64038467 -84.98339081 -12.39899158 -34.42056274 -84.98339081 -9.50779724 -7.92716837 -224.98338318 -29.10220909 -11.21290779 -154.98338318 -28.24666977 -11.21290779 -224.98338318 -28.24666977 -14.4142561 -154.98338318 -27.11556053 -14.4142561 -224.98338318 -27.11556053 -17.50814629 -154.98338318 -25.71703339 -17.50814629 -224.98338318 -25.71703339 -20.47228813 -154.98338318 -24.06116486 -20.47228813 -224.98338318 -24.06116486 -23.2853241 -154.98338318 -22.15988541 -23.2853241 -224.98338318 -22.15988541 -25.92698669 -154.98338318 -20.02689171 -25.92698669 -224.98338318 -20.02689171 -28.37824059 -154.98338318 -17.67755508 -28.37824059 -224.98338318 -17.67755508 -30.62142754 -154.98338318 -15.12879944 -30.62142754 -224.98338318 -15.12879944 -32.64038467 -154.98338318 -12.39899158 -32.64038467 -224.98338318 -12.39899158 -34.42056274 -154.98338318 -9.50779724 -34.42056274 -224.98338318 -9.50779724 -35.94913864 -154.98338318 -6.4760499 -35.94913864 -224.98338318 -6.4760499 -37.21509552 -154.98338318 -3.32559156 -38.21160889 -154.98338318 -0.07031085 -38.92463303 -154.98338318 3.23996735 -37.21509552 -224.98338318 -3.32559156 -38.20931625 -224.98338318 -0.0791223 -38.92463303 -224.98338318 3.23996735 -39.355896 -154.98338318 6.60776329 -39.355896 -224.98338318 6.60776329 -39.49999619 -224.98338318 10 -4.58071041 -84.98339081 -29.67601776 -1.21961117 -84.98339081 -29.96301842 2.21960902 -84.98339081 -29.96302032 5.58071518 -84.98339081 -29.67601776 8.92717361 -84.98339081 -29.10220909 12.21291351 -84.98339081 -28.24666977 15.41426182 -84.98339081 -27.11556053 18.50815201 -84.98339081 -25.71703339 21.47229385 -84.98339081 -24.06116486 24.28532982 -84.98339081 -22.15988541 26.92699242 -84.98339081 -20.02689171 29.37824631 -84.98339081 -17.67755508 31.62143326 -84.98339081 -15.12879944 33.64038849 -84.98339081 -12.39899158 35.42056656 -84.98339081 -9.50779724 -32.85709381 -158.31672668 6.90900993 -32.85709381 -101.65005493 6.90900993 -32.42959595 -101.65005493 3.84439135 -31.72115707 -101.65005493 0.83228999 -30.73781776 -101.65005493 -2.10159564 -29.48796844 -101.65005493 -4.93223476 -27.98227119 -101.65005493 -7.63547754 -26.23357391 -101.65005493 -10.18826008 -24.25679588 -101.65005493 -12.56880379 -22.06880188 -101.65005493 -14.75679874 -19.68825722 -101.65005493 -16.73357773 -17.13547516 -101.65005493 -18.4822731 -14.4322319 -101.65005493 -19.98797035 -11.60159302 -101.65005493 -21.23781967 -8.66770744 -101.65005493 -22.22115898 -5.65560627 -101.65005493 -22.92959785 -2.59098744 -101.65005493 -23.35709381 0.50000262 -101.65005493 -23.5 3.59099269 -101.65005493 -23.35709381 6.65561152 -101.65005493 -22.92959785 9.66771317 -101.65005493 -22.22115898 12.60159874 -101.65005493 -21.23781967 15.43223763 -101.65005493 -19.98797035 18.13548088 -101.65005493 -18.4822731 20.68826294 -101.65005493 -16.73357773 23.0688076 -101.65005493 -14.75679874 25.25680161 -101.65005493 -12.56880379 27.23357964 -101.65005493 -10.18826008 28.98227692 -101.65005493 -7.63547754 30.48797226 -101.65005493 -4.93223476 31.73782158 -101.65005493 -2.10159564 32.72116089 -101.65005493 0.83228999 33.42959976 -101.65005493 3.84439135 33.85709763 -101.65005493 6.90900993 33.85709763 -158.31672668 6.90900993 33.42959976 -158.31672668 3.84439135 32.72116089 -158.31672668 0.83228999 31.73782158 -158.31672668 -2.10159564 30.48797226 -158.31672668 -4.93223476 28.98227692 -158.31672668 -7.63547754 27.23357964 -158.31672668 -10.18826008 25.25680161 -158.31672668 -12.56880379 23.0688076 -158.31672668 -14.75679874 20.68826294 -158.31672668 -16.73357773 18.13548088 -158.31672668 -18.4822731 15.43223763 -158.31672668 -19.98797035 12.60159874 -158.31672668 -21.23781967 9.66771317 -158.31672668 -22.22115898 6.65561152 -158.31672668 -22.92959785 3.59099269 -158.31672668 -23.35709381 0.50000262 -158.31672668 -23.5 -2.59098744 -158.31672668 -23.35709381 -5.65560627 -158.31672668 -22.92959785 -8.66770744 -158.31672668 -22.22115898 -11.60159302 -158.31672668 -21.23781967 -14.4322319 -158.31672668 -19.98797035 -17.13547516 -158.31672668 -18.4822731 -19.68825722 -158.31672668 -16.73357773 -22.06880188 -158.31672668 -14.75679874 -24.25679588 -158.31672668 -12.56880379 -26.23357391 -158.31672668 -10.18826008 -27.98227119 -158.31672668 -7.63547754 -29.48796844 -158.31672668 -4.93223476 -30.73781776 -158.31672668 -2.10159564 -31.72115707 -158.31672668 0.83228999 -32.42959595 -158.31672668 3.84439135</float_array>
          <technique_common>
            <accessor source="#pos_0-array" count="1800" stride="3">
              <param name="X" type="float"/>
              <param name="Y" type="float"/>
              <param name="Z" type="float"/>
            </accessor>
          </technique_common>
        </source>
        <source id="norm_0">
          <float_array id="norm_0-array" count="2076">0.99707 0 -0.07655 0.99707 0 -0.07655 0.99707 0 0.07655 0.99707 -0 0.07655 0.9737 -0 0.22785 0.9737 0 0.22785 0.9275 0 0.37382 0.9275 -0 0.37382 0.85957 0 0.51102 0.85957 0 0.51102 0.77149 0 0.63624 0.77149 0 0.63624 0.66533 0 0.74655 0.66533 -0 0.74655 0.54357 0 0.83937 0.54357 0 0.83937 0.40907 0 0.9125 0.40907 -0 0.9125 0.26498 0 0.96425 0.26498 -0 0.96425 0.11468 -0 0.9934 0.11468 -0 0.9934 -0.0383 0 0.99927 -0.0383 0 0.99927 -0.19039 0 0.98171 -0.19039 -0 0.98171 -0.33802 -0 0.94114 -0.33802 -0 0.94114 -0.47772 0 0.87851 -0.47772 -0 0.87851 -0.60623 -0 0.79529 -0.60623 0 0.79529 -0.72052 0 0.69343 -0.72052 -0 0.69343 -0.81793 -0 0.57532 -0.81793 0 0.57532 -0.89617 0 0.44372 -0.89617 -0 0.44372 -0.9534 0 0.30172 -0.9534 -0 0.30172 -0.98828 0 0.15265 -0.98828 -0 0.15265 -1 -0 0 -0.98828 0 -0.15265 -0.98828 -0 -0.15265 -0.9534 0 -0.30172 -0.9534 -0 -0.30172 -0.89617 -0 -0.44372 -0.89617 -0 -0.44372 -0.81793 -0 -0.57532 -0.81793 0 -0.57532 -0.72052 0 -0.69343 -0.72052 -0 -0.69343 -0.60623 -0 -0.79529 -0.60623 0 -0.79529 -0.47772 0 -0.87851 -0.47772 -0 -0.87851 -0.33802 -0 -0.94114 -0.33802 0 -0.94114 -0.19039 0 -0.98171 -0.19039 -0 -0.98171 -0.0383 -0 -0.99927 -0.0383 -0 -0.99927 0.11468 0 -0.9934 0.11468 0 -0.9934 0.26498 0 -0.96425 0.26498 -0 -0.96425 0.40907 0 -0.9125 0.40907 -0 -0.9125 0.54357 -0 -0.83937 0.54357 0 -0.83937 0.66533 0 -0.74655 0.66533 0 -0.74655 0.77149 0 -0.63624 0.77149 -0 -0.63624 0.85957 -0 -0.51102 0.85957 0 -0.51102 0.9275 0 -0.37382 0.9275 0 -0.37382 0.9737 0 -0.22785 0.9737 0 -0.22785 0.99893 -0 0.04618 0.99893 0 0.04618 0.99041 0 0.13816 0.99041 0 0.13816 0.97344 0 0.22895 0.97344 -0 0.22895 0.94816 -0 0.31779 0.94816 -0 0.31779 0.91479 -0 0.40392 0.87362 -0 0.4866 0.87362 -0 0.4866 0.825 -0 0.56514 0.825 0 0.56514 0.76933 0 0.63885 0.76933 -0 0.63885 0.70711 -0 0.70711 0.63885 -0 0.76933 0.63885 -0 0.76933 0.56514 -0 0.825 0.56514 -0 0.825 0.4866 -0 0.87362 0.4866 -0 0.87362 0.40392 -0 0.91479 0.31779 -0 0.94816 0.31779 -0 0.94816 0.22895 -0 0.97344 0.22895 -0 0.97344 0.13816 -0 0.99041 0.13816 -0 0.99041 0.04618 -0 0.99893 -0.04618 0 0.99893 -0.13816 0 0.99041 -0.13816 0 0.99041 -0.22895 0 0.97344 -0.22895 -0 0.97344 -0.31779 -0 0.94816 -0.31779 0 0.94816 -0.40392 0 0.91479 -0.4866 0 0.87362 -0.56514 0 0.825 -0.63885 0 0.76933 -0.70711 0 0.70711 -0.76933 0 0.63885 -0.825 0 0.56514 -0.825 -0 0.56514 -0.87362 0 0.4866 -0.87362 0 0.4866 -0.91479 0 0.40392 -0.94816 0 0.31779 -0.97344 0 0.22895 -0.99041 0 0.13816 -0.99041 -0 0.13816 -0.99893 -0 0.04618 -0.99893 -0 0.04618 0 1 0 0.00385 -0.09975 -0.995 -0.00589 0 -0.99998 0.00385 0.09975 -0.995 -0.00488 0.23931 -0.97093 0.00254 0.29273 -0.95619 -0.00309 0.46472 -0.88545 2E-05 0.48119 -0.87662 0.00041 0.64278 -0.76605 -0.00393 0.66312 -0.7485 0.00307 0.78131 -0.62413 -0.00572 0.82297 -0.56806 0.00445 0.88762 -0.46056 -0.00633 0.935 -0.3546 0.00399 0.96193 -0.27328 -0.00485 0.9927 -0.12054 0.00097 0.99634 -0.08545 -0.00107 0.99424 0.10717 -0.0038 0.9927 0.12054 0.00338 0.95566 0.29447 -0.00716 0.93499 0.3546 0.00528 0.87884 0.47708 -0.00792 0.82296 0.56805 0.00464 0.77283 0.6346 -0.00641 0.66311 0.7485 0.00121 0.63699 0.77087 -0.00066 0.47798 0.87837 -0.00481 0.46472 0.88545 0.00395 0.29079 0.95678 -0.00828 0.23931 0.97091 0.00656 0.09918 0.99505 -0.01018 0 0.99995 0.00656 -0.09918 0.99505 -0.00828 -0.23931 0.97091 0.00395 -0.29079 0.95678 -0.00481 -0.46472 0.88545 -0.00066 -0.47798 0.87837 0.00121 -0.63699 0.77087 -0.00641 -0.66311 0.7485 0.00464 -0.77283 0.6346 -0.00792 -0.82296 0.56805 0.00528 -0.87884 0.47708 -0.00716 -0.93499 0.3546 0.00338 -0.95566 0.29447 -0.0038 -0.9927 0.12054 -0.00107 -0.99424 0.10717 0.00097 -0.99634 -0.08545 -0.00485 -0.9927 -0.12054 0.00399 -0.96193 -0.27328 -0.00633 -0.935 -0.3546 0.00445 -0.88762 -0.46056 -0.00572 -0.82297 -0.56806 0.00307 -0.78131 -0.62413 -0.00393 -0.66312 -0.7485 0.00041 -0.64278 -0.76605 2E-05 -0.48119 -0.87662 -0.00309 -0.46472 -0.88545 0.00254 -0.29273 -0.95619 -0.00488 -0.23931 -0.97093 0.00485 0.9927 -0.12054 -0.00097 0.99634 -0.08545 0.00107 0.99424 0.10717 -0.00399 0.96193 -0.27328 0.00633 0.935 -0.3546 -0.00445 0.88762 -0.46056 0.00572 0.82297 -0.56806 -0.00307 0.78131 -0.62413 0.00393 0.66312 -0.7485 -0.00041 0.64278 -0.76605 -2E-05 0.48119 -0.87662 0.00309 0.46472 -0.88545 -0.00254 0.29273 -0.95619 0.00488 0.23931 -0.97093 -0.00385 0.09975 -0.995 0.00589 0 -0.99998 -0.00385 -0.09975 -0.995 0.00488 -0.23931 -0.97093 -0.00254 -0.29273 -0.95619 0.00309 -0.46472 -0.88545 -2E-05 -0.48119 -0.87662 -0.00041 -0.64278 -0.76605 0.00393 -0.66312 -0.7485 -0.00307 -0.78131 -0.62413 0.00572 -0.82297 -0.56806 -0.00445 -0.88762 -0.46056 0.00633 -0.935 -0.3546 -0.00399 -0.96193 -0.27328 0.00485 -0.9927 -0.12054 -0.00097 -0.99634 -0.08545 0.00107 -0.99424 0.10717 0.0038 -0.9927 0.12054 -0.00338 -0.95566 0.29447 0.00716 -0.93499 0.3546 -0.00528 -0.87884 0.47708 0.00792 -0.82296 0.56805 -0.00464 -0.77283 0.6346 0.00641 -0.66311 0.7485 -0.00121 -0.63699 0.77087 0.00066 -0.47798 0.87837 0.00481 -0.46472 0.88545 -0.00395 -0.29079 0.95678 0.00828 -0.23931 0.97091 -0.00656 -0.09918 0.99505 0.01018 0 0.99995 -0.00656 0.09918 0.99505 0.00828 0.23931 0.97091 -0.00395 0.29079 0.95678 0.00481 0.46472 0.88545 0.00066 0.47798 0.87837 -0.00121 0.63699 0.77087 0.00641 0.66311 0.7485 -0.00464 0.77283 0.6346 0.00792 0.82296 0.56805 -0.00528 0.87884 0.47708 0.00716 0.93499 0.3546 -0.00338 0.95566 0.29447 0.0038 0.9927 0.12054 0 0.04972 0.99876 -0.00426 0.07846 0.99691 0.00211 0.14622 0.98925 -0.00305 0.23344 0.97237 -0.00158 0.24121 0.97047 0.00139 0.33697 0.94152 -0.00474 0.38268 0.92387 0.00163 0.43253 0.90162 -0.00218 0.52016 0.85406 -0.00271 0.5225 0.85264 0.00201 0.60029 0.79978 -0.00445 0.64944 0.7604 0.00036 0.67491 0.7379 -0.0004 0.74477 0.66732 -0.00419 0.7604 0.64944 0.00226 0.80577 0.59223 -0.00341 0.85264 0.5225 -0.00124 0.85877 0.51236 0.00128 0.90545 0.42446 -0.0051 0.92387 0.38268 0.00182 0.94418 0.32943 -0.00254 0.97177 0.23592 -0.0031 0.97237 0.23344 0.00228 0.98987 0.14195 -0.00516 0.9969 0.07846 -0 0.99883 0.0484 -0 0 1 -1 0 0 -1 -0 0 -1 0 0 -1 0 0 -1 0 0 -1 -0 0 -1 0 0 -1 0 -0 -1 0 -0 -1 0 -0 -1 0 -0 0.00426 0.07846 0.99691 -0.00211 0.14622 0.98925 0.00305 0.23344 0.97237 0.00158 0.24121 0.97047 -0.00139 0.33697 0.94152 0.00474 0.38268 0.92387 -0.00163 0.43253 0.90162 0.00218 0.52016 0.85406 0.00271 0.5225 0.85264 -0.00201 0.60029 0.79978 0.00445 0.64944 0.7604 -0.00036 0.67491 0.7379 0.0004 0.74477 0.66732 0.00419 0.7604 0.64944 -0.00226 0.80577 0.59223 0.00341 0.85264 0.5225 0.00124 0.85877 0.51236 -0.00128 0.90545 0.42446 0.0051 0.92387 0.38268 -0.00182 0.94418 0.32943 0.00254 0.97177 0.23592 0.0031 0.97237 0.23344 -0.00228 0.98987 0.14195 0.00516 0.9969 0.07846 0 1 -0 1 0 0 1 -0 -0 1 0 -0 1 0 -0 1 -0 -0 1 -0 -0 1 0 -0 -0 1 -0 -0.99271 -0.00046 -0.12051 -0.99369 -0.00021 -0.11217 -0.99252 0.00018 -0.12208 -0.9919 -0.00067 -0.12702 -0.99156 -0.00059 -0.12966 -0.99008 -0.0003 -0.1405 -0.98797 -6E-05 -0.15467 -0.98503 3E-05 -0.17238 -0.98128 -0.00018 -0.19259 -0.9776 -0.00069 -0.21046 -0.97641 -0.00047 -0.21593 -0.97096 -0 -0.23924 -0.96465 0 -0.26352 -0.95807 -0.00046 -0.28652 -0.95623 -0.00071 -0.29261 -0.95097 -0.0002 -0.3093 -0.9444 3E-05 -0.32879 -0.93825 -5E-05 -0.34596 -0.93309 -0.00029 -0.35964 -0.92789 -0.00065 -0.37286 -0.92877 -0.00074 -0.37065 -0.92545 -0.00046 -0.37888 -0.92064 -0.0001 -0.39042 -0.92451 0.00073 -0.38117 -0.92783 0.00158 -0.37301 -0.93061 0.00253 -0.36601 -0.93199 0.00207 -0.36249 -0.93805 0.00055 -0.34649 -0.94444 -0.00018 -0.32869 -0.95092 0.00047 -0.30943 -0.95727 0.00301 -0.28917 -0.95789 0.0026 -0.28713 -0.96465 8E-05 -0.26353 -0.97096 -7E-05 -0.23924 -0.97135 8E-05 -0.23767 -0.97638 -1E-05 -0.21607 -0.97678 0.00016 -0.21422 -0.98127 7E-05 -0.19264 -0.98151 0.00017 -0.19141 -0.98503 -3E-05 -0.17238 -0.9858 0.00024 -0.16795 -0.98793 -0.00012 -0.15487 -0.98958 0.00022 -0.14396 -0.99002 7E-05 -0.14092 -0.99131 1E-05 -0.13152 -0.99233 0.00015 -0.12358 0.99242 0.00022 -0.1229 0.99369 -0.00021 -0.11217 0.99271 -0.00046 -0.12051 0.99162 -0.00074 -0.12917 0.9919 -0.00066 -0.12702 0.99008 -0.0003 -0.1405 0.98797 -6E-05 -0.15467 0.98503 3E-05 -0.17238 0.98128 -0.00018 -0.19259 0.9776 -0.00069 -0.21046 0.97641 -0.00047 -0.21593 0.97096 -0 -0.23924 0.96465 0 -0.26352 0.95807 -0.00046 -0.28652 0.95623 -0.00071 -0.29261 0.95097 -0.0002 -0.3093 0.9444 3E-05 -0.32879 0.93825 -5E-05 -0.34596 0.93309 -0.00029 -0.35964 0.92896 -0.00058 -0.37019 0.92789 -0.00067 -0.37286 0.92545 -0.00046 -0.37888 0.92064 -0.0001 -0.39042 0.92451 0.00073 -0.38117 0.92783 0.00158 -0.37301 0.93061 0.00253 -0.36601 0.93199 0.00207 -0.36249 0.93805 0.00055 -0.34649 0.94444 -0.00018 -0.32869 0.95092 0.00047 -0.30943 0.95727 0.00301 -0.28917 0.95789 0.0026 -0.28713 0.96465 8E-05 -0.26353 0.97096 -7E-05 -0.23924 0.97135 8E-05 -0.23767 0.97638 -1E-05 -0.21607 0.97678 0.00016 -0.21422 0.98127 7E-05 -0.19264 0.98151 0.00017 -0.19141 0.98503 -3E-05 -0.17238 0.9858 0.00024 -0.16795 0.98793 -0.00012 -0.15487 0.98958 0.00022 -0.14396 0.99002 7E-05 -0.14092 0.99131 1E-05 -0.13152 0.99252 0.00018 -0.12208 0.99477 -6E-05 -0.10219 0.99652 3E-05 -0.0834 0.99783 -9E-05 -0.06589 0.99871 -0.00033 -0.05082 0.99857 -0.00027 -0.05341 0.9991 0 -0.04244 0.9919 0 -0.12702 0.97758 0 -0.21057 0.97756 -1E-05 -0.21068 0.9562 1E-05 -0.29271 0.95617 0 -0.29282 0.92789 0 -0.37286 0.89293 0 -0.4502 0.85153 0 -0.52431 0.804 0 -0.59463 0.75067 0 -0.66067 0.75067 -0 -0.66067 0.69194 -0 -0.72196 0.69194 0 -0.72196 0.62822 0 -0.77804 0.55997 0 -0.82851 0.48769 0 -0.87301 0.4119 0 -0.91123 0.33314 0 -0.94288 0.25198 0 -0.96773 0.169 0 -0.98562 0.08494 0 -0.99639 0.08481 -1E-05 -0.9964 0 1E-05 -1 0.99931 -0.00013 -0.03708 0.99968 -6E-05 -0.02511 0.99987 -2E-05 -0.01589 0.99996 -1E-05 -0.00872 1 -0 -0.00159 0.99999 -0 0.00492 -0 1E-05 -1 -0.08481 -1E-05 -0.9964 -0.08494 0 -0.99639 -0.169 -0 -0.98562 -0.25198 -0 -0.96773 -0.25198 -0.00014 -0.96773 -0.25608 0.0002 -0.96666 -0.33314 -0.0002 -0.94288 -0.33846 0.00025 -0.94098 -0.4119 -0.00025 -0.91123 -0.41833 0.00031 -0.9083 -0.48769 -0.0003 -0.87301 -0.49508 0.00035 -0.86885 -0.55997 -0.00035 -0.82851 -0.56814 0.0004 -0.82293 -0.62822 -0.00039 -0.77804 -0.63698 0.00045 -0.77088 -0.69194 -0.00044 -0.72196 -0.70106 0.00049 -0.7131 -0.75067 -0.00048 -0.66067 -0.75993 0.00053 -0.65 -0.804 -0.00052 -0.59463 -0.81314 0.00057 -0.58206 -0.85153 -0.00056 -0.52431 -0.85777 0.00027 -0.51404 -0.89293 -0.00026 -0.4502 -0.89779 0.00019 -0.44042 -0.33314 -0 -0.94288 -0.4119 -0 -0.91123 -0.48769 -0 -0.87301 -0.55997 -0 -0.82851 -0.62822 -0 -0.77804 -0.69194 -0 -0.72196 -0.75067 -0 -0.66067 -0.804 -0 -0.59463 -0.85153 -0 -0.52431 -0.89293 -0 -0.4502 -0.92789 -0 -0.37286 -0.9562 -0 -0.29271 -0.95623 1E-05 -0.29261 -0.97758 -1E-05 -0.21057 -0.9776 0 -0.21046 -0.9919 -0 -0.12702 -0.95617 -0 -0.29282 -0.9562 1E-05 -0.29271 -0.97756 -1E-05 -0.21068 -0.97758 0 -0.21057 -0.9991 -0 -0.04244 -0.99988 -0.00154 -0.01517 -0.99989 -0.00144 -0.01447 -0.99999 -0.00049 -0.00488 -0.99981 -0.00134 -0.01955 -0.99963 -0.00103 -0.02712 -0.99928 -0.00066 -0.03795 -0.99871 -0.00033 -0.05082 -0.99783 -9E-05 -0.06589 -0.99652 3E-05 -0.0834 -0.99477 -6E-05 -0.10219 -0.85903 0 -0.51193 -0.17179 0.00015 -0.98513 -0.169 -9E-05 -0.98562 -0.08508 0 -0.99637 -0.08494 -1E-05 -0.99639 -0 1E-05 -1 -0 1E-05 -1 0.08494 -1E-05 -0.99639 -0.08621 9E-05 -0.99628 -0.08508 -1E-05 -0.99637 -0 1E-05 -1 -0 1E-05 -1 0.08508 -1E-05 -0.99637 0.08621 9E-05 -0.99628 0.169 -9E-05 -0.98562 0.17179 0.00015 -0.98513 0.25198 -0.00014 -0.96773 0.25608 0.0002 -0.96666 0.33314 -0.0002 -0.94288 0.33846 0.00025 -0.94098 0.4119 -0.00025 -0.91123 0.41833 0.00031 -0.9083 0.48769 -0.0003 -0.87301 0.49508 0.00035 -0.86885 0.55997 -0.00035 -0.82851 0.56814 0.0004 -0.82293 0.62822 -0.00039 -0.77804 0.63698 0.00045 -0.77088 0.69194 -0.00044 -0.72196 0.70106 0.00049 -0.7131 0.75067 -0.00048 -0.66067 0.75993 0.00053 -0.65 0.804 -0.00052 -0.59463 0.81314 0.00057 -0.58206 0.85153 -0.00056 -0.52431 0.85576 0 -0.51737 0.85903 0.00025 -0.51193 0.89293 -0.00026 -0.4502 0.89779 0.00019 -0.44042 0.9562 0 -0.29271 0.95623 1E-05 -0.29261 0.97758 -1E-05 -0.21057 0.9776 0 -0.21046 0.75067 0 -0.66067 0.69194 0 -0.72196 0.08508 0 -0.99637 0.99893 -0 0.04618 0.99893 -0 0.04618 0.99893 0 0.04618 0.99893 0 0.04618 0.99041 0 0.13816 0.99041 0 0.13816 0.97344 0 0.22895 0.97344 0 0.22895 0.94816 0 0.31779 0.94816 -0 0.31779 0.91479 -0 0.40392 0.91479 0 0.40392 0.87362 0 0.4866 0.87362 0 0.4866 0.825 0 0.56514 0.825 0 0.56514 0.76933 0 0.63885 0.76933 -0 0.63885 0.70711 0 0.70711 0.70711 0 0.70711 0.63885 0 0.76933 0.63885 0 0.76933 0.56514 0 0.825 0.4866 0 0.87362 0.4866 -0 0.87362 0.40392 -0 0.91479 0.40392 -0 0.91479 0.31779 -0 0.94816 0.31779 -0 0.94816 0.22895 -0 0.97344 0.22895 0 0.97344 0.13816 0 0.99041 0.13816 -0 0.99041 0.04618 -0 0.99893 0.04618 -0 0.99893 -0.04618 0 0.99893 -0.04618 -0 0.99893 -0.13816 -0 0.99041 -0.13816 0 0.99041 -0.22895 0 0.97344 -0.22895 0 0.97344 -0.31779 0 0.94816 -0.40392 0 0.91479 -0.40392 -0 0.91479 -0.4866 0 0.87362 -0.56514 0 0.825 -0.63885 0 0.76933 -0.63885 0 0.76933 -0.70711 0 0.70711 -0.70711 0 0.70711 -0.76933 0 0.63885 -0.76933 0 0.63885 -0.825 0 0.56514 -0.825 0 0.56514 -0.87362 0 0.4866 -0.87362 -0 0.4866 -0.91479 -0 0.40392 -0.91479 -0 0.40392 -0.94816 -0 0.31779 -0.94816 -0 0.31779 -0.97344 -0 0.22895 -0.97344 0 0.22895 -0.99041 0 0.13816 -0.99893 0 0.04618 -0.99893 -0 0.04618 -0.99893 0 0.04618 -0.99041 0 0.13816 -0.99041 -0 0.13816 -0.97344 -0 0.22895 -0.97344 0 0.22895 -0.94816 0 0.31779 -0.94816 0 0.31779 -0.91479 0 0.40392 -0.91479 0 0.40392 -0.87362 0 0.4866 -0.87362 -0 0.4866 -0.825 -0 0.56514 -0.825 0 0.56514 -0.76933 0 0.63885 -0.70711 0 0.70711 -0.63885 -0 0.76933 -0.56514 -0 0.825 -0.56514 -0 0.825 -0.4866 -0 0.87362 -0.4866 -0 0.87362 -0.40392 0 0.91479 -0.40392 -0 0.91479 -0.31779 -0 0.94816 -0.31779 -0 0.94816 -0.22895 -0 0.97344 -0.13816 0 0.99041 -0.04618 0 0.99893 -0.04618 -0 0.99893 0.04618 0 0.99893 0.04618 0 0.99893 0.13816 0 0.99041 0.13816 -0 0.99041 0.22895 -0 0.97344 0.22895 -0 0.97344 0.31779 -0 0.94816 0.31779 0 0.94816 0.40392 0 0.91479 0.40392 0 0.91479 0.4866 0 0.87362 0.4866 -0 0.87362 0.56514 -0 0.825 0.63885 -0 0.76933 0.63885 -0 0.76933 0.70711 -0 0.70711 0.70711 -0 0.70711 0.76933 0 0.63885 0.76933 -0 0.63885 0.825 -0 0.56514 0.825 -0 0.56514 0.87362 0 0.4866 0.87362 -0 0.4866 0.91479 -0 0.40392 0.91479 0 0.40392 0.94816 0 0.31779 0.94816 -0 0.31779 0.97344 -0 0.22895 0.97344 -0 0.22895 0.99041 -0 0.13816 0.99041 -0 0.13816 0.99041 0 0.13816 0.97344 0 0.22895 0.825 0 0.56514 0.76933 0 0.63885 0.22895 0 0.97344 -0.13816 -0 0.99041 -0.22895 -0 0.97344 -0.63885 0 0.76933 -0.70711 -0 0.70711 -0.70711 -0 0.70711 -0.76933 -0 0.63885 -0 0 1 0 -0 1 -0 -1 0</float_array>
          <technique_common>
            <accessor source="#norm_0-array" count="2076" stride="3">
              <param name="X" type="float"/>
              <param name="Y" type="float"/>
              <param name="Z" type="float"/>
            </accessor>
          </technique_common>
        </source>
        <vertices id="vert_0">
          <input semantic="POSITION" source="#pos_0"/>
        </vertices>
        <triangles count="1207">
          <input semantic="VERTEX" source="#vert_0" offset="0"/>
          <input semantic="NORMAL" source="#norm_0" offset="1"/>
          <p>2 1 1 1 3 1 2 2 3 2 4 2 4 3 3 3 5 3 4 4 5 4 6 4 6 5 5 5 7 5 6 6 7 6 8 6 8 7 7 7 9 7 8 8 9 8 10 8 10 9 9 9 11 9 10 10 11 10 12 10 12 11 11 11 13 11 12 12 13 12 14 12 14 13 13 13 15 13 14 14 15 14 16 14 16 15 15 15 17 15 16 16 17 16 18 16 18 17 17 17 19 17 18 18 19 18 20 18 20 19 19 19 21 19 20 20 21 20 22 20 22 21 21 21 23 21 22 22 23 22 24 22 24 23 23 23 25 23 24 24 25 24 26 24 26 25 25 25 27 25 26 26 27 26 28 26 28 27 27 27 29 27 28 28 29 28 30 28 30 29 29 29 31 29 30 30 31 30 32 30 32 31 31 31 33 31 32 32 33 32 34 32 34 33 33 33 35 33 34 34 35 34 36 34 36 35 35 35 37 35 36 36 37 36 38 36 38 37 37 37 39 37 38 38 39 38 40 38 40 39 39 39 41 39 40 40 41 40 42 40 42 41 41 41 43 41 42 42 43 42 44 42 44 42 43 42 45 42 44 43 45 43 46 43 46 44 45 44 47 44 46 45 47 45 48 45 48 46 47 46 49 46 48 47 49 47 50 47 50 48 49 48 51 48 50 49 51 49 52 49 52 50 51 50 53 50 52 51 53 51 54 51 54 52 53 52 55 52 54 53 55 53 56 53 56 54 55 54 57 54 56 55 57 55 58 55 58 56 57 56 59 56 58 57 59 57 60 57 60 58 59 58 61 58 60 59 61 59 62 59 62 60 61 60 63 60 62 61 63 61 64 61 64 62 63 62 65 62 64 63 65 63 66 63 66 64 65 64 67 64 66 65 67 65 68 65 68 66 67 66 69 66 68 67 69 67 70 67 70 68 69 68 71 68 70 69 71 69 72 69 72 70 71 70 73 70 72 71 73 71 74 71 74 72 73 72 75 72 74 73 75 73 76 73 76 74 75 74 77 74 76 75 77 75 78 75 78 76 77 76 79 76 78 77 79 77 80 77 80 78 79 78 81 78 80 79 81 79 0 79 0 80 81 80 1 80 82 81 83 81 84 81 84 82 83 82 85 82 84 83 85 83 86 83 86 84 85 84 87 84 86 85 87 85 88 85 88 86 87 86 89 86 88 87 89 87 90 87 90 88 89 88 91 88 90 89 91 89 92 89 92 89 91 89 93 89 92 90 93 90 94 90 94 91 93 91 95 91 94 92 95 92 96 92 96 93 95 93 97 93 96 94 97 94 98 94 98 95 97 95 99 95 98 96 99 96 100 96 100 96 99 96 101 96 100 97 101 97 102 97 102 98 101 98 103 98 102 99 103 99 104 99 104 100 103 100 105 100 104 101 105 101 106 101 106 102 105 102 107 102 106 103 107 103 108 103 108 103 107 103 109 103 108 104 109 104 110 104 110 105 109 105 111 105 110 106 111 106 112 106 112 107 111 107 113 107 112 108 113 108 114 108 114 109 113 109 115 109 114 110 115 110 116 110 116 110 115 110 117 110 116 111 117 111 118 111 118 111 117 111 119 111 118 112 119 112 120 112 120 113 119 113 121 113 120 114 121 114 122 114 122 115 121 115 123 115 122 116 123 116 124 116 124 117 123 117 125 117 124 118 125 118 126 118 126 118 125 118 127 118 126 119 127 119 128 119 128 119 127 119 129 119 128 120 129 120 130 120 130 120 129 120 131 120 130 121 131 121 132 121 132 121 131 121 133 121 132 122 133 122 134 122 134 122 133 122 135 122 134 123 135 123 136 123 136 123 135 123 137 123 136 124 137 124 138 124 138 125 137 125 139 125 138 126 139 126 140 126 140 127 139 127 141 127 140 128 141 128 142 128 142 128 141 128 143 128 142 129 143 129 144 129 144 129 143 129 145 129 144 130 145 130 146 130 146 130 145 130 147 130 146 131 147 131 148 131 148 132 147 132 149 132 148 133 149 133 150 133 150 134 149 134 151 134 4 135 152 135 2 135 2 135 152 135 151 135 2 135 151 135 149 135 152 135 4 135 153 135 153 135 4 135 6 135 153 135 6 135 154 135 154 135 6 135 155 135 155 135 6 135 8 135 155 135 8 135 156 135 156 135 8 135 157 135 157 135 8 135 10 135 157 135 10 135 158 135 158 135 10 135 12 135 158 135 12 135 159 135 159 135 12 135 160 135 160 135 12 135 14 135 160 135 14 135 161 135 161 135 14 135 162 135 162 135 14 135 16 135 162 135 16 135 163 135 163 135 16 135 18 135 163 135 18 135 164 135 164 135 18 135 165 135 165 135 18 135 20 135 165 135 20 135 166 135 166 135 20 135 167 135 167 135 20 135 22 135 167 135 22 135 168 135 168 135 22 135 24 135 168 135 24 135 169 135 169 135 24 135 170 135 170 135 24 135 26 135 170 135 26 135 171 135 171 135 26 135 172 135 172 135 26 135 28 135 172 135 28 135 173 135 173 135 28 135 30 135 173 135 30 135 174 135 174 135 30 135 175 135 175 135 30 135 32 135 175 135 32 135 176 135 176 135 32 135 177 135 177 135 32 135 34 135 177 135 34 135 178 135 178 135 34 135 36 135 178 135 36 135 179 135 179 135 36 135 180 135 180 135 36 135 38 135 180 135 38 135 181 135 181 135 38 135 182 135 182 135 38 135 40 135 182 135 40 135 183 135 183 135 40 135 42 135 183 135 42 135 184 135 184 135 42 135 83 135 83 135 42 135 44 135 83 135 44 135 85 135 85 135 44 135 87 135 87 135 44 135 46 135 87 135 46 135 89 135 89 135 46 135 48 135 89 135 48 135 91 135 91 135 48 135 93 135 93 135 48 135 50 135 93 135 50 135 95 135 95 135 50 135 97 135 97 135 50 135 52 135 97 135 52 135 99 135 99 135 52 135 54 135 99 135 54 135 101 135 101 135 54 135 103 135 103 135 54 135 56 135 103 135 56 135 105 135 105 135 56 135 107 135 107 135 56 135 58 135 107 135 58 135 109 135 109 135 58 135 60 135 109 135 60 135 111 135 111 135 60 135 113 135 113 135 60 135 62 135 113 135 62 135 115 135 115 135 62 135 117 135 117 135 62 135 64 135 117 135 64 135 119 135 119 135 64 135 66 135 119 135 66 135 121 135 121 135 66 135 123 135 123 135 66 135 68 135 123 135 68 135 125 135 125 135 68 135 127 135 127 135 68 135 70 135 127 135 70 135 129 135 129 135 70 135 72 135 129 135 72 135 131 135 131 135 72 135 133 135 133 135 72 135 74 135 133 135 74 135 135 135 135 135 74 135 137 135 137 135 74 135 76 135 137 135 76 135 139 135 139 135 76 135 78 135 139 135 78 135 141 135 141 135 78 135 143 135 143 135 78 135 80 135 143 135 80 135 145 135 145 135 80 135 147 135 147 135 80 135 0 135 147 135 0 135 149 135 149 135 0 135 2 135 185 136 186 136 187 136 187 137 186 137 188 137 187 138 188 138 189 138 189 139 188 139 190 139 189 140 190 140 191 140 191 141 190 141 192 141 191 142 192 142 193 142 193 143 192 143 194 143 194 144 192 144 195 144 194 145 195 145 196 145 196 146 195 146 197 146 196 147 197 147 198 147 198 148 197 148 199 148 198 149 199 149 200 149 200 150 199 150 201 150 200 151 201 151 202 151 202 152 201 152 203 152 203 153 201 153 204 153 203 154 204 154 205 154 205 155 204 155 206 155 205 156 206 156 207 156 207 157 206 157 208 157 207 158 208 158 209 158 209 159 208 159 210 159 209 160 210 160 211 160 211 161 210 161 212 161 212 162 210 162 213 162 212 163 213 163 214 163 214 164 213 164 215 164 214 165 215 165 216 165 216 166 215 166 217 166 216 167 217 167 218 167 218 168 217 168 219 168 218 169 219 169 220 169 220 170 219 170 221 170 220 171 221 171 222 171 222 172 221 172 223 172 223 173 221 173 224 173 223 174 224 174 225 174 225 175 224 175 226 175 225 176 226 176 227 176 227 177 226 177 228 177 227 178 228 178 229 178 229 179 228 179 230 179 229 180 230 180 231 180 231 181 230 181 232 181 232 182 230 182 233 182 232 183 233 183 234 183 234 184 233 184 235 184 234 185 235 185 236 185 236 186 235 186 237 186 236 187 237 187 238 187 238 188 237 188 239 188 238 189 239 189 240 189 240 190 239 190 241 190 241 191 239 191 242 191 241 192 242 192 185 192 185 193 242 193 186 193 243 194 244 194 245 194 245 195 244 195 246 195 245 196 246 196 247 196 244 197 243 197 248 197 248 198 243 198 249 198 248 199 249 199 250 199 250 200 249 200 251 200 250 201 251 201 252 201 252 202 251 202 253 202 252 203 253 203 254 203 254 204 253 204 255 204 255 205 253 205 256 205 255 206 256 206 257 206 257 207 256 207 258 207 257 208 258 208 259 208 259 209 258 209 260 209 259 210 260 210 261 210 261 211 260 211 262 211 261 212 262 212 263 212 263 213 262 213 264 213 263 214 264 214 265 214 265 215 264 215 266 215 266 216 264 216 267 216 266 217 267 217 268 217 268 218 267 218 269 218 268 219 269 219 270 219 270 220 269 220 271 220 270 221 271 221 272 221 272 222 271 222 273 222 272 223 273 223 274 223 274 224 273 224 275 224 275 225 273 225 276 225 275 226 276 226 277 226 277 227 276 227 278 227 277 228 278 228 279 228 279 229 278 229 280 229 279 230 280 230 281 230 281 231 280 231 282 231 281 232 282 232 283 232 283 233 282 233 284 233 284 234 282 234 285 234 284 235 285 235 286 235 286 236 285 236 287 236 286 237 287 237 288 237 288 238 287 238 289 238 288 239 289 239 290 239 290 240 289 240 291 240 290 241 291 241 292 241 292 242 291 242 293 242 292 243 293 243 294 243 294 244 293 244 295 244 295 245 293 245 296 245 295 246 296 246 297 246 297 247 296 247 298 247 297 248 298 248 299 248 299 249 298 249 300 249 299 250 300 250 247 250 247 251 300 251 245 251 301 252 302 252 303 252 303 253 302 253 304 253 304 254 302 254 305 254 304 255 305 255 306 255 306 256 305 256 307 256 306 257 307 257 308 257 306 258 308 258 309 258 309 259 308 259 310 259 309 260 310 260 311 260 309 261 311 261 312 261 312 262 311 262 313 262 312 263 313 263 314 263 314 264 313 264 315 264 314 265 315 265 316 265 314 266 316 266 317 266 317 267 316 267 318 267 317 268 318 268 319 268 319 269 318 269 320 269 319 270 320 270 321 270 319 271 321 271 322 271 322 272 321 272 323 272 322 273 323 273 324 273 322 274 324 274 325 274 325 275 324 275 326 275 325 276 326 276 327 276 327 277 326 277 328 277 303 278 329 278 301 278 301 278 329 278 330 278 330 278 329 278 83 278 330 278 83 278 82 278 300 42 331 42 245 42 245 42 331 42 329 42 245 42 329 42 243 42 243 42 329 42 249 42 249 42 329 42 251 42 251 42 329 42 253 42 253 42 329 42 256 42 256 279 329 279 303 279 256 280 303 280 258 280 258 281 303 281 260 281 260 282 303 282 262 282 262 283 303 283 264 283 264 284 303 284 304 284 264 42 304 42 306 42 300 42 298 42 331 42 331 42 298 42 296 42 331 42 296 42 293 42 293 42 291 42 331 42 331 42 291 42 289 42 331 42 289 42 332 42 332 42 289 42 287 42 332 42 287 42 285 42 285 42 282 42 332 42 332 42 282 42 280 42 332 285 280 285 327 285 327 286 280 286 278 286 327 287 278 287 276 287 276 288 273 288 327 288 327 289 273 289 325 289 325 42 273 42 271 42 325 42 271 42 322 42 322 42 271 42 269 42 322 42 269 42 319 42 319 42 269 42 317 42 317 42 269 42 267 42 317 42 267 42 314 42 314 42 267 42 312 42 312 42 267 42 309 42 309 42 267 42 264 42 309 42 264 42 306 42 333 252 334 252 335 252 335 290 334 290 336 290 335 291 336 291 337 291 337 292 336 292 338 292 337 293 338 293 339 293 339 294 338 294 340 294 340 295 338 295 341 295 340 296 341 296 342 296 342 297 341 297 343 297 343 298 341 298 344 298 343 299 344 299 345 299 345 300 344 300 346 300 345 301 346 301 347 301 347 302 346 302 348 302 348 303 346 303 349 303 348 304 349 304 350 304 350 305 349 305 351 305 350 306 351 306 352 306 352 307 351 307 353 307 353 308 351 308 354 308 353 309 354 309 355 309 355 310 354 310 356 310 356 311 354 311 357 311 356 312 357 312 358 312 358 313 357 313 359 313 358 277 359 277 360 277 360 135 359 135 361 135 361 135 359 135 362 135 362 135 359 135 363 135 363 314 359 314 364 314 199 315 365 315 201 315 201 315 365 315 366 315 201 315 366 315 204 315 204 315 366 315 206 315 206 315 366 315 208 315 208 315 366 315 210 315 210 315 366 315 213 315 213 315 366 315 215 315 215 315 366 315 364 315 215 315 364 315 217 315 217 315 364 315 219 315 219 315 364 315 221 315 221 315 364 315 224 315 224 315 364 315 359 315 224 315 359 315 226 315 226 315 359 315 228 315 228 315 359 315 230 315 230 315 359 315 357 315 230 315 357 315 233 315 233 315 357 315 354 315 233 315 354 315 235 315 235 315 354 315 351 315 235 315 351 315 349 315 199 315 197 315 365 315 365 315 197 315 195 315 365 315 195 315 192 315 192 315 190 315 365 315 365 316 190 316 334 316 334 317 190 317 188 317 334 318 188 318 186 318 186 319 242 319 334 319 334 320 242 320 239 320 334 321 239 321 336 321 336 315 239 315 338 315 338 315 239 315 341 315 341 315 239 315 237 315 341 315 237 315 344 315 344 315 237 315 346 315 346 315 237 315 349 315 349 315 237 315 235 315 365 135 367 135 366 135 366 135 367 135 368 135 366 135 368 135 369 135 369 135 370 135 366 135 366 135 370 135 371 135 366 135 371 135 372 135 372 135 373 135 366 135 366 135 373 135 374 135 374 135 373 135 375 135 374 135 375 135 376 135 374 135 376 135 377 135 377 135 376 135 378 135 377 135 378 135 379 135 379 135 378 135 380 135 379 135 380 135 381 135 381 135 380 135 382 135 382 135 380 135 383 135 382 135 383 135 384 135 384 135 383 135 385 135 384 135 385 135 386 135 386 135 385 135 387 135 386 135 387 135 388 135 388 135 387 135 389 135 388 135 389 135 390 135 390 135 389 135 391 135 390 135 391 135 392 135 392 135 391 135 393 135 393 135 391 135 394 135 393 135 394 135 395 135 395 135 394 135 396 135 395 135 396 135 397 135 397 135 396 135 398 135 398 135 396 135 399 135 398 135 399 135 400 135 400 135 399 135 401 135 400 135 401 135 402 135 402 135 401 135 403 135 402 135 403 135 404 135 404 135 403 135 405 135 404 135 405 135 406 135 406 135 405 135 407 135 406 135 407 135 408 135 408 135 407 135 409 135 409 135 407 135 410 135 409 135 410 135 411 135 411 135 410 135 412 135 411 135 412 135 413 135 413 135 412 135 414 135 413 135 414 135 415 135 413 135 415 135 331 135 331 135 415 135 416 135 331 135 416 135 417 135 417 135 418 135 331 135 331 135 418 135 419 135 331 135 419 135 420 135 420 135 421 135 331 135 331 135 421 135 329 135 328 135 422 135 327 135 327 135 422 135 423 135 327 135 423 135 424 135 424 322 332 322 327 322 189 323 425 323 187 323 187 324 425 324 350 324 187 325 350 325 352 325 425 326 189 326 426 326 426 327 189 327 191 327 426 328 191 328 193 328 193 329 194 329 426 329 426 330 194 330 196 330 426 331 196 331 198 331 426 332 198 332 427 332 427 333 198 333 200 333 427 334 200 334 202 334 202 335 203 335 427 335 427 336 203 336 205 336 427 337 205 337 428 337 428 338 205 338 207 338 428 339 207 339 209 339 209 340 211 340 428 340 428 341 211 341 212 341 428 342 212 342 429 342 429 343 212 343 214 343 429 344 214 344 216 344 429 345 216 345 362 345 362 346 216 346 218 346 362 347 218 347 220 347 362 348 220 348 361 348 361 349 220 349 222 349 361 350 222 350 223 350 223 351 225 351 361 351 361 352 225 352 227 352 361 353 227 353 360 353 360 354 227 354 229 354 360 355 229 355 231 355 231 356 232 356 360 356 360 357 232 357 358 357 358 358 232 358 234 358 358 359 234 359 356 359 356 360 234 360 236 360 356 361 236 361 355 361 355 362 236 362 238 362 355 363 238 363 353 363 353 364 238 364 240 364 353 365 240 365 352 365 352 366 240 366 241 366 352 367 241 367 185 367 185 368 187 368 352 368 261 369 318 369 259 369 259 370 318 370 430 370 259 371 430 371 257 371 257 372 430 372 255 372 255 373 430 373 431 373 255 374 431 374 254 374 254 375 431 375 252 375 252 376 431 376 250 376 250 377 431 377 248 377 248 378 431 378 432 378 248 379 432 379 244 379 244 380 432 380 246 380 246 381 432 381 247 381 247 382 432 382 299 382 299 383 432 383 433 383 299 384 433 384 297 384 297 385 433 385 295 385 295 386 433 386 294 386 294 387 433 387 292 387 292 388 433 388 290 388 290 389 433 389 434 389 290 390 434 390 288 390 288 391 434 391 423 391 288 392 423 392 286 392 286 393 423 393 284 393 284 394 423 394 422 394 284 395 422 395 283 395 283 396 422 396 281 396 281 397 422 397 279 397 279 398 422 398 277 398 277 399 422 399 328 399 277 400 328 400 275 400 275 401 328 401 274 401 274 402 328 402 272 402 272 403 328 403 326 403 272 404 326 404 270 404 270 405 326 405 324 405 270 406 324 406 268 406 268 407 324 407 323 407 268 408 323 408 266 408 266 409 323 409 321 409 266 410 321 410 265 410 265 411 321 411 320 411 265 412 320 412 263 412 263 413 320 413 261 413 261 414 320 414 318 414 318 415 316 415 430 415 430 416 316 416 315 416 430 417 315 417 313 417 313 418 311 418 430 418 430 419 311 419 330 419 430 420 330 420 435 420 435 420 330 420 436 420 435 421 436 421 437 421 437 421 436 421 438 421 437 422 438 422 439 422 439 423 438 423 440 423 439 424 440 424 441 424 441 425 440 425 442 425 441 426 442 426 443 426 443 426 442 426 444 426 443 427 444 427 445 427 445 427 444 427 446 427 445 428 446 428 447 428 447 428 446 428 448 428 447 429 448 429 449 429 449 429 448 429 450 429 449 430 450 430 451 430 451 431 450 431 452 431 451 432 452 432 453 432 453 433 452 433 454 433 453 434 454 434 455 434 455 434 454 434 456 434 455 435 456 435 457 435 457 435 456 435 458 435 457 436 458 436 459 436 459 436 458 436 460 436 459 437 460 437 461 437 461 437 460 437 462 437 461 438 462 438 463 438 463 438 462 438 464 438 463 439 464 439 465 439 465 439 464 439 466 439 465 440 466 440 467 440 467 440 466 440 468 440 467 441 468 441 469 441 469 442 468 442 470 442 469 443 470 443 471 443 311 444 310 444 330 444 330 445 310 445 308 445 330 446 308 446 307 446 307 447 305 447 330 447 330 448 305 448 302 448 330 449 302 449 301 449 469 450 471 450 472 450 472 451 471 451 473 451 472 452 473 452 474 452 474 453 473 453 475 453 474 453 475 453 476 453 476 454 475 454 477 454 476 455 477 455 390 455 390 456 477 456 388 456 388 457 477 457 478 457 388 458 478 458 386 458 386 459 478 459 479 459 386 460 479 460 384 460 384 461 479 461 480 461 384 462 480 462 382 462 382 463 480 463 481 463 382 464 481 464 381 464 381 465 481 465 482 465 381 466 482 466 379 466 379 467 482 467 483 467 379 468 483 468 377 468 377 469 483 469 484 469 377 470 484 470 374 470 374 471 484 471 485 471 374 472 485 472 366 472 366 473 485 473 486 473 366 474 486 474 363 474 363 475 486 475 429 475 363 476 429 476 362 476 473 453 487 453 475 453 475 454 487 454 488 454 475 454 488 454 477 454 477 477 488 477 478 477 487 454 489 454 488 454 488 477 489 477 490 477 488 477 490 477 478 477 478 478 490 478 479 478 489 477 491 477 490 477 490 478 491 478 492 478 490 478 492 478 479 478 479 479 492 479 480 479 491 478 493 478 492 478 492 479 493 479 494 479 492 479 494 479 480 479 480 480 494 480 481 480 493 479 495 479 494 479 494 480 495 480 496 480 494 480 496 480 481 480 481 481 496 481 482 481 495 480 497 480 496 480 496 481 497 481 498 481 496 481 498 481 482 481 482 482 498 482 483 482 497 481 499 481 498 481 498 482 499 482 500 482 498 482 500 482 483 482 483 483 500 483 484 483 499 482 501 482 500 482 500 483 501 483 502 483 500 483 502 483 484 483 484 484 502 484 485 484 501 483 503 483 502 483 502 484 503 484 504 484 502 484 504 484 485 484 485 485 504 485 486 485 503 484 505 484 504 484 504 485 505 485 506 485 504 485 506 485 486 485 486 486 506 486 429 486 505 485 507 485 506 485 506 486 507 486 508 486 506 486 508 486 429 486 429 487 508 487 428 487 507 486 509 486 508 486 508 487 509 487 510 487 508 487 510 487 428 487 428 488 510 488 511 488 428 489 511 489 427 489 427 490 511 490 512 490 427 491 512 491 426 491 426 492 512 492 425 492 509 487 513 487 510 487 510 493 513 493 514 493 510 494 514 494 511 494 511 495 514 495 515 495 511 496 515 496 512 496 512 492 515 492 516 492 512 492 516 492 425 492 425 497 516 497 333 497 425 498 333 498 339 498 339 499 333 499 337 499 337 500 333 500 335 500 515 492 517 492 516 492 516 497 517 497 518 497 516 497 518 497 333 497 339 501 340 501 425 501 425 502 340 502 342 502 425 503 342 503 343 503 343 504 345 504 425 504 425 505 345 505 347 505 425 506 347 506 348 506 348 507 350 507 425 507 363 508 364 508 366 508 390 509 392 509 476 509 476 510 392 510 519 510 476 453 519 453 474 453 474 511 519 511 520 511 474 512 520 512 472 512 472 513 520 513 521 513 472 514 521 514 469 514 469 515 521 515 467 515 392 516 393 516 519 516 519 517 393 517 520 517 393 518 395 518 520 518 520 519 395 519 521 519 521 520 395 520 522 520 522 521 395 521 397 521 522 522 397 522 523 522 523 523 397 523 398 523 523 524 398 524 524 524 524 525 398 525 400 525 524 526 400 526 525 526 525 527 400 527 402 527 525 528 402 528 526 528 526 529 402 529 404 529 526 530 404 530 527 530 527 531 404 531 406 531 527 532 406 532 528 532 528 533 406 533 408 533 528 534 408 534 529 534 529 535 408 535 409 535 529 536 409 536 530 536 530 537 409 537 411 537 530 538 411 538 531 538 531 539 411 539 413 539 531 540 413 540 532 540 532 541 413 541 331 541 532 542 331 542 533 542 533 543 331 543 332 543 533 544 332 544 424 544 533 545 424 545 434 545 434 546 424 546 423 546 443 426 434 426 441 426 441 426 434 426 433 426 441 547 433 547 439 547 439 548 433 548 432 548 439 549 432 549 437 549 437 550 432 550 431 550 437 421 431 421 435 421 435 421 431 421 430 421 434 427 443 427 533 427 533 427 443 427 445 427 533 428 445 428 532 428 532 428 445 428 447 428 532 429 447 429 531 429 531 429 447 429 449 429 531 430 449 430 530 430 530 551 449 551 451 551 530 552 451 552 529 552 529 433 451 433 453 433 529 434 453 434 528 434 528 434 453 434 455 434 528 435 455 435 527 435 527 435 455 435 457 435 527 436 457 436 526 436 526 436 457 436 459 436 526 437 459 437 525 437 525 437 459 437 461 437 525 438 461 438 524 438 524 438 461 438 463 438 524 439 463 439 523 439 523 439 463 439 465 439 523 440 465 440 522 440 522 440 465 440 467 440 522 553 467 553 521 553 152 554 534 554 151 554 151 555 534 555 535 555 151 556 535 556 365 556 365 557 535 557 367 557 367 558 535 558 368 558 368 559 535 559 536 559 368 560 536 560 369 560 369 561 536 561 537 561 369 562 537 562 370 562 370 563 537 563 538 563 370 564 538 564 371 564 371 565 538 565 539 565 371 566 539 566 372 566 372 567 539 567 540 567 372 568 540 568 373 568 373 569 540 569 541 569 373 570 541 570 375 570 375 571 541 571 542 571 375 572 542 572 376 572 376 573 542 573 543 573 376 574 543 574 378 574 378 575 543 575 544 575 378 576 544 576 380 576 380 576 544 576 545 576 380 577 545 577 383 577 383 578 545 578 546 578 383 579 546 579 385 579 385 580 546 580 547 580 385 581 547 581 387 581 387 582 547 582 548 582 387 583 548 583 389 583 389 584 548 584 549 584 389 585 549 585 391 585 391 586 549 586 550 586 391 587 550 587 394 587 394 588 550 588 551 588 394 589 551 589 396 589 396 590 551 590 552 590 396 591 552 591 399 591 399 592 552 592 553 592 399 593 553 593 401 593 401 594 553 594 554 594 401 117 554 117 403 117 403 595 554 595 555 595 403 596 555 596 405 596 405 597 555 597 556 597 405 598 556 598 407 598 407 119 556 119 557 119 407 120 557 120 410 120 410 599 557 599 558 599 410 600 558 600 412 600 412 601 558 601 559 601 412 602 559 602 414 602 414 603 559 603 560 603 414 604 560 604 415 604 415 605 560 605 561 605 415 606 561 606 416 606 416 607 561 607 562 607 416 608 562 608 417 608 417 609 562 609 563 609 417 610 563 610 418 610 418 611 563 611 564 611 418 612 564 612 419 612 419 613 564 613 565 613 419 614 565 614 420 614 420 615 565 615 566 615 420 616 566 616 421 616 421 131 566 131 567 131 421 617 567 617 329 617 329 617 567 617 568 617 329 618 568 618 83 618 83 619 568 619 184 619 184 620 568 620 183 620 183 621 568 621 569 621 183 622 569 622 182 622 182 623 569 623 570 623 182 624 570 624 181 624 181 625 570 625 571 625 181 626 571 626 180 626 180 627 571 627 572 627 180 628 572 628 179 628 179 629 572 629 573 629 179 630 573 630 178 630 178 631 573 631 574 631 178 604 574 604 177 604 177 632 574 632 575 632 177 633 575 633 176 633 176 122 575 122 576 122 176 121 576 121 175 121 175 634 576 634 577 634 175 635 577 635 174 635 174 636 577 636 578 636 174 637 578 637 173 637 173 638 578 638 579 638 173 639 579 639 172 639 172 640 579 640 580 640 172 641 580 641 171 641 171 642 580 642 581 642 171 643 581 643 170 643 170 594 581 594 582 594 170 112 582 112 169 112 169 644 582 644 583 644 169 645 583 645 168 645 168 646 583 646 584 646 168 647 584 647 167 647 167 648 584 648 585 648 167 649 585 649 166 649 166 650 585 650 586 650 166 651 586 651 165 651 165 652 586 652 587 652 165 653 587 653 164 653 164 654 587 654 588 654 164 655 588 655 163 655 163 656 588 656 589 656 163 657 589 657 162 657 162 658 589 658 590 658 162 659 590 659 161 659 161 659 590 659 591 659 161 660 591 660 160 660 160 661 591 661 592 661 160 662 592 662 159 662 159 663 592 663 593 663 159 664 593 664 158 664 158 665 593 665 594 665 158 666 594 666 157 666 157 667 594 667 595 667 157 668 595 668 156 668 156 669 595 669 596 669 156 670 596 670 155 670 155 671 596 671 597 671 155 672 597 672 154 672 154 673 597 673 598 673 154 674 598 674 153 674 153 675 598 675 599 675 153 676 599 676 152 676 152 676 599 676 534 676 536 677 535 677 534 677 536 678 534 678 599 678 537 679 536 679 599 679 537 679 599 679 598 679 538 88 537 88 598 88 538 88 598 88 597 88 539 89 538 89 597 89 539 89 597 89 596 89 540 90 539 90 596 90 540 90 596 90 595 90 541 680 540 680 595 680 541 680 595 680 594 680 542 681 541 681 594 681 542 681 594 681 593 681 543 572 542 572 593 572 543 572 593 572 592 572 544 98 543 98 592 98 544 98 592 98 591 98 545 99 544 99 591 99 545 99 591 99 590 99 546 102 545 102 590 102 546 102 590 102 589 102 547 103 546 103 589 103 547 103 589 103 588 103 548 104 547 104 588 104 548 104 588 104 587 104 549 682 548 682 587 682 549 682 587 682 586 682 550 109 549 109 586 109 550 109 586 109 585 109 551 110 550 110 585 110 551 110 585 110 584 110 552 111 551 111 584 111 552 111 584 111 583 111 553 112 552 112 583 112 553 683 583 683 582 683 554 684 553 684 582 684 554 594 582 594 581 594 555 117 554 117 581 117 555 117 581 117 580 117 556 118 555 118 580 118 556 118 580 118 579 118 557 119 556 119 579 119 557 119 579 119 578 119 558 120 557 120 578 120 558 120 578 120 577 120 559 121 558 121 577 121 559 685 577 685 576 685 560 686 559 686 576 686 560 687 576 687 575 687 561 688 560 688 575 688 561 123 575 123 574 123 562 124 561 124 574 124 562 124 574 124 573 124 563 127 562 127 573 127 563 127 573 127 572 127 564 128 563 128 572 128 564 128 572 128 571 128 565 129 564 129 571 129 565 129 571 129 570 129 566 130 565 130 570 130 566 130 570 130 569 130 567 131 566 131 569 131 567 131 569 131 568 131 334 278 333 278 365 278 365 278 333 278 518 278 365 689 518 689 151 689 151 690 518 690 150 690 1 691 148 691 3 691 3 691 148 691 150 691 3 691 150 691 5 691 5 691 150 691 7 691 7 691 150 691 9 691 9 691 150 691 513 691 9 691 513 691 509 691 148 691 1 691 146 691 146 691 1 691 81 691 146 691 81 691 144 691 144 691 81 691 142 691 142 691 81 691 79 691 142 691 79 691 140 691 140 691 79 691 77 691 140 691 77 691 138 691 138 691 77 691 136 691 136 691 77 691 75 691 136 691 75 691 134 691 134 691 75 691 73 691 134 691 73 691 132 691 132 691 73 691 130 691 130 691 73 691 71 691 130 691 71 691 128 691 128 691 71 691 126 691 126 691 71 691 69 691 126 691 69 691 124 691 124 691 69 691 122 691 122 691 69 691 67 691 122 691 67 691 120 691 120 691 67 691 118 691 118 691 67 691 65 691 118 691 65 691 116 691 116 691 65 691 63 691 116 691 63 691 114 691 114 691 63 691 112 691 112 691 63 691 61 691 112 691 61 691 110 691 110 691 61 691 108 691 108 691 61 691 59 691 108 691 59 691 106 691 106 691 59 691 104 691 104 691 59 691 57 691 104 691 57 691 102 691 102 691 57 691 100 691 100 691 57 691 55 691 100 691 55 691 98 691 98 691 55 691 96 691 96 691 55 691 53 691 96 691 53 691 94 691 94 691 53 691 51 691 94 691 51 691 92 691 92 691 51 691 90 691 90 691 51 691 49 691 90 691 49 691 88 691 88 691 49 691 47 691 88 691 47 691 86 691 86 691 47 691 84 691 84 691 47 691 45 691 84 691 45 691 82 691 82 691 45 691 43 691 82 691 43 691 41 691 41 691 39 691 82 691 82 691 39 691 442 691 82 691 442 691 440 691 442 691 39 691 444 691 444 691 39 691 37 691 444 691 37 691 446 691 446 691 37 691 35 691 446 691 35 691 448 691 448 691 35 691 450 691 450 691 35 691 33 691 450 691 33 691 452 691 452 691 33 691 454 691 454 691 33 691 31 691 454 691 31 691 456 691 456 691 31 691 458 691 458 691 31 691 29 691 458 691 29 691 460 691 460 691 29 691 462 691 462 691 29 691 27 691 462 691 27 691 464 691 464 691 27 691 466 691 466 691 27 691 25 691 466 691 25 691 468 691 468 691 25 691 470 691 470 691 25 691 23 691 470 691 23 691 471 691 471 691 23 691 473 691 473 691 23 691 21 691 473 691 21 691 487 691 487 691 21 691 489 691 489 691 21 691 19 691 489 691 19 691 491 691 491 691 19 691 493 691 493 691 19 691 17 691 493 691 17 691 495 691 495 691 17 691 497 691 497 691 17 691 15 691 497 691 15 691 499 691 499 691 15 691 501 691 501 691 15 691 13 691 501 691 13 691 503 691 503 691 13 691 505 691 505 691 13 691 11 691 505 691 11 691 507 691 507 691 11 691 509 691 509 691 11 691 9 691 330 691 82 691 436 691 436 691 82 691 438 691 438 691 82 691 440 691 518 691 517 691 150 691 150 691 517 691 515 691 150 691 515 691 514 691 514 691 513 691 150 691</p>
        </triangles>
        <triangles count="1" material="mat_1">
          <input semantic="VERTEX" source="#vert_0" offset="0"/>
          <input semantic="NORMAL" source="#norm_0" offset="1"/>
          <p>0 0 1 0 2 0</p>
        </triangles>
      </mesh>
    </geometry>
  </library_geometries>
  <library_visual_scenes>
    <visual_scene id="DefaultScene">
      <node id="node_0b3dc428_9815_40b3_bcad_0904f222766d" type="NODE">
        <matrix>1 0 0 0 0 1 0 0 0 0 1 0 0 0 0 1</matrix>
        <node id="node_79479f67_e96e_4eb0_8720_542b0502eebf" type="NODE">
          <matrix>1 0 0 0 0 1 0 0 0 0 1 0 0 0 0 1</matrix>
          <node id="node_79479f67_e96e_4eb0_8720_542b0502eebf_mesh0" type="NODE">
            <matrix>1 0 0 0 0 1 0 0 0 0 1 0 0 0 0 1</matrix>
            <instance_geometry url="#geometry_76f14b61_1de2_4848_b1e4_ae60b45edb75">
              <bind_material>
                <technique_common>
                  <instance_material symbol="mat_1" target="#mat_1"/>
                </technique_common>
              </bind_material>
            </instance_geometry>
          </node>
        </node>
      </node>
    </visual_scene>
  </library_visual_scenes>
  <scene>
    <instance_visual_scene url="#DefaultScene"/>
  </scene>
</COLLADA>
