<?xml version="1.0" encoding="UTF-8"?>
<COLLADA xmlns="http://www.collada.org/2005/11/COLLADASchema" version="1.4.1">
<!--
# File generated by ImageToStl.com - Free Image and 3D model conversion tools
-->
  <asset>
    <contributor>
      <author>ImageToStl.com</author>
      <authoring_tool>ImageToStl.com</authoring_tool>
    </contributor>
    <created>2026-03-07T04:19:05</created>
    <modified>2026-03-07T04:19:05</modified>
    <up_axis>Z_UP</up_axis>
  </asset>
  <library_effects>
    <effect id="effect_0">
        <profile_COMMON>
          <technique sid="common">
            <phong>
              <diffuse>
                <color>0.62745 0.62745 0.62745 1</color>
              </diffuse>
            </phong>
          </technique>
        </profile_COMMON>
    </effect>
    <effect id="effect_1">
        <profile_COMMON>
          <technique sid="common">
            <phong>
              <diffuse>
                <color>0.65882 0.65882 0.65882 1</color>
              </diffuse>
            </phong>
          </technique>
        </profile_COMMON>
    </effect>
  </library_effects>
  <library_materials>
    <material id="mat_0">
      <instance_effect url="#effect_0"/>
    </material>
    <material id="mat_1">
      <instance_effect url="#effect_1"/>
    </material>
  </library_materials>
  <library_geometries>
    <geometry id="geometry_9466d9d4_c00d_433c_b046_5fddeca2917a">
      <mesh>
        <source id="pos_0">
          <float_array id="pos_0-array" count="1800">-15.35350037 -439.96676636 21.90811729 -15.35350037 -449.96676636 21.90811729 -15.49999523 -439.96676636 20 -15.49999523 -449.96676636 20 -15.35350037 -439.96676636 18.09188461 -15.35350037 -449.96676636 18.09188461 -14.91744995 -439.96676636 16.22849274 -14.91744995 -449.96676636 16.22849274 -14.20206451 -439.96676636 14.45350266 -14.20206451 -449.96676636 14.45350266 -13.22411156 -439.96676636 12.80851746 -13.22411156 -449.96676636 12.80851746 -12.00651455 -439.96676636 11.33209419 -12.00651455 -449.96676636 11.33209419 -10.57781219 -439.96676636 10.0588398 -10.57781219 -449.96676636 10.0588398 -8.97149277 -439.96676636 9.0185976 -8.97149277 -449.96676636 9.0185976 -7.2252059 -439.96676636 8.23574924 -7.2252059 -449.96676636 8.23574924 -5.37988377 -439.96676636 7.72864628 -5.37988377 -449.96676636 7.72864628 -3.47877908 -439.96676636 7.50917292 -3.47877908 -449.96676636 7.50917292 -1.56645203 -439.96676636 7.58247423 -1.56645203 -449.96676636 7.58247423 0.31227398 -439.96676636 7.9468317 0.31227398 -449.96676636 7.9468317 2.11336327 -439.96676636 8.59370518 2.11336327 -449.96676636 8.59370518 3.79459953 -439.96676636 9.50793266 3.79459953 -449.96676636 9.50793266 5.31657648 -439.96676636 10.6680851 5.31657648 -449.96676636 10.6680851 6.64362001 -439.96676636 12.04696941 6.64362001 -449.96676636 12.04696941 7.74462509 -439.96676636 13.61226654 7.74462509 -449.96676636 13.61226654 8.59378624 -439.96676636 15.32728672 8.59378624 -449.96676636 15.32728672 9.17119789 -439.96676636 17.15183067 9.17119789 -449.96676636 17.15183067 9.46332741 -439.96676636 19.04313469 9.46332741 -449.96676636 19.04313469 9.46332741 -439.96676636 20.95686531 9.46332741 -449.96676636 20.95686531 9.17119789 -439.96676636 22.84816933 9.17119789 -449.96676636 22.84816933 8.59378624 -439.96676636 24.67271423 8.59378624 -449.96676636 24.67271423 7.74462509 -439.96676636 26.38773346 7.74462509 -449.96676636 26.38773346 6.64362001 -439.96676636 27.95303154 6.64362001 -449.96676636 27.95303154 5.31657648 -439.96676636 29.3319149 5.31657648 -449.96676636 29.3319149 3.79459953 -439.96676636 30.49206734 3.79459953 -449.96676636 30.49206734 2.11336327 -439.96676636 31.40629578 2.11336327 -449.96676636 31.40629578 0.31227398 -439.96676636 32.05316925 0.31227398 -449.96676636 32.05316925 -1.56645203 -439.96676636 32.41752625 -1.56645203 -449.96676636 32.41752625 -3.47877908 -439.96676636 32.49082947 -3.47877908 -449.96676636 32.49082947 -5.37988377 -439.96676636 32.27135468 -5.37988377 -449.96676636 32.27135468 -7.2252059 -439.96676636 31.76425171 -7.2252059 -449.96676636 31.76425171 -8.97149277 -439.96676636 30.98140335 -8.97149277 -449.96676636 30.98140335 -10.57781219 -439.96676636 29.94116211 -10.57781219 -449.96676636 29.94116211 -12.00651455 -439.96676636 28.66790581 -12.00651455 -449.96676636 28.66790581 -13.22411156 -439.96676636 27.19148445 -13.22411156 -449.96676636 27.19148445 -14.20206451 -439.96676636 25.54649734 -14.20206451 -449.96676636 25.54649734 -14.91744995 -439.96676636 23.77150726 -14.91744995 -449.96676636 23.77150726 30.50000572 -449.96676636 20 30.50000572 -439.96676636 20 30.35709953 -449.96676636 23.09099007 30.35709953 -439.96676636 23.09099007 29.92960358 -449.96676636 26.15560913 29.92960358 -439.96676636 26.15560913 29.2211647 -449.96676636 29.16771126 29.2211647 -439.96676636 29.16771126 28.23782539 -449.96676636 32.10159683 28.23782539 -439.96676636 32.10159683 26.98797607 -449.96676636 34.93223572 26.98797607 -439.96676636 34.93223572 25.48227882 -449.96676636 37.63547897 25.48227882 -439.96676636 37.63547897 23.73358154 -449.96676636 40.18825912 23.73358154 -439.96676636 40.18825912 21.75680351 -449.96676636 42.56880569 21.75680351 -439.96676636 42.56880569 19.56880951 -449.96676636 44.75679779 19.56880951 -439.96676636 44.75679779 17.18826485 -449.96676636 46.73357773 17.18826485 -439.96676636 46.73357773 14.63548279 -449.96676636 48.4822731 14.63548279 -439.96676636 48.4822731 11.93224049 -449.96676636 49.98797226 11.93224049 -439.96676636 49.98797226 9.10160065 -449.96676636 51.23781967 9.10160065 -439.96676636 51.23781967 6.16771555 -449.96676636 52.22116089 6.16771555 -439.96676636 52.22116089 3.15561414 -449.96676636 52.92959976 3.15561414 -439.96676636 52.92959976 0.09099525 -449.96676636 53.35709381 0.09099525 -439.96676636 53.35709381 -2.99999475 -449.96676636 53.5 -2.99999475 -439.96676636 53.5 -6.09098482 -449.96676636 53.35709381 -6.09098482 -439.96676636 53.35709381 -9.15560341 -449.96676636 52.92959976 -9.15560341 -439.96676636 52.92959976 -12.16770458 -449.96676636 52.22116089 -12.16770458 -439.96676636 52.22116089 -15.10159016 -449.96676636 51.23781967 -15.10159016 -439.96676636 51.23781967 -17.93223 -449.96676636 49.98797226 -17.93223 -439.96676636 49.98797226 -20.63547134 -449.96676636 48.4822731 -20.63547134 -439.96676636 48.4822731 -23.18825531 -449.96676636 46.73357773 -23.18825531 -439.96676636 46.73357773 -25.56879807 -449.96676636 44.75679779 -25.56879807 -439.96676636 44.75679779 -27.75679398 -449.96676636 42.56880569 -27.75679398 -439.96676636 42.56880569 -29.73357201 -449.96676636 40.18825912 -29.73357201 -439.96676636 40.18825912 -31.48226929 -449.96676636 37.63547897 -31.48226929 -439.96676636 37.63547897 -32.98796463 -449.96676636 34.93223572 -32.98796463 -439.96676636 34.93223572 -34.23781586 -449.96676636 32.10159683 -34.23781586 -439.96676636 32.10159683 -35.22115326 -449.96676636 29.16771126 -35.22115326 -439.96676636 29.16771126 -35.92959213 -449.96676636 26.15560913 -35.92959213 -439.96676636 26.15560913 -36.35709 -449.96676636 23.09099007 -36.35709 -439.96676636 23.09099007 -36.49999619 -449.96676636 20 -36.49999619 -439.96676636 20 -36.35709 -439.96676636 16.90900993 -35.92959213 -439.96676636 13.84439182 -35.22115326 -439.96676636 10.8322897 -34.23781586 -439.96676636 7.8984046 -32.98796463 -439.96676636 5.06776524 -31.48226929 -439.96676636 2.36452293 -29.73357201 -439.96676636 -0.18826002 -27.75679398 -439.96676636 -2.56880379 -25.56879807 -439.96676636 -4.75679827 -23.18825531 -439.96676636 -6.73357677 -20.63547134 -439.96676636 -8.48227406 -17.93223 -439.96676636 -9.98797035 -15.10159016 -439.96676636 -11.23781967 -12.16770458 -439.96676636 -12.22115898 -9.15560341 -439.96676636 -12.92959881 -6.09098482 -439.96676636 -13.35709476 -2.99999475 -439.96676636 -13.5 0.09099525 -439.96676636 -13.35709476 3.15561414 -439.96676636 -12.92959881 6.16771555 -439.96676636 -12.22115898 9.10160065 -439.96676636 -11.23781967 11.93224049 -439.96676636 -9.98797035 14.63548279 -439.96676636 -8.48227406 17.18826485 -439.96676636 -6.73357677 19.56880951 -439.96676636 -4.75679827 21.75680351 -439.96676636 -2.56880379 23.73358154 -439.96676636 -0.18826002 25.48227882 -439.96676636 2.36452293 26.98797607 -439.96676636 5.06776524 28.23782539 -439.96676636 7.8984046 29.2211647 -439.96676636 10.8322897 29.92960358 -439.96676636 13.84439182 30.35709953 -439.96676636 16.90900993 -42.67390823 -253.98841858 14.90196323 -36.49999619 -254.36408997 14.96354485 -42.68626404 -254.96676636 15 -36.49999619 -255.56945801 14.96354485 -42.67390823 -255.94512939 14.90196323 -36.49999619 -256.73980713 14.67508125 -42.63463974 -256.91213989 14.60601902 -36.49999619 -257.80709839 14.11491966 -42.56548691 -257.79641724 14.12062836 -42.46731949 -258.54345703 13.49384689 -36.49999619 -258.70932007 13.31561375 -42.33382416 -259.1534729 12.73088074 -36.49999619 -259.39404297 12.32361603 -42.16004181 -259.61355591 11.84583378 -36.49999619 -259.82147217 11.19657803 -41.94944382 -259.88479614 10.8941555 -36.49999619 -259.96676636 10 -41.7155304 -259.96646118 9.94479656 -41.45716476 -259.86422729 8.99901104 -36.49999619 -259.82147217 8.80342197 -41.17861938 -259.57806396 8.06715775 -36.49999619 -259.39404297 7.67638445 -40.8998642 -259.11431885 7.20979881 -36.49999619 -258.70932007 6.68438673 -40.64344025 -258.51113892 6.47333288 -36.49999619 -257.80709839 5.88508081 -40.41902924 -257.77490234 5.86461067 -40.23618698 -256.90158081 5.3895216 -36.49999619 -256.73980713 5.32491875 -40.12041092 -255.94230652 5.0974946 -36.49999619 -255.56945801 5.03645563 -40.08098602 -254.96676636 5 -36.49999619 -254.36408997 5.03645563 -40.12041092 -253.99124146 5.0974946 -36.49999619 -253.1937561 5.32491875 -40.23618698 -253.03198242 5.3895216 -36.49999619 -252.12644958 5.88508081 -40.41902924 -252.15866089 5.86461067 -40.64344025 -251.42242432 6.47333288 -36.49999619 -251.22421265 6.68438673 -40.8998642 -250.81921387 7.20979881 -36.49999619 -250.53948975 7.67638445 -41.17861938 -250.35546875 8.06715775 -36.49999619 -250.11206055 8.80342197 -41.45716476 -250.06932068 8.99901104 -36.49999619 -249.96676636 10 -41.7155304 -249.96710205 9.94479656 -41.94944382 -250.04873657 10.8941555 -36.49999619 -250.11206055 11.19657803 -42.16004181 -250.31997681 11.84583378 -36.49999619 -250.53948975 12.32361603 -42.33382416 -250.78007507 12.73088074 -36.49999619 -251.22421265 13.31561375 -42.46731949 -251.39007568 13.49384689 -36.49999619 -252.12644958 14.11491966 -42.56548691 -252.13713074 14.12062836 -42.63463974 -253.02139282 14.60601902 -36.49999619 -253.1937561 14.67508125 30.50000191 -259.82147217 11.19657803 35.94945526 -259.88479614 10.8941555 30.50000191 -259.96676636 10 35.71553802 -259.96646118 9.94479656 35.45717239 -259.86422729 8.99901104 36.16004944 -259.61355591 11.84583378 30.50000191 -259.39404297 12.32361603 36.3338356 -259.1534729 12.73088074 30.50000191 -258.70932007 13.31561375 36.46733093 -258.54345703 13.49384689 30.50000191 -257.80709839 14.11491966 36.56549835 -257.79641724 14.12062836 36.63464737 -256.91213989 14.60601902 30.50000191 -256.73980713 14.67508125 36.67391968 -255.94512939 14.90196323 30.50000191 -255.56945801 14.96354485 36.68627548 -254.96676636 15 30.50000191 -254.36408997 14.96354485 36.67391968 -253.98841858 14.90196323 30.50000191 -253.1937561 14.67508125 36.63464737 -253.02139282 14.60601902 30.50000191 -252.12644958 14.11491966 36.56549835 -252.13713074 14.12062836 36.46733093 -251.39007568 13.49384689 30.50000191 -251.22421265 13.31561375 36.3338356 -250.78007507 12.73088074 30.50000191 -250.53948975 12.32361603 36.16004944 -250.31997681 11.84583378 30.50000191 -250.11206055 11.19657803 35.94945526 -250.04873657 10.8941555 30.50000191 -249.96676636 10 35.71553802 -249.96710205 9.94479656 35.45717239 -250.06932068 8.99901104 30.50000191 -250.11206055 8.80342197 35.17862701 -250.35546875 8.06715775 30.50000191 -250.53948975 7.67638445 34.89987183 -250.81921387 7.20979881 30.50000191 -251.22421265 6.68438673 34.64345169 -251.42242432 6.47333288 30.50000191 -252.12644958 5.88508081 34.41903687 -252.15866089 5.86461067 34.23619461 -253.03198242 5.3895216 30.50000191 -253.1937561 5.32491875 34.12042236 -253.99124146 5.0974946 30.50000191 -254.36408997 5.03645563 34.08099747 -254.96676636 5 30.50000191 -255.56945801 5.03645563 34.12042236 -255.94230652 5.0974946 30.50000191 -256.73980713 5.32491875 34.23619461 -256.90158081 5.3895216 30.50000191 -257.80709839 5.88508081 34.41903687 -257.77490234 5.86461067 34.64345169 -258.51113892 6.47333288 30.50000191 -258.70932007 6.68438673 34.89987183 -259.11431885 7.20979881 30.50000191 -259.39404297 7.67638445 35.17862701 -259.57806396 8.06715775 30.50000191 -259.82147217 8.80342197 37.00000381 -249.96678162 20 37.00024033 -249.00566101 19.95215607 30.50000572 -249.96678162 20 30.50000191 -248.4024353 19.87688446 37.00001144 -248.03106689 19.80810547 30.50000191 -246.87660217 19.5105648 36.99792099 -247.06129456 19.56707382 36.99256134 -246.1146698 19.22828293 30.50000191 -245.42686462 18.9100647 36.98169327 -245.20840454 18.79354286 36.96253586 -244.35578918 18.2742157 30.50000191 -244.08892822 18.09016991 36.93275833 -243.56918335 17.68388367 30.50000191 -242.89570618 17.07106781 36.89004135 -242.86090088 17.03606987 36.83010864 -242.21946716 16.320158 30.50000191 -241.87660217 15.87785244 36.74892426 -241.63812256 15.52950382 30.50000191 -241.05671692 14.53990555 36.64397812 -241.12968445 14.67705917 36.51277542 -240.70700073 13.77577972 30.50000191 -240.45620728 13.09016991 36.35321808 -240.38009644 12.8397007 36.16724396 -240.14910889 11.8862915 30.50000191 -240.08988953 11.56434536 35.95830154 -240.01202393 10.93368149 30.50000191 -239.96678162 10 35.72983932 -239.96678162 10 30.50000191 -269.96676636 20 37.00000381 -449.96676636 20 30.50000191 -269.96676636 -1.85749674 30.50000191 -239.96678162 -1.85749674 -42.99999619 -249.96678162 20 -36.49999619 -249.96678162 20 -43.00022888 -249.00566101 19.95215607 -36.49999619 -248.4024353 19.87688446 -43.00000381 -248.03106689 19.80810547 -36.49999619 -246.87660217 19.5105648 -42.99790955 -247.06129456 19.56707382 -42.9925499 -246.1146698 19.22828293 -36.49999619 -245.42686462 18.9100647 -42.98168182 -245.20840454 18.79354286 -42.96252441 -244.35578918 18.2742157 -36.49999619 -244.08892822 18.09016991 -42.9327507 -243.56918335 17.68388367 -36.49999619 -242.89570618 17.07106781 -42.89002991 -242.86090088 17.03606987 -42.83010101 -242.21946716 16.320158 -36.49999619 -241.87660217 15.87785244 -42.74891281 -241.63812256 15.52950382 -36.49999619 -241.05671692 14.53990555 -42.64397049 -241.12968445 14.67705917 -42.51276398 -240.70700073 13.77577972 -36.49999619 -240.45620728 13.09016991 -42.35320663 -240.38009644 12.8397007 -42.16723251 -240.14910889 11.8862915 -36.49999619 -240.08988953 11.56434536 -41.9582901 -240.01202393 10.93368149 -36.49999619 -239.96678162 10 -41.72982788 -239.96678162 10 -40.7890625 -239.96678162 6.88564634 -39.59832001 -239.96678162 3.85804605 -38.16547012 -239.96678162 0.93722719 -36.49999619 -239.96678162 -1.85748875 -36.49999619 -269.96676636 20 -36.49999619 -269.96676636 -1.85748875 -36.35709 -269.96676636 16.90900993 -35.92959213 -269.96676636 13.84439182 -35.22115326 -269.96676636 10.8322897 -34.23781586 -269.96676636 7.8984046 -32.98796463 -269.96676636 5.06776524 -31.48226929 -269.96676636 2.36452293 -29.73357201 -269.96676636 -0.18826002 -34.49084473 -269.96676636 -4.66427088 -27.75679398 -269.96676636 -2.56880379 -25.56879807 -269.96676636 -4.75679827 -32.24719238 -269.96676636 -7.28738546 -23.18825531 -269.96676636 -6.73357677 -29.78574371 -269.96676636 -9.70729923 -20.63547134 -269.96676636 -8.48227406 -27.12483025 -269.96676636 -11.90599251 -24.28426552 -269.96676636 -13.86709023 -17.93223 -269.96676636 -9.98797035 -21.28520203 -269.96676636 -15.57599163 -15.10159016 -269.96676636 -11.23781967 -18.14997673 -269.96676636 -17.01996803 -12.16770458 -269.96676636 -12.22115898 -14.90193272 -269.96676636 -18.18826866 -9.15560341 -269.96676636 -12.92959881 -11.56525898 -269.96676636 -19.07219315 -6.09098482 -269.96676636 -13.35709476 -8.1648016 -269.96676636 -19.66515732 -4.72588444 -269.96676636 -19.96274948 -2.99999475 -269.96676636 -13.5 -1.27411473 -269.96676636 -19.96274948 0.09099525 -269.96676636 -13.35709476 2.16480279 -269.96676636 -19.66515923 5.56525993 -269.96676636 -19.07219505 3.15561414 -269.96676636 -12.92959881 8.90193367 -269.96676636 -18.18827057 6.16771555 -269.96676636 -12.22115898 12.14997768 -269.96676636 -17.01997185 9.10160065 -269.96676636 -11.23781967 15.28520489 -269.96676636 -15.57599545 11.93224049 -269.96676636 -9.98797035 18.28426743 -269.96676636 -13.86709595 14.63548279 -269.96676636 -8.48227406 21.12483215 -269.96676636 -11.90599823 23.78574753 -269.96676636 -9.70730591 17.18826485 -269.96676636 -6.73357677 26.2471962 -269.96676636 -7.28739262 19.56880951 -269.96676636 -4.75679827 28.49085045 -269.96676636 -4.66427851 21.75680351 -269.96676636 -2.56880379 23.73358154 -269.96676636 -0.18826002 25.48227882 -269.96676636 2.36452293 26.98797607 -269.96676636 5.06776524 28.23782539 -269.96676636 7.8984046 29.2211647 -269.96676636 10.8322897 29.92960358 -269.96676636 13.84439182 30.35709953 -269.96676636 16.90900993 34.78907394 -239.96678162 6.88564444 33.59832764 -239.96678162 3.85804176 32.16547775 -239.96678162 0.93722087 -42.855896 -309.96676636 16.60776329 -42.42463303 -309.96676636 13.23996735 -41.71389771 -309.96676636 9.93850136 -40.71509171 -309.96676636 6.67440844 -39.44913483 -309.96676636 3.52395034 36.85590363 -309.96676636 16.60776329 36.42464066 -309.96676636 13.23996735 35.71390915 -309.96676636 9.93850136 34.71510315 -309.96676636 6.67440844 33.44914627 -309.96676636 3.52395034 36.85590363 -379.96676636 16.60776329 36.85590363 -449.96676636 16.60776329 36.42464066 -379.96676636 13.23996735 36.42464066 -449.96676636 13.23996735 35.71161652 -379.96676636 9.92968941 35.70932388 -449.96676636 9.92087746 34.71510315 -379.96676636 6.67440844 34.71510315 -449.96676636 6.67440844 33.44914627 -379.96676636 3.52395034 33.44914627 -449.96676636 3.52395034 31.92057037 -379.96676636 0.49220255 31.92057037 -449.96676636 0.49220255 30.1403904 -379.96676636 -2.39899111 30.1403904 -449.96676636 -2.39899111 28.12143517 -379.96676636 -5.12879944 28.12143517 -449.96676636 -5.12879944 25.87824821 -379.96676636 -7.67755461 25.87824821 -449.96676636 -7.67755461 23.42699432 -379.96676636 -10.02689171 23.42699432 -449.96676636 -10.02689171 20.78533173 -379.96676636 -12.15988445 20.78533173 -449.96676636 -12.15988445 17.97229576 -379.96676636 -14.06116486 17.97229576 -449.96676636 -14.06116486 15.00815487 -379.96676636 -15.71703434 15.00815487 -449.96676636 -15.71703434 11.91426468 -379.96676636 -17.11556053 11.91426468 -449.96676636 -17.11556053 8.71291637 -379.96676636 -18.24666977 8.71291637 -449.96676636 -18.24666977 5.427176 -379.96676636 -19.10220909 5.427176 -449.96676636 -19.10220909 2.08071804 -379.96676636 -19.67601776 2.08071804 -449.96676636 -19.67601776 -1.29136741 -379.96676636 -19.96348953 -1.30234671 -449.96676636 -19.96395874 -4.6976428 -449.96676636 -19.96395874 -4.70862579 -379.96676636 -19.96348953 -8.08070755 -449.96676636 -19.67601776 -8.08070755 -379.96676636 -19.67601776 -11.42716599 -379.96676636 -19.10220909 -11.42716599 -309.96676636 -19.10220909 -14.71290588 -309.96676636 -18.24666977 -17.91425323 -309.96676636 -17.11556053 -21.00814438 -309.96676636 -15.71703434 -23.97228622 -309.96676636 -14.06116486 -26.78532219 -309.96676636 -12.15988445 -29.42698288 -309.96676636 -10.02689171 -31.87823868 -309.96676636 -7.67755461 -34.12142563 -309.96676636 -5.12879944 -36.14038086 -309.96676636 -2.39899111 -37.92055893 -309.96676636 0.49220255 -11.42716599 -449.96676636 -19.10220909 -14.71290588 -379.96676636 -18.24666977 -14.71290588 -449.96676636 -18.24666977 -17.91425323 -379.96676636 -17.11556053 -17.91425323 -449.96676636 -17.11556053 -21.00814438 -379.96676636 -15.71703434 -21.00814438 -449.96676636 -15.71703434 -23.97228622 -379.96676636 -14.06116486 -23.97228622 -449.96676636 -14.06116486 -26.78532219 -379.96676636 -12.15988445 -26.78532219 -449.96676636 -12.15988445 -29.42698288 -379.96676636 -10.02689171 -29.42698288 -449.96676636 -10.02689171 -31.87823868 -379.96676636 -7.67755461 -31.87823868 -449.96676636 -7.67755461 -34.12142563 -379.96676636 -5.12879944 -34.12142563 -449.96676636 -5.12879944 -36.14038086 -379.96676636 -2.39899111 -36.14038086 -449.96676636 -2.39899111 -37.92055893 -379.96676636 0.49220255 -37.92055893 -449.96676636 0.49220255 -39.44913483 -379.96676636 3.52395034 -39.44913483 -449.96676636 3.52395034 -40.71509171 -379.96676636 6.67440844 -41.71160507 -379.96676636 9.92968941 -42.42463303 -379.96676636 13.23996735 -40.71509171 -449.96676636 6.67440844 -41.70931244 -449.96676636 9.92087746 -42.42463303 -449.96676636 13.23996735 -42.855896 -379.96676636 16.60776329 -42.855896 -449.96676636 16.60776329 -42.99999619 -449.96676636 20 -8.08070755 -309.96676636 -19.67601776 -4.71960878 -309.96676636 -19.96301842 -1.28038836 -309.96676636 -19.96302032 2.08071804 -309.96676636 -19.67601776 5.427176 -309.96676636 -19.10220909 8.71291637 -309.96676636 -18.24666977 11.91426468 -309.96676636 -17.11556053 15.00815487 -309.96676636 -15.71703434 17.97229576 -309.96676636 -14.06116486 20.78533173 -309.96676636 -12.15988445 23.42699432 -309.96676636 -10.02689171 25.87824821 -309.96676636 -7.67755461 28.12143517 -309.96676636 -5.12879944 30.1403904 -309.96676636 -2.39899111 31.92057037 -309.96676636 0.49220255 -36.35709 -383.30010986 16.90900993 -36.35709 -326.63345337 16.90900993 -35.92959213 -326.63345337 13.84439182 -35.22115326 -326.63345337 10.8322897 -34.23781586 -326.63345337 7.8984046 -32.98796463 -326.63345337 5.06776524 -31.48226929 -326.63345337 2.36452293 -29.73357201 -326.63345337 -0.18826002 -27.75679398 -326.63345337 -2.56880379 -25.56879807 -326.63345337 -4.75679827 -23.18825531 -326.63345337 -6.73357677 -20.63547134 -326.63345337 -8.48227406 -17.93223 -326.63345337 -9.98797035 -15.10159016 -326.63345337 -11.23781967 -12.16770458 -326.63345337 -12.22115898 -9.15560341 -326.63345337 -12.92959881 -6.09098482 -326.63345337 -13.35709476 -2.99999475 -326.63345337 -13.5 0.09099525 -326.63345337 -13.35709476 3.15561414 -326.63345337 -12.92959881 6.16771555 -326.63345337 -12.22115898 9.10160065 -326.63345337 -11.23781967 11.93224049 -326.63345337 -9.98797035 14.63548279 -326.63345337 -8.48227406 17.18826485 -326.63345337 -6.73357677 19.56880951 -326.63345337 -4.75679827 21.75680351 -326.63345337 -2.56880379 23.73358154 -326.63345337 -0.18826002 25.48227882 -326.63345337 2.36452293 26.98797607 -326.63345337 5.06776524 28.23782539 -326.63345337 7.8984046 29.2211647 -326.63345337 10.8322897 29.92960358 -326.63345337 13.84439182 30.35709953 -326.63345337 16.90900993 30.35709953 -383.30010986 16.90900993 29.92960358 -383.30010986 13.84439182 29.2211647 -383.30010986 10.8322897 28.23782539 -383.30010986 7.8984046 26.98797607 -383.30010986 5.06776524 25.48227882 -383.30010986 2.36452293 23.73358154 -383.30010986 -0.18826002 21.75680351 -383.30010986 -2.56880379 19.56880951 -383.30010986 -4.75679827 17.18826485 -383.30010986 -6.73357677 14.63548279 -383.30010986 -8.48227406 11.93224049 -383.30010986 -9.98797035 9.10160065 -383.30010986 -11.23781967 6.16771555 -383.30010986 -12.22115898 3.15561414 -383.30010986 -12.92959881 0.09099525 -383.30010986 -13.35709476 -2.99999475 -383.30010986 -13.5 -6.09098482 -383.30010986 -13.35709476 -9.15560341 -383.30010986 -12.92959881 -12.16770458 -383.30010986 -12.22115898 -15.10159016 -383.30010986 -11.23781967 -17.93223 -383.30010986 -9.98797035 -20.63547134 -383.30010986 -8.48227406 -23.18825531 -383.30010986 -6.73357677 -25.56879807 -383.30010986 -4.75679827 -27.75679398 -383.30010986 -2.56880379 -29.73357201 -383.30010986 -0.18826002 -31.48226929 -383.30010986 2.36452293 -32.98796463 -383.30010986 5.06776524 -34.23781586 -383.30010986 7.8984046 -35.22115326 -383.30010986 10.8322897 -35.92959213 -383.30010986 13.84439182</float_array>
          <technique_common>
            <accessor source="#pos_0-array" count="1800" stride="3">
              <param name="X" type="float"/>
              <param name="Y" type="float"/>
              <param name="Z" type="float"/>
            </accessor>
          </technique_common>
        </source>
        <source id="norm_0">
          <float_array id="norm_0-array" count="2082">0.99707 0 -0.07655 0.99707 0 -0.07655 0.99707 0 0.07655 0.99707 -0 0.07655 0.9737 -0 0.22785 0.9737 0 0.22785 0.9275 0 0.37382 0.9275 -0 0.37382 0.85957 -0 0.51102 0.85957 0 0.51102 0.77149 0 0.63624 0.77149 0 0.63624 0.66533 0 0.74655 0.66533 -0 0.74655 0.54357 -0 0.83937 0.54357 0 0.83937 0.40907 0 0.9125 0.40907 -0 0.9125 0.26498 0 0.96425 0.26498 -0 0.96425 0.11468 -0 0.9934 0.11468 -0 0.9934 -0.0383 0 0.99927 -0.0383 0 0.99927 -0.19039 0 0.98171 -0.19039 -0 0.98171 -0.33802 -0 0.94114 -0.33802 0 0.94114 -0.47772 0 0.87851 -0.47772 -0 0.87851 -0.60623 -0 0.79529 -0.60623 0 0.79529 -0.72052 0 0.69343 -0.72052 -0 0.69343 -0.81793 -0 0.57532 -0.81793 0 0.57532 -0.89617 0 0.44372 -0.89617 0 0.44372 -0.9534 0 0.30172 -0.9534 -0 0.30172 -0.98828 0 0.15265 -0.98828 -0 0.15265 -1 -0 0 -0.98828 0 -0.15265 -0.98828 -0 -0.15265 -0.9534 0 -0.30172 -0.9534 -0 -0.30172 -0.89617 -0 -0.44372 -0.89617 -0 -0.44372 -0.81793 -0 -0.57532 -0.81793 -0 -0.57532 -0.72052 -0 -0.69343 -0.72052 -0 -0.69343 -0.60623 -0 -0.79529 -0.60623 0 -0.79529 -0.47772 0 -0.87851 -0.47772 -0 -0.87851 -0.33802 -0 -0.94114 -0.33802 0 -0.94114 -0.19039 0 -0.98171 -0.19039 -0 -0.98171 -0.0383 -0 -0.99927 -0.0383 -0 -0.99927 0.11468 0 -0.9934 0.11468 0 -0.9934 0.26498 0 -0.96425 0.26498 -0 -0.96425 0.40907 0 -0.9125 0.40907 -0 -0.9125 0.54357 -0 -0.83937 0.54357 0 -0.83937 0.66533 0 -0.74655 0.66533 0 -0.74655 0.77149 0 -0.63624 0.77149 -0 -0.63624 0.85957 -0 -0.51102 0.85957 0 -0.51102 0.9275 0 -0.37382 0.9275 0 -0.37382 0.9737 0 -0.22785 0.9737 0 -0.22785 0.99893 -0 0.04618 0.99893 -0 0.04618 0.99041 -0 0.13816 0.99041 0 0.13816 0.97344 0 0.22895 0.97344 -0 0.22895 0.94816 -0 0.31779 0.94816 -0 0.31779 0.91479 -0 0.40392 0.87362 -0 0.4866 0.87362 -0 0.4866 0.825 -0 0.56514 0.825 0 0.56514 0.76933 0 0.63885 0.76933 0 0.63885 0.70711 0 0.70711 0.63885 0 0.76933 0.63885 -0 0.76933 0.56514 -0 0.825 0.56514 -0 0.825 0.4866 -0 0.87362 0.4866 -0 0.87362 0.40392 -0 0.91479 0.31779 -0 0.94816 0.31779 -0 0.94816 0.22895 -0 0.97344 0.22895 -0 0.97344 0.13816 -0 0.99041 0.13816 -0 0.99041 0.04618 -0 0.99893 -0.04618 0 0.99893 -0.13816 0 0.99041 -0.13816 0 0.99041 -0.22895 0 0.97344 -0.22895 -0 0.97344 -0.31779 -0 0.94816 -0.31779 0 0.94816 -0.40392 0 0.91479 -0.4866 0 0.87362 -0.56514 0 0.825 -0.63885 0 0.76933 -0.70711 0 0.70711 -0.76933 0 0.63885 -0.825 0 0.56514 -0.825 0 0.56514 -0.87362 0 0.4866 -0.87362 0 0.4866 -0.91479 0 0.40392 -0.94816 0 0.31779 -0.97344 0 0.22895 -0.99041 0 0.13816 -0.99041 -0 0.13816 -0.99893 -0 0.04618 -0.99893 -0 0.04618 0 1 0 0.00385 -0.09975 -0.995 -0.00589 0 -0.99998 0.00385 0.09975 -0.995 -0.00488 0.23931 -0.97093 0.00254 0.29273 -0.95619 -0.00309 0.46472 -0.88545 2E-05 0.48119 -0.87662 0.00041 0.64278 -0.76605 -0.00393 0.66312 -0.7485 0.00307 0.78131 -0.62413 -0.00572 0.82297 -0.56806 0.00445 0.88762 -0.46056 -0.00633 0.935 -0.3546 0.00399 0.96193 -0.27328 -0.00485 0.9927 -0.12054 0.00097 0.99634 -0.08545 -0.00107 0.99424 0.10717 -0.0038 0.9927 0.12054 0.00338 0.95566 0.29447 -0.00716 0.93499 0.3546 0.00528 0.87884 0.47708 -0.00792 0.82296 0.56805 0.00464 0.77283 0.6346 -0.00641 0.66311 0.7485 0.00121 0.63699 0.77087 -0.00066 0.47798 0.87837 -0.00481 0.46472 0.88545 0.00395 0.29079 0.95678 -0.00828 0.23931 0.97091 0.00656 0.09918 0.99505 -0.01018 0 0.99995 0.00656 -0.09918 0.99505 -0.00828 -0.23931 0.97091 0.00395 -0.29079 0.95678 -0.00481 -0.46472 0.88545 -0.00066 -0.47798 0.87837 0.00121 -0.63699 0.77087 -0.00641 -0.66311 0.7485 0.00464 -0.77283 0.6346 -0.00792 -0.82296 0.56805 0.00528 -0.87884 0.47708 -0.00716 -0.93499 0.3546 0.00338 -0.95566 0.29447 -0.0038 -0.9927 0.12054 -0.00107 -0.99424 0.10717 0.00097 -0.99634 -0.08545 -0.00485 -0.9927 -0.12054 0.00399 -0.96193 -0.27328 -0.00633 -0.935 -0.3546 0.00445 -0.88762 -0.46056 -0.00572 -0.82297 -0.56806 0.00307 -0.78131 -0.62413 -0.00393 -0.66312 -0.7485 0.00041 -0.64278 -0.76605 2E-05 -0.48119 -0.87662 -0.00309 -0.46472 -0.88545 0.00254 -0.29273 -0.95619 -0.00488 -0.23931 -0.97093 0.00485 0.9927 -0.12054 -0.00097 0.99634 -0.08545 0.00107 0.99424 0.10717 -0.00399 0.96193 -0.27328 0.00633 0.935 -0.3546 -0.00445 0.88762 -0.46056 0.00572 0.82297 -0.56806 -0.00307 0.78131 -0.62413 0.00393 0.66312 -0.7485 -0.00041 0.64278 -0.76605 -2E-05 0.48119 -0.87662 0.00309 0.46472 -0.88545 -0.00254 0.29273 -0.95619 0.00488 0.23931 -0.97093 -0.00385 0.09975 -0.995 0.00589 0 -0.99998 -0.00385 -0.09975 -0.995 0.00488 -0.23931 -0.97093 -0.00254 -0.29273 -0.95619 0.00309 -0.46472 -0.88545 -2E-05 -0.48119 -0.87662 -0.00041 -0.64278 -0.76605 0.00393 -0.66312 -0.7485 -0.00307 -0.78131 -0.62413 0.00572 -0.82297 -0.56806 -0.00445 -0.88762 -0.46056 0.00633 -0.935 -0.3546 -0.00399 -0.96193 -0.27328 0.00485 -0.9927 -0.12054 -0.00097 -0.99634 -0.08545 0.00107 -0.99424 0.10717 0.0038 -0.9927 0.12054 -0.00338 -0.95566 0.29447 0.00716 -0.93499 0.3546 -0.00528 -0.87884 0.47708 0.00792 -0.82296 0.56805 -0.00464 -0.77283 0.6346 0.00641 -0.66311 0.7485 -0.00121 -0.63699 0.77087 0.00066 -0.47798 0.87837 0.00481 -0.46472 0.88545 -0.00395 -0.29079 0.95678 0.00828 -0.23931 0.97091 -0.00656 -0.09918 0.99505 0.01018 0 0.99995 -0.00656 0.09918 0.99505 0.00828 0.23931 0.97091 -0.00395 0.29079 0.95678 0.00481 0.46472 0.88545 0.00066 0.47798 0.87837 -0.00121 0.63699 0.77087 0.00641 0.66311 0.7485 -0.00464 0.77283 0.6346 0.00792 0.82296 0.56805 -0.00528 0.87884 0.47708 0.00716 0.93499 0.3546 -0.00338 0.95566 0.29447 0.0038 0.9927 0.12054 0 0.04972 0.99876 -0.00426 0.07846 0.99691 0.00211 0.14622 0.98925 -0.00305 0.23344 0.97237 -0.00158 0.24121 0.97047 0.00139 0.33697 0.94152 -0.00474 0.38268 0.92387 0.00163 0.43253 0.90162 -0.00218 0.52016 0.85406 -0.00271 0.5225 0.85264 0.00201 0.60029 0.79978 -0.00445 0.64944 0.7604 0.00036 0.67491 0.7379 -0.0004 0.74477 0.66732 -0.00419 0.7604 0.64944 0.00226 0.80577 0.59223 -0.00341 0.85264 0.5225 -0.00124 0.85877 0.51236 0.00128 0.90545 0.42446 -0.0051 0.92387 0.38268 0.00182 0.94418 0.32943 -0.00254 0.97177 0.23592 -0.0031 0.97237 0.23344 0.00228 0.98987 0.14195 -0.00516 0.9969 0.07846 -0 0.99883 0.0484 -0 0 1 -1 0 0 -1 -0 0 -1 0 0 -1 0 0 -1 0 0 -1 -0 0 -1 0 0 -1 0 -0 -1 0 -0 -1 0 -0 -1 0 -0 0.00426 0.07846 0.99691 -0.00211 0.14622 0.98925 0.00305 0.23344 0.97237 0.00158 0.24121 0.97047 -0.00139 0.33697 0.94152 0.00474 0.38268 0.92387 -0.00163 0.43253 0.90162 0.00218 0.52016 0.85406 0.00271 0.5225 0.85264 -0.00201 0.60029 0.79978 0.00445 0.64944 0.7604 -0.00036 0.67491 0.7379 0.0004 0.74477 0.66732 0.00419 0.7604 0.64944 -0.00226 0.80577 0.59223 0.00341 0.85264 0.5225 0.00124 0.85877 0.51236 -0.00128 0.90545 0.42446 0.0051 0.92387 0.38268 -0.00182 0.94418 0.32943 0.00254 0.97177 0.23592 0.0031 0.97237 0.23344 -0.00228 0.98987 0.14195 0.00516 0.9969 0.07846 0 1 -0 1 0 0 1 -0 -0 1 0 -0 1 0 -0 1 -0 -0 1 -0 -0 1 0 -0 -0 1 -0 -0.99271 -0.00046 -0.12051 -0.99369 -0.00021 -0.11217 -0.99252 0.00018 -0.12208 -0.9919 -0.00067 -0.12702 -0.99156 -0.00059 -0.12966 -0.99008 -0.0003 -0.1405 -0.98797 -6E-05 -0.15467 -0.98503 3E-05 -0.17238 -0.98128 -0.00018 -0.19259 -0.9776 -0.00069 -0.21046 -0.97641 -0.00047 -0.21593 -0.97096 -0 -0.23924 -0.96465 0 -0.26352 -0.95807 -0.00046 -0.28652 -0.95623 -0.00071 -0.29261 -0.95097 -0.0002 -0.3093 -0.9444 3E-05 -0.32879 -0.93825 -5E-05 -0.34596 -0.93309 -0.00029 -0.35964 -0.92789 -0.00065 -0.37286 -0.92877 -0.00074 -0.37065 -0.92545 -0.00046 -0.37888 -0.92064 -0.0001 -0.39042 -0.92451 0.00073 -0.38117 -0.92783 0.00158 -0.37301 -0.93061 0.00253 -0.36601 -0.93199 0.00207 -0.36249 -0.93805 0.00055 -0.34649 -0.94444 -0.00018 -0.32869 -0.95092 0.00047 -0.30943 -0.95727 0.00301 -0.28917 -0.95789 0.0026 -0.28713 -0.96465 8E-05 -0.26353 -0.97096 -7E-05 -0.23924 -0.97135 8E-05 -0.23767 -0.97638 -1E-05 -0.21607 -0.97678 0.00016 -0.21422 -0.98127 7E-05 -0.19264 -0.98151 0.00017 -0.19141 -0.98503 -3E-05 -0.17238 -0.9858 0.00024 -0.16795 -0.98793 -0.00012 -0.15487 -0.98958 0.00022 -0.14396 -0.99002 7E-05 -0.14092 -0.99131 1E-05 -0.13152 -0.99233 0.00015 -0.12358 0.99242 0.00022 -0.1229 0.99369 -0.00021 -0.11217 0.99271 -0.00046 -0.12051 0.99162 -0.00074 -0.12917 0.9919 -0.00066 -0.12702 0.99008 -0.0003 -0.1405 0.98797 -6E-05 -0.15467 0.98503 3E-05 -0.17238 0.98128 -0.00018 -0.19259 0.9776 -0.00069 -0.21046 0.97641 -0.00047 -0.21593 0.97096 -0 -0.23924 0.96465 0 -0.26352 0.95807 -0.00046 -0.28652 0.95623 -0.00071 -0.29261 0.95097 -0.0002 -0.3093 0.9444 3E-05 -0.32879 0.93825 -5E-05 -0.34596 0.93309 -0.00029 -0.35964 0.92896 -0.00058 -0.37019 0.92789 -0.00067 -0.37286 0.92545 -0.00046 -0.37888 0.92064 -0.0001 -0.39042 0.92451 0.00073 -0.38117 0.92783 0.00158 -0.37301 0.93061 0.00253 -0.36601 0.93199 0.00207 -0.36249 0.93805 0.00055 -0.34649 0.94444 -0.00018 -0.32869 0.95092 0.00047 -0.30943 0.95727 0.00301 -0.28917 0.95789 0.0026 -0.28713 0.96465 8E-05 -0.26353 0.97096 -7E-05 -0.23924 0.97135 8E-05 -0.23767 0.97638 -1E-05 -0.21607 0.97678 0.00016 -0.21422 0.98127 7E-05 -0.19264 0.98151 0.00017 -0.19141 0.98503 -3E-05 -0.17238 0.9858 0.00024 -0.16795 0.98793 -0.00012 -0.15487 0.98958 0.00022 -0.14396 0.99002 7E-05 -0.14092 0.99131 1E-05 -0.13152 0.99252 0.00018 -0.12208 0.99477 -6E-05 -0.10219 0.99652 3E-05 -0.0834 0.99783 -9E-05 -0.06589 0.99871 -0.00033 -0.05082 0.99857 -0.00027 -0.05341 0.9991 0 -0.04244 0.9919 0 -0.12702 0.97758 0 -0.21057 0.97756 -1E-05 -0.21068 0.9562 1E-05 -0.29271 0.95617 0 -0.29282 0.92789 0 -0.37286 0.89293 0 -0.4502 0.85153 0 -0.52431 0.804 0 -0.59463 0.75067 0 -0.66067 0.75067 -0 -0.66067 0.69194 -0 -0.72196 0.69194 0 -0.72196 0.62822 0 -0.77804 0.55997 0 -0.82851 0.48769 0 -0.87301 0.4119 0 -0.91123 0.33314 0 -0.94288 0.25198 0 -0.96773 0.169 0 -0.98562 0.08494 0 -0.99639 0.08481 -1E-05 -0.9964 0 1E-05 -1 0.99931 -0.00013 -0.03708 0.99968 -6E-05 -0.02511 0.99987 -2E-05 -0.01589 0.99996 -1E-05 -0.00872 1 -0 -0.00159 0.99999 -0 0.00492 -0 1E-05 -1 -0.08481 -1E-05 -0.9964 -0.08494 0 -0.99639 -0.169 -0 -0.98562 -0.25198 -0 -0.96773 -0.25198 -0.00014 -0.96773 -0.25608 0.0002 -0.96666 -0.33314 -0.0002 -0.94288 -0.33846 0.00025 -0.94098 -0.4119 -0.00025 -0.91123 -0.41833 0.00031 -0.9083 -0.48769 -0.0003 -0.87301 -0.49508 0.00035 -0.86885 -0.55997 -0.00035 -0.82851 -0.56814 0.0004 -0.82293 -0.62822 -0.00039 -0.77804 -0.63698 0.00045 -0.77088 -0.69194 -0.00044 -0.72196 -0.70106 0.00049 -0.7131 -0.75067 -0.00048 -0.66067 -0.75993 0.00053 -0.65 -0.804 -0.00052 -0.59463 -0.81314 0.00057 -0.58206 -0.85153 -0.00056 -0.52431 -0.85777 0.00027 -0.51404 -0.89293 -0.00026 -0.4502 -0.89779 0.00019 -0.44042 -0.33314 -0 -0.94288 -0.4119 -0 -0.91123 -0.48769 -0 -0.87301 -0.55997 -0 -0.82851 -0.62822 -0 -0.77804 -0.69194 -0 -0.72196 -0.75067 -0 -0.66067 -0.804 -0 -0.59463 -0.85153 -0 -0.52431 -0.89293 -0 -0.4502 -0.92789 -0 -0.37286 -0.9562 -0 -0.29271 -0.95623 1E-05 -0.29261 -0.97758 -1E-05 -0.21057 -0.9776 0 -0.21046 -0.9919 -0 -0.12702 -0.95617 -0 -0.29282 -0.9562 1E-05 -0.29271 -0.97756 -1E-05 -0.21068 -0.97758 0 -0.21057 -0.9991 -0 -0.04244 -0.99988 -0.00154 -0.01517 -0.99989 -0.00144 -0.01447 -0.99999 -0.00049 -0.00488 -0.99981 -0.00134 -0.01955 -0.99963 -0.00103 -0.02712 -0.99928 -0.00066 -0.03795 -0.99871 -0.00033 -0.05082 -0.99783 -9E-05 -0.06589 -0.99652 3E-05 -0.0834 -0.99477 -6E-05 -0.10219 -0.85903 0 -0.51193 -0.17179 0.00015 -0.98513 -0.169 -9E-05 -0.98562 -0.08508 0 -0.99637 -0.08494 -1E-05 -0.99639 -0 1E-05 -1 -0 1E-05 -1 0.08494 -1E-05 -0.99639 -0.08621 9E-05 -0.99628 -0.08508 -1E-05 -0.99637 -0 1E-05 -1 -0 1E-05 -1 0.08508 -1E-05 -0.99637 0.08621 9E-05 -0.99628 0.169 -9E-05 -0.98562 0.17179 0.00015 -0.98513 0.25198 -0.00014 -0.96773 0.25608 0.0002 -0.96666 0.33314 -0.0002 -0.94288 0.33846 0.00025 -0.94098 0.4119 -0.00025 -0.91123 0.41833 0.00031 -0.9083 0.48769 -0.0003 -0.87301 0.49508 0.00035 -0.86885 0.55997 -0.00035 -0.82851 0.56814 0.0004 -0.82293 0.62822 -0.00039 -0.77804 0.63698 0.00045 -0.77088 0.69194 -0.00044 -0.72196 0.70106 0.00049 -0.7131 0.75067 -0.00048 -0.66067 0.75993 0.00053 -0.65 0.804 -0.00052 -0.59463 0.81314 0.00057 -0.58206 0.85153 -0.00056 -0.52431 0.85576 0 -0.51737 0.85903 0.00025 -0.51193 0.89293 -0.00026 -0.4502 0.89779 0.00019 -0.44042 0.9562 0 -0.29271 0.95623 1E-05 -0.29261 0.97758 -1E-05 -0.21057 0.9776 0 -0.21046 0.75067 0 -0.66067 0.69194 0 -0.72196 0.08508 0 -0.99637 0.99893 -0 0.04618 0.99893 -0 0.04618 0.99893 0 0.04618 0.99893 0 0.04618 0.99041 0 0.13816 0.99041 0 0.13816 0.97344 0 0.22895 0.97344 0 0.22895 0.94816 0 0.31779 0.94816 0 0.31779 0.91479 0 0.40392 0.91479 -0 0.40392 0.87362 -0 0.4866 0.87362 0 0.4866 0.825 0 0.56514 0.825 0 0.56514 0.76933 0 0.63885 0.76933 0 0.63885 0.70711 0 0.70711 0.63885 0 0.76933 0.56514 0 0.825 0.56514 0 0.825 0.4866 0 0.87362 0.4866 -0 0.87362 0.40392 -0 0.91479 0.40392 -0 0.91479 0.31779 -0 0.94816 0.31779 -0 0.94816 0.22895 -0 0.97344 0.22895 0 0.97344 0.13816 0 0.99041 0.13816 -0 0.99041 0.04618 -0 0.99893 0.04618 -0 0.99893 -0.04618 0 0.99893 -0.04618 -0 0.99893 -0.13816 -0 0.99041 -0.13816 0 0.99041 -0.22895 0 0.97344 -0.22895 0 0.97344 -0.31779 0 0.94816 -0.40392 0 0.91479 -0.40392 0 0.91479 -0.4866 0 0.87362 -0.56514 0 0.825 -0.63885 0 0.76933 -0.63885 0 0.76933 -0.70711 0 0.70711 -0.70711 0 0.70711 -0.76933 0 0.63885 -0.76933 0 0.63885 -0.825 0 0.56514 -0.825 0 0.56514 -0.87362 0 0.4866 -0.87362 -0 0.4866 -0.91479 -0 0.40392 -0.91479 -0 0.40392 -0.94816 -0 0.31779 -0.94816 -0 0.31779 -0.97344 0 0.22895 -0.97344 0 0.22895 -0.99041 0 0.13816 -0.99041 -0 0.13816 -0.99893 -0 0.04618 -0.99893 0 0.04618 -0.99893 -0 0.04618 -0.99893 0 0.04618 -0.99041 0 0.13816 -0.99041 -0 0.13816 -0.97344 -0 0.22895 -0.97344 -0 0.22895 -0.94816 -0 0.31779 -0.94816 0 0.31779 -0.91479 0 0.40392 -0.91479 0 0.40392 -0.87362 0 0.4866 -0.87362 -0 0.4866 -0.825 -0 0.56514 -0.825 -0 0.56514 -0.76933 0 0.63885 -0.70711 0 0.70711 -0.63885 -0 0.76933 -0.56514 -0 0.825 -0.56514 -0 0.825 -0.4866 -0 0.87362 -0.4866 -0 0.87362 -0.40392 -0 0.91479 -0.40392 -0 0.91479 -0.31779 -0 0.94816 -0.31779 -0 0.94816 -0.22895 -0 0.97344 -0.13816 0 0.99041 -0.04618 0 0.99893 -0.04618 -0 0.99893 0.04618 0 0.99893 0.04618 0 0.99893 0.13816 0 0.99041 0.13816 -0 0.99041 0.22895 -0 0.97344 0.22895 -0 0.97344 0.31779 -0 0.94816 0.31779 0 0.94816 0.40392 0 0.91479 0.40392 0 0.91479 0.4866 0 0.87362 0.4866 -0 0.87362 0.56514 -0 0.825 0.56514 -0 0.825 0.63885 -0 0.76933 0.70711 -0 0.70711 0.76933 -0 0.63885 0.76933 -0 0.63885 0.825 -0 0.56514 0.825 -0 0.56514 0.87362 -0 0.4866 0.87362 0 0.4866 0.91479 0 0.40392 0.91479 -0 0.40392 0.94816 -0 0.31779 0.94816 -0 0.31779 0.97344 -0 0.22895 0.97344 -0 0.22895 0.99041 -0 0.13816 0.99041 -0 0.13816 0.99041 -0 0.13816 0.99041 0 0.13816 0.97344 0 0.22895 0.825 0 0.56514 0.76933 0 0.63885 0.70711 0 0.70711 0.22895 0 0.97344 -0.13816 -0 0.99041 -0.22895 -0 0.97344 -0.63885 0 0.76933 -0.70711 -0 0.70711 -0.70711 -0 0.70711 -0.76933 -0 0.63885 -0 0 1 0 -0 1 -0 -1 0</float_array>
          <technique_common>
            <accessor source="#norm_0-array" count="2082" stride="3">
              <param name="X" type="float"/>
              <param name="Y" type="float"/>
              <param name="Z" type="float"/>
            </accessor>
          </technique_common>
        </source>
        <vertices id="vert_0">
          <input semantic="POSITION" source="#pos_0"/>
        </vertices>
        <triangles count="1207">
          <input semantic="VERTEX" source="#vert_0" offset="0"/>
          <input semantic="NORMAL" source="#norm_0" offset="1"/>
          <p>2 1 1 1 3 1 2 2 3 2 4 2 4 3 3 3 5 3 4 4 5 4 6 4 6 5 5 5 7 5 6 6 7 6 8 6 8 7 7 7 9 7 8 8 9 8 10 8 10 9 9 9 11 9 10 10 11 10 12 10 12 11 11 11 13 11 12 12 13 12 14 12 14 13 13 13 15 13 14 14 15 14 16 14 16 15 15 15 17 15 16 16 17 16 18 16 18 17 17 17 19 17 18 18 19 18 20 18 20 19 19 19 21 19 20 20 21 20 22 20 22 21 21 21 23 21 22 22 23 22 24 22 24 23 23 23 25 23 24 24 25 24 26 24 26 25 25 25 27 25 26 26 27 26 28 26 28 27 27 27 29 27 28 28 29 28 30 28 30 29 29 29 31 29 30 30 31 30 32 30 32 31 31 31 33 31 32 32 33 32 34 32 34 33 33 33 35 33 34 34 35 34 36 34 36 35 35 35 37 35 36 36 37 36 38 36 38 37 37 37 39 37 38 38 39 38 40 38 40 39 39 39 41 39 40 40 41 40 42 40 42 41 41 41 43 41 42 42 43 42 44 42 44 42 43 42 45 42 44 43 45 43 46 43 46 44 45 44 47 44 46 45 47 45 48 45 48 46 47 46 49 46 48 47 49 47 50 47 50 48 49 48 51 48 50 49 51 49 52 49 52 50 51 50 53 50 52 51 53 51 54 51 54 52 53 52 55 52 54 53 55 53 56 53 56 54 55 54 57 54 56 55 57 55 58 55 58 56 57 56 59 56 58 57 59 57 60 57 60 58 59 58 61 58 60 59 61 59 62 59 62 60 61 60 63 60 62 61 63 61 64 61 64 62 63 62 65 62 64 63 65 63 66 63 66 64 65 64 67 64 66 65 67 65 68 65 68 66 67 66 69 66 68 67 69 67 70 67 70 68 69 68 71 68 70 69 71 69 72 69 72 70 71 70 73 70 72 71 73 71 74 71 74 72 73 72 75 72 74 73 75 73 76 73 76 74 75 74 77 74 76 75 77 75 78 75 78 76 77 76 79 76 78 77 79 77 80 77 80 78 79 78 81 78 80 79 81 79 0 79 0 80 81 80 1 80 82 81 83 81 84 81 84 82 83 82 85 82 84 83 85 83 86 83 86 84 85 84 87 84 86 85 87 85 88 85 88 86 87 86 89 86 88 87 89 87 90 87 90 88 89 88 91 88 90 89 91 89 92 89 92 89 91 89 93 89 92 90 93 90 94 90 94 91 93 91 95 91 94 92 95 92 96 92 96 93 95 93 97 93 96 94 97 94 98 94 98 95 97 95 99 95 98 96 99 96 100 96 100 96 99 96 101 96 100 97 101 97 102 97 102 98 101 98 103 98 102 99 103 99 104 99 104 100 103 100 105 100 104 101 105 101 106 101 106 102 105 102 107 102 106 103 107 103 108 103 108 103 107 103 109 103 108 104 109 104 110 104 110 105 109 105 111 105 110 106 111 106 112 106 112 107 111 107 113 107 112 108 113 108 114 108 114 109 113 109 115 109 114 110 115 110 116 110 116 110 115 110 117 110 116 111 117 111 118 111 118 111 117 111 119 111 118 112 119 112 120 112 120 113 119 113 121 113 120 114 121 114 122 114 122 115 121 115 123 115 122 116 123 116 124 116 124 117 123 117 125 117 124 118 125 118 126 118 126 118 125 118 127 118 126 119 127 119 128 119 128 119 127 119 129 119 128 120 129 120 130 120 130 120 129 120 131 120 130 121 131 121 132 121 132 121 131 121 133 121 132 122 133 122 134 122 134 122 133 122 135 122 134 123 135 123 136 123 136 123 135 123 137 123 136 124 137 124 138 124 138 125 137 125 139 125 138 126 139 126 140 126 140 127 139 127 141 127 140 128 141 128 142 128 142 128 141 128 143 128 142 129 143 129 144 129 144 129 143 129 145 129 144 130 145 130 146 130 146 130 145 130 147 130 146 131 147 131 148 131 148 132 147 132 149 132 148 133 149 133 150 133 150 134 149 134 151 134 4 135 152 135 2 135 2 135 152 135 151 135 2 135 151 135 149 135 152 135 4 135 153 135 153 135 4 135 6 135 153 135 6 135 154 135 154 135 6 135 155 135 155 135 6 135 8 135 155 135 8 135 156 135 156 135 8 135 157 135 157 135 8 135 10 135 157 135 10 135 158 135 158 135 10 135 12 135 158 135 12 135 159 135 159 135 12 135 160 135 160 135 12 135 14 135 160 135 14 135 161 135 161 135 14 135 162 135 162 135 14 135 16 135 162 135 16 135 163 135 163 135 16 135 18 135 163 135 18 135 164 135 164 135 18 135 165 135 165 135 18 135 20 135 165 135 20 135 166 135 166 135 20 135 167 135 167 135 20 135 22 135 167 135 22 135 168 135 168 135 22 135 24 135 168 135 24 135 169 135 169 135 24 135 170 135 170 135 24 135 26 135 170 135 26 135 171 135 171 135 26 135 172 135 172 135 26 135 28 135 172 135 28 135 173 135 173 135 28 135 30 135 173 135 30 135 174 135 174 135 30 135 175 135 175 135 30 135 32 135 175 135 32 135 176 135 176 135 32 135 177 135 177 135 32 135 34 135 177 135 34 135 178 135 178 135 34 135 36 135 178 135 36 135 179 135 179 135 36 135 180 135 180 135 36 135 38 135 180 135 38 135 181 135 181 135 38 135 182 135 182 135 38 135 40 135 182 135 40 135 183 135 183 135 40 135 42 135 183 135 42 135 184 135 184 135 42 135 83 135 83 135 42 135 44 135 83 135 44 135 85 135 85 135 44 135 87 135 87 135 44 135 46 135 87 135 46 135 89 135 89 135 46 135 48 135 89 135 48 135 91 135 91 135 48 135 93 135 93 135 48 135 50 135 93 135 50 135 95 135 95 135 50 135 97 135 97 135 50 135 52 135 97 135 52 135 99 135 99 135 52 135 54 135 99 135 54 135 101 135 101 135 54 135 103 135 103 135 54 135 56 135 103 135 56 135 105 135 105 135 56 135 107 135 107 135 56 135 58 135 107 135 58 135 109 135 109 135 58 135 60 135 109 135 60 135 111 135 111 135 60 135 113 135 113 135 60 135 62 135 113 135 62 135 115 135 115 135 62 135 117 135 117 135 62 135 64 135 117 135 64 135 119 135 119 135 64 135 66 135 119 135 66 135 121 135 121 135 66 135 123 135 123 135 66 135 68 135 123 135 68 135 125 135 125 135 68 135 127 135 127 135 68 135 70 135 127 135 70 135 129 135 129 135 70 135 72 135 129 135 72 135 131 135 131 135 72 135 133 135 133 135 72 135 74 135 133 135 74 135 135 135 135 135 74 135 137 135 137 135 74 135 76 135 137 135 76 135 139 135 139 135 76 135 78 135 139 135 78 135 141 135 141 135 78 135 143 135 143 135 78 135 80 135 143 135 80 135 145 135 145 135 80 135 147 135 147 135 80 135 0 135 147 135 0 135 149 135 149 135 0 135 2 135 185 136 186 136 187 136 187 137 186 137 188 137 187 138 188 138 189 138 189 139 188 139 190 139 189 140 190 140 191 140 191 141 190 141 192 141 191 142 192 142 193 142 193 143 192 143 194 143 194 144 192 144 195 144 194 145 195 145 196 145 196 146 195 146 197 146 196 147 197 147 198 147 198 148 197 148 199 148 198 149 199 149 200 149 200 150 199 150 201 150 200 151 201 151 202 151 202 152 201 152 203 152 203 153 201 153 204 153 203 154 204 154 205 154 205 155 204 155 206 155 205 156 206 156 207 156 207 157 206 157 208 157 207 158 208 158 209 158 209 159 208 159 210 159 209 160 210 160 211 160 211 161 210 161 212 161 212 162 210 162 213 162 212 163 213 163 214 163 214 164 213 164 215 164 214 165 215 165 216 165 216 166 215 166 217 166 216 167 217 167 218 167 218 168 217 168 219 168 218 169 219 169 220 169 220 170 219 170 221 170 220 171 221 171 222 171 222 172 221 172 223 172 223 173 221 173 224 173 223 174 224 174 225 174 225 175 224 175 226 175 225 176 226 176 227 176 227 177 226 177 228 177 227 178 228 178 229 178 229 179 228 179 230 179 229 180 230 180 231 180 231 181 230 181 232 181 232 182 230 182 233 182 232 183 233 183 234 183 234 184 233 184 235 184 234 185 235 185 236 185 236 186 235 186 237 186 236 187 237 187 238 187 238 188 237 188 239 188 238 189 239 189 240 189 240 190 239 190 241 190 241 191 239 191 242 191 241 192 242 192 185 192 185 193 242 193 186 193 243 194 244 194 245 194 245 195 244 195 246 195 245 196 246 196 247 196 244 197 243 197 248 197 248 198 243 198 249 198 248 199 249 199 250 199 250 200 249 200 251 200 250 201 251 201 252 201 252 202 251 202 253 202 252 203 253 203 254 203 254 204 253 204 255 204 255 205 253 205 256 205 255 206 256 206 257 206 257 207 256 207 258 207 257 208 258 208 259 208 259 209 258 209 260 209 259 210 260 210 261 210 261 211 260 211 262 211 261 212 262 212 263 212 263 213 262 213 264 213 263 214 264 214 265 214 265 215 264 215 266 215 266 216 264 216 267 216 266 217 267 217 268 217 268 218 267 218 269 218 268 219 269 219 270 219 270 220 269 220 271 220 270 221 271 221 272 221 272 222 271 222 273 222 272 223 273 223 274 223 274 224 273 224 275 224 275 225 273 225 276 225 275 226 276 226 277 226 277 227 276 227 278 227 277 228 278 228 279 228 279 229 278 229 280 229 279 230 280 230 281 230 281 231 280 231 282 231 281 232 282 232 283 232 283 233 282 233 284 233 284 234 282 234 285 234 284 235 285 235 286 235 286 236 285 236 287 236 286 237 287 237 288 237 288 238 287 238 289 238 288 239 289 239 290 239 290 240 289 240 291 240 290 241 291 241 292 241 292 242 291 242 293 242 292 243 293 243 294 243 294 244 293 244 295 244 295 245 293 245 296 245 295 246 296 246 297 246 297 247 296 247 298 247 297 248 298 248 299 248 299 249 298 249 300 249 299 250 300 250 247 250 247 251 300 251 245 251 301 252 302 252 303 252 303 253 302 253 304 253 304 254 302 254 305 254 304 255 305 255 306 255 306 256 305 256 307 256 306 257 307 257 308 257 306 258 308 258 309 258 309 259 308 259 310 259 309 260 310 260 311 260 309 261 311 261 312 261 312 262 311 262 313 262 312 263 313 263 314 263 314 264 313 264 315 264 314 265 315 265 316 265 314 266 316 266 317 266 317 267 316 267 318 267 317 268 318 268 319 268 319 269 318 269 320 269 319 270 320 270 321 270 319 271 321 271 322 271 322 272 321 272 323 272 322 273 323 273 324 273 322 274 324 274 325 274 325 275 324 275 326 275 325 276 326 276 327 276 327 277 326 277 328 277 303 278 329 278 301 278 301 278 329 278 330 278 330 278 329 278 83 278 330 278 83 278 82 278 300 42 331 42 245 42 245 42 331 42 329 42 245 42 329 42 243 42 243 42 329 42 249 42 249 42 329 42 251 42 251 42 329 42 253 42 253 42 329 42 256 42 256 279 329 279 303 279 256 280 303 280 258 280 258 281 303 281 260 281 260 282 303 282 262 282 262 283 303 283 264 283 264 284 303 284 304 284 264 42 304 42 306 42 300 42 298 42 331 42 331 42 298 42 296 42 331 42 296 42 293 42 293 42 291 42 331 42 331 42 291 42 289 42 331 42 289 42 332 42 332 42 289 42 287 42 332 42 287 42 285 42 285 42 282 42 332 42 332 42 282 42 280 42 332 285 280 285 327 285 327 286 280 286 278 286 327 287 278 287 276 287 276 288 273 288 327 288 327 289 273 289 325 289 325 42 273 42 271 42 325 42 271 42 322 42 322 42 271 42 269 42 322 42 269 42 319 42 319 42 269 42 317 42 317 42 269 42 267 42 317 42 267 42 314 42 314 42 267 42 312 42 312 42 267 42 309 42 309 42 267 42 264 42 309 42 264 42 306 42 333 252 334 252 335 252 335 290 334 290 336 290 335 291 336 291 337 291 337 292 336 292 338 292 337 293 338 293 339 293 339 294 338 294 340 294 340 295 338 295 341 295 340 296 341 296 342 296 342 297 341 297 343 297 343 298 341 298 344 298 343 299 344 299 345 299 345 300 344 300 346 300 345 301 346 301 347 301 347 302 346 302 348 302 348 303 346 303 349 303 348 304 349 304 350 304 350 305 349 305 351 305 350 306 351 306 352 306 352 307 351 307 353 307 353 308 351 308 354 308 353 309 354 309 355 309 355 310 354 310 356 310 356 311 354 311 357 311 356 312 357 312 358 312 358 313 357 313 359 313 358 277 359 277 360 277 360 135 359 135 361 135 361 135 359 135 362 135 362 135 359 135 363 135 363 314 359 314 364 314 199 315 365 315 201 315 201 315 365 315 366 315 201 315 366 315 204 315 204 315 366 315 206 315 206 315 366 315 208 315 208 315 366 315 210 315 210 315 366 315 213 315 213 315 366 315 215 315 215 315 366 315 364 315 215 315 364 315 217 315 217 315 364 315 219 315 219 315 364 315 221 315 221 315 364 315 224 315 224 315 364 315 359 315 224 315 359 315 226 315 226 315 359 315 228 315 228 315 359 315 230 315 230 315 359 315 357 315 230 315 357 315 233 315 233 315 357 315 354 315 233 315 354 315 235 315 235 315 354 315 351 315 235 315 351 315 349 315 199 315 197 315 365 315 365 315 197 315 195 315 365 315 195 315 192 315 192 315 190 315 365 315 365 316 190 316 334 316 334 317 190 317 188 317 334 318 188 318 186 318 186 319 242 319 334 319 334 320 242 320 239 320 334 321 239 321 336 321 336 315 239 315 338 315 338 315 239 315 341 315 341 315 239 315 237 315 341 315 237 315 344 315 344 315 237 315 346 315 346 315 237 315 349 315 349 315 237 315 235 315 365 135 367 135 366 135 366 135 367 135 368 135 366 135 368 135 369 135 369 135 370 135 366 135 366 135 370 135 371 135 366 135 371 135 372 135 372 135 373 135 366 135 366 135 373 135 374 135 374 135 373 135 375 135 374 135 375 135 376 135 374 135 376 135 377 135 377 135 376 135 378 135 377 135 378 135 379 135 379 135 378 135 380 135 379 135 380 135 381 135 381 135 380 135 382 135 382 135 380 135 383 135 382 135 383 135 384 135 384 135 383 135 385 135 384 135 385 135 386 135 386 135 385 135 387 135 386 135 387 135 388 135 388 135 387 135 389 135 388 135 389 135 390 135 390 135 389 135 391 135 390 135 391 135 392 135 392 135 391 135 393 135 393 135 391 135 394 135 393 135 394 135 395 135 395 135 394 135 396 135 395 135 396 135 397 135 397 135 396 135 398 135 398 135 396 135 399 135 398 135 399 135 400 135 400 135 399 135 401 135 400 135 401 135 402 135 402 135 401 135 403 135 402 135 403 135 404 135 404 135 403 135 405 135 404 135 405 135 406 135 406 135 405 135 407 135 406 135 407 135 408 135 408 135 407 135 409 135 409 135 407 135 410 135 409 135 410 135 411 135 411 135 410 135 412 135 411 135 412 135 413 135 413 135 412 135 414 135 413 135 414 135 415 135 413 135 415 135 331 135 331 135 415 135 416 135 331 135 416 135 417 135 417 135 418 135 331 135 331 135 418 135 419 135 331 135 419 135 420 135 420 135 421 135 331 135 331 135 421 135 329 135 328 135 422 135 327 135 327 135 422 135 423 135 327 135 423 135 424 135 424 322 332 322 327 322 189 323 425 323 187 323 187 324 425 324 350 324 187 325 350 325 352 325 425 326 189 326 426 326 426 327 189 327 191 327 426 328 191 328 193 328 193 329 194 329 426 329 426 330 194 330 196 330 426 331 196 331 198 331 426 332 198 332 427 332 427 333 198 333 200 333 427 334 200 334 202 334 202 335 203 335 427 335 427 336 203 336 205 336 427 337 205 337 428 337 428 338 205 338 207 338 428 339 207 339 209 339 209 340 211 340 428 340 428 341 211 341 212 341 428 342 212 342 429 342 429 343 212 343 214 343 429 344 214 344 216 344 429 345 216 345 362 345 362 346 216 346 218 346 362 347 218 347 220 347 362 348 220 348 361 348 361 349 220 349 222 349 361 350 222 350 223 350 223 351 225 351 361 351 361 352 225 352 227 352 361 353 227 353 360 353 360 354 227 354 229 354 360 355 229 355 231 355 231 356 232 356 360 356 360 357 232 357 358 357 358 358 232 358 234 358 358 359 234 359 356 359 356 360 234 360 236 360 356 361 236 361 355 361 355 362 236 362 238 362 355 363 238 363 353 363 353 364 238 364 240 364 353 365 240 365 352 365 352 366 240 366 241 366 352 367 241 367 185 367 185 368 187 368 352 368 261 369 318 369 259 369 259 370 318 370 430 370 259 371 430 371 257 371 257 372 430 372 255 372 255 373 430 373 431 373 255 374 431 374 254 374 254 375 431 375 252 375 252 376 431 376 250 376 250 377 431 377 248 377 248 378 431 378 432 378 248 379 432 379 244 379 244 380 432 380 246 380 246 381 432 381 247 381 247 382 432 382 299 382 299 383 432 383 433 383 299 384 433 384 297 384 297 385 433 385 295 385 295 386 433 386 294 386 294 387 433 387 292 387 292 388 433 388 290 388 290 389 433 389 434 389 290 390 434 390 288 390 288 391 434 391 423 391 288 392 423 392 286 392 286 393 423 393 284 393 284 394 423 394 422 394 284 395 422 395 283 395 283 396 422 396 281 396 281 397 422 397 279 397 279 398 422 398 277 398 277 399 422 399 328 399 277 400 328 400 275 400 275 401 328 401 274 401 274 402 328 402 272 402 272 403 328 403 326 403 272 404 326 404 270 404 270 405 326 405 324 405 270 406 324 406 268 406 268 407 324 407 323 407 268 408 323 408 266 408 266 409 323 409 321 409 266 410 321 410 265 410 265 411 321 411 320 411 265 412 320 412 263 412 263 413 320 413 261 413 261 414 320 414 318 414 318 415 316 415 430 415 430 416 316 416 315 416 430 417 315 417 313 417 313 418 311 418 430 418 430 419 311 419 330 419 430 420 330 420 435 420 435 420 330 420 436 420 435 421 436 421 437 421 437 421 436 421 438 421 437 422 438 422 439 422 439 423 438 423 440 423 439 424 440 424 441 424 441 425 440 425 442 425 441 426 442 426 443 426 443 426 442 426 444 426 443 427 444 427 445 427 445 427 444 427 446 427 445 428 446 428 447 428 447 428 446 428 448 428 447 429 448 429 449 429 449 429 448 429 450 429 449 430 450 430 451 430 451 431 450 431 452 431 451 432 452 432 453 432 453 433 452 433 454 433 453 434 454 434 455 434 455 434 454 434 456 434 455 435 456 435 457 435 457 435 456 435 458 435 457 436 458 436 459 436 459 436 458 436 460 436 459 437 460 437 461 437 461 437 460 437 462 437 461 438 462 438 463 438 463 438 462 438 464 438 463 439 464 439 465 439 465 439 464 439 466 439 465 440 466 440 467 440 467 440 466 440 468 440 467 441 468 441 469 441 469 442 468 442 470 442 469 443 470 443 471 443 311 444 310 444 330 444 330 445 310 445 308 445 330 446 308 446 307 446 307 447 305 447 330 447 330 448 305 448 302 448 330 449 302 449 301 449 469 450 471 450 472 450 472 451 471 451 473 451 472 452 473 452 474 452 474 453 473 453 475 453 474 453 475 453 476 453 476 454 475 454 477 454 476 455 477 455 390 455 390 456 477 456 388 456 388 457 477 457 478 457 388 458 478 458 386 458 386 459 478 459 479 459 386 460 479 460 384 460 384 461 479 461 480 461 384 462 480 462 382 462 382 463 480 463 481 463 382 464 481 464 381 464 381 465 481 465 482 465 381 466 482 466 379 466 379 467 482 467 483 467 379 468 483 468 377 468 377 469 483 469 484 469 377 470 484 470 374 470 374 471 484 471 485 471 374 472 485 472 366 472 366 473 485 473 486 473 366 474 486 474 363 474 363 475 486 475 429 475 363 476 429 476 362 476 473 453 487 453 475 453 475 454 487 454 488 454 475 454 488 454 477 454 477 477 488 477 478 477 487 454 489 454 488 454 488 477 489 477 490 477 488 477 490 477 478 477 478 478 490 478 479 478 489 477 491 477 490 477 490 478 491 478 492 478 490 478 492 478 479 478 479 479 492 479 480 479 491 478 493 478 492 478 492 479 493 479 494 479 492 479 494 479 480 479 480 480 494 480 481 480 493 479 495 479 494 479 494 480 495 480 496 480 494 480 496 480 481 480 481 481 496 481 482 481 495 480 497 480 496 480 496 481 497 481 498 481 496 481 498 481 482 481 482 482 498 482 483 482 497 481 499 481 498 481 498 482 499 482 500 482 498 482 500 482 483 482 483 483 500 483 484 483 499 482 501 482 500 482 500 483 501 483 502 483 500 483 502 483 484 483 484 484 502 484 485 484 501 483 503 483 502 483 502 484 503 484 504 484 502 484 504 484 485 484 485 485 504 485 486 485 503 484 505 484 504 484 504 485 505 485 506 485 504 485 506 485 486 485 486 486 506 486 429 486 505 485 507 485 506 485 506 486 507 486 508 486 506 486 508 486 429 486 429 487 508 487 428 487 507 486 509 486 508 486 508 487 509 487 510 487 508 487 510 487 428 487 428 488 510 488 511 488 428 489 511 489 427 489 427 490 511 490 512 490 427 491 512 491 426 491 426 492 512 492 425 492 509 487 513 487 510 487 510 493 513 493 514 493 510 494 514 494 511 494 511 495 514 495 515 495 511 496 515 496 512 496 512 492 515 492 516 492 512 492 516 492 425 492 425 497 516 497 333 497 425 498 333 498 339 498 339 499 333 499 337 499 337 500 333 500 335 500 515 492 517 492 516 492 516 497 517 497 518 497 516 497 518 497 333 497 339 501 340 501 425 501 425 502 340 502 342 502 425 503 342 503 343 503 343 504 345 504 425 504 425 505 345 505 347 505 425 506 347 506 348 506 348 507 350 507 425 507 363 508 364 508 366 508 390 509 392 509 476 509 476 510 392 510 519 510 476 453 519 453 474 453 474 511 519 511 520 511 474 512 520 512 472 512 472 513 520 513 521 513 472 514 521 514 469 514 469 515 521 515 467 515 392 516 393 516 519 516 519 517 393 517 520 517 393 518 395 518 520 518 520 519 395 519 521 519 521 520 395 520 522 520 522 521 395 521 397 521 522 522 397 522 523 522 523 523 397 523 398 523 523 524 398 524 524 524 524 525 398 525 400 525 524 526 400 526 525 526 525 527 400 527 402 527 525 528 402 528 526 528 526 529 402 529 404 529 526 530 404 530 527 530 527 531 404 531 406 531 527 532 406 532 528 532 528 533 406 533 408 533 528 534 408 534 529 534 529 535 408 535 409 535 529 536 409 536 530 536 530 537 409 537 411 537 530 538 411 538 531 538 531 539 411 539 413 539 531 540 413 540 532 540 532 541 413 541 331 541 532 542 331 542 533 542 533 543 331 543 332 543 533 544 332 544 424 544 533 545 424 545 434 545 434 546 424 546 423 546 443 426 434 426 441 426 441 426 434 426 433 426 441 547 433 547 439 547 439 548 433 548 432 548 439 549 432 549 437 549 437 550 432 550 431 550 437 421 431 421 435 421 435 421 431 421 430 421 434 427 443 427 533 427 533 427 443 427 445 427 533 428 445 428 532 428 532 428 445 428 447 428 532 429 447 429 531 429 531 429 447 429 449 429 531 430 449 430 530 430 530 551 449 551 451 551 530 552 451 552 529 552 529 433 451 433 453 433 529 434 453 434 528 434 528 434 453 434 455 434 528 435 455 435 527 435 527 435 455 435 457 435 527 436 457 436 526 436 526 436 457 436 459 436 526 437 459 437 525 437 525 437 459 437 461 437 525 438 461 438 524 438 524 438 461 438 463 438 524 439 463 439 523 439 523 439 463 439 465 439 523 440 465 440 522 440 522 440 465 440 467 440 522 553 467 553 521 553 152 554 534 554 151 554 151 555 534 555 535 555 151 556 535 556 365 556 365 557 535 557 367 557 367 558 535 558 368 558 368 559 535 559 536 559 368 560 536 560 369 560 369 561 536 561 537 561 369 562 537 562 370 562 370 563 537 563 538 563 370 564 538 564 371 564 371 565 538 565 539 565 371 566 539 566 372 566 372 567 539 567 540 567 372 568 540 568 373 568 373 569 540 569 541 569 373 570 541 570 375 570 375 571 541 571 542 571 375 572 542 572 376 572 376 572 542 572 543 572 376 573 543 573 378 573 378 573 543 573 544 573 378 574 544 574 380 574 380 575 544 575 545 575 380 576 545 576 383 576 383 577 545 577 546 577 383 578 546 578 385 578 385 579 546 579 547 579 385 580 547 580 387 580 387 581 547 581 548 581 387 582 548 582 389 582 389 583 548 583 549 583 389 584 549 584 391 584 391 585 549 585 550 585 391 586 550 586 394 586 394 587 550 587 551 587 394 588 551 588 396 588 396 589 551 589 552 589 396 590 552 590 399 590 399 591 552 591 553 591 399 592 553 592 401 592 401 593 553 593 554 593 401 117 554 117 403 117 403 594 554 594 555 594 403 595 555 595 405 595 405 596 555 596 556 596 405 597 556 597 407 597 407 119 556 119 557 119 407 120 557 120 410 120 410 598 557 598 558 598 410 599 558 599 412 599 412 600 558 600 559 600 412 601 559 601 414 601 414 602 559 602 560 602 414 603 560 603 415 603 415 604 560 604 561 604 415 605 561 605 416 605 416 606 561 606 562 606 416 607 562 607 417 607 417 608 562 608 563 608 417 609 563 609 418 609 418 610 563 610 564 610 418 611 564 611 419 611 419 612 564 612 565 612 419 613 565 613 420 613 420 614 565 614 566 614 420 615 566 615 421 615 421 616 566 616 567 616 421 617 567 617 329 617 329 618 567 618 568 618 329 619 568 619 83 619 83 620 568 620 184 620 184 621 568 621 183 621 183 622 568 622 569 622 183 623 569 623 182 623 182 624 569 624 570 624 182 625 570 625 181 625 181 626 570 626 571 626 181 627 571 627 180 627 180 628 571 628 572 628 180 629 572 629 179 629 179 630 572 630 573 630 179 631 573 631 178 631 178 632 573 632 574 632 178 603 574 603 177 603 177 633 574 633 575 633 177 634 575 634 176 634 176 122 575 122 576 122 176 121 576 121 175 121 175 635 576 635 577 635 175 636 577 636 174 636 174 637 577 637 578 637 174 638 578 638 173 638 173 639 578 639 579 639 173 640 579 640 172 640 172 641 579 641 580 641 172 642 580 642 171 642 171 643 580 643 581 643 171 644 581 644 170 644 170 593 581 593 582 593 170 112 582 112 169 112 169 645 582 645 583 645 169 646 583 646 168 646 168 647 583 647 584 647 168 648 584 648 167 648 167 649 584 649 585 649 167 650 585 650 166 650 166 651 585 651 586 651 166 652 586 652 165 652 165 653 586 653 587 653 165 654 587 654 164 654 164 655 587 655 588 655 164 656 588 656 163 656 163 657 588 657 589 657 163 658 589 658 162 658 162 659 589 659 590 659 162 660 590 660 161 660 161 661 590 661 591 661 161 662 591 662 160 662 160 662 591 662 592 662 160 663 592 663 159 663 159 663 592 663 593 663 159 664 593 664 158 664 158 665 593 665 594 665 158 666 594 666 157 666 157 667 594 667 595 667 157 668 595 668 156 668 156 669 595 669 596 669 156 670 596 670 155 670 155 671 596 671 597 671 155 672 597 672 154 672 154 673 597 673 598 673 154 674 598 674 153 674 153 675 598 675 599 675 153 676 599 676 152 676 152 677 599 677 534 677 536 678 535 678 534 678 536 679 534 679 599 679 537 680 536 680 599 680 537 680 599 680 598 680 538 88 537 88 598 88 538 88 598 88 597 88 539 89 538 89 597 89 539 89 597 89 596 89 540 90 539 90 596 90 540 90 596 90 595 90 541 681 540 681 595 681 541 681 595 681 594 681 542 682 541 682 594 682 542 682 594 682 593 682 543 683 542 683 593 683 543 683 593 683 592 683 544 98 543 98 592 98 544 98 592 98 591 98 545 99 544 99 591 99 545 99 591 99 590 99 546 102 545 102 590 102 546 102 590 102 589 102 547 103 546 103 589 103 547 103 589 103 588 103 548 104 547 104 588 104 548 104 588 104 587 104 549 684 548 684 587 684 549 684 587 684 586 684 550 109 549 109 586 109 550 109 586 109 585 109 551 110 550 110 585 110 551 110 585 110 584 110 552 111 551 111 584 111 552 111 584 111 583 111 553 112 552 112 583 112 553 685 583 685 582 685 554 686 553 686 582 686 554 593 582 593 581 593 555 117 554 117 581 117 555 117 581 117 580 117 556 118 555 118 580 118 556 118 580 118 579 118 557 119 556 119 579 119 557 119 579 119 578 119 558 120 557 120 578 120 558 120 578 120 577 120 559 121 558 121 577 121 559 687 577 687 576 687 560 688 559 688 576 688 560 689 576 689 575 689 561 690 560 690 575 690 561 123 575 123 574 123 562 124 561 124 574 124 562 124 574 124 573 124 563 127 562 127 573 127 563 127 573 127 572 127 564 128 563 128 572 128 564 128 572 128 571 128 565 129 564 129 571 129 565 129 571 129 570 129 566 130 565 130 570 130 566 130 570 130 569 130 567 131 566 131 569 131 567 131 569 131 568 131 334 278 333 278 365 278 365 278 333 278 518 278 365 691 518 691 151 691 151 692 518 692 150 692 1 693 148 693 3 693 3 693 148 693 150 693 3 693 150 693 5 693 5 693 150 693 7 693 7 693 150 693 9 693 9 693 150 693 513 693 9 693 513 693 509 693 148 693 1 693 146 693 146 693 1 693 81 693 146 693 81 693 144 693 144 693 81 693 142 693 142 693 81 693 79 693 142 693 79 693 140 693 140 693 79 693 77 693 140 693 77 693 138 693 138 693 77 693 136 693 136 693 77 693 75 693 136 693 75 693 134 693 134 693 75 693 73 693 134 693 73 693 132 693 132 693 73 693 130 693 130 693 73 693 71 693 130 693 71 693 128 693 128 693 71 693 126 693 126 693 71 693 69 693 126 693 69 693 124 693 124 693 69 693 122 693 122 693 69 693 67 693 122 693 67 693 120 693 120 693 67 693 118 693 118 693 67 693 65 693 118 693 65 693 116 693 116 693 65 693 63 693 116 693 63 693 114 693 114 693 63 693 112 693 112 693 63 693 61 693 112 693 61 693 110 693 110 693 61 693 108 693 108 693 61 693 59 693 108 693 59 693 106 693 106 693 59 693 104 693 104 693 59 693 57 693 104 693 57 693 102 693 102 693 57 693 100 693 100 693 57 693 55 693 100 693 55 693 98 693 98 693 55 693 96 693 96 693 55 693 53 693 96 693 53 693 94 693 94 693 53 693 51 693 94 693 51 693 92 693 92 693 51 693 90 693 90 693 51 693 49 693 90 693 49 693 88 693 88 693 49 693 47 693 88 693 47 693 86 693 86 693 47 693 84 693 84 693 47 693 45 693 84 693 45 693 82 693 82 693 45 693 43 693 82 693 43 693 41 693 41 693 39 693 82 693 82 693 39 693 442 693 82 693 442 693 440 693 442 693 39 693 444 693 444 693 39 693 37 693 444 693 37 693 446 693 446 693 37 693 35 693 446 693 35 693 448 693 448 693 35 693 450 693 450 693 35 693 33 693 450 693 33 693 452 693 452 693 33 693 454 693 454 693 33 693 31 693 454 693 31 693 456 693 456 693 31 693 458 693 458 693 31 693 29 693 458 693 29 693 460 693 460 693 29 693 462 693 462 693 29 693 27 693 462 693 27 693 464 693 464 693 27 693 466 693 466 693 27 693 25 693 466 693 25 693 468 693 468 693 25 693 470 693 470 693 25 693 23 693 470 693 23 693 471 693 471 693 23 693 473 693 473 693 23 693 21 693 473 693 21 693 487 693 487 693 21 693 489 693 489 693 21 693 19 693 489 693 19 693 491 693 491 693 19 693 493 693 493 693 19 693 17 693 493 693 17 693 495 693 495 693 17 693 497 693 497 693 17 693 15 693 497 693 15 693 499 693 499 693 15 693 501 693 501 693 15 693 13 693 501 693 13 693 503 693 503 693 13 693 505 693 505 693 13 693 11 693 505 693 11 693 507 693 507 693 11 693 509 693 509 693 11 693 9 693 330 693 82 693 436 693 436 693 82 693 438 693 438 693 82 693 440 693 518 693 517 693 150 693 150 693 517 693 515 693 150 693 515 693 514 693 514 693 513 693 150 693</p>
        </triangles>
        <triangles count="1" material="mat_1">
          <input semantic="VERTEX" source="#vert_0" offset="0"/>
          <input semantic="NORMAL" source="#norm_0" offset="1"/>
          <p>0 0 1 0 2 0</p>
        </triangles>
      </mesh>
    </geometry>
  </library_geometries>
  <library_visual_scenes>
    <visual_scene id="DefaultScene">
      <node id="node_0bcb7024_5ca3_4e62_8bad_fee94c5b6ef3" type="NODE">
        <matrix>1 0 0 0 0 1 0 0 0 0 1 0 0 0 0 1</matrix>
        <node id="node_14f6d716_8817_4e31_b1b3_3cc4417acd0d" type="NODE">
          <matrix>1 0 0 0 0 1 0 0 0 0 1 0 0 0 0 1</matrix>
          <node id="node_14f6d716_8817_4e31_b1b3_3cc4417acd0d_mesh0" type="NODE">
            <matrix>1 0 0 0 0 1 0 0 0 0 1 0 0 0 0 1</matrix>
            <instance_geometry url="#geometry_9466d9d4_c00d_433c_b046_5fddeca2917a">
              <bind_material>
                <technique_common>
                  <instance_material symbol="mat_1" target="#mat_1"/>
                </technique_common>
              </bind_material>
            </instance_geometry>
          </node>
        </node>
      </node>
    </visual_scene>
  </library_visual_scenes>
  <scene>
    <instance_visual_scene url="#DefaultScene"/>
  </scene>
</COLLADA>
